<svg width="189" height="49" viewBox="0 0 189 49" fill="none" xmlns="http://www.w3.org/2000/svg">
<path d="M43.4746 23.7247C42.8991 24.3318 42.2687 24.8674 41.6168 25.3796C40.9648 25.8919 40.2845 26.3626 39.5843 26.805C38.1872 27.6915 36.7119 28.455 35.185 29.0887C33.6582 29.7257 32.0847 30.2446 30.4797 30.6455C28.8747 31.0413 27.2414 31.3157 25.5998 31.4954L24.3656 31.6101C23.9532 31.6367 23.5407 31.6517 23.1282 31.6733C22.922 31.6817 22.7157 31.6966 22.5095 31.6999L21.8907 31.7033C21.4783 31.7033 21.0641 31.7133 20.6516 31.7033L19.4142 31.655C19.2079 31.6451 19.0017 31.6434 18.7955 31.6268L18.1784 31.5752L16.9443 31.4738L15.7151 31.3191C12.4402 30.8933 9.21188 30.1382 6.06836 29.1336C9.21687 30.1249 12.4469 30.8667 15.7201 31.2775L16.9476 31.4272L18.1817 31.5236L18.7988 31.5719C19.005 31.5885 19.2113 31.5885 19.4175 31.5985L20.6533 31.6417C21.0658 31.6501 21.4783 31.6367 21.8907 31.6367L22.5095 31.6318C22.7157 31.6268 22.922 31.6118 23.1265 31.6018C23.5374 31.5785 23.9498 31.5619 24.3607 31.5336L25.5915 31.4139C27.2297 31.2276 28.8564 30.9465 30.4548 30.5457C32.0515 30.1398 33.6182 29.6159 35.1368 28.9739C36.6553 28.3352 38.119 27.5701 39.5061 26.682C40.1997 26.2395 40.875 25.7672 41.5203 25.2566C42.164 24.7476 42.7927 24.2071 43.3499 23.6133L43.4746 23.7247Z" fill="white"/>
<path d="M46.021 26.7652C44.7254 28.0043 43.2584 29.0255 41.7365 29.9503C40.2047 30.8567 38.5963 31.6351 36.9331 32.2688C33.6066 33.5395 30.0656 34.2181 26.5112 34.3312C26.0671 34.3462 25.6214 34.3345 25.1773 34.3379C24.9544 34.3345 24.7332 34.3429 24.5104 34.3312L23.8451 34.2963L23.1798 34.2614L22.8471 34.2431C22.7357 34.2364 22.6259 34.2215 22.5161 34.2098L21.1905 34.0701C19.4308 33.8306 17.6761 33.5146 15.9646 33.0339C12.53 32.1158 9.21687 30.7736 6.06836 29.1319C9.22352 30.7619 12.54 32.0908 15.9746 32.994C17.6861 33.468 19.4391 33.7757 21.1972 34.0086L22.5211 34.1433C22.6309 34.1533 22.7423 34.1682 22.8521 34.1749L23.1848 34.1915L23.85 34.2248L24.5153 34.258C24.7366 34.268 24.9594 34.2597 25.1806 34.2614C25.6247 34.2564 26.0671 34.2664 26.5112 34.2497C30.0556 34.1233 33.5833 33.4331 36.8915 32.154C38.5448 31.5154 40.1431 30.7336 41.665 29.8272C43.1736 28.9041 44.6355 27.8745 45.9046 26.6504L46.0244 26.7668L46.021 26.7652Z" fill="white"/>
<path d="M54.7408 39.956L59.4644 16.2499H67.7307L63.0071 39.956H54.7408Z" fill="#202125"/>
<path d="M54.7408 39.956L59.4644 16.2499H67.7307L63.0071 39.956H54.7408Z" fill="white"/>
<path d="M80.24 40.3485C77.7035 40.3485 75.5014 39.8961 73.6352 38.993C71.7691 38.0898 70.3187 36.8274 69.2825 35.2091C68.2463 33.5908 67.7291 31.703 67.7291 29.5458C67.7291 26.9212 68.3561 24.581 69.6102 22.5253C70.8643 20.4695 72.599 18.8445 74.8145 17.6486C77.0299 16.4528 79.5663 15.8557 82.4254 15.8557C85.1083 15.8557 87.4335 16.4245 89.4011 17.5621C91.3687 18.6998 92.7907 20.2732 93.6656 22.2857L86.5802 25.6538C86.1428 24.5461 85.5224 23.7444 84.7207 23.2488C83.919 22.7531 83.0076 22.5053 81.9864 22.5053C80.877 22.5053 79.879 22.7897 78.9909 23.3585C78.101 23.9274 77.4091 24.6925 76.9135 25.6555C76.4178 26.6185 76.17 27.7545 76.17 29.0668C76.17 30.3791 76.5642 31.545 77.3509 32.3916C78.1376 33.2382 79.2902 33.6606 80.8055 33.6606C81.8832 33.6606 82.8529 33.4195 83.7145 32.9388C84.5743 32.4581 85.3112 31.6631 85.9232 30.5554L92.0024 34.2295C90.8647 36.1538 89.268 37.6557 87.2122 38.7352C85.1565 39.8146 82.8313 40.3535 80.2366 40.3535L80.24 40.3485Z" fill="#202125"/>
<path d="M80.24 40.3485C77.7035 40.3485 75.5014 39.8961 73.6352 38.993C71.7691 38.0898 70.3187 36.8274 69.2825 35.2091C68.2463 33.5908 67.7291 31.703 67.7291 29.5458C67.7291 26.9212 68.3561 24.581 69.6102 22.5253C70.8643 20.4695 72.599 18.8445 74.8145 17.6486C77.0299 16.4528 79.5663 15.8557 82.4254 15.8557C85.1083 15.8557 87.4335 16.4245 89.4011 17.5621C91.3687 18.6998 92.7907 20.2732 93.6656 22.2857L86.5802 25.6538C86.1428 24.5461 85.5224 23.7444 84.7207 23.2488C83.919 22.7531 83.0076 22.5053 81.9864 22.5053C80.877 22.5053 79.879 22.7897 78.9909 23.3585C78.101 23.9274 77.4091 24.6925 76.9135 25.6555C76.4178 26.6185 76.17 27.7545 76.17 29.0668C76.17 30.3791 76.5642 31.545 77.3509 32.3916C78.1376 33.2382 79.2902 33.6606 80.8055 33.6606C81.8832 33.6606 82.8529 33.4195 83.7145 32.9388C84.5743 32.4581 85.3112 31.6631 85.9232 30.5554L92.0024 34.2295C90.8647 36.1538 89.268 37.6557 87.2122 38.7352C85.1565 39.8146 82.8313 40.3535 80.2366 40.3535L80.24 40.3485Z" fill="white"/>
<path d="M92.4781 39.956L98.9514 7.50121H107.263L100.789 39.956H92.4781Z" fill="#202125"/>
<path d="M92.4781 39.956L98.9514 7.50121H107.263L100.789 39.956H92.4781Z" fill="white"/>
<path d="M130.265 20.8188C129.317 19.2586 127.975 18.0411 126.24 17.1663C124.505 16.2914 122.428 15.854 120.008 15.854C117.151 15.854 114.642 16.4528 112.485 17.6486C110.326 18.8445 108.65 20.4695 107.456 22.5252C106.258 24.581 105.661 26.9212 105.661 29.5441C105.661 31.7313 106.186 33.634 107.236 35.2523C108.285 36.8707 109.751 38.1248 111.632 39.0146C113.513 39.9044 115.722 40.3485 118.258 40.3485C120.036 40.3485 121.794 40.114 123.529 39.6483C125.264 39.1826 126.875 38.3959 128.362 37.2865L124.906 32.0822C124.148 32.6943 123.266 33.1683 122.26 33.5026C121.254 33.8386 120.226 34.0066 119.176 34.0066C117.368 34.0066 116.013 33.6207 115.11 32.8473C114.385 32.2286 113.949 31.3304 113.807 30.1578H131.205C131.351 29.5441 131.468 28.9187 131.554 28.2767C131.642 27.6347 131.686 26.9644 131.686 26.2642C131.686 24.1935 131.212 22.3789 130.265 20.8188ZM114.388 25.4991C114.81 24.3482 115.451 23.4367 116.312 22.7648C117.172 22.0945 118.273 21.7585 119.614 21.7585C120.663 21.7585 121.545 21.9714 122.26 22.3938C122.975 22.8163 123.486 23.4151 123.792 24.1868C123.976 24.6525 124.063 25.1848 124.051 25.7835H114.29C114.32 25.6887 114.353 25.5939 114.388 25.4991Z" fill="#202125"/>
<path d="M130.265 20.8188C129.317 19.2586 127.975 18.0411 126.24 17.1663C124.505 16.2914 122.428 15.854 120.008 15.854C117.151 15.854 114.642 16.4528 112.485 17.6486C110.326 18.8445 108.65 20.4695 107.456 22.5252C106.258 24.581 105.661 26.9212 105.661 29.5441C105.661 31.7313 106.186 33.634 107.236 35.2523C108.285 36.8707 109.751 38.1248 111.632 39.0146C113.513 39.9044 115.722 40.3485 118.258 40.3485C120.036 40.3485 121.794 40.114 123.529 39.6483C125.264 39.1826 126.875 38.3959 128.362 37.2865L124.906 32.0822C124.148 32.6943 123.266 33.1683 122.26 33.5026C121.254 33.8386 120.226 34.0066 119.176 34.0066C117.368 34.0066 116.013 33.6207 115.11 32.8473C114.385 32.2286 113.949 31.3304 113.807 30.1578H131.205C131.351 29.5441 131.468 28.9187 131.554 28.2767C131.642 27.6347 131.686 26.9644 131.686 26.2642C131.686 24.1935 131.212 22.3789 130.265 20.8188ZM114.388 25.4991C114.81 24.3482 115.451 23.4367 116.312 22.7648C117.172 22.0945 118.273 21.7585 119.614 21.7585C120.663 21.7585 121.545 21.9714 122.26 22.3938C122.975 22.8163 123.486 23.4151 123.792 24.1868C123.976 24.6525 124.063 25.1848 124.051 25.7835H114.29C114.32 25.6887 114.353 25.5939 114.388 25.4991Z" fill="white"/>
<path d="M153.901 16.2482L153.323 19.0823C152.729 18.1742 151.965 17.469 151.036 16.97C149.65 16.2266 147.995 15.854 146.071 15.854C144.321 15.854 142.666 16.1983 141.106 16.8819C139.546 17.5688 138.176 18.5235 136.995 19.7476C135.814 20.9718 134.889 22.4155 134.219 24.077C133.547 25.7403 133.212 27.5615 133.212 29.5441C133.212 31.8494 133.685 33.802 134.633 35.4054C135.581 37.0104 136.827 38.2345 138.373 39.0795C139.919 39.926 141.537 40.3485 143.228 40.3485C145.356 40.3485 147.209 39.8163 148.784 38.7518C149.243 38.4424 149.675 38.0932 150.084 37.704L149.614 39.9543H157.487L162.211 16.2482H153.901ZM149.045 32.8257C148.2 33.3795 147.224 33.6556 146.116 33.6556C144.685 33.6556 143.578 33.2481 142.791 32.4315C142.004 31.6148 141.61 30.5221 141.61 29.1516C141.61 27.7811 141.85 26.6883 142.332 25.6954C142.813 24.7041 143.483 23.924 144.344 23.3552C145.203 22.7864 146.172 22.502 147.252 22.502C148.681 22.502 149.79 22.9178 150.577 23.7494C151.363 24.581 151.758 25.6821 151.758 27.0509C151.758 28.4198 151.516 29.5158 151.036 30.5071C150.555 31.4984 149.891 32.2718 149.045 32.8257Z" fill="#202125"/>
<path d="M153.901 16.2482L153.323 19.0823C152.729 18.1742 151.965 17.469 151.036 16.97C149.65 16.2266 147.995 15.854 146.071 15.854C144.321 15.854 142.666 16.1983 141.106 16.8819C139.546 17.5688 138.176 18.5235 136.995 19.7476C135.814 20.9718 134.889 22.4155 134.219 24.077C133.547 25.7403 133.212 27.5615 133.212 29.5441C133.212 31.8494 133.685 33.802 134.633 35.4054C135.581 37.0104 136.827 38.2345 138.373 39.0795C139.919 39.926 141.537 40.3485 143.228 40.3485C145.356 40.3485 147.209 39.8163 148.784 38.7518C149.243 38.4424 149.675 38.0932 150.084 37.704L149.614 39.9543H157.487L162.211 16.2482H153.901ZM149.045 32.8257C148.2 33.3795 147.224 33.6556 146.116 33.6556C144.685 33.6556 143.578 33.2481 142.791 32.4315C142.004 31.6148 141.61 30.5221 141.61 29.1516C141.61 27.7811 141.85 26.6883 142.332 25.6954C142.813 24.7041 143.483 23.924 144.344 23.3552C145.203 22.7864 146.172 22.502 147.252 22.502C148.681 22.502 149.79 22.9178 150.577 23.7494C151.363 24.581 151.758 25.6821 151.758 27.0509C151.758 28.4198 151.516 29.5158 151.036 30.5071C150.555 31.4984 149.891 32.2718 149.045 32.8257Z" fill="white"/>
<path d="M188.663 26.833L186.039 39.9543H177.729L180.177 27.6197C180.498 26.1045 180.404 24.9386 179.893 24.122C179.384 23.3053 178.443 22.8961 177.072 22.8961C175.702 22.8961 174.492 23.3336 173.529 24.2084C172.568 25.0833 171.896 26.4255 171.518 28.2335L169.157 39.9543H160.845L165.569 16.2482H173.443L172.951 18.6599C173.651 18.0145 174.421 17.4873 175.257 17.0798C176.934 16.2631 178.647 15.854 180.397 15.854C182.409 15.854 184.114 16.2698 185.515 17.1014C186.913 17.9314 187.913 19.1572 188.51 20.7755C189.107 22.3938 189.159 24.413 188.663 26.833Z" fill="#202125"/>
<path d="M188.663 26.833L186.039 39.9543H177.729L180.177 27.6197C180.498 26.1045 180.404 24.9386 179.893 24.122C179.384 23.3053 178.443 22.8961 177.072 22.8961C175.702 22.8961 174.492 23.3336 173.529 24.2084C172.568 25.0833 171.896 26.4255 171.518 28.2335L169.157 39.9543H160.845L165.569 16.2482H173.443L172.951 18.6599C173.651 18.0145 174.421 17.4873 175.257 17.0798C176.934 16.2631 178.647 15.854 180.397 15.854C182.409 15.854 184.114 16.2698 185.515 17.1014C186.913 17.9314 187.913 19.1572 188.51 20.7755C189.107 22.3938 189.159 24.413 188.663 26.833Z" fill="white"/>
<path d="M64.0566 14.4768C64.4907 11.2285 67.3764 8.63221 70.9557 7.87377C67.6226 6.78768 65.4604 3.95019 65.8945 0.703551C65.4604 3.95186 62.5747 6.54817 58.9954 7.30661C62.3285 8.3927 64.4907 11.2285 64.0566 14.4768Z" fill="#202125"/>
<path d="M64.0566 14.4768C64.4907 11.2285 67.3764 8.63221 70.9557 7.87377C67.6226 6.78768 65.4604 3.95019 65.8945 0.703551C65.4604 3.95186 62.5747 6.54817 58.9954 7.30661C62.3285 8.3927 64.4907 11.2285 64.0566 14.4768Z" fill="white"/>
<path d="M70.7844 4.51736C70.9258 3.45288 71.8738 2.60131 73.0464 2.35182C71.9537 1.99589 71.2451 1.06614 71.3865 0C71.2451 1.06447 70.2971 1.91605 69.1245 2.16554C70.2172 2.52147 70.9258 3.45122 70.7844 4.51736Z" fill="#202125"/>
<path d="M70.7844 4.51736C70.9258 3.45288 71.8738 2.60131 73.0464 2.35182C71.9537 1.99589 71.2451 1.06614 71.3865 0C71.2451 1.06447 70.2971 1.91605 69.1245 2.16554C70.2172 2.52147 70.9258 3.45122 70.7844 4.51736Z" fill="white"/>
<path d="M53.2555 20.7755C53.1258 20.5576 52.9894 20.3481 52.848 20.1452L49.613 22.0063C49.7943 22.2225 49.7661 22.5435 49.5498 22.7248L48.319 23.7577L50.0671 25.8417C51.0335 26.9927 50.8821 28.7092 49.7328 29.6738L40.9892 19.2553C42.1401 18.289 43.8566 18.4403 44.8213 19.5896L46.5693 21.6737L47.8001 20.6408C48.0163 20.4595 48.3373 20.4878 48.5186 20.704L50.7756 17.943C50.3864 17.6403 49.9756 17.3642 49.5382 17.123C48.0064 16.2781 46.3814 15.854 44.6616 15.854C42.5609 15.854 40.7164 16.3862 39.128 17.4507C38.659 17.7651 38.2182 18.116 37.8024 18.5102L38.2747 16.2482H30.4026L27.9876 28.3383C32.5732 26.8962 37.014 24.3548 40.3155 20.0237L48.9893 30.3159C47.4974 31.5217 47.1348 31.8926 43.8666 33.5559C39.612 35.7197 33.3017 37.6524 26.203 37.2749L23.9726 48.4418H32.2821L34.5657 37.1102C35.1628 38.0266 35.9346 38.7335 36.876 39.2341C38.2747 39.9776 39.9214 40.3502 41.8174 40.3502C43.5954 40.3502 45.2587 40.0075 46.8038 39.3223C48.349 38.637 49.7128 37.6757 50.8937 36.4349C52.0746 35.1958 52.9994 33.7455 53.6713 32.0839C54.3416 30.4206 54.6776 28.5994 54.6776 26.6168C54.6776 24.3132 54.2036 22.3656 53.2555 20.7772V20.7755ZM49.159 30.1745L40.4536 19.8275L40.8328 19.4L49.5665 29.8385L49.159 30.1745Z" fill="#202125"/>
<path d="M53.2555 20.7755C53.1258 20.5576 52.9894 20.3481 52.848 20.1452L49.613 22.0063C49.7943 22.2225 49.7661 22.5435 49.5498 22.7248L48.319 23.7577L50.0671 25.8417C51.0335 26.9927 50.8821 28.7092 49.7328 29.6738L40.9892 19.2553C42.1401 18.289 43.8566 18.4403 44.8213 19.5896L46.5693 21.6737L47.8001 20.6408C48.0163 20.4595 48.3373 20.4878 48.5186 20.704L50.7756 17.943C50.3864 17.6403 49.9756 17.3642 49.5382 17.123C48.0064 16.2781 46.3814 15.854 44.6616 15.854C42.5609 15.854 40.7164 16.3862 39.128 17.4507C38.659 17.7651 38.2182 18.116 37.8024 18.5102L38.2747 16.2482H30.4026L27.9876 28.3383C32.5732 26.8962 37.014 24.3548 40.3155 20.0237L48.9893 30.3159C47.4974 31.5217 47.1348 31.8926 43.8666 33.5559C39.612 35.7197 33.3017 37.6524 26.203 37.2749L23.9726 48.4418H32.2821L34.5657 37.1102C35.1628 38.0266 35.9346 38.7335 36.876 39.2341C38.2747 39.9776 39.9214 40.3502 41.8174 40.3502C43.5954 40.3502 45.2587 40.0075 46.8038 39.3223C48.349 38.637 49.7128 37.6757 50.8937 36.4349C52.0746 35.1958 52.9994 33.7455 53.6713 32.0839C54.3416 30.4206 54.6776 28.5994 54.6776 26.6168C54.6776 24.3132 54.2036 22.3656 53.2555 20.7772V20.7755ZM49.159 30.1745L40.4536 19.8275L40.8328 19.4L49.5665 29.8385L49.159 30.1745Z" fill="white"/>
<path d="M6.5784 29.5707L6.06779 29.1333C6.06779 29.1333 15.9441 31.3338 25.852 28.932C26.1398 26.4738 26.1314 23.9623 25.1152 21.7385C24.9705 21.4209 24.8058 21.1148 24.6245 20.8204C23.1609 18.4453 20.5712 16.8253 17.8302 16.1933C16.2568 15.8307 14.6285 15.7642 13.0235 15.9072C12.2151 15.9787 11.4134 16.1035 10.6201 16.2698C9.87494 16.4261 9.06827 16.5742 8.37637 16.8902C6.01457 17.9646 3.99539 19.5514 2.49349 21.682C1.34253 23.3153 0.534194 25.1931 0.189904 27.1624C-0.342333 30.1994 0.228158 33.496 2.10429 35.9409C3.70266 38.0233 6.14264 39.3655 8.70402 39.946C11.2654 40.5265 13.9449 40.3884 16.5246 39.9028C18.8947 39.457 21.3413 38.6204 23.0212 36.9505C17.6988 36.1472 12.0571 33.9567 6.58173 29.5707H6.5784ZM8.74727 25.4991C9.16973 24.3482 9.81174 23.4367 10.6716 22.7648C11.5315 22.0945 12.6326 21.7585 13.9732 21.7585C15.0227 21.7585 15.9058 21.9714 16.6194 22.3938C17.3346 22.8163 17.8452 23.4151 18.1512 24.1868C18.3358 24.6525 18.4223 25.1848 18.4107 25.7835H8.64914C8.67908 25.6887 8.71234 25.5939 8.74727 25.4991Z" fill="#202125"/>
<path d="M6.5784 29.5707L6.06779 29.1333C6.06779 29.1333 15.9441 31.3338 25.852 28.932C26.1398 26.4738 26.1314 23.9623 25.1152 21.7385C24.9705 21.4209 24.8058 21.1148 24.6245 20.8204C23.1609 18.4453 20.5712 16.8253 17.8302 16.1933C16.2568 15.8307 14.6285 15.7642 13.0235 15.9072C12.2151 15.9787 11.4134 16.1035 10.6201 16.2698C9.87494 16.4261 9.06827 16.5742 8.37637 16.8902C6.01457 17.9646 3.99539 19.5514 2.49349 21.682C1.34253 23.3153 0.534194 25.1931 0.189904 27.1624C-0.342333 30.1994 0.228158 33.496 2.10429 35.9409C3.70266 38.0233 6.14264 39.3655 8.70402 39.946C11.2654 40.5265 13.9449 40.3884 16.5246 39.9028C18.8947 39.457 21.3413 38.6204 23.0212 36.9505C17.6988 36.1472 12.0571 33.9567 6.58173 29.5707H6.5784ZM8.74727 25.4991C9.16973 24.3482 9.81174 23.4367 10.6716 22.7648C11.5315 22.0945 12.6326 21.7585 13.9732 21.7585C15.0227 21.7585 15.9058 21.9714 16.6194 22.3938C17.3346 22.8163 17.8452 23.4151 18.1512 24.1868C18.3358 24.6525 18.4223 25.1848 18.4107 25.7835H8.64914C8.67908 25.6887 8.71234 25.5939 8.74727 25.4991Z" fill="white"/>
</svg>
