<svg width="189" height="49" viewBox="0 0 189 49" fill="none" xmlns="http://www.w3.org/2000/svg">
<path d="M43.4736 23.7242C42.8981 24.3313 42.2678 24.8669 41.6158 25.3792C40.9638 25.8914 40.2835 26.3621 39.5833 26.8045C38.1862 27.6911 36.7109 28.4545 35.184 29.0882C33.6572 29.7252 32.0838 30.2441 30.4787 30.645C28.8737 31.0408 27.2404 31.3153 25.5988 31.4949L24.3647 31.6096C23.9522 31.6363 23.5397 31.6512 23.1272 31.6729C22.921 31.6812 22.7147 31.6961 22.5085 31.6995L21.8898 31.7028C21.4773 31.7028 21.0631 31.7128 20.6507 31.7028L19.4132 31.6545C19.207 31.6446 19.0007 31.6429 18.7945 31.6263L18.1774 31.5747L16.9433 31.4733L15.7142 31.3186C12.4392 30.8928 9.2109 30.1377 6.06738 29.1331C9.21589 30.1244 12.4459 30.8662 15.7192 31.277L16.9466 31.4267L18.1808 31.5232L18.7978 31.5714C19.0041 31.588 19.2103 31.588 19.4165 31.598L20.6523 31.6413C21.0648 31.6496 21.4773 31.6363 21.8898 31.6363L22.5085 31.6313C22.7147 31.6263 22.921 31.6113 23.1256 31.6013C23.5364 31.578 23.9489 31.5614 24.3597 31.5331L25.5905 31.4134C27.2288 31.2271 28.8554 30.946 30.4538 30.5452C32.0505 30.1393 33.6173 29.6154 35.1358 28.9734C36.6543 28.3347 38.118 27.5696 39.5051 26.6815C40.1987 26.239 40.874 25.7667 41.5193 25.2561C42.163 24.7471 42.7917 24.2066 43.3489 23.6128L43.4736 23.7242Z" fill="url(#paint0_linear_107_864)"/>
<path d="M46.02 26.7647C44.7244 28.0038 43.2574 29.025 41.7355 29.9498C40.2037 30.8562 38.5953 31.6346 36.9321 32.2683C33.6056 33.539 30.0646 34.2176 26.5103 34.3307C26.0662 34.3457 25.6204 34.3341 25.1763 34.3374C24.9535 34.3341 24.7323 34.3424 24.5094 34.3307L23.8441 34.2958L23.1788 34.2609L22.8461 34.2426C22.7347 34.2359 22.6249 34.221 22.5152 34.2093L21.1896 34.0696C19.4298 33.8301 17.6751 33.5141 15.9637 33.0334C12.5291 32.1153 9.21589 30.7731 6.06738 29.1315C9.22255 30.7614 12.539 32.0904 15.9736 32.9935C17.6851 33.4675 19.4382 33.7752 21.1962 34.0081L22.5201 34.1428C22.6299 34.1528 22.7414 34.1677 22.8511 34.1744L23.1838 34.191L23.8491 34.2243L24.5144 34.2576C24.7356 34.2675 24.9585 34.2592 25.1797 34.2609C25.6237 34.2559 26.0662 34.2659 26.5103 34.2492C30.0546 34.1228 33.5823 33.4326 36.8905 32.1536C38.5438 31.5149 40.1422 30.7331 41.664 29.8267C43.1726 28.9036 44.6346 27.874 45.9036 26.6499L46.0234 26.7663L46.02 26.7647Z" fill="url(#paint1_linear_107_864)"/>
<path d="M54.7408 39.956L59.4644 16.2499H67.7307L63.0071 39.956H54.7408Z" fill="#202125"/>
<path d="M54.7408 39.956L59.4644 16.2499H67.7307L63.0071 39.956H54.7408Z" fill="#202125"/>
<path d="M80.24 40.3485C77.7035 40.3485 75.5014 39.8961 73.6352 38.993C71.7691 38.0898 70.3187 36.8274 69.2825 35.2091C68.2463 33.5908 67.7291 31.703 67.7291 29.5458C67.7291 26.9212 68.3561 24.581 69.6102 22.5253C70.8643 20.4695 72.599 18.8445 74.8145 17.6486C77.0299 16.4528 79.5663 15.8557 82.4254 15.8557C85.1083 15.8557 87.4335 16.4245 89.4011 17.5621C91.3687 18.6998 92.7907 20.2732 93.6656 22.2857L86.5802 25.6538C86.1428 24.5461 85.5224 23.7444 84.7207 23.2488C83.919 22.7531 83.0076 22.5053 81.9864 22.5053C80.877 22.5053 79.879 22.7897 78.9909 23.3585C78.101 23.9274 77.4091 24.6925 76.9135 25.6555C76.4178 26.6185 76.17 27.7545 76.17 29.0668C76.17 30.3791 76.5642 31.545 77.3509 32.3916C78.1376 33.2382 79.2902 33.6606 80.8055 33.6606C81.8832 33.6606 82.8529 33.4195 83.7145 32.9388C84.5743 32.4581 85.3112 31.6631 85.9232 30.5554L92.0024 34.2295C90.8647 36.1538 89.268 37.6557 87.2122 38.7352C85.1565 39.8146 82.8313 40.3535 80.2366 40.3535L80.24 40.3485Z" fill="#202125"/>
<path d="M80.24 40.3485C77.7035 40.3485 75.5014 39.8961 73.6352 38.993C71.7691 38.0898 70.3187 36.8274 69.2825 35.2091C68.2463 33.5908 67.7291 31.703 67.7291 29.5458C67.7291 26.9212 68.3561 24.581 69.6102 22.5253C70.8643 20.4695 72.599 18.8445 74.8145 17.6486C77.0299 16.4528 79.5663 15.8557 82.4254 15.8557C85.1083 15.8557 87.4335 16.4245 89.4011 17.5621C91.3687 18.6998 92.7907 20.2732 93.6656 22.2857L86.5802 25.6538C86.1428 24.5461 85.5224 23.7444 84.7207 23.2488C83.919 22.7531 83.0076 22.5053 81.9864 22.5053C80.877 22.5053 79.879 22.7897 78.9909 23.3585C78.101 23.9274 77.4091 24.6925 76.9135 25.6555C76.4178 26.6185 76.17 27.7545 76.17 29.0668C76.17 30.3791 76.5642 31.545 77.3509 32.3916C78.1376 33.2382 79.2902 33.6606 80.8055 33.6606C81.8832 33.6606 82.8529 33.4195 83.7145 32.9388C84.5743 32.4581 85.3112 31.6631 85.9232 30.5554L92.0024 34.2295C90.8647 36.1538 89.268 37.6557 87.2122 38.7352C85.1565 39.8146 82.8313 40.3535 80.2366 40.3535L80.24 40.3485Z" fill="#202125"/>
<path d="M92.4781 39.956L98.9514 7.50121H107.263L100.789 39.956H92.4781Z" fill="#202125"/>
<path d="M92.4781 39.956L98.9514 7.50121H107.263L100.789 39.956H92.4781Z" fill="#202125"/>
<path d="M130.265 20.8188C129.317 19.2586 127.975 18.0411 126.24 17.1663C124.505 16.2914 122.428 15.854 120.008 15.854C117.151 15.854 114.642 16.4528 112.485 17.6486C110.326 18.8445 108.65 20.4695 107.456 22.5252C106.258 24.581 105.661 26.9212 105.661 29.5441C105.661 31.7313 106.186 33.634 107.236 35.2523C108.285 36.8707 109.751 38.1248 111.632 39.0146C113.513 39.9044 115.722 40.3485 118.258 40.3485C120.036 40.3485 121.794 40.114 123.529 39.6483C125.264 39.1826 126.875 38.3959 128.362 37.2865L124.906 32.0822C124.148 32.6943 123.266 33.1683 122.26 33.5026C121.254 33.8386 120.226 34.0066 119.176 34.0066C117.368 34.0066 116.013 33.6207 115.11 32.8473C114.385 32.2286 113.949 31.3304 113.807 30.1578H131.205C131.351 29.5441 131.468 28.9187 131.554 28.2767C131.642 27.6347 131.686 26.9644 131.686 26.2642C131.686 24.1935 131.212 22.3789 130.265 20.8188ZM114.388 25.4991C114.81 24.3482 115.451 23.4367 116.312 22.7648C117.172 22.0945 118.273 21.7585 119.614 21.7585C120.663 21.7585 121.545 21.9714 122.26 22.3938C122.975 22.8163 123.486 23.4151 123.792 24.1868C123.976 24.6525 124.063 25.1848 124.051 25.7835H114.29C114.32 25.6887 114.353 25.5939 114.388 25.4991Z" fill="#202125"/>
<path d="M130.265 20.8188C129.317 19.2586 127.975 18.0411 126.24 17.1663C124.505 16.2914 122.428 15.854 120.008 15.854C117.151 15.854 114.642 16.4528 112.485 17.6486C110.326 18.8445 108.65 20.4695 107.456 22.5252C106.258 24.581 105.661 26.9212 105.661 29.5441C105.661 31.7313 106.186 33.634 107.236 35.2523C108.285 36.8707 109.751 38.1248 111.632 39.0146C113.513 39.9044 115.722 40.3485 118.258 40.3485C120.036 40.3485 121.794 40.114 123.529 39.6483C125.264 39.1826 126.875 38.3959 128.362 37.2865L124.906 32.0822C124.148 32.6943 123.266 33.1683 122.26 33.5026C121.254 33.8386 120.226 34.0066 119.176 34.0066C117.368 34.0066 116.013 33.6207 115.11 32.8473C114.385 32.2286 113.949 31.3304 113.807 30.1578H131.205C131.351 29.5441 131.468 28.9187 131.554 28.2767C131.642 27.6347 131.686 26.9644 131.686 26.2642C131.686 24.1935 131.212 22.3789 130.265 20.8188ZM114.388 25.4991C114.81 24.3482 115.451 23.4367 116.312 22.7648C117.172 22.0945 118.273 21.7585 119.614 21.7585C120.663 21.7585 121.545 21.9714 122.26 22.3938C122.975 22.8163 123.486 23.4151 123.792 24.1868C123.976 24.6525 124.063 25.1848 124.051 25.7835H114.29C114.32 25.6887 114.353 25.5939 114.388 25.4991Z" fill="#202125"/>
<path d="M153.901 16.2482L153.323 19.0823C152.729 18.1742 151.965 17.469 151.036 16.97C149.65 16.2266 147.995 15.854 146.071 15.854C144.321 15.854 142.666 16.1983 141.106 16.8819C139.546 17.5688 138.176 18.5235 136.995 19.7476C135.814 20.9718 134.889 22.4155 134.219 24.077C133.547 25.7403 133.212 27.5615 133.212 29.5441C133.212 31.8494 133.685 33.802 134.633 35.4054C135.581 37.0104 136.827 38.2345 138.373 39.0795C139.919 39.926 141.537 40.3485 143.228 40.3485C145.356 40.3485 147.209 39.8163 148.784 38.7518C149.243 38.4424 149.675 38.0932 150.084 37.704L149.614 39.9543H157.487L162.211 16.2482H153.901ZM149.045 32.8257C148.2 33.3795 147.224 33.6556 146.116 33.6556C144.685 33.6556 143.578 33.2481 142.791 32.4315C142.004 31.6148 141.61 30.5221 141.61 29.1516C141.61 27.7811 141.85 26.6883 142.332 25.6954C142.813 24.7041 143.483 23.924 144.344 23.3552C145.203 22.7864 146.172 22.502 147.252 22.502C148.681 22.502 149.79 22.9178 150.577 23.7494C151.363 24.581 151.758 25.6821 151.758 27.0509C151.758 28.4198 151.516 29.5158 151.036 30.5071C150.555 31.4984 149.891 32.2718 149.045 32.8257Z" fill="#202125"/>
<path d="M153.901 16.2482L153.323 19.0823C152.729 18.1742 151.965 17.469 151.036 16.97C149.65 16.2266 147.995 15.854 146.071 15.854C144.321 15.854 142.666 16.1983 141.106 16.8819C139.546 17.5688 138.176 18.5235 136.995 19.7476C135.814 20.9718 134.889 22.4155 134.219 24.077C133.547 25.7403 133.212 27.5615 133.212 29.5441C133.212 31.8494 133.685 33.802 134.633 35.4054C135.581 37.0104 136.827 38.2345 138.373 39.0795C139.919 39.926 141.537 40.3485 143.228 40.3485C145.356 40.3485 147.209 39.8163 148.784 38.7518C149.243 38.4424 149.675 38.0932 150.084 37.704L149.614 39.9543H157.487L162.211 16.2482H153.901ZM149.045 32.8257C148.2 33.3795 147.224 33.6556 146.116 33.6556C144.685 33.6556 143.578 33.2481 142.791 32.4315C142.004 31.6148 141.61 30.5221 141.61 29.1516C141.61 27.7811 141.85 26.6883 142.332 25.6954C142.813 24.7041 143.483 23.924 144.344 23.3552C145.203 22.7864 146.172 22.502 147.252 22.502C148.681 22.502 149.79 22.9178 150.577 23.7494C151.363 24.581 151.758 25.6821 151.758 27.0509C151.758 28.4198 151.516 29.5158 151.036 30.5071C150.555 31.4984 149.891 32.2718 149.045 32.8257Z" fill="#202125"/>
<path d="M188.663 26.833L186.039 39.9543H177.729L180.177 27.6197C180.498 26.1045 180.404 24.9386 179.893 24.122C179.384 23.3053 178.443 22.8961 177.072 22.8961C175.702 22.8961 174.492 23.3336 173.529 24.2084C172.568 25.0833 171.896 26.4255 171.518 28.2335L169.157 39.9543H160.845L165.569 16.2482H173.443L172.951 18.6599C173.651 18.0145 174.421 17.4873 175.257 17.0798C176.934 16.2631 178.647 15.854 180.397 15.854C182.409 15.854 184.114 16.2698 185.515 17.1014C186.913 17.9314 187.913 19.1572 188.51 20.7755C189.107 22.3938 189.159 24.413 188.663 26.833Z" fill="#202125"/>
<path d="M188.663 26.833L186.039 39.9543H177.729L180.177 27.6197C180.498 26.1045 180.404 24.9386 179.893 24.122C179.384 23.3053 178.443 22.8961 177.072 22.8961C175.702 22.8961 174.492 23.3336 173.529 24.2084C172.568 25.0833 171.896 26.4255 171.518 28.2335L169.157 39.9543H160.845L165.569 16.2482H173.443L172.951 18.6599C173.651 18.0145 174.421 17.4873 175.257 17.0798C176.934 16.2631 178.647 15.854 180.397 15.854C182.409 15.854 184.114 16.2698 185.515 17.1014C186.913 17.9314 187.913 19.1572 188.51 20.7755C189.107 22.3938 189.159 24.413 188.663 26.833Z" fill="#202125"/>
<path d="M64.0566 14.4768C64.4907 11.2285 67.3764 8.63221 70.9557 7.87377C67.6226 6.78768 65.4604 3.95019 65.8945 0.703551C65.4604 3.95186 62.5747 6.54817 58.9954 7.30661C62.3285 8.3927 64.4907 11.2285 64.0566 14.4768Z" fill="#202125"/>
<path d="M64.0566 14.4768C64.4907 11.2285 67.3764 8.63221 70.9557 7.87377C67.6226 6.78768 65.4604 3.95019 65.8945 0.703551C65.4604 3.95186 62.5747 6.54817 58.9954 7.30661C62.3285 8.3927 64.4907 11.2285 64.0566 14.4768Z" fill="#202125"/>
<path d="M70.7844 4.51736C70.9258 3.45288 71.8738 2.60131 73.0464 2.35182C71.9537 1.99589 71.2451 1.06614 71.3865 0C71.2451 1.06447 70.2971 1.91605 69.1245 2.16554C70.2172 2.52147 70.9258 3.45122 70.7844 4.51736Z" fill="#202125"/>
<path d="M70.7844 4.51736C70.9258 3.45288 71.8738 2.60131 73.0464 2.35182C71.9537 1.99589 71.2451 1.06614 71.3865 0C71.2451 1.06447 70.2971 1.91605 69.1245 2.16554C70.2172 2.52147 70.9258 3.45122 70.7844 4.51736Z" fill="#202125"/>
<path d="M53.2555 20.7755C53.1258 20.5576 52.9894 20.3481 52.848 20.1452L49.613 22.0063C49.7943 22.2225 49.7661 22.5435 49.5498 22.7248L48.319 23.7577L50.0671 25.8417C51.0335 26.9927 50.8821 28.7092 49.7328 29.6738L40.9892 19.2553C42.1401 18.289 43.8566 18.4403 44.8213 19.5896L46.5693 21.6737L47.8001 20.6408C48.0163 20.4595 48.3373 20.4878 48.5186 20.704L50.7756 17.943C50.3864 17.6403 49.9756 17.3642 49.5382 17.123C48.0064 16.2781 46.3814 15.854 44.6616 15.854C42.5609 15.854 40.7164 16.3862 39.128 17.4507C38.659 17.7651 38.2182 18.116 37.8024 18.5102L38.2747 16.2482H30.4026L27.9876 28.3383C32.5732 26.8962 37.014 24.3548 40.3155 20.0237L48.9893 30.3159C47.4974 31.5217 47.1348 31.8926 43.8666 33.5559C39.612 35.7197 33.3017 37.6524 26.203 37.2749L23.9726 48.4418H32.2821L34.5657 37.1102C35.1628 38.0266 35.9346 38.7335 36.876 39.2341C38.2747 39.9776 39.9214 40.3502 41.8174 40.3502C43.5954 40.3502 45.2587 40.0075 46.8038 39.3223C48.349 38.637 49.7128 37.6757 50.8937 36.4349C52.0746 35.1958 52.9994 33.7455 53.6713 32.0839C54.3416 30.4206 54.6776 28.5994 54.6776 26.6168C54.6776 24.3132 54.2036 22.3656 53.2555 20.7772V20.7755ZM49.159 30.1745L40.4536 19.8275L40.8328 19.4L49.5665 29.8385L49.159 30.1745Z" fill="#202125"/>
<path d="M53.2555 20.7755C53.1258 20.5576 52.9894 20.3481 52.848 20.1452L49.613 22.0063C49.7943 22.2225 49.7661 22.5435 49.5498 22.7248L48.319 23.7577L50.0671 25.8417C51.0335 26.9927 50.8821 28.7092 49.7328 29.6738L40.9892 19.2553C42.1401 18.289 43.8566 18.4403 44.8213 19.5896L46.5693 21.6737L47.8001 20.6408C48.0163 20.4595 48.3373 20.4878 48.5186 20.704L50.7756 17.943C50.3864 17.6403 49.9756 17.3642 49.5382 17.123C48.0064 16.2781 46.3814 15.854 44.6616 15.854C42.5609 15.854 40.7164 16.3862 39.128 17.4507C38.659 17.7651 38.2182 18.116 37.8024 18.5102L38.2747 16.2482H30.4026L27.9876 28.3383C32.5732 26.8962 37.014 24.3548 40.3155 20.0237L48.9893 30.3159C47.4974 31.5217 47.1348 31.8926 43.8666 33.5559C39.612 35.7197 33.3017 37.6524 26.203 37.2749L23.9726 48.4418H32.2821L34.5657 37.1102C35.1628 38.0266 35.9346 38.7335 36.876 39.2341C38.2747 39.9776 39.9214 40.3502 41.8174 40.3502C43.5954 40.3502 45.2587 40.0075 46.8038 39.3223C48.349 38.637 49.7128 37.6757 50.8937 36.4349C52.0746 35.1958 52.9994 33.7455 53.6713 32.0839C54.3416 30.4206 54.6776 28.5994 54.6776 26.6168C54.6776 24.3132 54.2036 22.3656 53.2555 20.7772V20.7755ZM49.159 30.1745L40.4536 19.8275L40.8328 19.4L49.5665 29.8385L49.159 30.1745Z" fill="#202125"/>
<path d="M6.5784 29.5707L6.06779 29.1333C6.06779 29.1333 15.9441 31.3338 25.852 28.932C26.1398 26.4738 26.1314 23.9623 25.1152 21.7385C24.9705 21.4209 24.8058 21.1148 24.6245 20.8204C23.1609 18.4453 20.5712 16.8253 17.8302 16.1933C16.2568 15.8307 14.6285 15.7642 13.0235 15.9072C12.2151 15.9787 11.4134 16.1035 10.6201 16.2698C9.87494 16.4261 9.06827 16.5742 8.37637 16.8902C6.01457 17.9646 3.99539 19.5514 2.49349 21.682C1.34253 23.3153 0.534194 25.1931 0.189904 27.1624C-0.342333 30.1994 0.228158 33.496 2.10429 35.9409C3.70266 38.0233 6.14264 39.3655 8.70402 39.946C11.2654 40.5265 13.9449 40.3884 16.5246 39.9028C18.8947 39.457 21.3413 38.6204 23.0212 36.9505C17.6988 36.1472 12.0571 33.9567 6.58173 29.5707H6.5784ZM8.74727 25.4991C9.16973 24.3482 9.81174 23.4367 10.6716 22.7648C11.5315 22.0945 12.6326 21.7585 13.9732 21.7585C15.0227 21.7585 15.9058 21.9714 16.6194 22.3938C17.3346 22.8163 17.8452 23.4151 18.1512 24.1868C18.3358 24.6525 18.4223 25.1848 18.4107 25.7835H8.64914C8.67908 25.6887 8.71234 25.5939 8.74727 25.4991Z" fill="#202125"/>
<path d="M6.5784 29.5707L6.06779 29.1333C6.06779 29.1333 15.9441 31.3338 25.852 28.932C26.1398 26.4738 26.1314 23.9623 25.1152 21.7385C24.9705 21.4209 24.8058 21.1148 24.6245 20.8204C23.1609 18.4453 20.5712 16.8253 17.8302 16.1933C16.2568 15.8307 14.6285 15.7642 13.0235 15.9072C12.2151 15.9787 11.4134 16.1035 10.6201 16.2698C9.87494 16.4261 9.06827 16.5742 8.37637 16.8902C6.01457 17.9646 3.99539 19.5514 2.49349 21.682C1.34253 23.3153 0.534194 25.1931 0.189904 27.1624C-0.342333 30.1994 0.228158 33.496 2.10429 35.9409C3.70266 38.0233 6.14264 39.3655 8.70402 39.946C11.2654 40.5265 13.9449 40.3884 16.5246 39.9028C18.8947 39.457 21.3413 38.6204 23.0212 36.9505C17.6988 36.1472 12.0571 33.9567 6.58173 29.5707H6.5784ZM8.74727 25.4991C9.16973 24.3482 9.81174 23.4367 10.6716 22.7648C11.5315 22.0945 12.6326 21.7585 13.9732 21.7585C15.0227 21.7585 15.9058 21.9714 16.6194 22.3938C17.3346 22.8163 17.8452 23.4151 18.1512 24.1868C18.3358 24.6525 18.4223 25.1848 18.4107 25.7835H8.64914C8.67908 25.6887 8.71234 25.5939 8.74727 25.4991Z" fill="#202125"/>
<defs>
<linearGradient id="paint0_linear_107_864" x1="21.1762" y1="35.327" x2="28.3548" y2="17.5553" gradientUnits="userSpaceOnUse">
<stop stop-color="#3156FF" stop-opacity="0"/>
<stop offset="0.2" stop-color="#3156FF" stop-opacity="0.01"/>
<stop offset="0.33" stop-color="#3156FF" stop-opacity="0.01"/>
<stop offset="0.45" stop-color="#3156FF" stop-opacity="0.0121"/>
<stop offset="0.55" stop-color="#3156FF" stop-opacity="0.0361"/>
<stop offset="0.65" stop-color="#3156FF" stop-opacity="0.09"/>
<stop offset="0.74" stop-color="#3156FF" stop-opacity="0.1849"/>
<stop offset="0.83" stop-color="#3156FF" stop-opacity="0.3481"/>
<stop offset="0.91" stop-color="#3156FF" stop-opacity="0.6084"/>
<stop offset="0.99" stop-color="#3156FF" stop-opacity="0.9604"/>
<stop offset="1" stop-color="#3156FF"/>
</linearGradient>
<linearGradient id="paint1_linear_107_864" x1="18.8677" y1="38.1978" x2="33.1881" y2="17.7466" gradientUnits="userSpaceOnUse">
<stop stop-color="#3156FF" stop-opacity="0"/>
<stop offset="0.2" stop-color="#3156FF" stop-opacity="0.01"/>
<stop offset="0.33" stop-color="#3156FF" stop-opacity="0.01"/>
<stop offset="0.45" stop-color="#3156FF" stop-opacity="0.0121"/>
<stop offset="0.55" stop-color="#3156FF" stop-opacity="0.0361"/>
<stop offset="0.65" stop-color="#3156FF" stop-opacity="0.09"/>
<stop offset="0.74" stop-color="#3156FF" stop-opacity="0.1849"/>
<stop offset="0.83" stop-color="#3156FF" stop-opacity="0.3481"/>
<stop offset="0.91" stop-color="#3156FF" stop-opacity="0.6084"/>
<stop offset="0.99" stop-color="#3156FF" stop-opacity="0.9604"/>
<stop offset="1" stop-color="#3156FF"/>
</linearGradient>
</defs>
</svg>
