<svg width="46" height="53" viewBox="0 0 46 53" fill="none" xmlns="http://www.w3.org/2000/svg">
<path d="M8.96533 44.5911C7.99126 44.8483 7.03855 45.0998 6.08697 45.3525C4.71472 45.7174 3.34021 46.0745 1.97246 46.4563C1.51242 46.5854 1.11198 46.5652 0.813912 46.1643C0.531588 45.7848 0.624955 45.4053 0.851039 45.0167C2.34364 42.4509 3.82614 39.8783 5.31087 37.3079C5.4121 37.1316 5.50769 36.9519 5.62917 36.7318C4.79795 36.2568 4.08034 35.655 3.9015 34.7016C3.7519 33.9054 3.72601 33.0756 3.73951 32.2626C3.75188 31.5383 3.88237 30.8141 3.98136 30.0931C4.13883 28.9489 3.86662 27.9574 3.04552 27.1118C2.40888 26.4549 1.78911 25.7766 1.20759 25.0703C-0.425613 23.0895 -0.415488 21.413 1.23796 19.4378C1.81273 18.7505 2.42013 18.0869 3.04552 17.4446C3.88462 16.5833 4.12533 15.5704 3.98023 14.406C3.84863 13.3516 3.71477 12.2904 3.69453 11.2292C3.65853 9.3259 4.52911 8.10865 6.35241 7.54719C7.45583 7.20807 8.60088 6.99584 9.73468 6.76564C10.7774 6.55341 11.5276 5.99307 12.0506 5.07565C12.6232 4.07064 13.1732 3.04541 13.8368 2.10216C14.9279 0.552537 16.3091 0.132565 18.1144 0.695147C18.5238 0.82316 18.922 0.987106 19.3168 1.15667C20.0198 1.45985 20.7138 1.78325 21.4157 2.09093C22.3392 2.49518 23.2649 2.49406 24.1894 2.08532C24.7023 1.85849 25.2164 1.63615 25.7281 1.40932C26.0532 1.26559 26.3727 1.11063 26.7 0.973631C29.1622 -0.0538391 30.7256 0.420032 32.1519 2.66362C32.6524 3.45079 33.0967 4.27389 33.55 5.08913C34.0539 5.9942 34.7985 6.54106 35.8198 6.75329C36.9356 6.98461 38.0604 7.1946 39.1481 7.52473C41.0872 8.11314 41.9286 9.27649 41.8904 11.3045C41.869 12.4218 41.7318 13.538 41.608 14.6496C41.4911 15.7018 41.7666 16.5979 42.4932 17.3727C43.1445 18.0678 43.8025 18.7618 44.4009 19.5018C46.0015 21.4804 45.988 23.1254 44.3761 25.1029C43.9633 25.6093 43.5438 26.1236 43.0556 26.5526C41.707 27.7373 41.3426 29.1903 41.6789 30.905C41.815 31.5979 41.8487 32.3132 41.8904 33.0206C41.9848 34.6174 41.4933 35.9312 39.9445 36.7419C40.0558 36.9373 40.1514 37.1114 40.2515 37.2832C41.7385 39.8311 43.23 42.3767 44.708 44.9291C44.8429 45.1627 44.9723 45.4457 44.97 45.7051C44.9644 46.3137 44.3818 46.6427 43.6945 46.4608C41.5091 45.8814 39.3258 45.2952 37.1415 44.7135C36.984 44.672 36.8231 44.6405 36.6196 44.5945C36.1539 46.3227 35.6972 48.0115 35.2417 49.7004C35.0718 50.3304 34.893 50.9592 34.7355 51.5925C34.6219 52.0484 34.3947 52.3954 33.8987 52.4504C33.424 52.5032 33.1462 52.2068 32.928 51.8261C31.5208 49.3826 30.1171 46.938 28.6875 44.508C28.557 44.2868 28.2826 44.1094 28.0351 44.0061C27.1589 43.64 26.2636 43.32 25.3795 42.9719C24.9802 42.8147 24.5876 42.6395 24.1951 42.4643C23.2705 42.0522 22.3515 42.0567 21.4247 42.4621C20.3977 42.9113 19.4001 43.4918 18.3259 43.7456C17.3248 43.9814 16.8501 44.5642 16.4013 45.3682C15.2102 47.504 13.9639 49.6095 12.7458 51.7307C12.5118 52.1383 12.2497 52.5133 11.7177 52.4482C11.1699 52.3808 10.9809 51.9687 10.8516 51.4802C10.2757 49.2984 9.67956 47.1211 9.08904 44.9437C9.06092 44.8404 9.0182 44.7405 8.96421 44.5889L8.96533 44.5911ZM40.0884 11.8457C40.1469 10.0637 39.7993 9.57181 38.2719 9.15521C37.66 8.9879 37.0369 8.84192 36.4092 8.76107C34.1563 8.46911 32.5208 7.36303 31.5344 5.28788C31.1834 4.55013 30.7402 3.84718 30.2645 3.18129C29.6121 2.26723 29.0373 2.0842 27.98 2.46037C27.1026 2.77255 26.2456 3.15321 25.4076 3.56196C23.636 4.42548 21.8892 4.42885 20.1244 3.55073C19.4226 3.2015 18.7072 2.87585 17.9772 2.58951C16.5048 2.01233 15.8693 2.2167 15.0077 3.55522C14.5736 4.22897 14.1731 4.92743 13.8076 5.6416C12.9235 7.36865 11.5265 8.3411 9.61882 8.66337C8.64587 8.82732 7.67968 9.06201 6.72922 9.33039C5.8755 9.57181 5.42221 10.1883 5.46045 11.0866C5.49757 11.9434 5.53132 12.8058 5.6663 13.6503C6.00599 15.7714 5.54031 17.6029 3.93972 19.1121C3.38408 19.6354 2.8768 20.2193 2.40326 20.819C1.51805 21.9408 1.51355 22.6774 2.40664 23.7823C3.01628 24.5369 3.69004 25.241 4.34917 25.9541C5.42672 27.1197 5.89687 28.4739 5.73602 30.0606C5.61792 31.2295 5.52345 32.4007 5.46608 33.5742C5.42559 34.3973 5.85187 34.9756 6.63586 35.2204C7.34673 35.4427 8.06998 35.6785 8.80447 35.7639C11.3195 36.057 13.1484 37.2495 14.163 39.6054C14.244 39.7929 14.3542 39.9692 14.4644 40.1421C14.776 40.6295 15.0696 41.1292 15.4149 41.5918C15.9199 42.2701 16.6162 42.4812 17.4058 42.1892C18.2797 41.8658 19.156 41.5289 19.9861 41.109C21.8431 40.1691 23.6687 40.1545 25.5268 41.091C26.2759 41.4683 27.0464 41.8153 27.8327 42.105C28.998 42.534 29.6469 42.3341 30.3488 41.3156C30.8235 40.6261 31.2622 39.9007 31.6288 39.1484C32.5804 37.199 34.1439 36.1782 36.2641 35.8694C37.1471 35.7403 38.0177 35.5 38.8748 35.2462C39.6824 35.007 40.1121 34.4141 40.0828 33.5652C40.0524 32.7084 40.0254 31.8449 39.8893 31.0016C39.5474 28.886 39.976 27.0489 41.5732 25.5251C42.2053 24.921 42.7834 24.2484 43.3087 23.5488C43.9915 22.6403 43.9656 21.9688 43.3087 21.0368C43.0511 20.6719 42.7486 20.3372 42.4516 20.0015C41.9567 19.4411 41.4438 18.8976 40.9511 18.3351C40.0389 17.293 39.6824 16.0701 39.8072 14.7024C39.9006 13.6806 40.0075 12.6598 40.0884 11.8457ZM15.2327 43.7568C14.1079 43.0853 13.4623 42.0657 12.8751 40.9944C12.5793 40.4543 12.2644 39.9265 11.9652 39.3887C11.4804 38.5173 10.7369 38.0063 9.76955 37.8031C9.11155 37.665 8.45016 37.5448 7.79778 37.3865C7.47271 37.3079 7.30063 37.3831 7.13078 37.6829C5.96887 39.7255 4.78445 41.7546 3.60904 43.7894C3.54718 43.8961 3.50445 44.0128 3.42234 44.1903C3.68329 44.1296 3.88013 44.0903 4.0736 44.0387C5.76866 43.5872 7.4626 43.1302 9.15767 42.6822C9.93603 42.4767 10.3095 42.7001 10.5265 43.4828C10.6064 43.7703 10.6784 44.0589 10.756 44.3475C11.1823 45.9375 11.6097 47.5276 12.072 49.2524C13.1597 47.3614 14.1776 45.5894 15.2316 43.7568H15.2327ZM30.3072 43.7826C31.3544 45.5849 32.3836 47.3591 33.4803 49.2479C34.0235 47.221 34.5184 45.366 35.0178 43.5109C35.2406 42.6822 35.5982 42.4711 36.4182 42.6912C38.0604 43.1313 39.7004 43.5783 41.3414 44.0207C41.5754 44.0836 41.8127 44.1341 42.1626 44.2161C40.8387 41.9265 39.5924 39.7592 38.3247 37.6043C38.255 37.4853 37.9974 37.4022 37.8411 37.4213C37.3226 37.4831 36.813 37.6156 36.2956 37.6919C34.9402 37.8929 33.9335 38.5622 33.3307 39.812C33.1361 40.2151 32.8909 40.5924 32.676 40.9854C32.081 42.0747 31.4309 43.1179 30.305 43.7815L30.3072 43.7826Z" fill="url(#paint0_radial_104_129)"/>
<path d="M22.7618 36.2569C15.0423 36.2434 8.7603 29.9753 8.76367 22.2878C8.76592 14.5756 15.0873 8.28839 22.8169 8.31085C30.5217 8.33219 36.8093 14.6351 36.788 22.3148C36.7666 30.0112 30.47 36.2704 22.7618 36.2569ZM22.7618 34.449C29.5117 34.4546 34.9973 28.9972 34.9905 22.2822C34.9827 15.5896 29.5162 10.121 22.8157 10.1042C16.0771 10.0862 10.5813 15.5346 10.56 22.253C10.5386 28.9624 16.022 34.4423 22.7618 34.449Z" fill="url(#paint1_radial_104_129)"/>
<path d="M20.9137 25.9617C21.0768 25.7327 21.1746 25.5429 21.3175 25.3992C24.0912 22.6222 26.8695 19.8508 29.6477 17.0795C29.7793 16.9481 29.9064 16.8032 30.0605 16.7033C30.4542 16.4484 30.8546 16.4742 31.1864 16.8032C31.5194 17.1334 31.5407 17.5354 31.291 17.9273C31.1831 18.0979 31.0244 18.2383 30.8793 18.3832C27.8413 21.424 24.8032 24.4638 21.764 27.5024C21.0329 28.2334 20.6639 28.2323 19.9351 27.5058C18.1759 25.7506 16.4167 23.9944 14.6575 22.2381C14.5777 22.1584 14.4956 22.0821 14.4202 22.0001C14.0333 21.5756 14.0108 21.058 14.3606 20.6986C14.7228 20.3269 15.2357 20.3157 15.6597 20.7211C16.4291 21.4577 17.1748 22.2179 17.9285 22.9703C18.88 23.9203 19.8294 24.8725 20.9148 25.9595L20.9137 25.9617Z" fill="url(#paint2_radial_104_129)"/>
<defs>
<radialGradient id="paint0_radial_104_129" cx="0" cy="0" r="1" gradientUnits="userSpaceOnUse" gradientTransform="translate(56.4333 -12.0806) rotate(131.106) scale(84.5242 87.5573)">
<stop stop-color="#132341"/>
<stop offset="0.716111" stop-color="#25D7FF"/>
<stop offset="1" stop-color="#AAFFBE"/>
</radialGradient>
<radialGradient id="paint1_radial_104_129" cx="0" cy="0" r="1" gradientUnits="userSpaceOnUse" gradientTransform="translate(43.4495 1.57303) rotate(134.935) scale(48.3504 50.5515)">
<stop stop-color="#132341"/>
<stop offset="0.716111" stop-color="#25D7FF"/>
<stop offset="1" stop-color="#AAFFBE"/>
</radialGradient>
<radialGradient id="paint2_radial_104_129" cx="0" cy="0" r="1" gradientUnits="userSpaceOnUse" gradientTransform="translate(35.5831 13.7546) rotate(146.28) scale(25.4137 24.5376)">
<stop stop-color="#132341"/>
<stop offset="0.716111" stop-color="#25D7FF"/>
<stop offset="1" stop-color="#AAFFBE"/>
</radialGradient>
</defs>
</svg>
