<svg width="53" height="40" viewBox="0 0 53 40" fill="none" xmlns="http://www.w3.org/2000/svg">
<path d="M13.6113 20.3717C13.6113 9.62025 22.3536 0.878221 33.0901 0.892596C43.8924 0.906971 52.6439 9.6223 52.6151 20.382C52.5863 31.2443 43.7186 39.8816 32.9276 39.8169C22.3412 39.7532 13.6113 31.0122 13.6113 20.3717ZM33.0839 2.74491C23.3409 2.76442 15.4606 10.6532 15.4698 20.3789C15.4791 30.0686 23.3944 37.9615 33.0922 37.9523C42.8742 37.943 50.7608 30.0676 50.7556 20.3152C50.7494 10.6039 42.8259 2.72643 33.0839 2.74491Z" fill="url(#paint0_radial_104_118)"/>
<path d="M9.11766 32.4004C7.60371 32.4004 6.08977 32.4024 4.57582 32.4004C3.81061 32.3993 3.39612 32.0543 3.41155 31.4475C3.42698 30.8725 3.84867 30.5357 4.57479 30.5357C7.58521 30.5337 10.5956 30.5337 13.6061 30.5357C14.3095 30.5357 14.7497 30.9043 14.7487 31.4732C14.7466 32.0595 14.3353 32.3993 13.6071 32.4004C12.1106 32.4034 10.6141 32.4004 9.11766 32.4004Z" fill="url(#paint1_radial_104_118)"/>
<path d="M6.19999 21.2661C4.72307 21.2661 3.24613 21.2692 1.76921 21.265C1.04617 21.263 0.615234 20.9159 0.615234 20.3512C0.615234 19.7885 1.05131 19.4333 1.76509 19.4322C4.71894 19.4292 7.67278 19.4292 10.6277 19.4322C11.3281 19.4322 11.7704 19.8101 11.757 20.3728C11.7436 20.9201 11.3209 21.2609 10.6318 21.264C9.15486 21.2692 7.67795 21.265 6.20102 21.265L6.19999 21.2661Z" fill="url(#paint2_radial_104_118)"/>
<path d="M7.91109 15.7142C6.78179 15.7142 5.65354 15.7183 4.52424 15.7131C3.80635 15.71 3.39906 15.3558 3.41243 14.7644C3.42477 14.2038 3.83925 13.8516 4.51601 13.8495C6.79105 13.8454 9.0661 13.8454 11.3411 13.8495C12.022 13.8505 12.4735 14.2469 12.4591 14.8085C12.4447 15.3681 12.0333 15.71 11.3494 15.7131C10.2036 15.7183 9.05683 15.7142 7.91109 15.7142Z" fill="url(#paint3_radial_104_118)"/>
<path d="M10.4987 8.30383C11.5601 8.30383 12.6226 8.29972 13.684 8.30589C14.3422 8.30999 14.732 8.64575 14.7495 9.20227C14.7659 9.75467 14.3309 10.1592 13.6809 10.1613C11.5395 10.1674 9.39924 10.1674 7.25791 10.1613C6.6079 10.1592 6.18518 9.75981 6.20164 9.19816C6.21809 8.63856 6.59964 8.30999 7.26097 8.30589C8.33987 8.29972 9.41979 8.30383 10.4987 8.30383Z" fill="url(#paint4_radial_104_118)"/>
<path d="M15.5467 2.74494C16.4497 2.74494 17.3517 2.73878 18.2547 2.747C18.9119 2.75316 19.2997 3.092 19.31 3.63927C19.3213 4.21838 18.9335 4.57364 18.2485 4.5757C16.4435 4.58288 14.6375 4.58288 12.8325 4.5757C12.1526 4.57262 11.7536 4.204 11.77 3.63208C11.7854 3.08584 12.1783 2.75213 12.8386 2.74597C13.7416 2.73776 14.6436 2.74392 15.5467 2.74392V2.74494Z" fill="url(#paint5_radial_104_118)"/>
<path d="M15.5455 37.9511C14.6425 37.9511 13.7405 37.9572 12.8375 37.949C12.1566 37.9428 11.7565 37.5814 11.7699 37.0105C11.7822 36.4632 12.1751 36.1213 12.8333 36.1193C14.6384 36.1131 16.4444 36.1121 18.2494 36.1193C18.9292 36.1224 19.3221 36.4828 19.3098 37.0588C19.2985 37.6102 18.9159 37.9428 18.2535 37.949C17.3505 37.9572 16.4485 37.9511 15.5455 37.9511Z" fill="url(#paint6_radial_104_118)"/>
<path d="M9.36786 24.9904C10.0621 24.9904 10.7563 24.9822 11.4506 24.9925C12.0522 25.0017 12.4451 25.3601 12.4595 25.8878C12.4739 26.4125 12.043 26.8397 11.4454 26.8448C10.022 26.8561 8.59856 26.8571 7.17511 26.8448C6.59607 26.8397 6.2001 26.4351 6.20216 25.9104C6.20421 25.3652 6.57653 25.0048 7.18026 24.9945C7.90947 24.9822 8.63865 24.9914 9.36786 24.9914V24.9904Z" fill="url(#paint7_radial_104_118)"/>
<path d="M48.898 20.383C48.8939 29.0634 41.8076 36.1123 33.0828 36.1154C24.4074 36.1195 17.318 29.01 17.3262 20.3152C17.3344 11.6646 24.4424 4.57158 33.0951 4.58082C41.8271 4.59006 48.9032 11.6646 48.898 20.382V20.383ZM47.0375 20.3594C47.0611 12.7304 40.8253 6.45675 33.1939 6.43314C25.5079 6.40952 19.2165 12.6205 19.1908 20.2557C19.1651 27.9514 25.3546 34.2261 33.0067 34.2631C40.7369 34.3 47.0118 28.0818 47.0364 20.3604L47.0375 20.3594Z" fill="url(#paint8_radial_104_118)"/>
<path d="M34.0408 13.368C34.0408 14.6874 34.0469 16.0078 34.0366 17.3272C34.0346 17.5952 34.1231 17.7266 34.3534 17.895C34.7916 18.2144 35.2174 18.5953 35.5239 19.0368C35.7378 19.3438 35.927 19.4403 36.2695 19.4362C37.6436 19.4229 39.0177 19.4332 40.3918 19.4301C40.8721 19.429 41.2485 19.5892 41.4151 20.0687C41.6311 20.6889 41.1796 21.2547 40.4432 21.2608C39.0691 21.2742 37.695 21.2762 36.3209 21.2577C35.9373 21.2526 35.7039 21.3306 35.5084 21.7126C34.9818 22.7435 33.7991 23.2795 32.6482 23.0854C31.4654 22.8862 30.549 21.9539 30.3577 20.7546C30.1849 19.6714 30.7578 18.4485 31.7513 17.9474C32.1144 17.7646 32.1936 17.5583 32.1915 17.1907C32.1771 14.6206 32.1689 12.0506 32.2018 9.48055C32.2059 9.14069 32.3746 8.71765 32.6163 8.49484C32.7952 8.32953 33.2375 8.35109 33.5255 8.42708C33.9245 8.53283 34.0366 8.91377 34.0377 9.30292C34.0408 10.6572 34.0387 12.0116 34.0397 13.3659L34.0408 13.368ZM34.0356 20.3593C34.0438 19.8511 33.6314 19.4362 33.1151 19.4342C32.6328 19.4332 32.2142 19.8295 32.1915 20.31C32.1689 20.8101 32.5824 21.2465 33.0904 21.2588C33.6057 21.2711 34.0274 20.8696 34.0356 20.3593Z" fill="url(#paint9_radial_104_118)"/>
<defs>
<radialGradient id="paint0_radial_104_118" cx="0" cy="0" r="1" gradientUnits="userSpaceOnUse" gradientTransform="translate(61.8866 -8.49209) rotate(134.913) scale(67.3191 70.3836)">
<stop stop-color="#132341"/>
<stop offset="0.716111" stop-color="#25D7FF"/>
<stop offset="1" stop-color="#AAFFBE"/>
</radialGradient>
<radialGradient id="paint1_radial_104_118" cx="0" cy="0" r="1" gradientUnits="userSpaceOnUse" gradientTransform="translate(17.4437 30.0839) rotate(170.599) scale(14.0038 4.71869)">
<stop stop-color="#132341"/>
<stop offset="0.716111" stop-color="#25D7FF"/>
<stop offset="1" stop-color="#AAFFBE"/>
</radialGradient>
<radialGradient id="paint2_radial_104_118" cx="0" cy="0" r="1" gradientUnits="userSpaceOnUse" gradientTransform="translate(14.4058 18.987) rotate(170.59) scale(13.7627 4.64203)">
<stop stop-color="#132341"/>
<stop offset="0.716111" stop-color="#25D7FF"/>
<stop offset="1" stop-color="#AAFFBE"/>
</radialGradient>
<radialGradient id="paint3_radial_104_118" cx="0" cy="0" r="1" gradientUnits="userSpaceOnUse" gradientTransform="translate(14.61 13.3958) rotate(168.269) scale(11.2601 4.68735)">
<stop stop-color="#132341"/>
<stop offset="0.716111" stop-color="#25D7FF"/>
<stop offset="1" stop-color="#AAFFBE"/>
</radialGradient>
<radialGradient id="paint4_radial_104_118" cx="0" cy="0" r="1" gradientUnits="userSpaceOnUse" gradientTransform="translate(16.782 7.85323) rotate(167.643) scale(10.6644 4.66178)">
<stop stop-color="#132341"/>
<stop offset="0.716111" stop-color="#25D7FF"/>
<stop offset="1" stop-color="#AAFFBE"/>
</radialGradient>
<radialGradient id="paint5_radial_104_118" cx="0" cy="0" r="1" gradientUnits="userSpaceOnUse" gradientTransform="translate(21.1027 2.29823) rotate(166.225) scale(9.46104 4.57532)">
<stop stop-color="#132341"/>
<stop offset="0.716111" stop-color="#25D7FF"/>
<stop offset="1" stop-color="#AAFFBE"/>
</radialGradient>
<radialGradient id="paint6_radial_104_118" cx="0" cy="0" r="1" gradientUnits="userSpaceOnUse" gradientTransform="translate(21.1025 35.6709) rotate(166.227) scale(9.46078 4.57443)">
<stop stop-color="#132341"/>
<stop offset="0.716111" stop-color="#25D7FF"/>
<stop offset="1" stop-color="#AAFFBE"/>
</radialGradient>
<radialGradient id="paint7_radial_104_118" cx="0" cy="0" r="1" gradientUnits="userSpaceOnUse" gradientTransform="translate(13.9474 24.5373) rotate(163.313) scale(7.96078 4.57856)">
<stop stop-color="#132341"/>
<stop offset="0.716111" stop-color="#25D7FF"/>
<stop offset="1" stop-color="#AAFFBE"/>
</radialGradient>
<radialGradient id="paint8_radial_104_118" cx="0" cy="0" r="1" gradientUnits="userSpaceOnUse" gradientTransform="translate(56.4028 -3.02211) rotate(134.889) scale(54.515 56.9965)">
<stop stop-color="#132341"/>
<stop offset="0.716111" stop-color="#25D7FF"/>
<stop offset="1" stop-color="#AAFFBE"/>
</radialGradient>
<radialGradient id="paint9_radial_104_118" cx="0" cy="0" r="1" gradientUnits="userSpaceOnUse" gradientTransform="translate(44.1178 4.81221) rotate(126.918) scale(22.6039 22.6988)">
<stop stop-color="#132341"/>
<stop offset="0.716111" stop-color="#25D7FF"/>
<stop offset="1" stop-color="#AAFFBE"/>
</radialGradient>
</defs>
</svg>
