<svg width="53" height="53" viewBox="0 0 53 53" fill="none" xmlns="http://www.w3.org/2000/svg">
<path d="M49.1031 24.9071C49.3942 24.9234 49.6655 24.9176 49.931 24.9559C51.2957 25.1512 52.2983 26.2812 52.3344 27.6692C52.3496 28.2679 52.3414 28.8689 52.3379 29.4676C52.3321 30.6115 51.8221 31.4532 50.8358 32.0368C50.6669 32.1367 50.4946 32.3995 50.4934 32.5889C50.4736 36.245 50.4736 39.8999 50.4911 43.556C50.4911 43.7734 50.632 44.0175 50.7694 44.2012C50.9534 44.4465 51.1851 44.6616 51.4203 44.8615C52.9574 46.1693 52.4881 48.5118 50.4783 49.0059C50.4783 49.3011 50.4818 49.6069 50.4783 49.9138C50.4573 51.6017 49.2719 52.7794 47.5637 52.7828C44.6188 52.7898 41.675 52.7852 38.7301 52.7852C34.4881 52.7852 30.246 52.791 26.0039 52.7735C25.6813 52.7724 25.2598 52.6898 25.0642 52.4783C24.8732 52.2725 24.7893 51.8063 24.8883 51.5401C24.985 51.2809 25.3553 51.0972 25.6417 50.9472C25.7943 50.867 26.0213 50.9286 26.2158 50.9286C33.2281 50.9286 40.2404 50.9286 47.2528 50.9286C48.359 50.9286 48.5744 50.6659 48.635 49.565C48.6722 48.8919 48.4533 48.4467 47.9736 47.9736C44.4022 44.4546 40.8681 40.8997 37.3095 37.368C37.1546 37.2146 36.8239 37.0588 36.6551 37.1216C33.3981 38.3259 29.4448 36.3578 28.6809 32.3576H20.7196C20.7196 32.582 20.7196 32.7854 20.7196 32.9877C20.7196 35.3662 20.7149 37.7458 20.7231 40.1243C20.7242 40.6416 20.5833 41.0497 20.0302 41.1799C19.3583 41.338 18.8681 40.9311 18.8635 40.201C18.853 38.5956 18.86 36.9902 18.86 35.3848C18.86 34.8233 18.8413 34.2618 18.8646 33.7026C18.8995 32.8563 19.0102 31.9926 17.9494 31.6334C17.883 31.6113 17.8317 31.5345 17.7782 31.4787C16.637 30.3 16.6359 26.981 17.7782 25.7964C18.3138 25.2407 18.9717 24.9524 19.7438 24.9315C19.972 24.9257 20.2014 24.9315 20.3959 24.9315C20.5438 24.4072 20.6416 23.9341 20.8116 23.4877C21.3018 22.1938 22.2427 21.3859 23.6028 21.1359C23.9859 21.065 24.1326 20.9046 24.1873 20.5709C24.1966 20.514 24.2106 20.457 24.2269 20.4012C25.0292 17.76 27.088 16.5975 29.7161 17.4578C30.6803 17.7728 31.287 17.7681 32.1126 17.0474C33.8674 15.5164 36.0577 15.7186 38.0059 17.4043C38.4041 17.7495 38.715 17.8123 39.2227 17.6635C39.9004 17.4647 40.6282 17.338 41.3339 17.345C43.2855 17.3636 44.6316 18.4459 45.2324 20.3884C45.3244 20.6849 45.4071 20.872 45.7716 20.9418C47.5998 21.2871 48.6478 22.3845 48.9715 24.2212C49.0111 24.4456 49.0565 24.6699 49.1019 24.9083L49.1031 24.9071ZM38.7278 32.1623C38.7791 32.0089 38.8152 31.9391 38.8256 31.8659C39.0143 30.5755 39.0993 30.5011 40.3918 30.5011C43.374 30.5011 46.3561 30.5034 49.3371 30.4988C50.1371 30.4988 50.4678 30.1663 50.4783 29.3769C50.4841 28.9898 50.4795 28.6039 50.4783 28.2168C50.4783 27.0275 50.2407 26.7869 49.0623 26.7869C39.4579 26.7869 29.8547 26.7869 20.2503 26.7869C20.1152 26.7869 19.979 26.7822 19.8439 26.7892C19.2291 26.8229 18.8856 27.1612 18.8646 27.7785C18.8483 28.2609 18.86 28.7445 18.8611 29.2281C18.8635 30.2105 19.1534 30.4999 20.1443 30.4999C23.1847 30.5011 26.2239 30.4999 29.2643 30.5011C30.1516 30.5011 30.4369 30.7754 30.4917 31.6601C30.6197 33.7142 32.2081 35.379 34.2552 35.5847C34.6126 35.6208 34.9771 35.5894 35.4837 35.5894C34.9969 34.9942 34.6313 34.6896 34.0362 34.5826C32.3909 34.2862 31.3114 32.8284 31.4232 31.1893C31.5303 29.6036 32.8567 28.2853 34.445 28.1854C36.0915 28.0819 37.5401 29.1607 37.8335 30.8091C37.9395 31.4055 38.2655 31.7554 38.7278 32.1611V32.1623ZM47.1911 24.9024C47.0676 23.4179 46.3655 22.7518 44.925 22.7262C44.0226 22.71 43.7827 22.4949 43.6173 21.6033C43.558 21.2824 43.4764 20.9592 43.3588 20.6558C42.9455 19.5886 42.135 19.0609 40.9962 19.1969C40.3697 19.2713 39.7397 19.4317 39.1459 19.6479C38.0944 20.0304 38.0955 20.0583 37.2874 19.2434C35.4196 17.3613 33.8232 17.4601 32.2104 19.5572C32.1987 19.5724 32.1883 19.5886 32.1754 19.6037C31.7912 20.0873 31.4127 20.1745 30.8515 19.913C30.4486 19.7258 30.055 19.5142 29.6393 19.3608C27.5316 18.5796 26.3369 19.2469 25.8793 21.4463C25.8595 21.5405 25.8478 21.637 25.835 21.7323C25.7104 22.6809 25.5113 22.8564 24.5297 22.8855C23.2138 22.9239 22.4651 23.6307 22.4022 24.9024H47.1887H47.1911ZM48.5779 42.0331V32.389H40.6655C40.5583 32.7517 40.4361 33.0784 40.3709 33.4166C40.3406 33.5724 40.3627 33.8096 40.4629 33.9095C43.1341 36.5996 45.8182 39.2768 48.5779 42.0331ZM36.6586 34.0421C36.7319 34.1235 36.803 34.2106 36.8822 34.2897C41.0847 38.4863 45.2872 42.6818 49.4897 46.8773C49.5584 46.9459 49.6224 47.0598 49.6993 47.0691C49.9054 47.0947 50.1942 47.1575 50.3048 47.0517C50.4143 46.9482 50.3944 46.6436 50.3397 46.453C50.2966 46.3054 50.115 46.1961 49.9927 46.074C46.4342 42.5202 42.8733 38.9676 39.317 35.4115C38.6475 34.7419 37.9907 34.0595 37.3014 33.3574C37.0661 33.6073 36.8705 33.8154 36.6574 34.0421H36.6586ZM33.2805 31.4148C33.2724 32.1751 33.9105 32.818 34.6709 32.818C35.4313 32.818 36.0694 32.1739 36.0612 31.4136C36.0531 30.6778 35.4359 30.0558 34.6988 30.0407C33.9373 30.0245 33.2887 30.6545 33.2805 31.4148Z" fill="url(#paint0_radial_104_140)"/>
<path d="M2.12313 47.1551C0.627975 46.5308 0.0189643 45.5485 0.336859 44.3372C0.618657 43.263 1.49432 42.5806 2.63782 42.5736C4.30065 42.5632 5.96349 42.5713 7.70318 42.5713C7.70318 42.2342 7.69503 41.9319 7.70434 41.6308C7.73811 40.5811 8.19924 39.7557 9.11799 39.2593C9.4976 39.0547 9.56863 38.828 9.56863 38.4514C9.56048 31.1985 9.56281 23.9456 9.56281 16.6916C9.56281 12.3392 9.55465 7.9879 9.5663 3.63548C9.57212 1.70572 11.3118 0.382785 13.1249 0.898938C14.2486 1.21863 15.066 2.2335 15.1347 3.40298C15.1487 3.63432 15.1417 3.86682 15.1417 4.09932C15.1417 15.5302 15.144 26.9612 15.1347 38.3921C15.1347 38.8129 15.215 39.064 15.6342 39.2907C16.5344 39.7766 16.9641 40.6067 17.0002 41.6285C17.0106 41.9157 17.0013 42.204 17.0013 42.569C17.6266 42.569 18.2193 42.569 18.812 42.569C19.8577 42.569 20.9046 42.5655 21.9502 42.569C23.2451 42.5736 24.1953 43.3235 24.4119 44.5034C24.6133 45.6008 23.9915 46.582 22.791 47.0609C22.7374 47.0818 22.6838 47.1051 22.5825 47.1481C22.5825 48.0351 22.5872 48.9395 22.5825 49.8451C22.5709 51.6133 21.4006 52.7781 19.6178 52.7804C14.7749 52.7851 9.9331 52.7851 5.09015 52.7804C3.3097 52.7793 2.13594 51.611 2.12662 49.8451C2.12196 48.9558 2.12662 48.0676 2.12662 47.1516L2.12313 47.1551ZM20.7194 47.2527H3.98392C3.98392 48.0804 3.98276 48.8698 3.98392 49.6591C3.98625 50.6391 4.27737 50.9274 5.26831 50.9274C9.79686 50.9274 14.3242 50.9274 18.8528 50.9274C19.1625 50.9274 19.4734 50.9402 19.782 50.9216C20.3351 50.889 20.6985 50.5542 20.7124 50.0079C20.7369 49.1034 20.7194 48.1967 20.7194 47.2516V47.2527ZM13.2821 34.1885V33.6863C13.2821 23.7503 13.2821 13.8132 13.2821 3.87728C13.2821 3.74243 13.2949 3.60293 13.2704 3.47157C13.1784 2.97285 12.878 2.66479 12.3656 2.65665C11.8521 2.64851 11.54 2.94844 11.4399 3.44483C11.4061 3.61223 11.4236 3.79126 11.4236 3.96563C11.4236 13.8435 11.4236 23.7224 11.4236 33.6003V34.1885H13.2832H13.2821ZM12.2876 45.3578C15.4223 45.3578 18.5582 45.3578 21.6929 45.3578C21.8478 45.3578 22.0376 45.4078 22.1482 45.3358C22.3182 45.2253 22.5208 45.0428 22.5441 44.8684C22.5604 44.744 22.3275 44.5464 22.1645 44.4523C22.0469 44.3848 21.8629 44.4302 21.708 44.4302C15.4771 44.4302 9.24491 44.4302 3.01393 44.4302C2.85906 44.4302 2.66809 44.3802 2.55863 44.4511C2.38746 44.5615 2.18601 44.744 2.16155 44.9196C2.14409 45.0428 2.37698 45.2486 2.54233 45.3334C2.6809 45.4043 2.88351 45.3578 3.05701 45.3578C6.13349 45.3578 9.21114 45.3578 12.2876 45.3578ZM9.56513 42.533H15.1394C15.1394 42.2086 15.1557 41.9203 15.1359 41.6343C15.0986 41.088 14.7574 40.7311 14.2066 40.7229C12.9711 40.7032 11.7345 40.7032 10.4979 40.7229C9.94591 40.7311 9.60473 41.0891 9.56863 41.6343C9.55 41.9203 9.56513 42.2086 9.56513 42.533ZM11.4446 38.8129H13.2529V36.1078H11.4446V38.8129Z" fill="url(#paint1_radial_104_140)"/>
<path d="M26.2994 6.36743C26.2959 8.41344 24.6109 10.0816 22.558 10.0712C20.5121 10.0607 18.8481 8.37043 18.8644 6.31976C18.8807 4.30049 20.5493 2.64857 22.5766 2.64624C24.6272 2.64392 26.3029 4.31793 26.2994 6.36743ZM24.4398 6.37673C24.4491 5.37 23.6212 4.5202 22.6139 4.50393C21.602 4.48765 20.7485 5.3049 20.724 6.31163C20.6996 7.34277 21.5473 8.21233 22.579 8.21349C23.5897 8.21465 24.4305 7.38462 24.4398 6.37556V6.37673Z" fill="url(#paint2_radial_104_140)"/>
<path d="M43.0648 2.6463C45.1131 2.65793 46.7748 4.34589 46.7573 6.39771C46.741 8.44023 45.0421 10.0933 42.9856 10.0712C40.9676 10.0491 39.3176 8.37281 39.3223 6.34772C39.3269 4.30287 41.0131 2.63468 43.0648 2.6463ZM44.8977 6.34656C44.8907 5.33983 44.0499 4.50515 43.0415 4.50399C42.0296 4.50399 41.1912 5.33402 41.1831 6.34307C41.1749 7.37422 42.0366 8.22982 43.0683 8.21471C44.0779 8.20076 44.9047 7.35562 44.8988 6.34656H44.8977Z" fill="url(#paint3_radial_104_140)"/>
<path d="M45.2316 11.9335C47.0551 12.0183 48.7261 12.9356 49.7671 14.813C50.7825 16.644 50.7313 18.5144 49.6938 20.3396C49.2967 21.0382 48.6888 21.1603 48.1718 20.6662C47.741 20.2547 47.8493 19.8304 48.1136 19.3572C49.0265 17.7274 48.6644 15.786 47.2635 14.6398C45.3701 13.0913 42.6395 13.7098 41.5263 15.9406C41.2072 16.58 40.873 16.7753 40.3642 16.6195C39.7505 16.4324 39.5281 15.922 39.7843 15.2896C40.5959 13.2901 42.6942 11.9184 45.2316 11.9335Z" fill="url(#paint4_radial_104_140)"/>
<path d="M26.358 15.8033C26.3068 16.1021 26.3557 16.502 26.181 16.6752C25.9423 16.9112 25.529 17.089 25.1948 17.0821C24.7034 17.0728 24.5007 16.6449 24.4646 16.1823C24.3505 14.7373 24.6905 13.4062 25.6011 12.2716C27.0323 10.4872 28.9128 9.73733 31.1591 10.2128C33.3715 10.6813 34.7945 12.0856 35.4186 14.2653C35.6061 14.9186 35.3918 15.3708 34.862 15.5266C34.2518 15.7068 33.8315 15.4383 33.6265 14.7384C33.0734 12.847 31.3139 11.6683 29.4892 11.967C27.5772 12.2797 26.2649 13.8573 26.3592 15.8033H26.358Z" fill="url(#paint5_radial_104_140)"/>
<path d="M35.6038 11.0001C34.062 11.0013 32.8009 9.73181 32.8126 8.19033C32.8242 6.67558 34.0783 5.43519 35.5979 5.43286C37.1408 5.4317 38.4008 6.69999 38.3891 8.24264C38.3775 9.75855 37.1234 10.9989 35.6038 11.0001ZM36.526 8.188C36.5109 7.68696 36.0742 7.27543 35.5735 7.29171C35.0705 7.30799 34.6606 7.74276 34.6757 8.24264C34.6908 8.74484 35.1275 9.15521 35.6282 9.13893C36.1313 9.12266 36.5412 8.68788 36.526 8.188Z" fill="url(#paint6_radial_104_140)"/>
<path d="M50.0098 5.4282C48.7336 5.42704 47.6891 4.37962 47.6914 3.10435C47.6937 1.82908 48.7394 0.787474 50.018 0.789799C51.2942 0.792124 52.3387 1.83722 52.3364 3.11365C52.3341 4.38776 51.2861 5.43053 50.0098 5.42936V5.4282ZM50.6945 3.15201C50.3755 2.9044 50.1938 2.65911 50.0576 2.68236C49.8736 2.71259 49.7234 2.94974 49.5592 3.09854C49.6989 3.22293 49.8293 3.43334 49.9807 3.44845C50.1519 3.46589 50.3417 3.30895 50.6957 3.15201H50.6945Z" fill="url(#paint7_radial_104_140)"/>
<path d="M47.6855 17.3832C47.6948 17.9633 47.399 18.3295 46.8704 18.3946C46.3382 18.4597 45.9085 18.1296 45.8387 17.5448C45.7653 16.9275 45.4451 16.6288 44.8314 16.5613C44.2771 16.5009 43.9569 16.0835 44.0035 15.5685C44.0512 15.0384 44.4192 14.7199 44.9875 14.7188C46.3801 14.7153 47.6645 15.9824 47.6867 17.3832H47.6855Z" fill="url(#paint8_radial_104_140)"/>
<path d="M32.8071 15.5696C32.8025 16.1381 32.4799 16.5008 31.9466 16.538C31.4307 16.5729 31.0255 16.2532 30.9603 15.6975C30.8893 15.0826 30.5772 14.7745 29.9612 14.7059C29.4011 14.6431 29.0809 14.2386 29.1205 13.7236C29.1612 13.1946 29.5304 12.8668 30.0928 12.8622C31.5029 12.8482 32.8164 14.1595 32.806 15.5696H32.8071Z" fill="url(#paint9_radial_104_140)"/>
<path d="M31.678 23.2688C31.4137 23.2084 30.9525 23.1398 30.5159 22.9945C29.9744 22.8143 29.7543 22.3551 29.8987 21.8517C30.0361 21.3751 30.5019 21.1403 31.0527 21.2286C31.4463 21.2914 31.8736 21.4018 32.2393 21.3077C32.5537 21.2275 32.8471 20.9264 33.0707 20.6567C33.4771 20.1649 33.9743 20.0068 34.4249 20.3103C34.8709 20.609 34.9652 21.1635 34.6252 21.6948C33.9859 22.6946 33.0672 23.2235 31.6768 23.27L31.678 23.2688Z" fill="url(#paint10_radial_104_140)"/>
<path d="M38.9236 23.5562C38.7257 23.4876 38.3041 23.3981 37.9431 23.2016C37.5065 22.9645 37.3528 22.5518 37.5542 22.0659C37.7464 21.6032 38.2156 21.3567 38.6907 21.5625C39.2858 21.8206 39.5757 21.5706 39.8447 21.087C40.1638 20.5128 40.6575 20.3477 41.1431 20.5999C41.6496 20.8627 41.7742 21.3893 41.4575 21.9915C40.9672 22.9215 40.2616 23.5388 38.9236 23.5574V23.5562Z" fill="url(#paint11_radial_104_140)"/>
<defs>
<radialGradient id="paint0_radial_104_140" cx="0" cy="0" r="1" gradientUnits="userSpaceOnUse" gradientTransform="translate(60.7631 7.14383) rotate(133.78) scale(62.3855 65.1666)">
<stop stop-color="#132341"/>
<stop offset="0.716111" stop-color="#25D7FF"/>
<stop offset="1" stop-color="#AAFFBE"/>
</radialGradient>
<radialGradient id="paint1_radial_104_140" cx="0" cy="0" r="1" gradientUnits="userSpaceOnUse" gradientTransform="translate(30.2004 -11.7498) rotate(114.842) scale(70.1786 55.9459)">
<stop stop-color="#132341"/>
<stop offset="0.716111" stop-color="#25D7FF"/>
<stop offset="1" stop-color="#AAFFBE"/>
</radialGradient>
<radialGradient id="paint2_radial_104_140" cx="0" cy="0" r="1" gradientUnits="userSpaceOnUse" gradientTransform="translate(28.0668 0.856091) rotate(134.894) scale(12.837 13.4214)">
<stop stop-color="#132341"/>
<stop offset="0.716111" stop-color="#25D7FF"/>
<stop offset="1" stop-color="#AAFFBE"/>
</radialGradient>
<radialGradient id="paint3_radial_104_140" cx="0" cy="0" r="1" gradientUnits="userSpaceOnUse" gradientTransform="translate(48.5248 0.856036) rotate(134.893) scale(12.8372 13.4216)">
<stop stop-color="#132341"/>
<stop offset="0.716111" stop-color="#25D7FF"/>
<stop offset="1" stop-color="#AAFFBE"/>
</radialGradient>
<radialGradient id="paint4_radial_104_140" cx="0" cy="0" r="1" gradientUnits="userSpaceOnUse" gradientTransform="translate(53.0733 9.7556) rotate(140.005) scale(17.2127 17.7224)">
<stop stop-color="#132341"/>
<stop offset="0.716111" stop-color="#25D7FF"/>
<stop offset="1" stop-color="#AAFFBE"/>
</radialGradient>
<radialGradient id="paint5_radial_104_140" cx="0" cy="0" r="1" gradientUnits="userSpaceOnUse" gradientTransform="translate(38.1101 8.38308) rotate(147.462) scale(15.9609 15.1335)">
<stop stop-color="#132341"/>
<stop offset="0.716111" stop-color="#25D7FF"/>
<stop offset="1" stop-color="#AAFFBE"/>
</radialGradient>
<radialGradient id="paint6_radial_104_140" cx="0" cy="0" r="1" gradientUnits="userSpaceOnUse" gradientTransform="translate(39.7148 4.09061) rotate(134.903) scale(9.62678 10.065)">
<stop stop-color="#132341"/>
<stop offset="0.716111" stop-color="#25D7FF"/>
<stop offset="1" stop-color="#AAFFBE"/>
</radialGradient>
<radialGradient id="paint7_radial_104_140" cx="0" cy="0" r="1" gradientUnits="userSpaceOnUse" gradientTransform="translate(53.4406 -0.328796) rotate(134.888) scale(8.02055 8.38564)">
<stop stop-color="#132341"/>
<stop offset="0.716111" stop-color="#25D7FF"/>
<stop offset="1" stop-color="#AAFFBE"/>
</radialGradient>
<radialGradient id="paint8_radial_104_140" cx="0" cy="0" r="1" gradientUnits="userSpaceOnUse" gradientTransform="translate(48.5632 13.8306) rotate(134.883) scale(6.36802 6.65789)">
<stop stop-color="#132341"/>
<stop offset="0.716111" stop-color="#25D7FF"/>
<stop offset="1" stop-color="#AAFFBE"/>
</radialGradient>
<radialGradient id="paint9_radial_104_140" cx="0" cy="0" r="1" gradientUnits="userSpaceOnUse" gradientTransform="translate(33.6842 11.9752) rotate(134.943) scale(6.3653 6.65508)">
<stop stop-color="#132341"/>
<stop offset="0.716111" stop-color="#25D7FF"/>
<stop offset="1" stop-color="#AAFFBE"/>
</radialGradient>
<radialGradient id="paint10_radial_104_140" cx="0" cy="0" r="1" gradientUnits="userSpaceOnUse" gradientTransform="translate(36.0126 19.4049) rotate(147.822) scale(7.16214 6.75067)">
<stop stop-color="#132341"/>
<stop offset="0.716111" stop-color="#25D7FF"/>
<stop offset="1" stop-color="#AAFFBE"/>
</radialGradient>
<radialGradient id="paint11_radial_104_140" cx="0" cy="0" r="1" gradientUnits="userSpaceOnUse" gradientTransform="translate(42.6206 19.7447) rotate(143.443) scale(6.31693 6.31978)">
<stop stop-color="#132341"/>
<stop offset="0.716111" stop-color="#25D7FF"/>
<stop offset="1" stop-color="#AAFFBE"/>
</radialGradient>
</defs>
</svg>
