<svg width="53" height="52" viewBox="0 0 53 52" fill="none" xmlns="http://www.w3.org/2000/svg">
<path d="M27.6573 0C28.7843 0.385368 29.8288 0.892323 30.6556 1.79186C32.4442 3.73519 32.7374 6.62854 31.3471 8.88099C29.9475 11.1489 27.1907 12.202 24.6455 11.4426C22.0849 10.678 20.3695 8.35239 20.419 5.71046C20.4675 3.10355 22.1272 0.921175 24.6579 0.131891C24.7684 0.0978877 24.8716 0.0443071 24.9789 0C25.8717 0 26.7645 0 27.6573 0ZM26.298 10.0052C28.6306 10.0165 30.5317 8.14116 30.54 5.81865C30.5482 3.49923 28.6646 1.60124 26.3372 1.58269C24.0273 1.56414 22.1045 3.46728 22.0962 5.78052C22.0869 8.10613 23.9654 9.99382 26.298 10.0062V10.0052Z" fill="url(#paint0_radial_104_133)"/>
<path d="M37.7443 51.999V39.4673H34.78V33.628H33.9502V51.9886H18.7234V33.6414H17.8863V39.4611H15.3566V52H3.56152V39.4879H0.179257C0.168935 39.254 0.154486 39.0737 0.153454 38.8933C0.152422 35.4827 0.149325 32.0731 0.153454 28.6625C0.157582 25.0922 2.63468 22.6347 6.22439 22.6316C7.49493 22.6306 8.76444 22.6316 10.035 22.6316C10.7905 22.6316 11.5481 22.5935 12.3005 22.643C13.0281 22.6904 13.7496 22.8274 14.5402 22.9335C14.5402 22.3204 14.5319 21.6764 14.5412 21.0324C14.5938 17.5765 16.6302 14.7604 19.8339 13.7311C20.3025 13.5806 20.7917 13.493 21.3026 13.3694C22.2243 15.4508 23.1295 17.4951 24.0346 19.5394L24.1368 19.5322C24.2772 18.069 24.4186 16.6048 24.5641 15.0932C24.3257 15.0675 24.1141 15.0438 23.8561 15.0149V13.3951H28.8319V15.0026C28.61 15.0314 28.3819 15.0603 28.1084 15.0943C28.2457 16.5801 28.3809 18.0412 28.5161 19.5033C28.5533 19.5178 28.5904 19.5322 28.6276 19.5466C29.5327 17.5064 30.4379 15.4652 31.3503 13.4096C33.6767 13.7414 35.4994 14.8222 36.8309 16.7264C38.1582 18.6254 38.2232 20.7924 38.1251 23.0397C39.8116 22.4441 41.4878 22.6636 43.1433 22.645C44.5666 22.6296 45.9992 22.5904 47.4111 22.7316C50.2154 23.0108 52.3901 25.2859 52.452 28.0876C52.5346 31.8217 52.4757 35.5579 52.4757 39.2942C52.4757 39.3261 52.4572 39.3591 52.4293 39.4518H49.5879V52H37.7433L37.7443 51.999ZM32.2431 50.442V31.8949H36.4077C36.4201 31.7537 36.4335 31.6713 36.4335 31.5889C36.4335 27.9907 36.4521 24.3915 36.4098 20.7934C36.4015 20.1092 36.2374 19.3921 35.9876 18.7511C35.3291 17.0654 34.0854 15.9546 32.336 15.3426C30.3347 19.865 28.353 24.3441 26.3177 28.9438C24.2741 24.3338 22.2893 19.8557 20.2932 15.3529C20.062 15.4374 19.8793 15.4879 19.7121 15.5683C17.4095 16.6852 16.207 18.5183 16.1926 21.0788C16.173 24.5399 16.1874 28.002 16.1885 31.4632C16.1885 31.595 16.2071 31.7269 16.2215 31.9134C17.4301 31.9134 18.6109 31.9371 19.7895 31.9021C20.2798 31.8877 20.4243 32.0196 20.4222 32.5214C20.4047 38.2792 20.4109 44.036 20.4109 49.7939C20.4109 49.9948 20.4109 50.1958 20.4109 50.4204H25.492V38.6914H27.1702V50.44H32.241L32.2431 50.442ZM8.60858 50.4214V41.2251H10.2878V50.4183H13.6742V37.7475H16.1637V33.6023H14.4937C14.4937 33.3539 14.4937 33.153 14.4937 32.951C14.4937 30.4152 14.4855 27.8805 14.502 25.3447C14.504 24.9768 14.405 24.7491 14.0427 24.6759C13.4585 24.5574 12.8743 24.3647 12.2871 24.3534C10.2455 24.3132 8.20296 24.3173 6.16143 24.3431C3.48721 24.3771 1.84511 26.0484 1.83788 28.7141C1.83066 31.5404 1.83582 34.3678 1.83788 37.1942C1.83788 37.3735 1.85543 37.5528 1.86678 37.7754H5.20569V50.4214H8.60962H8.60858ZM39.4349 37.762V38.4606C39.4349 42.0257 39.4349 45.5909 39.4349 49.1551C39.4349 50.0233 39.8736 50.4575 40.7509 50.4575C41.4279 50.4575 42.106 50.4575 42.8326 50.4575V41.2262H44.514V50.4214H47.8962V37.7517H50.8006C50.8006 37.5178 50.8006 37.3498 50.8006 37.1808C50.8006 34.3874 50.8037 31.593 50.8006 28.7996C50.7975 26.0278 49.1657 24.3637 46.4048 24.34C44.4138 24.3225 42.4208 24.3122 40.4309 24.3524C39.8261 24.3647 39.2233 24.5502 38.6206 24.6656C38.2346 24.7398 38.1313 24.983 38.1344 25.3704C38.152 27.9073 38.1437 30.4431 38.1437 32.9799C38.1437 33.1788 38.1437 33.3766 38.1437 33.6239H36.4676V37.7609H39.4359L39.4349 37.762ZM26.3301 24.7584C26.5654 24.2339 26.7708 23.8372 26.9205 23.4209C27.0268 23.1252 27.1351 22.7955 27.1093 22.4925C26.9019 20.1391 26.6624 17.7877 26.4302 15.4364C26.4199 15.3333 26.3889 15.2313 26.3683 15.1293C26.2599 15.2025 26.2289 15.2766 26.2217 15.3519C26.0122 17.5507 25.8646 19.7578 25.5725 21.9454C25.4311 23.0005 25.9203 23.7754 26.3311 24.7584H26.3301Z" fill="url(#paint1_radial_104_133)"/>
<path d="M48.1605 16.2567C48.1471 18.8636 45.9889 20.9914 43.3869 20.9625C40.7881 20.9337 38.6609 18.7647 38.6887 16.1701C38.7156 13.5849 40.8438 11.5004 43.4468 11.5076C46.0736 11.5148 48.1739 13.6312 48.1605 16.2567ZM43.4448 19.2593C45.124 19.25 46.4967 17.8723 46.4823 16.2103C46.4678 14.5462 45.0745 13.1696 43.4127 13.1779C41.7438 13.1871 40.3783 14.5679 40.3866 16.2412C40.3938 17.9249 41.7552 19.2685 43.4448 19.2593Z" fill="url(#paint2_radial_104_133)"/>
<path d="M4.47657 16.2361C4.47244 13.6137 6.58209 11.5065 9.21297 11.5076C11.8346 11.5076 13.9576 13.6322 13.9483 16.2453C13.9401 18.8244 11.8139 20.9491 9.22949 20.9625C6.62441 20.9759 4.4807 18.844 4.47657 16.235V16.2361ZM9.22225 19.2592C10.9087 19.2531 12.2629 17.8898 12.2495 16.2103C12.2371 14.5359 10.8561 13.1665 9.19026 13.1778C7.52133 13.1892 6.14447 14.5782 6.15376 16.2392C6.16305 17.9094 7.53991 19.2654 9.22123 19.2582L9.22225 19.2592Z" fill="url(#paint3_radial_104_133)"/>
<path d="M10.2483 26.0579V27.6601H7.79492V26.0579H10.2483Z" fill="url(#paint4_radial_104_133)"/>
<path d="M42.4053 26.0425H44.8535V27.6633H42.4053V26.0425Z" fill="url(#paint5_radial_104_133)"/>
<defs>
<radialGradient id="paint0_radial_104_133" cx="0" cy="0" r="1" gradientUnits="userSpaceOnUse" gradientTransform="translate(35.0278 -2.81771) rotate(135.14) scale(20.2926 21.2163)">
<stop stop-color="#132341"/>
<stop offset="0.716111" stop-color="#25D7FF"/>
<stop offset="1" stop-color="#AAFFBE"/>
</radialGradient>
<radialGradient id="paint1_radial_104_133" cx="0" cy="0" r="1" gradientUnits="userSpaceOnUse" gradientTransform="translate(64.9386 4.05562) rotate(143.434) scale(79.4184 79.462)">
<stop stop-color="#132341"/>
<stop offset="0.716111" stop-color="#25D7FF"/>
<stop offset="1" stop-color="#AAFFBE"/>
</radialGradient>
<radialGradient id="paint2_radial_104_133" cx="0" cy="0" r="1" gradientUnits="userSpaceOnUse" gradientTransform="translate(50.4121 9.22793) rotate(134.906) scale(16.3505 17.0948)">
<stop stop-color="#132341"/>
<stop offset="0.716111" stop-color="#25D7FF"/>
<stop offset="1" stop-color="#AAFFBE"/>
</radialGradient>
<radialGradient id="paint3_radial_104_133" cx="0" cy="0" r="1" gradientUnits="userSpaceOnUse" gradientTransform="translate(16.1999 9.22799) rotate(134.906) scale(16.35 17.0943)">
<stop stop-color="#132341"/>
<stop offset="0.716111" stop-color="#25D7FF"/>
<stop offset="1" stop-color="#AAFFBE"/>
</radialGradient>
<radialGradient id="paint4_radial_104_133" cx="0" cy="0" r="1" gradientUnits="userSpaceOnUse" gradientTransform="translate(10.8314 25.6716) rotate(146.718) scale(3.57615 3.43049)">
<stop stop-color="#132341"/>
<stop offset="0.716111" stop-color="#25D7FF"/>
<stop offset="1" stop-color="#AAFFBE"/>
</radialGradient>
<radialGradient id="paint5_radial_104_133" cx="0" cy="0" r="1" gradientUnits="userSpaceOnUse" gradientTransform="translate(45.4354 25.6517) rotate(146.36) scale(3.58343 3.45587)">
<stop stop-color="#132341"/>
<stop offset="0.716111" stop-color="#25D7FF"/>
<stop offset="1" stop-color="#AAFFBE"/>
</radialGradient>
</defs>
</svg>
