<svg width="40" height="36" viewBox="0 0 40 36" fill="none" xmlns="http://www.w3.org/2000/svg">
<path d="M39.2364 26.1189C39.0421 27.0387 38.4693 27.6944 37.7937 28.3109C35.4066 30.4876 33.041 32.6897 30.67 34.884C29.9982 35.506 29.2081 35.8592 28.2998 35.9275C27.6764 35.9743 27.0506 36.0035 26.4256 35.9997C23.0796 35.982 19.7343 35.962 16.3882 35.919C15.6112 35.9091 14.8349 35.8169 14.0602 35.7409C13.0782 35.6434 12.1991 35.228 11.3161 34.8249C10.2258 34.3266 9.13019 33.8406 8.03685 33.35C7.91093 33.2939 7.78117 33.2463 7.7113 33.2179C7.52933 33.6809 7.418 34.1623 7.17 34.557C6.67554 35.3432 5.9039 35.7317 4.98101 35.7647C4.20323 35.7924 3.42238 35.7877 2.64383 35.767C1.13203 35.7286 0.00413487 34.5639 0.00259927 33.0544C-0.000471925 29.6953 -0.00123972 26.3361 0.00259927 22.9778C0.00413487 21.4783 1.109 20.3366 2.61772 20.2867C3.38322 20.2613 4.15025 20.2659 4.91651 20.282C6.16726 20.3082 7.09937 21.0007 7.51167 22.18C7.52703 22.2246 7.5493 22.2676 7.56388 22.3021C8.16891 22.0311 8.75704 21.7677 9.36514 21.4952C9.25765 20.9124 9.12712 20.3051 9.03499 19.6916C8.75167 17.8105 8.87375 15.9478 9.36514 14.1128C9.43501 13.851 9.37512 13.7043 9.2039 13.5124C6.98266 11.0262 5.6083 8.18154 5.50925 4.79017C5.48238 3.86958 5.84632 3.24766 6.6694 2.82C8.34474 1.95008 9.99857 1.0387 11.6563 0.135771C11.9787 -0.0400546 12.272 -0.0477327 12.596 0.128093C14.3105 1.06097 16.0289 1.98463 17.7464 2.91213C18.267 3.19315 18.6425 3.58472 18.7162 4.23966C19.2045 4.12065 19.6667 3.99243 20.1351 3.89722C23.0189 3.31216 25.8198 3.58703 28.5348 4.72874C29.1045 4.9683 29.3218 5.36755 29.1244 5.82132C28.9333 6.26127 28.5048 6.39103 27.9559 6.16069C25.181 4.99594 22.3471 4.83624 19.4556 5.65855C19.3696 5.68312 19.2859 5.71844 19.1983 5.73303C18.8068 5.79829 18.677 6.01634 18.6025 6.42097C18.042 9.4914 16.6446 12.1188 14.3121 14.2164C13.9635 14.5297 13.5543 14.7777 13.1627 15.0403C12.4893 15.491 11.8052 15.4971 11.1203 15.0556C11.0167 14.9888 10.9038 14.9351 10.7902 14.8729C10.2558 16.6504 10.3487 19.6939 10.9959 21.3516H11.4236C15.2165 21.3516 19.0102 21.36 22.8032 21.3454C23.6692 21.3424 24.4416 21.5297 25.1035 22.1132C25.1741 22.1754 25.3668 22.1724 25.462 22.1217C26.1554 21.7516 26.5608 20.8663 26.4064 20.107C26.2314 19.2432 25.5496 18.5637 24.7134 18.5261C23.6938 18.48 22.6711 18.5 21.6492 18.4977C20.4798 18.4954 19.4947 18.0785 18.7807 17.1441C17.933 16.0369 17.7756 14.8053 18.3607 13.5392C18.9519 12.2585 20.0053 11.5959 21.4096 11.4984C21.663 11.4808 21.9179 11.4961 22.2319 11.4961C22.2319 10.8903 22.2265 10.3083 22.2334 9.72635C22.2388 9.26797 22.4822 8.9501 22.8584 8.88023C23.3491 8.78963 23.7575 9.1267 23.7698 9.65648C23.7829 10.2531 23.7729 10.8504 23.7729 11.4908C24.3695 11.4908 24.9277 11.4908 25.4858 11.4908C26.0348 11.4908 26.5846 11.4831 27.1335 11.4938C27.6518 11.5038 27.9858 11.827 27.9774 12.2862C27.9689 12.7323 27.6518 13.0333 27.1381 13.0356C25.2993 13.044 23.4596 13.0317 21.6207 13.0425C20.2917 13.0501 19.3995 14.0921 19.6145 15.3589C19.7604 16.2158 20.5051 16.903 21.3935 16.9314C22.4016 16.9636 23.4113 16.9367 24.4201 16.9498C26.2314 16.9728 27.605 18.1192 27.9313 19.869C28.1946 21.2779 27.5128 22.7444 26.2298 23.4746C26.0087 23.6005 25.9427 23.7179 25.9527 23.9744C26.0064 25.4056 24.8094 26.6901 23.3299 26.73C21.6837 26.7746 20.0352 26.7415 18.3875 26.7561C18.138 26.7584 17.8747 26.7953 17.6428 26.8828C17.2535 27.0295 17.047 27.375 17.0677 27.7458C17.09 28.1512 17.3272 28.4092 17.6827 28.5459C17.8677 28.6173 18.0804 28.6426 18.2808 28.6426C21.1286 28.6518 23.9771 28.6534 26.8249 28.6549C27.0545 28.6549 27.2848 28.6495 27.5144 28.6365C28.0526 28.6042 28.5056 28.4253 28.9156 28.036C30.3591 26.6632 31.7603 25.2297 33.3212 24.0013C34.5935 22.9993 35.0403 21.684 35.3183 20.2406C36.0062 16.6657 35.316 13.3711 33.2176 10.3828C32.9489 10.0005 32.9373 9.65187 33.1638 9.35934C33.3757 9.086 33.7451 8.96853 34.0537 9.12363C34.2165 9.20501 34.3677 9.34629 34.4737 9.49601C36.556 12.4298 37.4213 15.6944 37.0174 19.2655C36.8892 20.398 36.5836 21.5105 36.3517 22.6676C36.3748 22.673 36.4907 22.7037 36.6089 22.7283C37.9441 22.9993 38.8302 23.7548 39.1703 25.1008C39.1857 25.1606 39.2141 25.2182 39.2364 25.2766V26.1196V26.1189ZM16.8719 22.8949V22.8972C14.8541 22.8972 12.8364 22.8857 10.8186 22.9018C9.67379 22.911 8.67259 23.3264 7.85181 24.1272C7.71668 24.2592 7.61763 24.4957 7.61686 24.6854C7.60074 26.8306 7.61149 28.9766 7.59997 31.1218C7.59843 31.3783 7.67675 31.5019 7.91093 31.6048C9.4281 32.2728 10.9491 32.9338 12.4463 33.6441C13.307 34.0525 14.2069 34.2852 15.1398 34.3013C19.2244 34.3735 23.3107 34.4088 27.3961 34.4556C28.4403 34.4679 29.3072 34.1209 30.0673 33.3577C31.2113 32.2098 32.4375 31.1441 33.6284 30.0438C34.8192 28.9436 36.0193 27.8518 37.1986 26.7385C38.0079 25.9753 37.7852 24.7967 36.7571 24.369C36.03 24.0665 35.3536 24.1832 34.7693 24.7207C33.1715 26.191 31.5576 27.6429 29.9928 29.1478C29.2711 29.8419 28.4426 30.1536 27.4791 30.1805C26.6752 30.2028 25.8705 30.1997 25.0659 30.1989C22.7287 30.1966 20.3915 30.2028 18.0551 30.1805C16.4481 30.1652 15.2787 28.7655 15.5582 27.2375C15.7655 26.1035 16.8366 25.239 18.1111 25.2136C19.1707 25.1921 20.231 25.2075 21.2914 25.2067C21.9302 25.2067 22.569 25.2221 23.207 25.199C23.8834 25.1745 24.4163 24.6454 24.4109 24.0458C24.4056 23.4569 23.8911 22.9548 23.2331 22.9025C23.0934 22.8918 22.9521 22.8956 22.8116 22.8956C20.8322 22.8956 18.8528 22.8956 16.8734 22.8956L16.8719 22.8949ZM17.1929 5.18942C17.3741 4.54831 17.0523 4.26116 16.5295 3.9955C15.1428 3.29066 13.7884 2.52209 12.4125 1.79729C12.2728 1.72358 12.0332 1.70669 11.8989 1.77733C10.3863 2.57277 8.8891 3.39661 7.37961 4.19743C7.12854 4.33026 7.04485 4.49149 7.05023 4.76867C7.07633 6.24668 7.42491 7.64792 8.04222 8.98312C8.80541 10.6347 9.76747 12.1541 11.2416 13.2628C12.2559 14.026 12.0463 14.0659 13.0375 13.2459C15.5597 11.1591 16.855 8.40036 17.1929 5.18866V5.18942ZM6.06207 28.0345C6.06207 26.3745 6.06284 24.7146 6.06207 23.0546C6.06207 22.2998 5.61521 21.8376 4.8597 21.8253C4.15793 21.8146 3.45539 21.8138 2.75285 21.8253C1.99964 21.8376 1.54357 22.3067 1.54357 23.0561C1.54204 26.363 1.54204 29.6707 1.54357 32.9776C1.54357 33.7231 1.95434 34.1915 2.69757 34.2237C3.43696 34.2552 4.17943 34.256 4.91882 34.2237C5.66742 34.1907 6.06207 33.7339 6.06284 32.9768C6.06437 31.3299 6.06284 29.6822 6.06284 28.0353L6.06207 28.0345Z" fill="url(#paint0_radial_104_114)"/>
<path d="M30.6338 7.32874C30.6399 6.89263 30.9824 6.56324 31.4177 6.57553C31.8262 6.58628 32.1648 6.92872 32.1694 7.33565C32.174 7.7541 31.8147 8.11189 31.3931 8.11113C30.9624 8.10959 30.6284 7.76562 30.6346 7.32951L30.6338 7.32874Z" fill="url(#paint1_radial_104_114)"/>
<path d="M11.6779 7.56478C12.4058 6.88068 13.1183 6.20501 13.84 5.5401C13.9859 5.40573 14.1541 5.26216 14.3376 5.20841C14.6731 5.1086 14.9756 5.22377 15.1653 5.52935C15.3618 5.84568 15.3396 6.17353 15.0923 6.44994C14.7699 6.81081 14.4213 7.14941 14.0834 7.49722C13.5414 8.05541 13.0016 8.61667 12.4542 9.16949C12.0042 9.62402 11.6226 9.6294 11.1589 9.2002C10.775 8.84471 10.3903 8.48998 10.0141 8.12681C9.64633 7.77209 9.61408 7.29606 9.92427 6.97358C10.2329 6.65341 10.6698 6.65571 11.0514 6.9897C11.291 7.19931 11.5205 7.42044 11.6772 7.56478H11.6779Z" fill="url(#paint2_radial_104_114)"/>
<defs>
<radialGradient id="paint0_radial_104_114" cx="0" cy="0" r="1" gradientUnits="userSpaceOnUse" gradientTransform="translate(48.563 -8.67953) rotate(137.318) scale(65.0396 67.7782)">
<stop stop-color="#132341"/>
<stop offset="0.716111" stop-color="#25D7FF"/>
<stop offset="1" stop-color="#AAFFBE"/>
</radialGradient>
<radialGradient id="paint1_radial_104_114" cx="0" cy="0" r="1" gradientUnits="userSpaceOnUse" gradientTransform="translate(32.5345 6.20489) rotate(134.849) scale(2.65341 2.77418)">
<stop stop-color="#132341"/>
<stop offset="0.716111" stop-color="#25D7FF"/>
<stop offset="1" stop-color="#AAFFBE"/>
</radialGradient>
<radialGradient id="paint2_radial_104_114" cx="0" cy="0" r="1" gradientUnits="userSpaceOnUse" gradientTransform="translate(16.6245 4.12624) rotate(141.986) scale(8.63715 8.76323)">
<stop stop-color="#132341"/>
<stop offset="0.716111" stop-color="#25D7FF"/>
<stop offset="1" stop-color="#AAFFBE"/>
</radialGradient>
</defs>
</svg>
