<svg width="37" height="36" viewBox="0 0 37 36" fill="none" xmlns="http://www.w3.org/2000/svg">
<path d="M36.3044 19.4059C36.0558 19.8243 35.6817 19.9356 35.209 19.9237C34.2355 19.8976 33.2605 19.9145 32.2856 19.9166C31.8065 19.9173 31.7079 20.016 31.7058 20.4915C31.7037 21.1593 31.7128 21.8278 31.7023 22.4956C31.6938 23.0289 31.3902 23.355 30.9295 23.3557C30.5294 23.3557 30.1807 23.0732 30.175 22.6738C30.1574 21.4791 30.1567 20.2836 30.1729 19.0882C30.1786 18.65 30.5104 18.383 31.0133 18.3732C31.6473 18.3605 32.282 18.3852 32.9146 18.3598C33.102 18.3521 33.3803 18.2774 33.4423 18.1499C33.505 18.0188 33.4014 17.7476 33.2873 17.6018C32.3842 16.4472 31.4719 15.3004 30.5392 14.1698C30.2596 13.8309 30.1511 13.4829 30.1532 13.0483C30.1666 9.82544 30.1602 6.6033 30.1602 3.38046C30.1602 2.769 30.0771 2.68377 29.4776 2.69011C28.8556 2.69645 28.2336 2.70138 27.6116 2.71335C27.1776 2.72181 27.0776 2.82606 27.0783 3.26423C27.0811 4.9866 27.0846 6.70967 27.0938 8.43204C27.0952 8.7265 27.0487 8.99137 26.8036 9.18651C26.4513 9.46758 26.0005 9.39573 25.6602 8.9956C24.6205 7.77127 23.5828 6.54483 22.5445 5.3191C21.7104 4.33499 20.8806 3.34806 20.0416 2.36817C19.0969 1.26501 17.4492 1.26572 16.4919 2.36606C15.822 3.13602 15.1626 3.91373 14.4891 4.68087C14.2137 4.99435 13.8636 5.0655 13.5395 4.907C13.2373 4.75906 13.0549 4.43079 13.1303 4.08984C13.1662 3.92711 13.2585 3.76157 13.367 3.63266C14.0637 2.80916 14.7568 1.98143 15.4796 1.18118C16.9237 -0.417204 19.7281 -0.372824 21.1271 1.2629C22.3388 2.67954 23.5399 4.10604 24.7466 5.52761C24.8896 5.69598 25.022 5.89956 25.2975 5.79671C25.5687 5.69527 25.5454 5.45858 25.5454 5.23527C25.5454 4.55548 25.5405 3.87569 25.5468 3.1966C25.5581 1.9603 26.34 1.1833 27.5792 1.17484C28.2716 1.16991 28.9648 1.17062 29.6573 1.17484C30.9168 1.18259 31.7002 1.95889 31.7016 3.21985C31.7065 6.36027 31.7079 9.50069 31.6966 12.6411C31.6952 12.9905 31.7861 13.2617 32.0066 13.5336C33.3366 15.1715 34.6525 16.822 35.9719 18.469C36.0875 18.6134 36.1924 18.7663 36.3023 18.9156V19.408L36.3044 19.4059Z" fill="url(#paint0_radial_104_108)"/>
<path d="M6.43545 35.9992C6.06703 35.7843 5.65422 35.6195 5.34074 35.3426C4.91385 34.9665 4.83143 34.4198 4.83143 33.8626C4.83495 29.4506 4.83354 25.0387 4.83354 20.6261C4.83354 19.966 4.78141 19.9153 4.10796 19.9153C3.16964 19.9153 2.23132 19.8955 1.2944 19.9237C0.82806 19.9378 0.476544 19.8089 0.236328 19.4052C0.236328 19.2411 0.236328 19.077 0.236328 18.9128C1.1979 17.7794 2.15876 16.6452 3.12174 15.5132C3.51693 15.049 3.91494 14.5868 4.31577 14.1282C4.66306 13.7309 5.10968 13.6711 5.4612 13.9655C5.81061 14.2586 5.83245 14.7242 5.49713 15.1187C4.82157 15.9133 4.13684 16.7009 3.45564 17.492C3.38661 17.5716 3.29081 17.642 3.25699 17.735C3.20839 17.866 3.1485 18.0414 3.19993 18.1464C3.25135 18.2521 3.43028 18.3521 3.55708 18.3563C4.1784 18.3782 4.80114 18.3634 5.42316 18.3683C6.10929 18.3732 6.37839 18.6444 6.37839 19.3341C6.3798 24.1497 6.37839 28.9653 6.37909 33.7802C6.37909 34.3782 6.45306 34.4536 7.03986 34.4536C11.8879 34.4536 16.7359 34.4536 21.5839 34.4543C22.2136 34.4543 22.5891 34.8375 22.4954 35.3736C22.4383 35.6991 22.2024 35.8639 21.9326 35.9978H6.43475L6.43545 35.9992Z" fill="url(#paint1_radial_104_108)"/>
<path d="M24.9624 35.9992C24.5313 35.7907 24.389 35.4455 24.3897 34.9742C24.3925 33.9126 24.2206 32.8721 23.8134 31.8859C22.8448 29.538 20.9865 28.3904 18.5463 28.0572C18.106 27.9974 17.658 27.9924 17.2128 27.9664C16.6732 27.9347 16.3555 27.6487 16.3555 27.1865C16.3555 26.7237 16.6739 26.4335 17.2149 26.4201C18.4449 26.3898 19.648 26.2236 20.773 25.6974C22.8174 24.7407 23.8804 23.062 24.2495 20.8994C24.3418 20.3591 24.3636 19.8061 24.3939 19.2573C24.4235 18.7318 24.7053 18.3887 25.1568 18.3782C25.621 18.3676 25.8979 18.7226 25.9564 19.2594C26.0536 20.152 26.1015 21.0684 26.3523 21.9215C27.068 24.3575 28.7875 25.7389 31.2482 26.22C31.866 26.3412 32.5042 26.3694 33.1347 26.4159C33.6743 26.4553 33.9927 26.7244 33.9913 27.1894C33.9906 27.6508 33.6729 27.9565 33.1326 27.9628C31.9716 27.9762 30.8403 28.1354 29.7674 28.5947C27.6097 29.5183 26.484 31.2273 26.0951 33.4744C26.0078 33.9802 25.962 34.498 25.9585 35.0115C25.955 35.4729 25.8007 35.8005 25.3836 35.9999H24.961L24.9624 35.9992ZM28.7164 27.1865C28.5882 27.0393 28.5142 26.8963 28.3973 26.8301C27.1715 26.1383 26.2233 25.1789 25.5259 23.9602C25.3407 23.6368 25.011 23.6305 24.8307 23.9489C24.1311 25.1824 23.1632 26.1376 21.9354 26.8449C21.6113 27.0316 21.6135 27.3521 21.9382 27.5367C23.1611 28.2305 24.1171 29.1822 24.8152 30.4016C25.0145 30.7503 25.3301 30.7567 25.5266 30.4136C26.224 29.1949 27.1736 28.2362 28.398 27.543C28.5149 27.4768 28.5882 27.3338 28.7164 27.1873V27.1865Z" fill="url(#paint2_radial_104_108)"/>
<path d="M0.236328 7.45304C0.444844 7.02192 0.790724 6.88666 1.26341 6.88525C4.49822 6.8761 7.12369 4.24781 7.1413 1.02356C7.1413 0.929868 7.13778 0.835473 7.14342 0.742486C7.17089 0.295163 7.47732 0 7.91197 0C8.34943 0 8.64389 0.290232 8.68756 0.739668C8.74392 1.32013 8.75026 1.91539 8.89326 2.47542C9.56037 5.08821 11.9041 6.88032 14.5986 6.89582C14.8029 6.89723 15.0241 6.92963 15.2072 7.01346C15.5024 7.14801 15.6426 7.50869 15.5742 7.81724C15.4946 8.17439 15.2037 8.3977 14.8155 8.43644C14.2344 8.49421 13.6398 8.51041 13.0777 8.6513C10.5339 9.28671 8.70729 11.6466 8.68827 14.2664C8.68334 14.9695 8.41001 15.3344 7.89858 15.3238C7.40054 15.3125 7.14623 14.9589 7.1406 14.27C7.11524 11.0739 4.46723 8.43997 1.2613 8.44419C0.7865 8.44419 0.443435 8.30753 0.236328 7.875V7.45304ZM7.90845 10.7315C8.04793 10.6195 8.18459 10.5554 8.25222 10.4483C8.88199 9.45014 9.69492 8.64144 10.6945 8.01166C11.0143 7.81019 11.0115 7.51644 10.6896 7.31215C9.70196 6.6866 8.8989 5.88494 8.27264 4.89872C8.0592 4.56199 7.76967 4.56481 7.5527 4.90506C6.92504 5.89058 6.11845 6.68871 5.13152 7.31497C4.81029 7.51855 4.811 7.80878 5.13293 8.01166C6.12126 8.6358 6.92786 9.43535 7.55411 10.4209C7.62808 10.5371 7.76896 10.6118 7.90774 10.7308L7.90845 10.7315Z" fill="url(#paint3_radial_104_108)"/>
<path d="M28.4139 35.9994C28.3435 35.9593 28.2702 35.9227 28.2026 35.8783C27.9046 35.6831 27.7659 35.3535 27.8645 35.0259C27.9652 34.6906 28.2026 34.4877 28.5527 34.4638C28.8796 34.4405 29.2093 34.456 29.5375 34.4553C30.0722 34.4539 30.161 34.363 30.1617 33.8157C30.1624 33.1718 30.1582 32.5279 30.1631 31.8841C30.1673 31.36 30.4681 31.0169 30.9182 31.0099C31.3705 31.0035 31.6974 31.3416 31.7051 31.8608C31.7164 32.5984 31.7277 33.3359 31.7023 34.0728C31.6657 35.1111 31.0704 35.7134 30.106 35.9987H28.4154L28.4139 35.9994Z" fill="url(#paint4_radial_104_108)"/>
<defs>
<radialGradient id="paint0_radial_104_108" cx="0" cy="0" r="1" gradientUnits="userSpaceOnUse" gradientTransform="translate(41.8171 -5.62011) rotate(134.663) scale(40.2033 42.0307)">
<stop stop-color="#132341"/>
<stop offset="0.716111" stop-color="#25D7FF"/>
<stop offset="1" stop-color="#AAFFBE"/>
</radialGradient>
<radialGradient id="paint1_radial_104_108" cx="0" cy="0" r="1" gradientUnits="userSpaceOnUse" gradientTransform="translate(27.8041 8.42394) rotate(134.925) scale(38.4344 40.1841)">
<stop stop-color="#132341"/>
<stop offset="0.716111" stop-color="#25D7FF"/>
<stop offset="1" stop-color="#AAFFBE"/>
</radialGradient>
<radialGradient id="paint2_radial_104_108" cx="0" cy="0" r="1" gradientUnits="userSpaceOnUse" gradientTransform="translate(38.1834 14.1293) rotate(134.877) scale(30.4577 31.8441)">
<stop stop-color="#132341"/>
<stop offset="0.716111" stop-color="#25D7FF"/>
<stop offset="1" stop-color="#AAFFBE"/>
</radialGradient>
<radialGradient id="paint3_radial_104_108" cx="0" cy="0" r="1" gradientUnits="userSpaceOnUse" gradientTransform="translate(19.2412 -3.6946) rotate(134.912) scale(26.5022 27.7087)">
<stop stop-color="#132341"/>
<stop offset="0.716111" stop-color="#25D7FF"/>
<stop offset="1" stop-color="#AAFFBE"/>
</radialGradient>
<radialGradient id="paint4_radial_104_108" cx="0" cy="0" r="1" gradientUnits="userSpaceOnUse" gradientTransform="translate(32.641 29.8068) rotate(127.761) scale(7.73015 7.82543)">
<stop stop-color="#132341"/>
<stop offset="0.716111" stop-color="#25D7FF"/>
<stop offset="1" stop-color="#AAFFBE"/>
</radialGradient>
</defs>
</svg>
