<svg width="37" height="36" viewBox="0 0 37 36" fill="none" xmlns="http://www.w3.org/2000/svg">
<path d="M29.7285 4.11456C29.7285 3.24466 29.727 2.45537 29.7301 1.66531C29.7301 1.51252 29.7316 1.35666 29.7616 1.20847C29.8406 0.817668 30.1662 0.553548 30.5462 0.550477C30.9301 0.547406 31.2534 0.804616 31.3394 1.19773C31.3693 1.33286 31.3739 1.47643 31.3739 1.6154C31.3762 2.99512 31.377 4.37408 31.3747 5.7538C31.3739 6.5308 31.0845 6.8218 30.3144 6.8218C28.884 6.82333 27.4536 6.82871 26.0232 6.81873C25.326 6.81412 24.9114 6.1876 25.2155 5.62174C25.3836 5.30848 25.6631 5.1841 26.0094 5.18487C26.6351 5.1864 27.2609 5.18487 27.8866 5.18487C28.0118 5.18487 28.1362 5.18487 28.3012 5.11039C28.2022 5.02977 28.1062 4.94531 28.0041 4.8693C18.5933 -2.13602 4.88205 2.92372 2.366 14.3845C1.11681 20.0739 2.56025 25.0983 6.53127 29.3803C6.68483 29.5461 6.84453 29.7281 6.92592 29.9323C7.06335 30.2778 6.89059 30.6717 6.57734 30.8606C6.23337 31.0679 5.83182 31.0341 5.53852 30.6886C4.7715 29.7849 3.95687 28.9081 3.2981 27.9284C1.27037 24.9125 0.306788 21.5542 0.303717 17.9225C0.297575 10.6416 4.87515 3.87732 11.6962 1.30675C18.042 -1.08492 23.9717 -0.175853 29.4092 3.88807C29.489 3.94719 29.5711 4.00323 29.727 4.11303L29.7285 4.11456Z" fill="url(#paint0_radial_104_92)"/>
<path d="M7.45954 20.8752C8.38857 20.8752 9.31759 20.8752 10.2466 20.8752C10.9921 20.8752 11.3914 21.1693 11.3837 21.7091C11.376 22.2381 10.986 22.5229 10.265 22.5229C8.92448 22.5229 7.58468 22.5252 6.24412 22.5229C5.45099 22.5206 5.13083 22.1398 5.24216 21.3574C5.34581 20.6311 5.74506 20.0752 6.28558 19.6284C6.81536 19.1899 7.3935 18.8114 7.94401 18.3983C8.37167 18.0774 8.81699 17.7718 9.20626 17.4087C9.76829 16.8835 9.88422 16.2562 9.57787 15.7602C9.27536 15.2696 8.526 15.0339 7.86646 15.2235C7.35972 15.3694 7.0027 15.6919 6.75163 16.151C6.55815 16.5057 6.24258 16.6478 5.84871 16.5656C5.48324 16.4896 5.26366 16.2409 5.23141 15.8769C5.21528 15.6988 5.26826 15.493 5.35041 15.3303C6.18807 13.668 8.37781 13.0223 9.98941 13.9521C11.3492 14.7368 11.826 16.4658 10.9507 17.7956C10.5614 18.3868 9.97866 18.8636 9.4366 19.3381C9.0266 19.6967 8.53905 19.9669 8.09066 20.2825C7.86416 20.4422 7.64688 20.615 7.42575 20.7823C7.43727 20.8131 7.44802 20.8445 7.45954 20.8752Z" fill="url(#paint1_radial_104_92)"/>
<path d="M17.619 19.8549C17.619 20.6296 17.6313 21.3429 17.6113 22.0546C17.6052 22.2596 17.5514 22.4945 17.437 22.6596C17.2313 22.9568 16.9149 23.0566 16.5571 22.9345C16.1871 22.8086 15.9997 22.5368 15.9943 22.1544C15.9851 21.4043 15.9913 20.6542 15.9913 19.8595C15.774 19.8595 15.5874 19.8595 15.4008 19.8595C14.5463 19.8595 13.691 19.8518 12.8364 19.8626C12.4471 19.8672 12.1254 19.7643 11.9412 19.4027C11.7454 19.018 11.892 18.6955 12.1423 18.3861C13.2963 16.9572 14.4426 15.5222 15.592 14.0895C15.7356 13.9106 15.8792 13.731 16.0227 13.5521C16.3851 13.1006 16.6677 12.9801 17.0623 13.1106C17.4601 13.2419 17.6174 13.5267 17.6182 14.1264C17.619 15.3387 17.6182 16.5503 17.6182 17.7627V18.2364C17.88 18.2364 18.1058 18.2241 18.33 18.2387C18.7753 18.2671 19.0985 18.6057 19.1054 19.031C19.1123 19.4518 18.7899 19.8134 18.353 19.8518C18.1265 19.8718 17.8969 19.8549 17.6182 19.8549H17.619ZM15.9659 18.2103V16.2394C15.4208 16.9212 14.9256 17.54 14.3897 18.2103H15.9659Z" fill="url(#paint2_radial_104_92)"/>
<path d="M29.3035 15.1646C28.4351 15.1646 27.6097 15.1669 26.7851 15.1631C26.607 15.1631 26.4258 15.1631 26.253 15.127C25.8599 15.0464 25.6073 14.7216 25.6104 14.3338C25.6135 13.9476 25.873 13.6313 26.2653 13.5484C26.3766 13.5246 26.4933 13.5185 26.607 13.5185C27.8577 13.5161 29.1084 13.5146 30.3599 13.5185C31.2083 13.5208 31.5592 14.0513 31.2329 14.8367C30.2601 17.1785 29.2843 19.5195 28.3084 21.8605C28.1149 22.325 27.8063 22.5484 27.4262 22.5154C26.8481 22.4648 26.5256 21.9066 26.7621 21.3238C27.2128 20.2144 27.6796 19.111 28.141 18.0054C28.4796 17.1939 28.819 16.3831 29.1568 15.5708C29.2044 15.4556 29.2428 15.3358 29.305 15.1654L29.3035 15.1646Z" fill="url(#paint3_radial_104_92)"/>
<path d="M20.4561 22.6551C20.6165 21.8389 20.7662 21.0635 20.9206 20.288C21.372 18.0253 21.8189 15.7619 22.288 13.5023C22.3418 13.2443 22.4753 12.9648 22.6573 12.7798C22.8999 12.5333 23.2408 12.5418 23.5433 12.7253C23.8735 12.9264 23.9994 13.2312 23.9249 13.6098C23.5948 15.2728 23.2616 16.9351 22.9299 18.5981C22.6581 19.9609 22.3871 21.3238 22.1145 22.6858C22.0408 23.0521 21.8542 23.3208 21.468 23.4068C21.1356 23.4813 20.8545 23.3807 20.6588 23.1096C20.5589 22.9714 20.5167 22.7933 20.4568 22.6536L20.4561 22.6551Z" fill="url(#paint4_radial_104_92)"/>
<path d="M34.0794 25.6136C33.5419 25.6229 33.1212 25.1207 33.2816 24.6124C33.4613 24.0427 33.677 23.483 33.9058 22.931C34.0763 22.5194 34.5224 22.3498 34.9247 22.4995C35.3224 22.6477 35.552 23.0723 35.4138 23.4922C35.2311 24.0481 35.023 24.5956 34.8011 25.1368C34.6706 25.4539 34.3988 25.6083 34.0794 25.6136Z" fill="url(#paint5_radial_104_92)"/>
<path d="M22.7058 34.3531C22.7143 34.0383 22.8632 33.7681 23.1949 33.6368C23.7278 33.4264 24.2629 33.2199 24.8065 33.0394C25.2326 32.8981 25.6457 33.1139 25.8016 33.5185C25.9574 33.9224 25.8 34.3631 25.3824 34.542C24.8449 34.7731 24.2952 34.9827 23.7362 35.1555C23.2088 35.319 22.7135 34.9282 22.7051 34.3523L22.7058 34.3531Z" fill="url(#paint6_radial_104_92)"/>
<path d="M34.8668 12.7853C35.2461 12.7799 35.5632 12.991 35.6615 13.3772C35.802 13.9323 35.9218 14.4944 36.0177 15.0587C36.0961 15.5201 35.812 15.8963 35.3667 15.9885C34.9567 16.0729 34.5543 15.828 34.4415 15.3842C34.3033 14.8414 34.1796 14.294 34.0844 13.7427C33.9931 13.2129 34.3555 12.7937 34.8661 12.786L34.8668 12.7853Z" fill="url(#paint7_radial_104_92)"/>
<path d="M33.3158 27.6136C33.2989 28.0889 32.1503 29.6306 31.7687 29.7381C31.4201 29.8364 31.1053 29.7619 30.878 29.4679C30.6531 29.1776 30.6201 28.8444 30.8297 28.5427C31.1706 28.052 31.5299 27.5729 31.9099 27.1115C32.1403 26.8313 32.4635 26.7583 32.8098 26.905C33.1507 27.0493 33.3112 27.318 33.3165 27.6129L33.3158 27.6136Z" fill="url(#paint8_radial_104_92)"/>
<path d="M9.47789 31.8765C10.0929 32.1913 10.8922 32.4469 11.4695 33.0581C11.7175 33.3207 11.6469 33.6877 11.4173 33.9756C11.1862 34.2651 10.8553 34.3818 10.5282 34.2282C9.95316 33.9579 9.39344 33.6501 8.85445 33.3138C8.54195 33.1195 8.4813 32.7755 8.58418 32.4262C8.68016 32.0999 8.98958 31.8857 9.47789 31.8765Z" fill="url(#paint9_radial_104_92)"/>
<path d="M36.2518 18.9668C36.218 19.3476 36.1888 19.7292 36.1481 20.1085C36.0944 20.603 35.7427 20.9086 35.2751 20.8786C34.8283 20.8502 34.515 20.5078 34.5319 20.0264C34.5503 19.492 34.5849 18.9568 34.634 18.424C34.6816 17.9103 35.0563 17.594 35.5308 17.6355C35.9807 17.6746 36.2771 18.0393 36.2648 18.5453C36.2617 18.685 36.2456 18.8248 36.2356 18.9653C36.241 18.9653 36.2464 18.9661 36.2518 18.9668Z" fill="url(#paint10_radial_104_92)"/>
<path d="M30.139 31.233C29.9624 31.511 29.8695 31.7613 29.693 31.9141C29.2891 32.2634 28.853 32.5774 28.4138 32.883C28.0023 33.1694 27.5285 33.0942 27.2575 32.731C26.9742 32.3517 27.0564 31.8772 27.471 31.557C27.8848 31.2376 28.3032 30.9251 28.7248 30.6165C28.9943 30.4192 29.3137 30.357 29.5816 30.5558C29.7958 30.7155 29.934 30.9766 30.139 31.233Z" fill="url(#paint11_radial_104_92)"/>
<path d="M34.5497 10.4978C34.5512 10.8916 34.3355 11.1949 33.9861 11.3055C33.6276 11.4184 33.2982 11.3262 33.107 11.0199C32.7769 10.4916 32.4813 9.93959 32.2087 9.3791C32.0398 9.03283 32.2056 8.61822 32.5296 8.41168C32.8452 8.21052 33.3036 8.20822 33.504 8.51533C33.8902 9.10884 34.1996 9.75225 34.5366 10.3772C34.5589 10.4187 34.5481 10.4778 34.5497 10.4978Z" fill="url(#paint12_radial_104_92)"/>
<path d="M16.25 34.9167C16.25 35.4296 15.8638 35.8219 15.3808 35.7513C14.7781 35.6622 14.1793 35.5278 13.5904 35.3697C13.1711 35.2568 12.9646 34.8453 13.0552 34.4391C13.1481 34.0207 13.4882 33.7412 13.9228 33.8103C14.5248 33.9063 15.1236 34.0399 15.7133 34.1965C16.0703 34.2917 16.2354 34.5819 16.25 34.9167Z" fill="url(#paint13_radial_104_92)"/>
<path d="M19.2226 35.9703C19.0567 35.9811 18.8909 36.0041 18.7258 35.9995C18.2697 35.988 17.9327 35.677 17.9019 35.2532C17.8705 34.814 18.1346 34.4401 18.5884 34.3864C19.1826 34.3165 19.7838 34.2812 20.3827 34.2697C20.7881 34.262 21.1013 34.6006 21.1297 34.9998C21.1612 35.4336 20.8787 35.8106 20.4433 35.8713C20.0395 35.9273 19.6302 35.9488 19.2241 35.9857C19.2241 35.9803 19.2233 35.9757 19.2226 35.9703Z" fill="url(#paint14_radial_104_92)"/>
<defs>
<radialGradient id="paint0_radial_104_92" cx="0" cy="0" r="1" gradientUnits="userSpaceOnUse" gradientTransform="translate(38.7621 -7.47142) rotate(134.932) scale(53.6121 56.0528)">
<stop stop-color="#132341"/>
<stop offset="0.716111" stop-color="#25D7FF"/>
<stop offset="1" stop-color="#AAFFBE"/>
</radialGradient>
<radialGradient id="paint1_radial_104_92" cx="0" cy="0" r="1" gradientUnits="userSpaceOnUse" gradientTransform="translate(12.8603 11.3552) rotate(124.31) scale(13.3437 12.9912)">
<stop stop-color="#132341"/>
<stop offset="0.716111" stop-color="#25D7FF"/>
<stop offset="1" stop-color="#AAFFBE"/>
</radialGradient>
<radialGradient id="paint2_radial_104_92" cx="0" cy="0" r="1" gradientUnits="userSpaceOnUse" gradientTransform="translate(20.8301 10.6683) rotate(126.029) scale(15.0302 14.9503)">
<stop stop-color="#132341"/>
<stop offset="0.716111" stop-color="#25D7FF"/>
<stop offset="1" stop-color="#AAFFBE"/>
</radialGradient>
<radialGradient id="paint3_radial_104_92" cx="0" cy="0" r="1" gradientUnits="userSpaceOnUse" gradientTransform="translate(32.7187 11.3456) rotate(122.404) scale(13.0596 12.3555)">
<stop stop-color="#132341"/>
<stop offset="0.716111" stop-color="#25D7FF"/>
<stop offset="1" stop-color="#AAFFBE"/>
</radialGradient>
<radialGradient id="paint4_radial_104_92" cx="0" cy="0" r="1" gradientUnits="userSpaceOnUse" gradientTransform="translate(24.7752 9.97737) rotate(107.76) scale(13.9407 8.46818)">
<stop stop-color="#132341"/>
<stop offset="0.716111" stop-color="#25D7FF"/>
<stop offset="1" stop-color="#AAFFBE"/>
</radialGradient>
<radialGradient id="paint5_radial_104_92" cx="0" cy="0" r="1" gradientUnits="userSpaceOnUse" gradientTransform="translate(35.9788 21.682) rotate(124.729) scale(4.72106 4.62212)">
<stop stop-color="#132341"/>
<stop offset="0.716111" stop-color="#25D7FF"/>
<stop offset="1" stop-color="#AAFFBE"/>
</radialGradient>
<radialGradient id="paint6_radial_104_92" cx="0" cy="0" r="1" gradientUnits="userSpaceOnUse" gradientTransform="translate(26.6107 32.4664) rotate(145.018) scale(4.69311 4.60979)">
<stop stop-color="#132341"/>
<stop offset="0.716111" stop-color="#25D7FF"/>
<stop offset="1" stop-color="#AAFFBE"/>
</radialGradient>
<radialGradient id="paint7_radial_104_92" cx="0" cy="0" r="1" gradientUnits="userSpaceOnUse" gradientTransform="translate(36.4967 12.0089) rotate(121.206) scale(4.61073 4.27253)">
<stop stop-color="#132341"/>
<stop offset="0.716111" stop-color="#25D7FF"/>
<stop offset="1" stop-color="#AAFFBE"/>
</radialGradient>
<radialGradient id="paint8_radial_104_92" cx="0" cy="0" r="1" gradientUnits="userSpaceOnUse" gradientTransform="translate(33.941 26.1203) rotate(131.561) scale(4.82544 5.00883)">
<stop stop-color="#132341"/>
<stop offset="0.716111" stop-color="#25D7FF"/>
<stop offset="1" stop-color="#AAFFBE"/>
</radialGradient>
<radialGradient id="paint9_radial_104_92" cx="0" cy="0" r="1" gradientUnits="userSpaceOnUse" gradientTransform="translate(12.3593 31.2931) rotate(141.772) scale(4.78919 4.86796)">
<stop stop-color="#132341"/>
<stop offset="0.716111" stop-color="#25D7FF"/>
<stop offset="1" stop-color="#AAFFBE"/>
</radialGradient>
<radialGradient id="paint10_radial_104_92" cx="0" cy="0" r="1" gradientUnits="userSpaceOnUse" gradientTransform="translate(36.6773 16.8486) rotate(117.969) scale(4.50526 3.9022)">
<stop stop-color="#132341"/>
<stop offset="0.716111" stop-color="#25D7FF"/>
<stop offset="1" stop-color="#AAFFBE"/>
</radialGradient>
<radialGradient id="paint11_radial_104_92" cx="0" cy="0" r="1" gradientUnits="userSpaceOnUse" gradientTransform="translate(30.8636 29.8015) rotate(139.134) scale(4.91175 5.08199)">
<stop stop-color="#132341"/>
<stop offset="0.716111" stop-color="#25D7FF"/>
<stop offset="1" stop-color="#AAFFBE"/>
</radialGradient>
<radialGradient id="paint12_radial_104_92" cx="0" cy="0" r="1" gradientUnits="userSpaceOnUse" gradientTransform="translate(35.1237 7.5282) rotate(127.885) scale(4.78108 4.8454)">
<stop stop-color="#132341"/>
<stop offset="0.716111" stop-color="#25D7FF"/>
<stop offset="1" stop-color="#AAFFBE"/>
</radialGradient>
<radialGradient id="paint13_radial_104_92" cx="0" cy="0" r="1" gradientUnits="userSpaceOnUse" gradientTransform="translate(17.0144 33.3273) rotate(148.513) scale(4.59536 4.27994)">
<stop stop-color="#132341"/>
<stop offset="0.716111" stop-color="#25D7FF"/>
<stop offset="1" stop-color="#AAFFBE"/>
</radialGradient>
<radialGradient id="paint14_radial_104_92" cx="0" cy="0" r="1" gradientUnits="userSpaceOnUse" gradientTransform="translate(21.9006 33.8523) rotate(151.717) scale(4.47334 3.90301)">
<stop stop-color="#132341"/>
<stop offset="0.716111" stop-color="#25D7FF"/>
<stop offset="1" stop-color="#AAFFBE"/>
</radialGradient>
</defs>
</svg>
