<svg width="192" height="42" viewBox="0 0 192 42" fill="none" xmlns="http://www.w3.org/2000/svg">
<path d="M23.4388 9.58946C23.4388 12.4645 21.1204 14.7952 18.2605 14.7952C15.4005 14.7952 13.0821 12.4645 13.0821 9.58946C13.0821 6.71443 15.4005 4.38375 18.2605 4.38375C21.1204 4.38375 23.4388 6.71443 23.4388 9.58946Z" fill="#25D7FF"/>
<path d="M16.0801 18.7679C16.0801 22.3239 13.2126 25.2066 9.67532 25.2066C6.13805 25.2066 3.27053 22.3239 3.27053 18.7679C3.27053 15.212 6.13805 12.3293 9.67532 12.3293C13.2126 12.3293 16.0801 15.212 16.0801 18.7679Z" fill="#25D7FF"/>
<path d="M11.4469 8.08255C11.4469 9.52006 10.2877 10.6854 8.85769 10.6854C7.42773 10.6854 6.26852 9.52006 6.26852 8.08255C6.26852 6.64503 7.42773 5.47969 8.85769 5.47969C10.2877 5.47969 11.4469 6.64503 11.4469 8.08255Z" fill="#25D7FF"/>
<path d="M14.1723 28.4944C14.1723 29.7049 13.1961 30.6863 11.992 30.6863C10.7878 30.6863 9.8116 29.7049 9.8116 28.4944C9.8116 27.2839 10.7878 26.3025 11.992 26.3025C13.1961 26.3025 14.1723 27.2839 14.1723 28.4944Z" fill="#25D7FF"/>
<path d="M24.2564 3.01383C24.2564 3.77042 23.6463 4.38375 22.8937 4.38375C22.1411 4.38375 21.531 3.77042 21.531 3.01383C21.531 2.25724 22.1411 1.64391 22.8937 1.64391C23.6463 1.64391 24.2564 2.25724 24.2564 3.01383Z" fill="#25D7FF"/>
<path d="M1.63527 12.6033C1.63527 13.0572 1.2692 13.4252 0.817633 13.4252C0.366067 13.4252 0 13.0572 0 12.6033C0 12.1493 0.366067 11.7813 0.817633 11.7813C1.2692 11.7813 1.63527 12.1493 1.63527 12.6033Z" fill="#25D7FF"/>
<path d="M22.3486 31.5082C22.3486 31.9622 21.9826 32.3302 21.531 32.3302C21.0794 32.3302 20.7134 31.9622 20.7134 31.5082C20.7134 31.0543 21.0794 30.6863 21.531 30.6863C21.9826 30.6863 22.3486 31.0543 22.3486 31.5082Z" fill="#25D7FF"/>
<path d="M20.9859 21.0968C18.3967 19.7269 16.1077 20.7973 14.945 22.4285L14.2607 14.2727C17.9428 17.3311 23.3025 14.1102 23.4388 10.2744L25.0741 12.6033L20.9859 21.0968Z" fill="#25D7FF"/>
<path fill-rule="evenodd" clip-rule="evenodd" d="M36.7934 35.07C46.4268 35.07 54.2362 27.2193 54.2362 17.535C54.2362 7.8507 46.4268 0 36.7934 0C29.7893 0 23.7494 4.15 20.9742 10.1374H23.3962L23.9838 11.0507L23.4388 10.2744C23.3611 12.4631 21.686 14.4733 19.5024 15.2109C19.4255 15.7944 19.5207 14.6108 19.5024 15.2109L22.9639 16.987L20.9859 21.0968C20.5113 20.8457 20.0503 20.6682 19.6081 20.5543C21.0316 28.7998 28.1841 35.07 36.7934 35.07ZM23.9838 14.8682V11.0507L25.0741 12.6033L23.9838 14.8682Z" fill="#25D7FF"/>
<path d="M22.8937 24.5216C22.8937 26.7157 21.1244 28.4944 18.9418 28.4944C16.7593 28.4944 14.9899 26.7157 14.9899 24.5216C14.9899 22.3275 16.7593 20.5488 18.9418 20.5488C21.1244 20.5488 22.8937 22.3275 22.8937 24.5216Z" fill="#25D7FF"/>
<path d="M44.177 19.0672L43.8344 19.2527L44.4196 19.4383C44.7336 19.562 45.0286 19.719 45.3045 19.9093C45.59 20.0996 45.8374 20.3232 46.0467 20.5801C46.2656 20.837 46.4368 21.1177 46.5605 21.4222C46.6937 21.7266 46.7603 22.0549 46.7603 22.407C46.7603 23.2158 46.6081 23.9342 46.3036 24.5622C46.0087 25.1806 45.609 25.723 45.1047 26.1892C44.6099 26.646 44.0343 27.0313 43.3777 27.3453C42.7212 27.6593 42.0313 27.9115 41.3082 28.1018C40.5945 28.3016 39.8714 28.4443 39.1387 28.53C38.4061 28.6156 37.7115 28.6584 37.0549 28.6584C36.798 28.6584 36.6315 28.6489 36.5554 28.6299C36.5173 28.6108 36.4317 28.5918 36.2985 28.5728C36.2033 28.5728 36.0606 28.549 35.8703 28.5014C35.5848 28.4538 35.3041 28.3539 35.0282 28.2017C34.7618 28.059 34.5191 27.8972 34.3003 27.7164C34.1956 27.6403 34.091 27.5642 33.9863 27.4881C33.8816 27.4119 33.777 27.3358 33.6723 27.2597C33.463 27.1074 33.2631 27.0123 33.0728 26.9742C32.6256 26.8791 32.2403 26.7649 31.9168 26.6317C31.5932 26.489 31.3268 26.3082 31.1175 26.0893C30.9177 25.861 30.7654 25.5803 30.6608 25.2472C30.5656 24.9142 30.518 24.5146 30.518 24.0483C30.518 20.5373 31.5361 17.3211 33.5724 14.4C33.6295 14.2953 33.6866 14.2097 33.7437 14.1431C33.7912 14.067 33.815 14.0194 33.815 14.0004C33.7579 14.0004 33.6771 14.0194 33.5724 14.0575C33.4772 14.0955 33.3773 14.1431 33.2727 14.2002C33.168 14.2573 33.0681 14.3144 32.9729 14.3715C32.8778 14.4285 32.8064 14.4761 32.7588 14.5142C32.6542 14.5808 32.5543 14.6474 32.4591 14.714C32.3735 14.7711 32.2926 14.8234 32.2165 14.871C32.0547 14.9757 31.9548 15.028 31.9168 15.028C31.6313 14.7521 31.3839 14.4856 31.1746 14.2287C30.9652 13.9623 30.7654 13.6531 30.5751 13.301C30.4134 12.9585 30.3325 12.6302 30.3325 12.3162C30.3325 11.8119 30.4181 11.3694 30.5894 10.9888C30.7607 10.6082 30.989 10.2704 31.2745 9.97546C31.5694 9.68049 31.9072 9.42359 32.2878 9.20474C32.6684 8.98589 33.0633 8.78607 33.4725 8.60529C34.0339 8.34838 34.6333 8.10098 35.2708 7.86311C35.9179 7.62523 36.5744 7.41589 37.2405 7.23511C37.916 7.0448 38.5916 6.89732 39.2672 6.79265C39.9428 6.67847 40.5945 6.62138 41.2225 6.62138C41.803 6.62138 42.3739 6.68323 42.9353 6.80693C43.5062 6.93062 44.0485 7.11617 44.5624 7.36356C45.0762 7.61096 45.5472 7.92495 45.9753 8.30556C46.413 8.67665 46.7841 9.1191 47.0886 9.63292C47.5358 10.3656 47.7594 11.2695 47.7594 12.3447C47.7594 13.0869 47.6976 13.7863 47.5739 14.4428C47.4597 15.0898 47.2599 15.6941 46.9744 16.2554C46.6985 16.8073 46.3322 17.3211 45.8754 17.7969C45.4187 18.2631 44.8526 18.6866 44.177 19.0672ZM37.74 8.61956C37.74 8.57198 37.6829 8.54344 37.5687 8.53392C37.5116 8.53392 37.445 8.53392 37.3689 8.53392C37.3023 8.52441 37.2262 8.51965 37.1406 8.51965C36.9027 8.51965 36.6458 8.56722 36.3698 8.66238C36.2176 8.70995 36.0083 8.78131 35.7418 8.87647C35.4754 8.97162 35.1852 9.08104 34.8712 9.20474C34.5572 9.31892 34.2337 9.44737 33.9007 9.5901C33.5771 9.73283 33.2822 9.88031 33.0157 10.0326C32.7588 10.1753 32.5448 10.3228 32.3735 10.475C32.2117 10.6177 32.1308 10.7557 32.1308 10.8889C32.1308 11.0316 32.1832 11.103 32.2878 11.103C32.3259 11.103 32.4068 11.0792 32.5305 11.0316C32.5781 11.0031 32.6494 10.9603 32.7446 10.9032C32.8492 10.8461 32.9682 10.7795 33.1014 10.7034C33.8436 10.2562 34.5953 9.86604 35.3565 9.53301C36.1272 9.19998 36.9217 8.8955 37.74 8.61956ZM42.3786 22.3356C42.3786 22.0311 42.2835 21.779 42.0932 21.5792C41.9029 21.3793 41.665 21.2176 41.3795 21.0939C41.1036 20.9702 40.8086 20.8846 40.4946 20.837C40.1902 20.7799 39.9237 20.7513 39.6954 20.7513C39.3433 20.7513 38.9865 20.7894 38.6249 20.8655C38.2633 20.9321 37.916 21.0083 37.583 21.0939L37.0835 21.1938L36.955 21.8789C36.9265 22.0216 36.8979 22.1739 36.8694 22.3356C36.8408 22.4974 36.817 22.6734 36.798 22.8637C36.779 23.054 36.7647 23.2348 36.7552 23.4061C36.7552 23.5678 36.76 23.7296 36.7695 23.8913C36.7695 24.0245 36.7695 24.1387 36.7695 24.2339C36.779 24.329 36.7885 24.4052 36.798 24.4622V24.8333L38.6392 24.5764C39.0959 24.4908 39.5526 24.3766 40.0094 24.2339C40.4756 24.0816 40.9085 23.8818 41.3082 23.6344C41.4128 23.5773 41.527 23.5012 41.6507 23.4061C41.7839 23.3109 41.9029 23.2062 42.0075 23.0921C42.1122 22.9779 42.1978 22.8589 42.2645 22.7352C42.3406 22.602 42.3786 22.4688 42.3786 22.3356ZM43.2778 14.1574C43.3254 13.615 43.1208 13.2296 42.6641 13.0013C42.2264 12.7729 41.6412 12.6587 40.9085 12.6587C40.7944 12.6587 40.6707 12.6635 40.5375 12.673C40.4042 12.673 40.2568 12.673 40.095 12.673C39.9428 12.6825 39.7905 12.692 39.6383 12.7015C39.4955 12.7015 39.3528 12.7015 39.2101 12.7015C39.0769 12.7111 38.9437 12.7206 38.8105 12.7301C38.6868 12.7301 38.5726 12.7396 38.4679 12.7586C38.3632 12.7682 38.2776 12.7777 38.211 12.7872C38.1539 12.7872 38.1206 12.7872 38.1111 12.7872L37.8256 12.8157L38.1396 13.0726C38.4156 13.2915 38.6439 13.5294 38.8247 13.7863C39.015 14.0432 39.1102 14.3524 39.1102 14.714L39.0674 14.8995C39.0293 14.9852 38.9865 15.0851 38.9389 15.1993C38.8913 15.3134 38.839 15.4419 38.7819 15.5846C38.6487 15.9177 38.525 16.2507 38.4108 16.5837C38.2966 16.9167 38.1872 17.2498 38.0826 17.5828C38.0826 17.6875 38.1444 17.7398 38.2681 17.7398C38.3728 17.7398 38.4917 17.735 38.6249 17.7255C38.7676 17.7065 38.9056 17.6875 39.0388 17.6684C39.1816 17.6399 39.3195 17.6114 39.4527 17.5828C39.5859 17.5543 39.7001 17.521 39.7953 17.4829C40.0427 17.4068 40.3138 17.3021 40.6088 17.1689C40.9038 17.0357 41.1892 16.8834 41.4652 16.7122C41.7506 16.5314 42.0171 16.3363 42.2645 16.127C42.5118 15.9177 42.7117 15.6988 42.8639 15.4704C42.9686 15.3372 43.0494 15.2135 43.1065 15.0994C43.1636 14.9757 43.2112 14.8567 43.2493 14.7425L43.2778 14.1574ZM51.2159 14.8139C51.2825 14.8044 51.3538 14.7996 51.43 14.7996C51.5061 14.7901 51.5822 14.7854 51.6583 14.7854C52.058 14.7854 52.4814 14.8472 52.9286 14.9709C53.3758 15.0851 53.7707 15.2278 54.1132 15.3991V15.3705C54.5034 15.5608 54.6984 15.9224 54.6984 16.4553C54.6984 16.7312 54.6461 17.1023 54.5414 17.5685C54.4938 17.7874 54.432 18.03 54.3559 18.2964C54.2893 18.5533 54.2179 18.834 54.1418 19.1385L53.9562 19.8522C53.9372 19.9378 53.9134 20.0234 53.8849 20.1091C53.8658 20.1852 53.8468 20.2661 53.8278 20.3517C53.7897 20.504 53.7469 20.6514 53.6993 20.7942C53.6898 21.0225 53.6613 21.2366 53.6137 21.4364C53.5947 21.5411 53.5709 21.6505 53.5423 21.7647C53.5233 21.8694 53.5043 21.9788 53.4852 22.093C53.4377 22.3689 53.3996 22.6068 53.3711 22.8066C53.3425 23.0064 53.333 23.1634 53.3425 23.2776C53.3615 23.5155 53.4424 23.682 53.5851 23.7772C53.6518 23.8438 53.7945 23.7914 54.0133 23.6202L54.2417 23.3918C54.2893 23.3442 54.3321 23.3014 54.3701 23.2633C54.4082 23.2158 54.4463 23.1682 54.4843 23.1206C54.7222 22.7781 54.9268 22.407 55.0981 22.0073C55.2693 21.5982 55.4311 21.1986 55.5833 20.8084C55.9164 19.9901 56.2113 19.1718 56.4682 18.3535V18.3963C56.4873 18.3297 56.5063 18.2679 56.5253 18.2108C56.5539 18.1442 56.5777 18.0728 56.5967 17.9967L56.7251 17.6114C56.7442 17.5162 56.7632 17.4258 56.7822 17.3402C56.8108 17.245 56.8441 17.1451 56.8821 17.0404C56.9868 16.6694 57.101 16.303 57.2247 15.9414C57.3579 15.5704 57.5339 15.2231 57.7528 14.8995C57.9621 14.6426 58.1762 14.4809 58.395 14.4143C58.6234 14.3286 58.9897 14.2858 59.494 14.2858C59.6463 14.2858 59.8318 14.2953 60.0507 14.3144C60.2695 14.3239 60.4884 14.3524 60.7072 14.4C60.9356 14.4381 61.1449 14.4999 61.3352 14.5855C61.535 14.6712 61.6825 14.7901 61.7777 14.9424C61.8728 15.047 61.9204 15.2231 61.9204 15.4704C61.9204 15.5466 61.9156 15.6274 61.9061 15.7131C61.8966 15.7987 61.8823 15.8891 61.8633 15.9843C61.8443 16.0699 61.8157 16.1698 61.7777 16.284C61.7491 16.3982 61.7111 16.5219 61.6635 16.6551C60.7786 19.6048 60.398 21.7171 60.5217 22.9922C60.5692 23.2966 60.6168 23.506 60.6644 23.6202C60.7025 23.7439 60.7976 23.858 60.9499 23.9627C61.0926 24.0959 61.2543 24.1625 61.4351 24.1625C62.1678 24.1625 63.105 23.0064 64.2468 20.6943C64.323 20.561 64.3943 20.4326 64.4609 20.3089C64.5371 20.1757 64.6132 20.052 64.6893 19.9378C64.8225 19.7094 64.9367 19.5477 65.0318 19.4525C65.1365 19.4525 65.2317 19.4525 65.3173 19.4525C65.4029 19.4525 65.4933 19.462 65.5885 19.4811C65.7502 19.5191 65.7883 19.6761 65.7027 19.9521C65.598 20.228 65.5409 20.5087 65.5314 20.7942C65.5314 20.8513 65.46 21.0511 65.3173 21.3936C65.2412 21.5649 65.1603 21.7457 65.0747 21.936C64.9985 22.1168 64.9224 22.3118 64.8463 22.5212C64.7607 22.721 64.675 22.916 64.5894 23.1063C64.5038 23.2966 64.4181 23.4822 64.3325 23.663C64.1517 24.0245 64.0328 24.2482 63.9757 24.3338C63.7949 24.5526 63.6474 24.7572 63.5332 24.9475C63.4856 25.0331 63.4381 25.1045 63.3905 25.1616C63.3524 25.2187 63.3191 25.2663 63.2906 25.3043C63.1193 25.4566 62.929 25.6136 62.7197 25.7753C62.5103 25.9276 62.2867 26.0703 62.0489 26.2035C61.811 26.3367 61.5731 26.4557 61.3352 26.5603C61.0973 26.665 60.8642 26.7411 60.6359 26.7887C60.4931 26.8077 60.3552 26.822 60.2219 26.8315C60.0887 26.841 59.9555 26.8458 59.8223 26.8458C59.5369 26.8268 59.2609 26.7982 58.9945 26.7601C58.7281 26.7126 58.4616 26.6364 58.1952 26.5318C57.9859 26.4271 57.7433 26.2987 57.4673 26.1464C57.2199 25.9561 57.0153 25.7753 56.8536 25.6041C56.6918 25.4233 56.5586 25.233 56.454 25.0331C56.3588 24.8333 56.2874 24.6192 56.2399 24.3909C56.2018 24.153 56.178 23.8866 56.1685 23.5916L56.0971 23.4632L55.9401 23.7486C55.7974 24.0245 55.6499 24.2957 55.4977 24.5622C55.3454 24.8191 55.1789 25.0617 54.9981 25.2901C54.8269 25.5184 54.6318 25.7373 54.413 25.9466C54.1941 26.1464 53.9467 26.3272 53.6708 26.489C53.2711 26.6888 52.8763 26.7887 52.4861 26.7887C52.3244 26.7887 52.1626 26.7744 52.0009 26.7459C51.9248 26.7268 51.8439 26.7078 51.7582 26.6888C51.6821 26.6698 51.5917 26.6507 51.4871 26.6317C50.6497 26.3462 50.0027 25.9276 49.546 25.3757C49.0892 24.8143 48.7657 24.1054 48.5754 23.2491C48.4993 22.9922 48.4565 22.7543 48.447 22.5354C48.4279 22.4212 48.4184 22.2976 48.4184 22.1643C48.4184 22.0311 48.4184 21.8932 48.4184 21.7504V21.1653C48.4184 21.0511 48.4232 20.9369 48.4327 20.8227C48.4422 20.7085 48.4565 20.5943 48.4755 20.4802C48.5231 19.9473 48.604 19.4478 48.7182 18.9815C48.8419 18.5058 48.9989 18.0205 49.1892 17.5257C49.2653 17.3354 49.3699 17.0975 49.5032 16.8121C49.6459 16.5266 49.8029 16.2459 49.9742 15.97C50.1549 15.6941 50.35 15.4467 50.5593 15.2278C50.7687 15.009 50.9875 14.871 51.2159 14.8139ZM57.8099 17.3259C57.7052 17.6114 57.6529 17.8112 57.6529 17.9254C57.6529 18.011 57.6671 18.0538 57.6957 18.0538C57.7813 18.0538 57.9431 17.7303 58.181 17.0833L58.709 15.813C58.8993 15.3943 58.8803 15.185 58.652 15.185C58.5473 15.185 58.4569 15.2611 58.3808 15.4134C58.3142 15.5656 58.2285 15.8511 58.1239 16.2697C58.0763 16.4505 58.0287 16.6313 57.9811 16.8121C57.9336 16.9834 57.8765 17.1546 57.8099 17.3259ZM51.273 15.6845C51.1493 15.6465 50.9828 15.8082 50.7734 16.1698C50.5736 16.5314 50.3785 17.0214 50.1882 17.6399C50.1407 17.8492 50.0979 18.03 50.0598 18.1823C50.0312 18.325 50.0075 18.4344 49.9884 18.5105C49.9599 18.6818 49.9646 18.7865 50.0027 18.8245C50.0217 18.8436 50.0408 18.8531 50.0598 18.8531C50.1359 18.8531 50.1978 18.7008 50.2453 18.3963C50.35 18.0633 50.4737 17.7398 50.6164 17.4258C50.7592 17.1023 50.9257 16.7931 51.116 16.4981C51.4109 16.0128 51.4633 15.7416 51.273 15.6845ZM64.5116 14.5998C64.6733 13.9528 64.8446 13.3058 65.0254 12.6587C65.2157 12.0022 65.4298 11.3552 65.6676 10.7176C65.9055 10.0801 66.1719 9.46165 66.4669 8.86219C66.7714 8.25323 67.1235 7.6728 67.5231 7.12093C67.6563 6.96868 67.7848 6.83547 67.9085 6.72129C68.0322 6.59759 68.1511 6.49293 68.2653 6.40729C68.5032 6.24553 68.7743 6.16466 69.0788 6.16466C69.2215 6.16466 69.369 6.18369 69.5213 6.22175C69.5974 6.24078 69.6783 6.26456 69.7639 6.29311C69.8495 6.31214 69.9304 6.33117 70.0065 6.3502C70.3396 6.4739 70.6536 6.61662 70.9485 6.77838C71.253 6.93062 71.5147 7.12093 71.7335 7.34929C71.9619 7.56814 72.1427 7.82504 72.2759 8.12001C72.4091 8.40547 72.4757 8.7385 72.4757 9.1191C72.4757 9.49971 72.3901 9.99925 72.2188 10.6177C72.1427 10.9222 72.038 11.2695 71.9048 11.6596C71.7811 12.0498 71.6384 12.4875 71.4766 12.9727L70.8201 15.1279L71.0056 15.0565H70.9771C71.7383 14.8091 72.5185 14.6855 73.3178 14.6855C73.9363 14.6855 74.4977 14.8234 75.002 15.0994C75.5158 15.3658 75.9916 15.7036 76.4293 16.1127C76.8479 16.5599 77.1572 17.0928 77.357 17.7113C77.5663 18.3202 77.671 18.9292 77.671 19.5382C77.671 20.1091 77.5949 20.6657 77.4426 21.2081C77.2904 21.7409 77.0763 22.2547 76.8003 22.7495V22.721C76.5339 23.1682 76.3008 23.5107 76.101 23.7486C75.9012 23.9579 75.7061 24.1435 75.5158 24.3052C75.3255 24.467 75.1257 24.6145 74.9163 24.7477C74.7165 24.8714 74.4977 24.9856 74.2598 25.0902C74.0314 25.1854 73.7793 25.2758 73.5034 25.3614C72.9515 25.5327 72.4424 25.6183 71.9762 25.6183C71.6907 25.6183 71.4005 25.5612 71.1055 25.4471C70.8201 25.3234 70.5489 25.1664 70.292 24.9761C70.0351 24.7858 69.802 24.5717 69.5926 24.3338C69.3833 24.0864 69.212 23.839 69.0788 23.5916C69.0788 23.5821 69.0788 23.5678 69.0788 23.5488C69.0883 23.5298 69.0931 23.4965 69.0931 23.4489C69.1026 23.3918 69.1074 23.3395 69.1074 23.2919C69.1074 23.2443 69.1074 23.1967 69.1074 23.1492L69.0788 23.2205L69.0217 24.2053C69.0027 24.3956 68.9884 24.5669 68.9789 24.7192C68.9789 24.8714 68.9742 25.0094 68.9646 25.1331C68.9646 25.3709 68.9408 25.5279 68.8933 25.6041C68.8076 25.8039 68.6839 25.9704 68.5222 26.1036C68.3699 26.2368 68.1939 26.3415 67.9941 26.4176C67.7943 26.4937 67.5849 26.5508 67.3661 26.5889C67.1472 26.6174 66.9427 26.6317 66.7524 26.6317C66.2861 26.6317 65.8199 26.5508 65.3536 26.3891C64.8969 26.2178 64.5353 25.9276 64.2689 25.5184C63.974 25.0427 63.7837 24.2767 63.698 23.2205C63.6695 23.0207 63.6552 22.8209 63.6552 22.6211C63.6457 22.5164 63.6362 22.4212 63.6267 22.3356C63.6267 22.2405 63.6267 22.1501 63.6267 22.0644C63.6267 21.9693 63.6267 21.8741 63.6267 21.779C63.6362 21.6743 63.6457 21.5696 63.6552 21.465C63.6552 21.2652 63.6695 21.0511 63.698 20.8227C63.7456 20.4611 63.7741 20.0567 63.7837 19.6095C63.8027 19.3812 63.8122 19.1718 63.8122 18.9815C63.8217 18.7912 63.836 18.6152 63.855 18.4534C63.874 17.8064 63.9454 17.1594 64.0691 16.5124C64.1928 15.8653 64.3403 15.2278 64.5116 14.5998ZM70.4775 17.1832C70.1065 17.4115 69.9209 17.9824 69.9209 18.8959C69.9209 19.1147 69.9257 19.3288 69.9352 19.5382C69.9447 19.738 69.9685 19.9473 70.0065 20.1662C69.9875 20.2233 70.0113 20.347 70.0779 20.5373L70.135 20.7513C70.1635 20.8941 70.2064 21.0558 70.2635 21.2366C70.3205 21.4174 70.3824 21.6029 70.449 21.7932C70.5251 21.974 70.606 22.1501 70.6916 22.3213C70.7868 22.4831 70.8819 22.6163 70.9771 22.721C71.0532 22.7495 71.1151 22.7638 71.1626 22.7638C71.3054 22.7638 71.4433 22.6734 71.5765 22.4926C71.7193 22.3118 71.843 22.1025 71.9476 21.8646C72.0523 21.6267 72.1427 21.3889 72.2188 21.151C72.2949 20.9036 72.3473 20.718 72.3758 20.5943L72.4757 20.1947C72.5233 19.9473 72.5328 19.8141 72.5043 19.7951C72.5518 19.6619 72.5661 19.5382 72.5471 19.424C72.5376 19.3574 72.5328 19.2955 72.5328 19.2384C72.5328 19.1813 72.5328 19.129 72.5328 19.0814V18.8959C72.5328 18.7722 72.5138 18.6295 72.4757 18.4677C72.4472 18.306 72.3996 18.149 72.333 17.9967C72.2759 17.835 72.1998 17.6875 72.1046 17.5543C72.019 17.421 71.9143 17.3259 71.7906 17.2688C71.5337 17.1356 71.2768 17.0642 71.0199 17.0547C70.763 17.0262 70.5822 17.069 70.4775 17.1832ZM67.1235 10.4179C67.1235 10.6748 67.1615 10.7747 67.2376 10.7176C67.3138 10.6796 67.4279 10.4798 67.5802 10.1182C67.7134 9.76613 67.8561 9.42359 68.0084 9.09056C68.1606 8.75753 68.3414 8.43401 68.5507 8.12001C68.722 7.88214 68.8219 7.70135 68.8505 7.57765C68.879 7.46347 68.8505 7.36356 68.7648 7.27793C68.7077 7.2018 68.6411 7.16374 68.565 7.16374C68.3747 7.16374 68.1606 7.41114 67.9227 7.90592C67.8656 8.04865 67.7895 8.2342 67.6944 8.46256C67.6087 8.68141 67.5231 8.91453 67.4375 9.16192C67.3518 9.3998 67.2757 9.63292 67.2091 9.86128C67.152 10.0896 67.1235 10.2752 67.1235 10.4179ZM79.8157 14.5998C79.9774 13.9528 80.1487 13.3058 80.3295 12.6587C80.5198 12.0022 80.7339 11.3552 80.9718 10.7176C81.2096 10.0801 81.4761 9.46165 81.771 8.86219C82.0755 8.25323 82.4276 7.6728 82.8272 7.12093C82.9604 6.96868 83.0889 6.83547 83.2126 6.72129C83.3363 6.59759 83.4552 6.49293 83.5694 6.40729C83.8073 6.24553 84.0784 6.16466 84.3829 6.16466C84.5257 6.16466 84.6731 6.18369 84.8254 6.22175C84.9015 6.24078 84.9824 6.26456 85.068 6.29311C85.1537 6.31214 85.2345 6.33117 85.3107 6.3502C85.6437 6.4739 85.9577 6.61662 86.2526 6.77838C86.5571 6.93062 86.8188 7.12093 87.0376 7.34929C87.266 7.56814 87.4468 7.82504 87.58 8.12001C87.7132 8.40547 87.7798 8.7385 87.7798 9.1191C87.7798 9.49971 87.6942 9.99925 87.5229 10.6177C87.4468 10.9222 87.3421 11.2695 87.2089 11.6596C87.0852 12.0498 86.9425 12.4875 86.7807 12.9727L86.1242 15.1279L86.3097 15.0565H86.2812C87.0424 14.8091 87.8226 14.6855 88.6219 14.6855C89.2404 14.6855 89.8018 14.8234 90.3061 15.0994C90.8199 15.3658 91.2957 15.7036 91.7334 16.1127C92.152 16.5599 92.4613 17.0928 92.6611 17.7113C92.8704 18.3202 92.9751 18.9292 92.9751 19.5382C92.9751 20.1091 92.899 20.6657 92.7467 21.2081C92.5945 21.7409 92.3804 22.2547 92.1045 22.7495V22.721C91.838 23.1682 91.6049 23.5107 91.4051 23.7486C91.2053 23.9579 91.0102 24.1435 90.8199 24.3052C90.6296 24.467 90.4298 24.6145 90.2205 24.7477C90.0206 24.8714 89.8018 24.9856 89.5639 25.0902C89.3355 25.1854 89.0834 25.2758 88.8075 25.3614C88.2556 25.5327 87.7465 25.6183 87.2803 25.6183C86.9948 25.6183 86.7046 25.5612 86.4096 25.4471C86.1242 25.3234 85.853 25.1664 85.5961 24.9761C85.3392 24.7858 85.1061 24.5717 84.8967 24.3338C84.6874 24.0864 84.5161 23.839 84.3829 23.5916C84.3829 23.5821 84.3829 23.5678 84.3829 23.5488C84.3924 23.5298 84.3972 23.4965 84.3972 23.4489C84.4067 23.3918 84.4115 23.3395 84.4115 23.2919C84.4115 23.2443 84.4115 23.1967 84.4115 23.1492L84.3829 23.2205L84.3258 24.2053C84.3068 24.3956 84.2925 24.5669 84.283 24.7192C84.283 24.8714 84.2783 25.0094 84.2687 25.1331C84.2687 25.3709 84.245 25.5279 84.1974 25.6041C84.1117 25.8039 83.988 25.9704 83.8263 26.1036C83.674 26.2368 83.498 26.3415 83.2982 26.4176C83.0984 26.4937 82.8891 26.5508 82.6702 26.5889C82.4514 26.6174 82.2468 26.6317 82.0565 26.6317C81.5902 26.6317 81.124 26.5508 80.6578 26.3891C80.201 26.2178 79.8395 25.9276 79.573 25.5184C79.2781 25.0427 79.0878 24.2767 79.0021 23.2205C78.9736 23.0207 78.9593 22.8209 78.9593 22.6211C78.9498 22.5164 78.9403 22.4212 78.9308 22.3356C78.9308 22.2405 78.9308 22.1501 78.9308 22.0644C78.9308 21.9693 78.9308 21.8741 78.9308 21.779C78.9403 21.6743 78.9498 21.5696 78.9593 21.465C78.9593 21.2652 78.9736 21.0511 79.0021 20.8227C79.0497 20.4611 79.0782 20.0567 79.0878 19.6095C79.1068 19.3812 79.1163 19.1718 79.1163 18.9815C79.1258 18.7912 79.1401 18.6152 79.1591 18.4534C79.1782 17.8064 79.2495 17.1594 79.3732 16.5124C79.4969 15.8653 79.6444 15.2278 79.8157 14.5998ZM85.7817 17.1832C85.4106 17.4115 85.225 17.9824 85.225 18.8959C85.225 19.1147 85.2298 19.3288 85.2393 19.5382C85.2488 19.738 85.2726 19.9473 85.3107 20.1662C85.2916 20.2233 85.3154 20.347 85.382 20.5373L85.4391 20.7513C85.4677 20.8941 85.5105 21.0558 85.5676 21.2366C85.6247 21.4174 85.6865 21.6029 85.7531 21.7932C85.8292 21.974 85.9101 22.1501 85.9957 22.3213C86.0909 22.4831 86.186 22.6163 86.2812 22.721C86.3573 22.7495 86.4192 22.7638 86.4667 22.7638C86.6095 22.7638 86.7474 22.6734 86.8806 22.4926C87.0234 22.3118 87.1471 22.1025 87.2517 21.8646C87.3564 21.6267 87.4468 21.3889 87.5229 21.151C87.599 20.9036 87.6514 20.718 87.6799 20.5943L87.7798 20.1947C87.8274 19.9473 87.8369 19.8141 87.8084 19.7951C87.8559 19.6619 87.8702 19.5382 87.8512 19.424C87.8417 19.3574 87.8369 19.2955 87.8369 19.2384C87.8369 19.1813 87.8369 19.129 87.8369 19.0814V18.8959C87.8369 18.7722 87.8179 18.6295 87.7798 18.4677C87.7513 18.306 87.7037 18.149 87.6371 17.9967C87.58 17.835 87.5039 17.6875 87.4087 17.5543C87.3231 17.421 87.2184 17.3259 87.0947 17.2688C86.8378 17.1356 86.5809 17.0642 86.324 17.0547C86.0671 17.0262 85.8863 17.069 85.7817 17.1832ZM82.4276 10.4179C82.4276 10.6748 82.4656 10.7747 82.5417 10.7176C82.6179 10.6796 82.7321 10.4798 82.8843 10.1182C83.0175 9.76613 83.1602 9.42359 83.3125 9.09056C83.4647 8.75753 83.6455 8.43401 83.8548 8.12001C84.0261 7.88214 84.126 7.70135 84.1546 7.57765C84.1831 7.46347 84.1546 7.36356 84.0689 7.27793C84.0118 7.2018 83.9452 7.16374 83.8691 7.16374C83.6788 7.16374 83.4647 7.41114 83.2268 7.90592C83.1697 8.04865 83.0936 8.2342 82.9985 8.46256C82.9128 8.68141 82.8272 8.91453 82.7416 9.16192C82.6559 9.3998 82.5798 9.63292 82.5132 9.86128C82.4561 10.0896 82.4276 10.2752 82.4276 10.4179ZM98.4186 6.56429H98.39C98.7326 6.35496 99.0846 6.25029 99.4462 6.25029C99.5889 6.25029 99.7602 6.27408 99.96 6.32165C100.169 6.35972 100.374 6.41681 100.574 6.49293C100.783 6.55953 100.978 6.64041 101.159 6.73556C101.349 6.8212 101.501 6.91635 101.616 7.02102C101.949 7.26841 102.206 7.59668 102.386 8.00583C102.567 8.41498 102.658 8.82889 102.658 9.24756C102.658 9.64719 102.61 10.0373 102.515 10.4179C102.429 10.789 102.329 11.1649 102.215 11.5455C102.129 11.8214 102.044 12.0973 101.958 12.3733C101.873 12.6492 101.782 12.9252 101.687 13.2011C101.639 13.2867 101.559 13.5294 101.444 13.929C101.321 14.3286 101.178 14.7568 101.016 15.2135C100.997 15.2611 100.954 15.3801 100.888 15.5704C100.831 15.7607 100.769 15.9652 100.702 16.1841C100.636 16.3934 100.574 16.5885 100.517 16.7693C100.469 16.9501 100.445 17.0547 100.445 17.0833C100.426 17.1308 100.402 17.2022 100.374 17.2974C100.355 17.383 100.331 17.4924 100.303 17.6256C100.274 17.7588 100.245 17.9016 100.217 18.0538C100.188 18.206 100.15 18.3726 100.103 18.5533C100.055 18.7246 100.012 18.9054 99.9743 19.0957C99.9457 19.2765 99.9077 19.4668 99.8601 19.6666C99.822 19.8664 99.7887 20.0615 99.7602 20.2518C99.7316 20.4326 99.6983 20.6134 99.6603 20.7942C99.6032 21.2319 99.5556 21.6125 99.5176 21.936C99.4795 22.2595 99.4509 22.5307 99.4319 22.7495C99.4034 23.1777 99.4272 23.4584 99.5033 23.5916C99.5794 23.6772 99.6793 23.7201 99.803 23.7201C99.9457 23.7201 100.084 23.6915 100.217 23.6344C100.35 23.5773 100.479 23.506 100.602 23.4203C100.735 23.3252 100.854 23.2253 100.959 23.1206C101.064 23.0064 101.159 22.9018 101.245 22.8066C101.359 22.6924 101.478 22.564 101.601 22.4212C101.725 22.269 101.825 22.1168 101.901 21.9645C102.101 21.6505 102.277 21.327 102.429 20.994C102.591 20.6609 102.748 20.3232 102.9 19.9806C103.233 19.2194 103.566 18.8388 103.899 18.8388C104.042 18.8388 104.175 18.8959 104.299 19.0101C104.565 19.2194 104.699 19.5715 104.699 20.0663C104.699 20.3612 104.646 20.6943 104.542 21.0653C104.437 21.4269 104.289 21.8028 104.099 22.1929C103.918 22.583 103.704 22.9731 103.457 23.3632C103.219 23.7534 102.962 24.1197 102.686 24.4622C102.41 24.8048 102.125 25.114 101.83 25.39C101.535 25.6564 101.249 25.8657 100.973 26.018C100.117 26.4747 99.2844 26.7031 98.4756 26.7031C98.038 26.7031 97.5812 26.6269 97.1055 26.4747C96.6297 26.3224 96.1825 26.1084 95.7638 25.8324C95.3452 25.5565 94.9788 25.2282 94.6648 24.8476C94.3508 24.467 94.1415 24.0531 94.0368 23.6059C93.9227 23.2062 93.8513 22.7923 93.8228 22.3642C93.7942 21.936 93.7799 21.5126 93.7799 21.0939C93.7799 20.8846 93.7799 20.6943 93.7799 20.523C93.7894 20.3517 93.7942 20.1995 93.7942 20.0663C93.8037 19.8093 93.8323 19.5715 93.8798 19.3526C93.8989 19.2384 93.9131 19.1576 93.9227 19.11C93.9322 19.0624 93.9369 18.991 93.9369 18.8959C93.994 18.3345 94.0797 17.7541 94.1938 17.1546C94.308 16.5552 94.4365 15.9557 94.5792 15.3563C94.7219 14.7568 94.8742 14.1669 95.0359 13.5865C95.2072 12.9965 95.3737 12.4256 95.5355 11.8737C95.7829 11.084 95.997 10.456 96.1777 9.98974C96.349 9.61865 96.5298 9.24756 96.7201 8.87647C96.9104 8.50538 97.1245 8.14856 97.3624 7.80602C97.41 7.72989 97.4766 7.62999 97.5622 7.50629C97.6478 7.38259 97.743 7.2589 97.8476 7.1352C97.9523 7.00199 98.0522 6.88305 98.1474 6.77838C98.252 6.6642 98.3424 6.59284 98.4186 6.56429ZM98.4471 7.72038C98.2378 8.12953 98.038 8.54819 97.8476 8.97638C97.6573 9.40456 97.5051 9.84701 97.3909 10.3037C97.3529 10.4084 97.3481 10.5178 97.3766 10.632C97.4052 10.7176 97.4528 10.7414 97.5194 10.7034C97.5574 10.6653 97.5765 10.6225 97.5765 10.5749C97.5765 10.5369 97.6193 10.4274 97.7049 10.2466L98.0046 9.64719C98.1188 9.41883 98.233 9.19998 98.3472 8.99065C98.4709 8.7718 98.5993 8.55295 98.7326 8.3341C99.0275 7.89641 99.194 7.60144 99.2321 7.4492C99.2702 7.29696 99.1845 7.22084 98.9752 7.22084C98.8896 7.22084 98.8134 7.24462 98.7468 7.2922C98.6897 7.34929 98.5898 7.49202 98.4471 7.72038ZM108.987 22.25V22.3499C108.987 22.407 108.996 22.4926 109.015 22.6068C109.034 22.7115 109.058 22.8209 109.087 22.9351C109.115 23.0492 109.149 23.1587 109.187 23.2633C109.225 23.3585 109.263 23.4251 109.301 23.4632C109.358 23.5012 109.472 23.5012 109.643 23.4632C110.414 23.3585 111.094 23.1254 111.684 22.7638C112.284 22.4022 112.836 21.9312 113.34 21.3508C113.473 21.189 113.592 21.0416 113.697 20.9083C113.801 20.7751 113.901 20.6562 113.997 20.5515C114.092 20.4469 114.177 20.3422 114.253 20.2375C114.33 20.1329 114.406 20.033 114.482 19.9378C114.548 19.8331 114.61 19.7332 114.667 19.6381C114.734 19.5334 114.801 19.4287 114.867 19.3241C114.934 19.2194 115 19.1052 115.067 18.9815C115.143 18.8578 115.224 18.7246 115.31 18.5819C115.357 18.5058 115.414 18.4201 115.481 18.325C115.547 18.2203 115.619 18.1252 115.695 18.0395C115.771 17.9444 115.857 17.8683 115.952 17.8112C116.047 17.7446 116.142 17.7113 116.237 17.7113C116.428 17.7113 116.608 17.7921 116.78 17.9539C116.951 18.1061 117.046 18.2774 117.065 18.4677C117.075 18.677 116.965 19.0577 116.737 19.6095C116.613 19.9426 116.47 20.2708 116.309 20.5943C116.156 20.9179 115.999 21.2366 115.838 21.5506C115.743 21.7314 115.647 21.9074 115.552 22.0787C115.467 22.25 115.386 22.4165 115.31 22.5782C115.186 22.8066 115.067 23.0112 114.953 23.192C114.848 23.3632 114.729 23.5298 114.596 23.6915C114.472 23.8533 114.33 24.015 114.168 24.1768C114.016 24.329 113.84 24.4908 113.64 24.6621C113.002 25.2139 112.312 25.6136 111.57 25.861C110.828 26.0988 110.038 26.2178 109.201 26.2178C108.801 26.2178 108.378 26.1559 107.931 26.0322C107.483 25.899 107.079 25.742 106.717 25.5612C106.546 25.4946 106.365 25.4042 106.175 25.2901C105.985 25.1664 105.794 25.0331 105.604 24.8904C105.423 24.7477 105.247 24.6002 105.076 24.448C104.914 24.2862 104.767 24.134 104.634 23.9912C104.301 23.6582 104.015 23.2919 103.777 22.8922C103.539 22.4831 103.349 22.0597 103.206 21.622C103.149 21.4983 103.106 21.3841 103.078 21.2794C103.049 21.1748 103.026 21.0749 103.007 20.9797C102.997 20.8846 102.988 20.7704 102.978 20.6372C102.978 20.5039 102.978 20.347 102.978 20.1662C102.978 19.719 103.021 19.2765 103.106 18.8388C103.202 18.3916 103.335 17.9587 103.506 17.54C103.677 17.1118 103.887 16.7122 104.134 16.3411C104.391 15.9605 104.681 15.6179 105.005 15.3134C105.547 14.8091 106.108 14.4381 106.689 14.2002C107.279 13.9623 107.95 13.8434 108.701 13.8434C109.691 13.8434 110.719 14.0717 111.784 14.5285C111.946 14.6141 112.117 14.7283 112.298 14.871C112.479 15.0042 112.65 15.1517 112.812 15.3134C112.974 15.4752 113.121 15.6465 113.254 15.8273C113.397 15.9985 113.511 16.1698 113.597 16.3411C113.778 16.7027 113.868 17.0975 113.868 17.5257C113.868 17.8873 113.816 18.2441 113.711 18.5962C113.606 18.9482 113.464 19.286 113.283 19.6095C113.112 19.933 112.902 20.2375 112.655 20.523C112.408 20.7989 112.141 21.0416 111.856 21.2509C111.323 21.6125 110.904 21.8551 110.6 21.9788C110.324 22.112 109.91 22.1929 109.358 22.2214L108.987 22.25ZM109.272 19.6095C109.272 19.7523 109.32 19.8236 109.415 19.8236C109.482 19.8236 109.567 19.7903 109.672 19.7237V19.6952C109.919 19.562 110.152 19.3954 110.371 19.1956C110.6 18.9863 110.799 18.7579 110.971 18.5105C111.152 18.2536 111.304 17.9872 111.427 17.7113C111.551 17.4258 111.632 17.1451 111.67 16.8692C111.67 16.8216 111.665 16.774 111.656 16.7264C111.656 16.6789 111.651 16.6265 111.642 16.5694C111.642 16.4648 111.618 16.3554 111.57 16.2412C111.58 16.3078 111.518 16.3411 111.385 16.3411C111.299 16.3411 111.209 16.3649 111.113 16.4124C111.028 16.4791 110.871 16.6408 110.642 16.8977C110.471 17.069 110.305 17.2593 110.143 17.4686C109.981 17.678 109.834 17.9016 109.7 18.1394C109.577 18.3678 109.472 18.6104 109.386 18.8673C109.31 19.1147 109.272 19.3621 109.272 19.6095ZM107.474 15.4562C107.531 15.3991 107.55 15.3277 107.531 15.2421C107.512 15.0803 107.426 14.9995 107.274 14.9995C107.103 14.9995 106.922 15.0613 106.732 15.185C106.541 15.2992 106.356 15.4467 106.175 15.6274C106.004 15.8082 105.847 15.9985 105.704 16.1984C105.561 16.3982 105.452 16.579 105.376 16.7407C105.3 16.9025 105.238 17.0737 105.19 17.2545C105.152 17.4068 105.152 17.5257 105.19 17.6114C105.238 17.697 105.276 17.716 105.304 17.6684C105.333 17.6399 105.347 17.5685 105.347 17.4544C105.347 17.2926 105.414 17.1261 105.547 16.9548C105.69 16.774 105.852 16.6075 106.032 16.4553C106.223 16.2935 106.413 16.146 106.603 16.0128C106.803 15.8796 106.965 15.7797 107.089 15.7131C107.307 15.5799 107.436 15.4942 107.474 15.4562Z" fill="white"/>
<path d="M128.187 13.2154C128.254 13.0441 128.316 12.8776 128.373 12.7158C128.43 12.5541 128.482 12.4018 128.53 12.2591C128.635 11.9832 128.687 11.7833 128.687 11.6596C128.687 11.4598 128.606 11.3599 128.444 11.3599C128.311 11.3599 128.135 11.4122 127.916 11.5169C127.174 11.8595 126.503 12.3067 125.904 12.8585C125.314 13.4009 124.79 14.0051 124.334 14.6712C123.877 15.3277 123.482 16.0318 123.149 16.7835C122.816 17.5257 122.545 18.2774 122.336 19.0386L122.121 19.9806C122.102 20.1043 122.088 20.228 122.079 20.3517C122.069 20.4659 122.064 20.5896 122.064 20.7228C122.064 21.189 122.117 21.6363 122.221 22.0644C122.336 22.4831 122.507 22.8542 122.735 23.1777C122.973 23.4917 123.273 23.7439 123.634 23.9342C124.005 24.1149 124.448 24.2053 124.962 24.2053C125.647 24.2053 126.265 24.1482 126.817 24.0341C127.379 23.9199 127.902 23.7534 128.387 23.5345C128.882 23.3157 129.358 23.0492 129.814 22.7352C130.281 22.4117 130.766 22.0502 131.27 21.6505C131.518 21.4602 131.737 21.2937 131.927 21.151C132.117 20.9987 132.288 20.8703 132.441 20.7656C132.755 20.5373 133.007 20.3707 133.197 20.2661C133.387 20.1614 133.549 20.09 133.682 20.052C133.825 20.0044 134.006 19.9806 134.225 19.9806C134.596 19.9806 134.91 20.0805 135.167 20.2803C135.414 20.4992 135.538 20.7704 135.538 21.0939C135.538 21.3508 135.414 21.6648 135.167 22.0359C134.929 22.3975 134.639 22.7685 134.296 23.1492C133.963 23.5202 133.621 23.8723 133.268 24.2053C132.926 24.5288 132.65 24.781 132.441 24.9618C131.508 25.7706 130.49 26.3938 129.386 26.8315C128.292 27.2597 127.141 27.5689 125.932 27.7592C125.656 27.7973 125.399 27.8258 125.162 27.8449C124.933 27.8639 124.719 27.8734 124.519 27.8734C123.844 27.8734 123.163 27.8021 122.478 27.6593C121.793 27.5166 121.132 27.3073 120.494 27.0313C119.857 26.7459 119.253 26.4033 118.682 26.0037C118.111 25.6041 117.597 25.1473 117.14 24.6335C116.646 24.0626 116.293 23.4061 116.084 22.6639C115.875 21.9217 115.77 21.1795 115.77 20.4373C115.77 19.5049 115.908 18.5153 116.184 17.4686C116.469 16.4124 116.845 15.3705 117.312 14.3429C117.787 13.3153 118.339 12.3447 118.967 11.4313C119.595 10.5083 120.252 9.7138 120.937 9.04774C121.308 8.68616 121.703 8.35313 122.121 8.04865C122.54 7.73465 122.978 7.46347 123.435 7.23511C123.901 7.00674 124.381 6.82596 124.876 6.69274C125.38 6.55953 125.894 6.49293 126.418 6.49293C126.893 6.49293 127.388 6.55953 127.902 6.69274C128.416 6.82596 128.92 7.01626 129.415 7.26365C129.91 7.50153 130.376 7.79174 130.814 8.13429C131.261 8.47683 131.651 8.85744 131.984 9.2761C132.326 9.69477 132.593 10.1467 132.783 10.632C132.983 11.1078 133.083 11.6073 133.083 12.1306C133.083 12.4351 133.04 12.7777 132.954 13.1583C132.869 13.5294 132.755 13.9052 132.612 14.2858C132.469 14.6569 132.303 15.0185 132.112 15.3705C131.932 15.7131 131.737 16.0033 131.527 16.2412C131.223 16.5742 130.942 16.7407 130.685 16.7407C130.638 16.7407 130.58 16.736 130.514 16.7264C130.457 16.7074 130.381 16.6884 130.285 16.6694C130.2 16.6503 130.105 16.6313 130 16.6123C129.905 16.5837 129.805 16.5552 129.7 16.5266C129.596 16.4886 129.486 16.4505 129.372 16.4124C129.267 16.3744 129.158 16.3316 129.044 16.284C128.825 16.1984 128.644 16.0984 128.501 15.9843L128.259 15.8701L127.888 15.3991C127.754 15.2659 127.688 15.0994 127.688 14.8995C127.688 14.7949 127.74 14.5713 127.845 14.2287C127.902 14.067 127.959 13.9052 128.016 13.7435C128.073 13.5722 128.13 13.3962 128.187 13.2154ZM124.448 8.3341C124.686 8.18186 124.805 8.0772 124.805 8.02011C124.805 7.87738 124.729 7.80602 124.576 7.80602C124.415 7.80602 124.22 7.86311 123.991 7.97729C123.763 8.09147 123.52 8.24371 123.263 8.43401C123.016 8.6148 122.764 8.82413 122.507 9.06201C122.25 9.29037 122.003 9.5235 121.765 9.76137C121.527 9.98974 121.308 10.2133 121.108 10.4322C120.918 10.6415 120.766 10.8223 120.651 10.9746C120.309 11.4122 120.138 11.6929 120.138 11.8166C120.138 11.8642 120.166 11.888 120.223 11.888C120.347 11.888 120.594 11.6501 120.965 11.1744C121.46 10.613 122.003 10.0944 122.592 9.61865C123.182 9.14289 123.801 8.71471 124.448 8.3341ZM141.599 6.56429H141.57C141.913 6.35496 142.265 6.25029 142.627 6.25029C142.769 6.25029 142.941 6.27408 143.14 6.32165C143.35 6.35972 143.554 6.41681 143.754 6.49293C143.964 6.55953 144.159 6.64041 144.339 6.73556C144.53 6.8212 144.682 6.91635 144.796 7.02102C145.129 7.26841 145.386 7.59668 145.567 8.00583C145.748 8.41498 145.838 8.82889 145.838 9.24756C145.838 9.64719 145.79 10.0373 145.695 10.4179C145.61 10.789 145.51 11.1649 145.396 11.5455C145.31 11.8214 145.224 12.0973 145.139 12.3733C145.053 12.6492 144.963 12.9252 144.867 13.2011C144.82 13.2867 144.739 13.5294 144.625 13.929C144.501 14.3286 144.358 14.7568 144.197 15.2135C144.178 15.2611 144.135 15.3801 144.068 15.5704C144.011 15.7607 143.949 15.9652 143.883 16.1841C143.816 16.3934 143.754 16.5885 143.697 16.7693C143.65 16.9501 143.626 17.0547 143.626 17.0833C143.607 17.1308 143.583 17.2022 143.554 17.2974C143.535 17.383 143.512 17.4924 143.483 17.6256C143.454 17.7588 143.426 17.9016 143.397 18.0538C143.369 18.206 143.331 18.3726 143.283 18.5533C143.236 18.7246 143.193 18.9054 143.155 19.0957C143.126 19.2765 143.088 19.4668 143.041 19.6666C143.002 19.8664 142.969 20.0615 142.941 20.2518C142.912 20.4326 142.879 20.6134 142.841 20.7942C142.784 21.2319 142.736 21.6125 142.698 21.936C142.66 22.2595 142.631 22.5307 142.612 22.7495C142.584 23.1777 142.608 23.4584 142.684 23.5916C142.76 23.6772 142.86 23.7201 142.983 23.7201C143.126 23.7201 143.264 23.6915 143.397 23.6344C143.531 23.5773 143.659 23.506 143.783 23.4203C143.916 23.3252 144.035 23.2253 144.14 23.1206C144.244 23.0064 144.339 22.9018 144.425 22.8066C144.539 22.6924 144.658 22.564 144.782 22.4212C144.906 22.269 145.005 22.1168 145.082 21.9645C145.281 21.6505 145.457 21.327 145.61 20.994C145.771 20.6609 145.928 20.3232 146.081 19.9806C146.414 19.2194 146.747 18.8388 147.08 18.8388C147.222 18.8388 147.356 18.8959 147.479 19.0101C147.746 19.2194 147.879 19.5715 147.879 20.0663C147.879 20.3612 147.827 20.6943 147.722 21.0653C147.617 21.4269 147.47 21.8028 147.28 22.1929C147.099 22.583 146.885 22.9731 146.637 23.3632C146.399 23.7534 146.142 24.1197 145.867 24.4622C145.591 24.8048 145.305 25.114 145.01 25.39C144.715 25.6564 144.43 25.8657 144.154 26.018C143.297 26.4747 142.465 26.7031 141.656 26.7031C141.218 26.7031 140.762 26.6269 140.286 26.4747C139.81 26.3224 139.363 26.1084 138.944 25.8324C138.526 25.5565 138.159 25.2282 137.845 24.8476C137.531 24.467 137.322 24.0531 137.217 23.6059C137.103 23.2062 137.032 22.7923 137.003 22.3642C136.975 21.936 136.96 21.5126 136.96 21.0939C136.96 20.8846 136.96 20.6943 136.96 20.523C136.97 20.3517 136.975 20.1995 136.975 20.0663C136.984 19.8093 137.013 19.5715 137.06 19.3526C137.079 19.2384 137.094 19.1576 137.103 19.11C137.113 19.0624 137.117 18.991 137.117 18.8959C137.174 18.3345 137.26 17.7541 137.374 17.1546C137.488 16.5552 137.617 15.9557 137.76 15.3563C137.902 14.7568 138.055 14.1669 138.216 13.5865C138.388 12.9965 138.554 12.4256 138.716 11.8737C138.963 11.084 139.177 10.456 139.358 9.98974C139.529 9.61865 139.71 9.24756 139.901 8.87647C140.091 8.50538 140.305 8.14856 140.543 7.80602C140.59 7.72989 140.657 7.62999 140.743 7.50629C140.828 7.38259 140.923 7.2589 141.028 7.1352C141.133 7.00199 141.233 6.88305 141.328 6.77838C141.432 6.6642 141.523 6.59284 141.599 6.56429ZM141.628 7.72038C141.418 8.12953 141.218 8.54819 141.028 8.97638C140.838 9.40456 140.686 9.84701 140.571 10.3037C140.533 10.4084 140.529 10.5178 140.557 10.632C140.586 10.7176 140.633 10.7414 140.7 10.7034C140.738 10.6653 140.757 10.6225 140.757 10.5749C140.757 10.5369 140.8 10.4274 140.885 10.2466L141.185 9.64719C141.299 9.41883 141.413 9.19998 141.528 8.99065C141.651 8.7718 141.78 8.55295 141.913 8.3341C142.208 7.89641 142.374 7.60144 142.413 7.4492C142.451 7.29696 142.365 7.22084 142.156 7.22084C142.07 7.22084 141.994 7.24462 141.927 7.2922C141.87 7.34929 141.77 7.49202 141.628 7.72038ZM152.167 22.25V22.3499C152.167 22.407 152.177 22.4926 152.196 22.6068C152.215 22.7115 152.239 22.8209 152.267 22.9351C152.296 23.0492 152.329 23.1587 152.367 23.2633C152.405 23.3585 152.443 23.4251 152.481 23.4632C152.538 23.5012 152.653 23.5012 152.824 23.4632C153.595 23.3585 154.275 23.1254 154.865 22.7638C155.464 22.4022 156.016 21.9312 156.52 21.3508C156.654 21.189 156.773 21.0416 156.877 20.9083C156.982 20.7751 157.082 20.6562 157.177 20.5515C157.272 20.4469 157.358 20.3422 157.434 20.2375C157.51 20.1329 157.586 20.033 157.662 19.9378C157.729 19.8331 157.791 19.7332 157.848 19.6381C157.914 19.5334 157.981 19.4287 158.048 19.3241C158.114 19.2194 158.181 19.1052 158.247 18.9815C158.324 18.8578 158.404 18.7246 158.49 18.5819C158.538 18.5058 158.595 18.4201 158.661 18.325C158.728 18.2203 158.799 18.1252 158.875 18.0395C158.952 17.9444 159.037 17.8683 159.132 17.8112C159.227 17.7446 159.323 17.7113 159.418 17.7113C159.608 17.7113 159.789 17.7921 159.96 17.9539C160.131 18.1061 160.227 18.2774 160.246 18.4677C160.255 18.677 160.146 19.0577 159.917 19.6095C159.794 19.9426 159.651 20.2708 159.489 20.5943C159.337 20.9179 159.18 21.2366 159.018 21.5506C158.923 21.7314 158.828 21.9074 158.733 22.0787C158.647 22.25 158.566 22.4165 158.49 22.5782C158.366 22.8066 158.247 23.0112 158.133 23.192C158.029 23.3632 157.91 23.5298 157.776 23.6915C157.653 23.8533 157.51 24.015 157.348 24.1768C157.196 24.329 157.02 24.4908 156.82 24.6621C156.183 25.2139 155.493 25.6136 154.751 25.861C154.008 26.0988 153.219 26.2178 152.381 26.2178C151.982 26.2178 151.558 26.1559 151.111 26.0322C150.664 25.899 150.259 25.742 149.898 25.5612C149.727 25.4946 149.546 25.4042 149.356 25.2901C149.165 25.1664 148.975 25.0331 148.785 24.8904C148.604 24.7477 148.428 24.6002 148.257 24.448C148.095 24.2862 147.947 24.134 147.814 23.9912C147.481 23.6582 147.196 23.2919 146.958 22.8922C146.72 22.4831 146.53 22.0597 146.387 21.622C146.33 21.4983 146.287 21.3841 146.258 21.2794C146.23 21.1748 146.206 21.0749 146.187 20.9797C146.178 20.8846 146.168 20.7704 146.158 20.6372C146.158 20.5039 146.158 20.347 146.158 20.1662C146.158 19.719 146.201 19.2765 146.287 18.8388C146.382 18.3916 146.515 17.9587 146.687 17.54C146.858 17.1118 147.067 16.7122 147.315 16.3411C147.571 15.9605 147.862 15.6179 148.185 15.3134C148.728 14.8091 149.289 14.4381 149.869 14.2002C150.459 13.9623 151.13 13.8434 151.882 13.8434C152.871 13.8434 153.899 14.0717 154.965 14.5285C155.126 14.6141 155.298 14.7283 155.479 14.871C155.659 15.0042 155.831 15.1517 155.992 15.3134C156.154 15.4752 156.302 15.6465 156.435 15.8273C156.578 15.9985 156.692 16.1698 156.777 16.3411C156.958 16.7027 157.049 17.0975 157.049 17.5257C157.049 17.8873 156.996 18.2441 156.892 18.5962C156.787 18.9482 156.644 19.286 156.463 19.6095C156.292 19.933 156.083 20.2375 155.835 20.523C155.588 20.7989 155.322 21.0416 155.036 21.2509C154.503 21.6125 154.085 21.8551 153.78 21.9788C153.504 22.112 153.09 22.1929 152.538 22.2214L152.167 22.25ZM152.453 19.6095C152.453 19.7523 152.5 19.8236 152.595 19.8236C152.662 19.8236 152.748 19.7903 152.852 19.7237V19.6952C153.1 19.562 153.333 19.3954 153.552 19.1956C153.78 18.9863 153.98 18.7579 154.151 18.5105C154.332 18.2536 154.484 17.9872 154.608 17.7113C154.732 17.4258 154.812 17.1451 154.851 16.8692C154.851 16.8216 154.846 16.774 154.836 16.7264C154.836 16.6789 154.832 16.6265 154.822 16.5694C154.822 16.4648 154.798 16.3554 154.751 16.2412C154.76 16.3078 154.698 16.3411 154.565 16.3411C154.479 16.3411 154.389 16.3649 154.294 16.4124C154.208 16.4791 154.051 16.6408 153.823 16.8977C153.652 17.069 153.485 17.2593 153.323 17.4686C153.162 17.678 153.014 17.9016 152.881 18.1394C152.757 18.3678 152.653 18.6104 152.567 18.8673C152.491 19.1147 152.453 19.3621 152.453 19.6095ZM150.654 15.4562C150.711 15.3991 150.73 15.3277 150.711 15.2421C150.692 15.0803 150.607 14.9995 150.455 14.9995C150.283 14.9995 150.102 15.0613 149.912 15.185C149.722 15.2992 149.536 15.4467 149.356 15.6274C149.184 15.8082 149.027 15.9985 148.885 16.1984C148.742 16.3982 148.632 16.579 148.556 16.7407C148.48 16.9025 148.418 17.0737 148.371 17.2545C148.333 17.4068 148.333 17.5257 148.371 17.6114C148.418 17.697 148.456 17.716 148.485 17.6684C148.513 17.6399 148.528 17.5685 148.528 17.4544C148.528 17.2926 148.594 17.1261 148.728 16.9548C148.87 16.774 149.032 16.6075 149.213 16.4553C149.403 16.2935 149.593 16.146 149.784 16.0128C149.984 15.8796 150.145 15.7797 150.269 15.7131C150.488 15.5799 150.616 15.4942 150.654 15.4562ZM158.223 20.6229C158.232 19.9759 158.327 19.3479 158.508 18.7389C158.689 18.1204 158.941 17.5447 159.265 17.0119C159.598 16.4695 159.992 15.9795 160.449 15.5418C160.915 15.1041 161.439 14.7425 162.019 14.4571C162.733 14.0955 163.48 13.9147 164.26 13.9147C164.84 13.9147 165.407 14.0241 165.958 14.243C166.52 14.4618 167.043 14.7235 167.528 15.028L167.657 15.0994C167.714 14.9091 167.776 14.7425 167.842 14.5998C167.919 14.4476 168.009 14.3239 168.114 14.2287C168.218 14.1336 168.342 14.0622 168.485 14.0146C168.637 13.9671 168.818 13.9433 169.027 13.9433C169.17 13.9433 169.284 13.948 169.37 13.9575C169.465 13.9671 169.55 13.9861 169.627 14.0146C169.712 14.0432 169.798 14.0812 169.883 14.1288C169.969 14.1764 170.069 14.2382 170.183 14.3144H170.14C170.768 14.6379 171.197 15.0042 171.425 15.4134C171.653 15.794 171.767 16.1365 171.767 16.441C171.767 16.5171 171.758 16.6265 171.739 16.7693C171.729 16.912 171.706 17.0928 171.668 17.3116C171.639 17.5305 171.61 17.7636 171.582 18.011C171.553 18.2584 171.52 18.52 171.482 18.796C171.453 19.0719 171.425 19.3526 171.396 19.6381C171.368 19.9235 171.335 20.2137 171.296 20.5087C171.239 21.1082 171.211 21.622 171.211 22.0502C171.211 22.4593 171.22 22.8304 171.239 23.1634C171.268 23.4965 171.311 23.7914 171.368 24.0483C171.463 24.5717 171.639 24.8333 171.896 24.8333C172.048 24.8333 172.205 24.7905 172.367 24.7049C172.529 24.6097 172.686 24.5003 172.838 24.3766C173 24.2434 173.147 24.1054 173.28 23.9627C173.414 23.82 173.523 23.6963 173.609 23.5916C173.913 23.211 174.175 22.7923 174.394 22.3356C174.612 21.8694 174.765 21.3984 174.85 20.9226C174.907 20.542 174.974 20.2803 175.05 20.1376C175.117 20.0139 175.269 19.9521 175.507 19.9521C175.688 19.9521 175.835 20.0044 175.949 20.1091C176.064 20.2137 176.149 20.3422 176.206 20.4944C176.273 20.6372 176.316 20.7942 176.335 20.9654C176.363 21.1367 176.378 21.2937 176.378 21.4364C176.378 21.7124 176.344 21.9978 176.278 22.2928C176.211 22.5878 176.121 22.8827 176.006 23.1777C175.892 23.4727 175.759 23.7581 175.607 24.0341C175.464 24.3005 175.317 24.5479 175.164 24.7762C174.736 25.3662 174.232 25.8515 173.651 26.2321C173.081 26.6031 172.419 26.7887 171.668 26.7887C171.62 26.7887 171.568 26.7887 171.511 26.7887C171.453 26.7887 171.392 26.7839 171.325 26.7744L170.982 26.7316C170.535 26.646 170.107 26.4985 169.698 26.2891C169.289 26.0798 168.908 25.8277 168.556 25.5327C168.204 25.2377 167.89 24.9047 167.614 24.5336C167.338 24.1625 167.115 23.7724 166.943 23.3632L166.786 23.0635C166.615 23.3585 166.41 23.6725 166.173 24.0055C165.944 24.329 165.683 24.6288 165.388 24.9047C165.102 25.1711 164.788 25.3947 164.446 25.5755C164.113 25.7468 163.76 25.8324 163.389 25.8324C162.866 25.8324 162.357 25.7658 161.862 25.6326C161.367 25.4994 160.906 25.2996 160.478 25.0331C160.05 24.7667 159.674 24.4432 159.35 24.0626C159.027 23.6725 158.775 23.2253 158.594 22.721C158.47 22.3975 158.38 22.0644 158.323 21.7219C158.265 21.3698 158.232 21.0083 158.223 20.6372V20.6229ZM168.813 14.9281C168.708 15.0803 168.656 15.2278 168.656 15.3705L168.685 15.3991C168.723 15.3991 168.77 15.3753 168.827 15.3277C168.894 15.2706 168.956 15.2088 169.013 15.1422C169.079 15.0756 169.132 15.0042 169.17 14.9281C169.217 14.852 169.241 14.7949 169.241 14.7568C169.241 14.6902 169.203 14.6569 169.127 14.6569C169.013 14.6569 168.908 14.7473 168.813 14.9281ZM163.703 21.2794C163.694 21.4126 163.684 21.5601 163.675 21.7219C163.665 21.8836 163.656 22.0597 163.646 22.25C163.646 22.5069 163.646 22.7162 163.646 22.878C163.656 23.0397 163.665 23.1444 163.675 23.192C163.684 23.2966 163.746 23.4061 163.86 23.5202C163.86 23.5202 163.879 23.4917 163.917 23.4346C163.975 23.3775 164.017 23.3299 164.046 23.2919C164.065 23.2633 164.094 23.2348 164.132 23.2062C164.17 23.1777 164.212 23.1396 164.26 23.0921C164.593 22.8161 164.888 22.4831 165.145 22.093C165.402 21.7029 165.625 21.2842 165.816 20.837C166.006 20.3898 166.168 19.933 166.301 19.4668C166.434 19.0006 166.544 18.5581 166.629 18.1394C166.724 17.6637 166.81 17.3116 166.886 17.0833C166.905 17.0357 166.919 16.9976 166.929 16.9691C166.939 16.931 166.943 16.893 166.943 16.8549V16.6836C166.943 16.5599 166.9 16.4981 166.815 16.4981C166.729 16.4981 166.629 16.5314 166.515 16.598C166.401 16.6551 166.287 16.7312 166.173 16.8264C166.058 16.912 165.949 17.0024 165.844 17.0975C165.749 17.1927 165.673 17.2688 165.616 17.3259C165.388 17.5828 165.164 17.854 164.945 18.1394C164.736 18.4154 164.55 18.7056 164.388 19.0101H164.417C164.293 19.248 164.174 19.4953 164.06 19.7523C163.946 19.9996 163.865 20.2566 163.818 20.523C163.789 20.6467 163.765 20.7704 163.746 20.8941C163.737 21.0178 163.722 21.1462 163.703 21.2794ZM160.535 17.0547C160.535 17.1594 160.578 17.2117 160.663 17.2117C160.701 17.2117 160.763 17.1689 160.849 17.0833C160.887 17.0357 160.944 16.9738 161.02 16.8977C161.106 16.8216 161.21 16.7169 161.334 16.5837C161.439 16.4791 161.548 16.3839 161.662 16.2983C161.786 16.2031 161.915 16.1127 162.048 16.0271C162.267 15.8844 162.485 15.7511 162.704 15.6274C162.923 15.4942 163.142 15.3658 163.361 15.2421C163.532 15.166 163.618 15.1041 163.618 15.0565C163.618 14.9994 163.584 14.9614 163.518 14.9424C163.461 14.9138 163.318 14.8995 163.09 14.8995C162.947 14.8995 162.799 14.9328 162.647 14.9995C162.495 15.0565 162.343 15.1327 162.19 15.2278C162.038 15.323 161.896 15.4276 161.762 15.5418C161.639 15.6465 161.529 15.7464 161.434 15.8415C161.386 15.8891 161.31 15.9652 161.206 16.0699C161.111 16.1746 161.011 16.2887 160.906 16.4124C160.811 16.5361 160.725 16.6598 160.649 16.7835C160.573 16.8977 160.535 16.9881 160.535 17.0547ZM183.564 19.8379C183.621 19.5049 183.706 19.2004 183.821 18.9244V18.953C184.001 18.2869 184.087 17.8587 184.077 17.6684C184.068 17.4781 183.982 17.4068 183.821 17.4544C183.754 17.4829 183.654 17.5543 183.521 17.6684C183.445 17.735 183.369 17.8064 183.292 17.8825C183.216 17.9587 183.135 18.0395 183.05 18.1252C182.802 18.3726 182.565 18.658 182.336 18.9815C182.108 19.305 181.889 19.6428 181.68 19.9949C181.48 20.3374 181.289 20.6895 181.109 21.0511C180.928 21.4126 180.766 21.7599 180.623 22.093C180.471 22.4355 180.395 22.6829 180.395 22.8352C180.395 22.9018 180.386 22.9446 180.367 22.9636C180.386 22.9446 180.357 23.0588 180.281 23.3062C180.205 23.5726 180.129 23.8105 180.053 24.0198C180.053 24.0388 180.043 24.0959 180.024 24.1911C179.995 24.2577 179.981 24.3148 179.981 24.3623C179.934 24.5526 179.886 24.7477 179.838 24.9475C179.8 25.1473 179.753 25.3424 179.696 25.5327C179.677 25.5803 179.662 25.6231 179.653 25.6611C179.643 25.6897 179.629 25.7135 179.61 25.7325C179.601 25.7515 179.591 25.7753 179.582 25.8039C179.572 25.8229 179.562 25.8419 179.553 25.861C179.42 26.0132 179.244 26.1084 179.025 26.1464C178.825 26.175 178.62 26.194 178.411 26.2035C178.211 26.2035 178.012 26.2035 177.812 26.2035C177.517 26.2035 177.269 26.1988 177.07 26.1892C176.879 26.1797 176.732 26.1654 176.627 26.1464C176.342 26.0703 176.094 25.9609 175.885 25.8181C175.676 25.6659 175.495 25.4899 175.343 25.2901C175.2 25.0902 175.081 24.8714 174.986 24.6335C174.891 24.3861 174.814 24.1292 174.757 23.8628C174.719 23.7486 174.691 23.6249 174.672 23.4917C174.653 23.4251 174.638 23.3585 174.629 23.2919C174.629 23.2158 174.624 23.1396 174.615 23.0635C174.615 22.9779 174.61 22.8875 174.6 22.7923C174.6 22.6877 174.6 22.5782 174.6 22.4641V21.5649C174.6 20.994 174.619 20.4611 174.657 19.9663C174.696 19.4716 174.762 18.991 174.857 18.5248C174.962 18.0586 175.1 17.5971 175.271 17.1404C175.442 16.6741 175.657 16.1936 175.913 15.6988C176.009 15.5085 176.132 15.3039 176.285 15.0851C176.446 14.8662 176.618 14.6997 176.798 14.5855C176.903 14.5094 177.031 14.4618 177.184 14.4428C177.336 14.4143 177.479 14.4 177.612 14.4C177.859 14.4 178.149 14.4333 178.483 14.4999C178.825 14.5665 179.153 14.6712 179.467 14.8139C179.781 14.9566 180.062 15.1374 180.309 15.3563C180.557 15.5656 180.714 15.813 180.78 16.0984C180.857 16.4029 180.842 16.7931 180.738 17.2688C180.7 17.3735 180.661 17.4829 180.623 17.5971C180.595 17.7017 180.557 17.8159 180.509 17.9396C180.471 18.0633 180.433 18.1775 180.395 18.2822C180.357 18.3773 180.314 18.4677 180.267 18.5533C180.352 18.4392 180.424 18.3393 180.481 18.2536C180.519 18.206 180.557 18.1585 180.595 18.1109C180.633 18.0538 180.681 18.0015 180.738 17.9539C180.909 17.7255 181.109 17.4781 181.337 17.2117C181.565 16.9453 181.813 16.6931 182.079 16.4553C182.355 16.2079 182.636 15.989 182.921 15.7987C183.207 15.5989 183.492 15.4562 183.778 15.3705H183.749C183.978 15.2849 184.139 15.2421 184.234 15.2421C184.339 15.2421 184.468 15.2849 184.62 15.3705C184.829 15.4371 185.034 15.5371 185.234 15.6703C185.433 15.8035 185.619 15.9605 185.79 16.1413C185.961 16.3221 186.114 16.5171 186.247 16.7264C186.38 16.9358 186.475 17.1451 186.532 17.3544C186.551 17.402 186.566 17.4496 186.575 17.4972C186.585 17.5447 186.599 17.5923 186.618 17.6399C186.637 17.8017 186.651 17.9539 186.661 18.0966C186.67 18.2394 186.675 18.3916 186.675 18.5533V19.1243C186.675 19.305 186.666 19.4811 186.647 19.6523C186.627 19.8141 186.608 19.9854 186.589 20.1662C186.485 20.6324 186.39 21.1224 186.304 21.6363C186.218 22.1406 186.156 22.6353 186.118 23.1206C186.071 23.5964 186.099 23.8771 186.204 23.9627C186.299 24.0864 186.418 24.1482 186.561 24.1482C186.675 24.1482 186.804 24.1054 186.946 24.0198C187.089 23.9246 187.227 23.82 187.36 23.7058C187.493 23.5821 187.617 23.4584 187.731 23.3347C187.845 23.2015 187.931 23.0921 187.988 23.0064C188.293 22.5782 188.54 22.1215 188.73 21.6363C188.93 21.151 189.068 20.6514 189.144 20.1376C189.239 19.6143 189.258 19.0862 189.201 18.5533C189.287 17.9634 189.415 17.6684 189.587 17.6684C189.758 17.6684 189.991 17.7731 190.286 17.9824C190.381 18.0776 190.472 18.1965 190.557 18.3393C190.643 18.4725 190.719 18.62 190.786 18.7817C190.862 18.934 190.924 19.0862 190.971 19.2384C191.019 19.3907 191.052 19.5334 191.071 19.6666C191.09 19.8569 191.09 20.0805 191.071 20.3374C191.023 20.718 190.962 21.0986 190.885 21.4793C190.819 21.8599 190.724 22.2309 190.6 22.5925C190.467 22.897 190.329 23.192 190.186 23.4774C190.053 23.7629 189.92 24.0436 189.786 24.3195C189.52 24.8619 189.182 25.2377 188.773 25.4471C188.364 25.6564 187.864 25.7611 187.275 25.7611C186.532 25.7611 185.814 25.6088 185.119 25.3043C184.634 25.0094 184.258 24.6716 183.992 24.291C183.735 23.9008 183.54 23.4394 183.407 22.9065C183.321 22.5449 183.278 22.2547 183.278 22.0359V21.5363C183.297 21.4507 183.307 21.3698 183.307 21.2937C183.316 21.2081 183.326 21.1224 183.335 21.0368C183.335 20.8846 183.359 20.7513 183.407 20.6372C183.426 20.542 183.449 20.4278 183.478 20.2946C183.507 20.1614 183.535 20.0092 183.564 19.8379ZM177.698 15.8273C177.755 15.6845 177.769 15.5941 177.74 15.5561C177.683 15.4609 177.602 15.4134 177.498 15.4134C177.393 15.4324 177.298 15.4895 177.212 15.5846C177.136 15.6893 177.055 15.8511 176.97 16.0699C176.894 16.2792 176.817 16.5076 176.741 16.755C176.665 16.9929 176.599 17.2307 176.541 17.4686C176.484 17.697 176.446 17.8873 176.427 18.0395C176.37 18.306 176.365 18.4772 176.413 18.5533C176.451 18.5819 176.484 18.5486 176.513 18.4534C176.532 18.4059 176.56 18.325 176.599 18.2108C176.637 18.0966 176.689 17.9491 176.756 17.7684C176.813 17.54 176.894 17.3164 176.998 17.0975C177.112 16.8692 177.236 16.6551 177.369 16.4553C177.455 16.3125 177.522 16.1888 177.569 16.0842C177.626 15.9795 177.669 15.8939 177.698 15.8273Z" fill="#25D7FF"/>
<path d="M61.8038 38.1191C61.268 38.1191 60.8004 38.0078 60.401 37.7854C60.0067 37.563 59.7008 37.247 59.4835 36.8375C59.2661 36.423 59.1574 35.9301 59.1574 35.3589C59.1574 34.7876 59.2661 34.2973 59.4835 33.8878C59.7008 33.4783 60.0067 33.1649 60.401 32.9475C60.7953 32.7251 61.2629 32.6139 61.8038 32.6139C62.1729 32.6139 62.5141 32.6644 62.8275 32.7655C63.1409 32.8666 63.4038 33.0208 63.6161 33.2281L63.2749 34.0243C63.0474 33.8423 62.8174 33.7134 62.5849 33.6376C62.3574 33.5567 62.1071 33.5162 61.8342 33.5162C61.3337 33.5162 60.9394 33.673 60.6512 33.9864C60.3631 34.2948 60.219 34.7497 60.219 35.3513C60.219 35.9579 60.3631 36.4205 60.6512 36.739C60.9394 37.0524 61.3337 37.2091 61.8342 37.2091C62.1071 37.2091 62.3574 37.1712 62.5849 37.0954C62.8174 37.0145 63.0474 36.883 63.2749 36.7011L63.6161 37.4973C63.4038 37.6995 63.1409 37.8537 62.8275 37.9598C62.5141 38.066 62.1729 38.1191 61.8038 38.1191ZM67.854 38.1115C67.4243 38.1115 67.0982 37.9977 66.8758 37.7702C66.6533 37.5377 66.5421 37.2066 66.5421 36.7769V32.6897H67.5658V36.7011C67.5658 36.8325 67.5835 36.9437 67.6189 37.0347C67.6593 37.1257 67.7175 37.1939 67.7933 37.2394C67.8691 37.2849 67.9601 37.3077 68.0663 37.3077C68.1421 37.3077 68.2104 37.3052 68.271 37.3001C68.3367 37.29 68.4075 37.2774 68.4833 37.2622L68.5364 38.0053C68.4252 38.0458 68.3165 38.0736 68.2104 38.0887C68.1093 38.1039 67.9905 38.1115 67.854 38.1115ZM73.0612 38.1115C72.591 38.1115 72.1891 38.0331 71.8555 37.8764C71.5269 37.7146 71.2767 37.4871 71.1048 37.1939C70.938 36.8957 70.8545 36.5443 70.8545 36.1399C70.8545 35.7658 70.9329 35.4322 71.0896 35.139C71.2514 34.8407 71.4814 34.6056 71.7797 34.4338C72.0779 34.2619 72.4293 34.176 72.8337 34.176C73.2078 34.176 73.5313 34.2543 73.8043 34.411C74.0823 34.5677 74.2946 34.7927 74.4413 35.0859C74.5929 35.374 74.6687 35.7229 74.6687 36.1323V36.4432H71.6583V35.8139H73.9332L73.8119 35.9503C73.8119 35.5965 73.7285 35.3336 73.5616 35.1617C73.3948 34.9898 73.1572 34.9039 72.8488 34.9039C72.6466 34.9039 72.4672 34.9469 72.3105 35.0328C72.1588 35.1188 72.0375 35.2451 71.9465 35.412C71.8605 35.5737 71.8176 35.7759 71.8176 36.0186V36.1248C71.8176 36.4028 71.8656 36.6303 71.9616 36.8072C72.0577 36.9791 72.2018 37.108 72.3939 37.1939C72.586 37.2748 72.821 37.3153 73.0991 37.3153C73.2962 37.3153 73.4984 37.29 73.7057 37.2394C73.918 37.1889 74.1101 37.1004 74.282 36.974L74.5702 37.6792C74.3679 37.8309 74.1304 37.9421 73.8574 38.0129C73.5844 38.0786 73.319 38.1115 73.0612 38.1115ZM78.8732 38.1115C78.5952 38.1115 78.3449 38.0584 78.1225 37.9522C77.9001 37.8461 77.7257 37.7045 77.5993 37.5276C77.4729 37.3456 77.4097 37.1409 77.4097 36.9134C77.4097 36.6353 77.4906 36.4104 77.6524 36.2385C77.8192 36.0616 78.072 35.9327 78.4107 35.8518C78.7494 35.7709 79.1841 35.7304 79.7149 35.7304H80.2457V36.3522H79.768C79.5304 36.3522 79.3282 36.3598 79.1614 36.375C78.9945 36.3902 78.8555 36.418 78.7443 36.4584C78.6331 36.4938 78.5497 36.5443 78.4941 36.6101C78.4435 36.6758 78.4182 36.7592 78.4182 36.8603C78.4182 37.0322 78.4814 37.1611 78.6078 37.247C78.7392 37.3279 78.9111 37.3683 79.1234 37.3683C79.3004 37.3683 79.4622 37.3279 79.6088 37.247C79.7604 37.1611 79.8817 37.0499 79.9727 36.9134C80.0637 36.7718 80.1092 36.6176 80.1092 36.4508V35.6243C80.1092 35.3715 80.0334 35.1971 79.8817 35.1011C79.7301 35.005 79.5026 34.957 79.1993 34.957C78.992 34.957 78.7772 34.9848 78.5547 35.0404C78.3323 35.096 78.0972 35.1921 77.8495 35.3286L77.569 34.6158C77.7408 34.5197 77.9228 34.4388 78.1149 34.3731C78.307 34.3074 78.5092 34.2594 78.7216 34.229C78.9339 34.1936 79.1437 34.176 79.3509 34.176C79.7149 34.176 80.0258 34.2316 80.2836 34.3428C80.5465 34.4489 80.7487 34.6183 80.8903 34.8508C81.0318 35.0783 81.1026 35.3791 81.1026 35.7532V38.0356H80.2381V37.2546H80.2154C80.1446 37.4214 80.046 37.5706 79.9197 37.702C79.7983 37.8284 79.6517 37.9295 79.4798 38.0053C79.308 38.0761 79.1058 38.1115 78.8732 38.1115ZM84.1812 38.0356V34.2518H85.1215V35.0177H85.1367C85.2631 34.7497 85.4451 34.5425 85.6827 34.3959C85.9253 34.2493 86.1958 34.176 86.494 34.176C86.8024 34.176 87.0627 34.2341 87.2751 34.3504C87.4874 34.4666 87.6466 34.6461 87.7528 34.8887C87.8589 35.1263 87.912 35.4297 87.912 35.7987V38.0356H86.8883V35.8366C86.8883 35.6597 86.8631 35.5105 86.8125 35.3892C86.767 35.2679 86.6912 35.1769 86.585 35.1162C86.4789 35.0505 86.3424 35.0177 86.1755 35.0177C85.9885 35.0177 85.8217 35.0606 85.6751 35.1466C85.5285 35.2274 85.4122 35.3412 85.3263 35.4878C85.2454 35.6344 85.2049 35.7987 85.2049 35.9807V38.0356H84.1812ZM90.9106 33.4935V32.4698H92.0859V33.4935H90.9106ZM90.994 38.0356V34.2518H92.0177V38.0356H90.994ZM95.1113 38.0356V34.2518H96.0515V35.0177H96.0667C96.1931 34.7497 96.3751 34.5425 96.6127 34.3959C96.8553 34.2493 97.1258 34.176 97.424 34.176C97.7324 34.176 97.9928 34.2341 98.2051 34.3504C98.4174 34.4666 98.5766 34.6461 98.6828 34.8887C98.789 35.1263 98.8421 35.4297 98.8421 35.7987V38.0356H97.8184V35.8366C97.8184 35.6597 97.7931 35.5105 97.7425 35.3892C97.697 35.2679 97.6212 35.1769 97.515 35.1162C97.4089 35.0505 97.2724 35.0177 97.1056 35.0177C96.9185 35.0177 96.7517 35.0606 96.6051 35.1466C96.4585 35.2274 96.3422 35.3412 96.2563 35.4878C96.1754 35.6344 96.135 35.7987 96.135 35.9807V38.0356H95.1113ZM103.638 39.4764C103.334 39.4764 103.031 39.436 102.728 39.3551C102.43 39.2792 102.172 39.168 101.954 39.0214L102.235 38.2404C102.366 38.3213 102.508 38.392 102.66 38.4527C102.816 38.5184 102.976 38.5664 103.137 38.5968C103.299 38.6271 103.453 38.6423 103.6 38.6423C103.989 38.6423 104.285 38.5589 104.487 38.392C104.689 38.2252 104.79 37.975 104.79 37.6413V37.1029H104.76C104.664 37.3355 104.502 37.5251 104.275 37.6717C104.047 37.8183 103.784 37.8916 103.486 37.8916C103.132 37.8916 102.821 37.8157 102.553 37.6641C102.291 37.5074 102.086 37.29 101.939 37.012C101.793 36.7339 101.719 36.4079 101.719 36.0338C101.719 35.6597 101.793 35.3336 101.939 35.0556C102.086 34.7775 102.291 34.5627 102.553 34.411C102.821 34.2543 103.132 34.176 103.486 34.176C103.789 34.176 104.055 34.2493 104.282 34.3959C104.51 34.5425 104.672 34.7396 104.768 34.9873H104.79V34.2518H105.738V37.5655C105.738 37.9598 105.655 38.2985 105.488 38.5816C105.321 38.8698 105.081 39.0897 104.768 39.2413C104.454 39.398 104.078 39.4764 103.638 39.4764ZM103.736 37.1029C104.045 37.1029 104.287 37.0069 104.464 36.8148C104.646 36.6176 104.737 36.3548 104.737 36.0262C104.737 35.7026 104.646 35.4448 104.464 35.2527C104.287 35.0606 104.045 34.9646 103.736 34.9646C103.428 34.9646 103.183 35.0606 103.001 35.2527C102.819 35.4448 102.728 35.7026 102.728 36.0262C102.728 36.3548 102.819 36.6176 103.001 36.8148C103.183 37.0069 103.428 37.1029 103.736 37.1029ZM115.02 38.1115C114.727 38.1115 114.443 38.0913 114.17 38.0508C113.897 38.0104 113.647 37.9497 113.42 37.8688C113.192 37.7879 112.995 37.6868 112.828 37.5655L113.162 36.7314C113.329 36.8477 113.511 36.9437 113.708 37.0195C113.91 37.0903 114.12 37.1409 114.337 37.1712C114.56 37.2015 114.787 37.2167 115.02 37.2167C115.389 37.2167 115.667 37.156 115.854 37.0347C116.046 36.9134 116.142 36.739 116.142 36.5115C116.142 36.3851 116.112 36.284 116.051 36.2082C115.995 36.1323 115.902 36.0717 115.77 36.0262C115.639 35.9756 115.47 35.9327 115.262 35.8973L114.383 35.7304C113.877 35.6344 113.508 35.4575 113.276 35.1996C113.048 34.9418 112.934 34.6158 112.934 34.2214C112.934 33.8979 113.028 33.6173 113.215 33.3797C113.407 33.1371 113.667 32.9501 113.996 32.8186C114.33 32.6821 114.711 32.6139 115.141 32.6139C115.394 32.6139 115.636 32.6366 115.869 32.6821C116.102 32.7276 116.314 32.7933 116.506 32.8793C116.703 32.9602 116.875 33.0613 117.022 33.1826L116.688 34.0091C116.476 33.8271 116.238 33.6982 115.975 33.6224C115.717 33.5466 115.437 33.5087 115.133 33.5087C114.901 33.5087 114.696 33.5365 114.519 33.5921C114.347 33.6426 114.211 33.721 114.11 33.8271C114.014 33.9282 113.966 34.0597 113.966 34.2214C113.966 34.3933 114.024 34.5273 114.14 34.6233C114.261 34.7194 114.474 34.7952 114.777 34.8508L115.649 35.0101C116.165 35.1011 116.546 35.2679 116.794 35.5105C117.047 35.7532 117.173 36.0666 117.173 36.4508C117.173 36.7794 117.085 37.0701 116.908 37.3229C116.731 37.5706 116.481 37.7652 116.157 37.9067C115.834 38.0432 115.454 38.1115 115.02 38.1115ZM120.037 39.4006V34.2442H120.955V35.0101H120.977C121.094 34.7421 121.268 34.5374 121.501 34.3959C121.738 34.2493 122.014 34.176 122.327 34.176C122.681 34.176 122.987 34.2594 123.245 34.4262C123.502 34.588 123.7 34.8154 123.836 35.1086C123.978 35.4019 124.048 35.7456 124.048 36.1399C124.048 36.5191 123.98 36.8578 123.844 37.156C123.707 37.4543 123.51 37.6894 123.252 37.8612C122.999 38.0281 122.694 38.1115 122.335 38.1115C122.031 38.1115 121.771 38.0432 121.554 37.9067C121.341 37.7652 121.182 37.5807 121.076 37.3532H121.061V39.4006H120.037ZM122.047 37.3153C122.355 37.3153 122.595 37.2116 122.767 37.0044C122.944 36.7921 123.032 36.5014 123.032 36.1323C123.032 35.7633 122.946 35.4777 122.774 35.2755C122.603 35.0682 122.36 34.9646 122.047 34.9646C121.733 34.9646 121.488 35.0682 121.311 35.2755C121.134 35.4777 121.046 35.7633 121.046 36.1323C121.046 36.5014 121.134 36.7921 121.311 37.0044C121.493 37.2116 121.738 37.3153 122.047 37.3153ZM128.941 38.1115C128.47 38.1115 128.069 38.0331 127.735 37.8764C127.406 37.7146 127.156 37.4871 126.984 37.1939C126.817 36.8957 126.734 36.5443 126.734 36.1399C126.734 35.7658 126.812 35.4322 126.969 35.139C127.131 34.8407 127.361 34.6056 127.659 34.4338C127.957 34.2619 128.309 34.176 128.713 34.176C129.087 34.176 129.411 34.2543 129.684 34.411C129.962 34.5677 130.174 34.7927 130.321 35.0859C130.472 35.374 130.548 35.7229 130.548 36.1323V36.4432H127.538V35.8139H129.813L129.691 35.9503C129.691 35.5965 129.608 35.3336 129.441 35.1617C129.274 34.9898 129.037 34.9039 128.728 34.9039C128.526 34.9039 128.347 34.9469 128.19 35.0328C128.038 35.1188 127.917 35.2451 127.826 35.412C127.74 35.5737 127.697 35.7759 127.697 36.0186V36.1248C127.697 36.4028 127.745 36.6303 127.841 36.8072C127.937 36.9791 128.081 37.108 128.273 37.1939C128.465 37.2748 128.7 37.3153 128.978 37.3153C129.176 37.3153 129.378 37.29 129.585 37.2394C129.797 37.1889 129.99 37.1004 130.161 36.974L130.45 37.6792C130.247 37.8309 130.01 37.9421 129.737 38.0129C129.464 38.0786 129.198 38.1115 128.941 38.1115ZM135.223 38.1115C134.818 38.1115 134.467 38.0306 134.169 37.8688C133.87 37.7071 133.638 37.4796 133.471 37.1864C133.304 36.8881 133.221 36.5393 133.221 36.1399C133.221 35.7406 133.304 35.3943 133.471 35.1011C133.638 34.8028 133.87 34.5753 134.169 34.4186C134.472 34.2568 134.826 34.176 135.23 34.176C135.508 34.176 135.771 34.2164 136.019 34.2973C136.267 34.3782 136.466 34.4843 136.618 34.6158L136.315 35.374C136.173 35.2628 136.016 35.1769 135.845 35.1162C135.678 35.0556 135.511 35.0252 135.344 35.0252C135 35.0252 134.732 35.1213 134.54 35.3134C134.348 35.5004 134.252 35.7759 134.252 36.1399C134.252 36.5039 134.348 36.7819 134.54 36.974C134.732 37.1661 134.998 37.2622 135.336 37.2622C135.508 37.2622 135.678 37.2319 135.845 37.1712C136.016 37.1105 136.168 37.0271 136.3 36.921L136.61 37.6717C136.454 37.8031 136.254 37.9093 136.011 37.9901C135.769 38.071 135.506 38.1115 135.223 38.1115ZM139.192 33.4935V32.4698H140.368V33.4935H139.192ZM139.276 38.0356V34.2518H140.299V38.0356H139.276ZM144.72 38.1115C144.442 38.1115 144.192 38.0584 143.969 37.9522C143.747 37.8461 143.572 37.7045 143.446 37.5276C143.32 37.3456 143.256 37.1409 143.256 36.9134C143.256 36.6353 143.337 36.4104 143.499 36.2385C143.666 36.0616 143.919 35.9327 144.257 35.8518C144.596 35.7709 145.031 35.7304 145.562 35.7304H146.092V36.3522H145.615C145.377 36.3522 145.175 36.3598 145.008 36.375C144.841 36.3902 144.702 36.418 144.591 36.4584C144.48 36.4938 144.396 36.5443 144.341 36.6101C144.29 36.6758 144.265 36.7592 144.265 36.8603C144.265 37.0322 144.328 37.1611 144.455 37.247C144.586 37.3279 144.758 37.3683 144.97 37.3683C145.147 37.3683 145.309 37.3279 145.456 37.247C145.607 37.1611 145.728 37.0499 145.819 36.9134C145.91 36.7718 145.956 36.6176 145.956 36.4508V35.6243C145.956 35.3715 145.88 35.1971 145.728 35.1011C145.577 35.005 145.349 34.957 145.046 34.957C144.839 34.957 144.624 34.9848 144.401 35.0404C144.179 35.096 143.944 35.1921 143.696 35.3286L143.416 34.6158C143.588 34.5197 143.77 34.4388 143.962 34.3731C144.154 34.3074 144.356 34.2594 144.568 34.229C144.781 34.1936 144.99 34.176 145.198 34.176C145.562 34.176 145.873 34.2316 146.13 34.3428C146.393 34.4489 146.595 34.6183 146.737 34.8508C146.879 35.0783 146.949 35.3791 146.949 35.7532V38.0356H146.085V37.2546H146.062C145.991 37.4214 145.893 37.5706 145.766 37.702C145.645 37.8284 145.498 37.9295 145.327 38.0053C145.155 38.0761 144.953 38.1115 144.72 38.1115ZM151.34 38.1115C150.91 38.1115 150.584 37.9977 150.362 37.7702C150.139 37.5377 150.028 37.2066 150.028 36.7769V32.6897H151.052V36.7011C151.052 36.8325 151.069 36.9437 151.105 37.0347C151.145 37.1257 151.203 37.1939 151.279 37.2394C151.355 37.2849 151.446 37.3077 151.552 37.3077C151.628 37.3077 151.696 37.3052 151.757 37.3001C151.823 37.29 151.893 37.2774 151.969 37.2622L152.022 38.0053C151.911 38.0458 151.802 38.0736 151.696 38.0887C151.595 38.1039 151.476 38.1115 151.34 38.1115ZM154.499 33.4935V32.4698H155.674V33.4935H154.499ZM154.582 38.0356V34.2518H155.606V38.0356H154.582ZM160.193 38.1115C159.971 38.1115 159.751 38.0938 159.534 38.0584C159.321 38.0281 159.127 37.9826 158.95 37.9219C158.773 37.8562 158.621 37.7753 158.495 37.6792L158.76 36.974C158.892 37.06 159.036 37.1308 159.192 37.1864C159.354 37.242 159.518 37.2824 159.685 37.3077C159.852 37.333 160.011 37.3456 160.163 37.3456C160.446 37.3456 160.658 37.3153 160.8 37.2546C160.941 37.1889 161.012 37.0878 161.012 36.9513C161.012 36.835 160.972 36.7516 160.891 36.7011C160.81 36.6454 160.679 36.6025 160.497 36.5721L159.655 36.4508C159.291 36.4003 159.018 36.2764 158.836 36.0793C158.659 35.8821 158.571 35.647 158.571 35.374C158.571 35.1365 158.636 34.9292 158.768 34.7523C158.899 34.5753 159.094 34.4363 159.352 34.3352C159.609 34.229 159.925 34.176 160.299 34.176C160.492 34.176 160.681 34.1911 160.868 34.2214C161.06 34.2518 161.237 34.2998 161.399 34.3655C161.566 34.4262 161.705 34.502 161.816 34.593L161.528 35.2906C161.422 35.2098 161.3 35.144 161.164 35.0935C161.027 35.0429 160.883 35.005 160.732 34.9797C160.585 34.9545 160.441 34.9418 160.299 34.9418C160.026 34.9418 159.822 34.9772 159.685 35.048C159.549 35.1137 159.48 35.2123 159.48 35.3437C159.48 35.4549 159.518 35.5383 159.594 35.594C159.67 35.6445 159.791 35.6824 159.958 35.7077L160.77 35.8442C161.164 35.9049 161.455 36.0262 161.642 36.2082C161.829 36.3851 161.922 36.6252 161.922 36.9285C161.922 37.1712 161.851 37.381 161.71 37.5579C161.568 37.7349 161.369 37.8713 161.111 37.9674C160.853 38.0634 160.547 38.1115 160.193 38.1115ZM166.525 38.1115C165.994 38.1115 165.6 37.98 165.342 37.7172C165.084 37.4543 164.955 37.0751 164.955 36.5797V35.0707H164.22V34.2518H165.016V33.1826H165.979V34.2518H167.298V35.0707H165.986V36.5342C165.986 36.7718 166.045 36.9513 166.161 37.0726C166.277 37.1939 166.457 37.2546 166.699 37.2546C166.795 37.2546 166.891 37.2445 166.987 37.2243C167.083 37.2041 167.177 37.1788 167.268 37.1484L167.412 37.9295C167.286 37.9901 167.147 38.0356 166.995 38.066C166.843 38.0963 166.687 38.1115 166.525 38.1115Z" fill="white"/>
</svg>
