<svg width="192" height="42" viewBox="0 0 192 42" fill="none" xmlns="http://www.w3.org/2000/svg">
<path d="M23.4388 9.58946C23.4388 12.4645 21.1204 14.7952 18.2605 14.7952C15.4005 14.7952 13.0821 12.4645 13.0821 9.58946C13.0821 6.71443 15.4005 4.38375 18.2605 4.38375C21.1204 4.38375 23.4388 6.71443 23.4388 9.58946Z" fill="#25D7FF"/>
<path d="M16.0801 18.7679C16.0801 22.3239 13.2126 25.2066 9.67532 25.2066C6.13805 25.2066 3.27053 22.3239 3.27053 18.7679C3.27053 15.212 6.13805 12.3293 9.67532 12.3293C13.2126 12.3293 16.0801 15.212 16.0801 18.7679Z" fill="#25D7FF"/>
<path d="M11.4469 8.08255C11.4469 9.52006 10.2876 10.6854 8.85769 10.6854C7.42773 10.6854 6.26852 9.52006 6.26852 8.08255C6.26852 6.64503 7.42773 5.47969 8.85769 5.47969C10.2876 5.47969 11.4469 6.64503 11.4469 8.08255Z" fill="#25D7FF"/>
<path d="M14.1723 28.4944C14.1723 29.7049 13.1961 30.6863 11.992 30.6863C10.7878 30.6863 9.8116 29.7049 9.8116 28.4944C9.8116 27.2839 10.7878 26.3025 11.992 26.3025C13.1961 26.3025 14.1723 27.2839 14.1723 28.4944Z" fill="#25D7FF"/>
<path d="M24.2564 3.01383C24.2564 3.77042 23.6463 4.38375 22.8937 4.38375C22.1411 4.38375 21.531 3.77042 21.531 3.01383C21.531 2.25724 22.1411 1.64391 22.8937 1.64391C23.6463 1.64391 24.2564 2.25724 24.2564 3.01383Z" fill="#25D7FF"/>
<path d="M1.63527 12.6033C1.63527 13.0572 1.2692 13.4252 0.817633 13.4252C0.366067 13.4252 0 13.0572 0 12.6033C0 12.1493 0.366067 11.7813 0.817633 11.7813C1.2692 11.7813 1.63527 12.1493 1.63527 12.6033Z" fill="#25D7FF"/>
<path d="M22.3486 31.5082C22.3486 31.9622 21.9826 32.3302 21.531 32.3302C21.0794 32.3302 20.7134 31.9622 20.7134 31.5082C20.7134 31.0543 21.0794 30.6863 21.531 30.6863C21.9826 30.6863 22.3486 31.0543 22.3486 31.5082Z" fill="#25D7FF"/>
<path d="M20.9859 21.0968C18.3967 19.7269 16.1077 20.7973 14.945 22.4285L14.2607 14.2727C17.9428 17.3311 23.3025 14.1102 23.4388 10.2744L25.0741 12.6033L20.9859 21.0968Z" fill="#25D7FF"/>
<path fill-rule="evenodd" clip-rule="evenodd" d="M36.7934 35.07C46.4268 35.07 54.2362 27.2193 54.2362 17.535C54.2362 7.8507 46.4268 0 36.7934 0C29.7893 0 23.7494 4.15 20.9742 10.1374H23.3962L23.9838 11.0507L23.4388 10.2744C23.3611 12.4631 21.686 14.4733 19.5024 15.2109C19.4255 15.7944 19.5207 14.6108 19.5024 15.2109L22.9639 16.987L20.9859 21.0968C20.5113 20.8457 20.0503 20.6682 19.6081 20.5543C21.0316 28.7998 28.1841 35.07 36.7934 35.07ZM23.9838 14.8682V11.0507L25.0741 12.6033L23.9838 14.8682Z" fill="#25D7FF"/>
<path d="M22.8937 24.5216C22.8937 26.7157 21.1244 28.4944 18.9418 28.4944C16.7593 28.4944 14.9899 26.7157 14.9899 24.5216C14.9899 22.3275 16.7593 20.5488 18.9418 20.5488C21.1244 20.5488 22.8937 22.3275 22.8937 24.5216Z" fill="#25D7FF"/>
<path d="M44.1768 19.067L43.8343 19.2525L44.4194 19.4381C44.7334 19.5618 45.0284 19.7188 45.3044 19.9091C45.5898 20.0994 45.8372 20.323 46.0465 20.5799C46.2654 20.8368 46.4366 21.1175 46.5603 21.422C46.6936 21.7265 46.7602 22.0547 46.7602 22.4068C46.7602 23.2156 46.6079 23.934 46.3034 24.562C46.0085 25.1805 45.6088 25.7228 45.1045 26.1891C44.6097 26.6458 44.0341 27.0311 43.3775 27.3451C42.721 27.6591 42.0311 27.9113 41.308 28.1016C40.5944 28.3014 39.8712 28.4441 39.1385 28.5298C38.4059 28.6154 37.7113 28.6582 37.0547 28.6582C36.7978 28.6582 36.6313 28.6487 36.5552 28.6297C36.5171 28.6107 36.4315 28.5916 36.2983 28.5726C36.2031 28.5726 36.0604 28.5488 35.8701 28.5012C35.5846 28.4537 35.304 28.3537 35.028 28.2015C34.7616 28.0588 34.519 27.897 34.3001 27.7162C34.1954 27.6401 34.0908 27.564 33.9861 27.4879C33.8814 27.4117 33.7768 27.3356 33.6721 27.2595C33.4628 27.1073 33.263 27.0121 33.0727 26.9741C32.6254 26.8789 32.2401 26.7647 31.9166 26.6315C31.5931 26.4888 31.3266 26.308 31.1173 26.0891C30.9175 25.8608 30.7652 25.5801 30.6606 25.2471C30.5654 24.914 30.5178 24.5144 30.5178 24.0482C30.5178 20.5371 31.536 17.321 33.5722 14.3998C33.6293 14.2951 33.6864 14.2095 33.7435 14.1429C33.791 14.0668 33.8148 14.0192 33.8148 14.0002C33.7577 14.0002 33.6769 14.0192 33.5722 14.0573C33.477 14.0953 33.3771 14.1429 33.2725 14.2C33.1678 14.2571 33.0679 14.3142 32.9727 14.3713C32.8776 14.4284 32.8062 14.4759 32.7587 14.514C32.654 14.5806 32.5541 14.6472 32.4589 14.7138C32.3733 14.7709 32.2924 14.8232 32.2163 14.8708C32.0545 14.9755 31.9546 15.0278 31.9166 15.0278C31.6311 14.7519 31.3837 14.4855 31.1744 14.2285C30.9651 13.9621 30.7652 13.6529 30.5749 13.3008C30.4132 12.9583 30.3323 12.63 30.3323 12.316C30.3323 11.8117 30.4179 11.3692 30.5892 10.9886C30.7605 10.608 30.9888 10.2702 31.2743 9.97528C31.5693 9.68031 31.9071 9.4234 32.2877 9.20455C32.6683 8.98571 33.0631 8.78589 33.4723 8.6051C34.0337 8.34819 34.6331 8.1008 35.2707 7.86292C35.9177 7.62504 36.5742 7.41571 37.2403 7.23492C37.9159 7.04462 38.5914 6.89714 39.267 6.79247C39.9426 6.67829 40.5944 6.6212 41.2224 6.6212C41.8028 6.6212 42.3737 6.68305 42.9351 6.80674C43.506 6.93044 44.0484 7.11599 44.5622 7.36338C45.076 7.61077 45.547 7.92477 45.9752 8.30538C46.4129 8.67647 46.784 9.11892 47.0884 9.63273C47.5356 10.3654 47.7593 11.2693 47.7593 12.3445C47.7593 13.0867 47.6974 13.7861 47.5737 14.4426C47.4595 15.0897 47.2597 15.6939 46.9743 16.2553C46.6983 16.8071 46.332 17.321 45.8753 17.7967C45.4185 18.263 44.8524 18.6864 44.1768 19.067ZM37.7398 8.61937C37.7398 8.5718 37.6827 8.54325 37.5686 8.53374C37.5115 8.53374 37.4449 8.53374 37.3687 8.53374C37.3021 8.52422 37.226 8.51947 37.1404 8.51947C36.9025 8.51947 36.6456 8.56704 36.3696 8.66219C36.2174 8.70977 36.0081 8.78113 35.7416 8.87628C35.4752 8.97143 35.185 9.08086 34.871 9.20455C34.557 9.31874 34.2335 9.44719 33.9005 9.58992C33.577 9.73265 33.282 9.88013 33.0156 10.0324C32.7587 10.1751 32.5446 10.3226 32.3733 10.4748C32.2115 10.6176 32.1307 10.7555 32.1307 10.8887C32.1307 11.0315 32.183 11.1028 32.2877 11.1028C32.3257 11.1028 32.4066 11.079 32.5303 11.0315C32.5779 11.0029 32.6492 10.9601 32.7444 10.903C32.8491 10.8459 32.968 10.7793 33.1012 10.7032C33.8434 10.256 34.5951 9.86586 35.3563 9.53283C36.127 9.1998 36.9215 8.89531 37.7398 8.61937ZM42.3784 22.3354C42.3784 22.0309 42.2833 21.7788 42.093 21.579C41.9027 21.3792 41.6648 21.2174 41.3794 21.0937C41.1034 20.97 40.8085 20.8844 40.4945 20.8368C40.19 20.7797 39.9235 20.7512 39.6952 20.7512C39.3431 20.7512 38.9863 20.7892 38.6247 20.8653C38.2632 20.9319 37.9159 21.0081 37.5828 21.0937L37.0833 21.1936L36.9548 21.8787C36.9263 22.0214 36.8977 22.1737 36.8692 22.3354C36.8406 22.4972 36.8169 22.6732 36.7978 22.8635C36.7788 23.0538 36.7645 23.2346 36.755 23.4059C36.755 23.5676 36.7598 23.7294 36.7693 23.8912C36.7693 24.0244 36.7693 24.1385 36.7693 24.2337C36.7788 24.3288 36.7883 24.405 36.7978 24.4621V24.8331L38.639 24.5762C39.0957 24.4906 39.5525 24.3764 40.0092 24.2337C40.4754 24.0815 40.9084 23.8816 41.308 23.6342C41.4127 23.5772 41.5268 23.501 41.6505 23.4059C41.7838 23.3107 41.9027 23.2061 42.0074 23.0919C42.112 22.9777 42.1977 22.8588 42.2643 22.7351C42.3404 22.6019 42.3784 22.4686 42.3784 22.3354ZM43.2776 14.1572C43.3252 13.6148 43.1206 13.2295 42.6639 13.0011C42.2262 12.7727 41.641 12.6585 40.9084 12.6585C40.7942 12.6585 40.6705 12.6633 40.5373 12.6728C40.4041 12.6728 40.2566 12.6728 40.0948 12.6728C39.9426 12.6823 39.7903 12.6918 39.6381 12.7014C39.4954 12.7014 39.3526 12.7014 39.2099 12.7014C39.0767 12.7109 38.9435 12.7204 38.8103 12.7299C38.6866 12.7299 38.5724 12.7394 38.4677 12.7585C38.3631 12.768 38.2774 12.7775 38.2108 12.787C38.1537 12.787 38.1204 12.787 38.1109 12.787L37.8255 12.8155L38.1395 13.0725C38.4154 13.2913 38.6438 13.5292 38.8245 13.7861C39.0149 14.043 39.11 14.3522 39.11 14.7138L39.0672 14.8994C39.0291 14.985 38.9863 15.0849 38.9387 15.1991C38.8912 15.3133 38.8388 15.4417 38.7817 15.5844C38.6485 15.9175 38.5248 16.2505 38.4106 16.5835C38.2965 16.9166 38.187 17.2496 38.0824 17.5826C38.0824 17.6873 38.1442 17.7396 38.2679 17.7396C38.3726 17.7396 38.4915 17.7349 38.6247 17.7254C38.7675 17.7063 38.9054 17.6873 39.0386 17.6683C39.1814 17.6397 39.3193 17.6112 39.4525 17.5826C39.5858 17.5541 39.6999 17.5208 39.7951 17.4827C40.0425 17.4066 40.3137 17.3019 40.6086 17.1687C40.9036 17.0355 41.1891 16.8833 41.465 16.712C41.7505 16.5312 42.0169 16.3361 42.2643 16.1268C42.5117 15.9175 42.7115 15.6986 42.8637 15.4703C42.9684 15.3371 43.0493 15.2134 43.1064 15.0992C43.1634 14.9755 43.211 14.8565 43.2491 14.7424L43.2776 14.1572ZM51.2157 14.8137C51.2823 14.8042 51.3537 14.7994 51.4298 14.7994C51.5059 14.7899 51.582 14.7852 51.6581 14.7852C52.0578 14.7852 52.4812 14.847 52.9284 14.9707C53.3756 15.0849 53.7705 15.2276 54.1131 15.3989V15.3704C54.5032 15.5607 54.6982 15.9222 54.6982 16.4551C54.6982 16.731 54.6459 17.1021 54.5412 17.5684C54.4937 17.7872 54.4318 18.0298 54.3557 18.2963C54.2891 18.5532 54.2177 18.8339 54.1416 19.1383L53.9561 19.852C53.937 19.9376 53.9132 20.0233 53.8847 20.1089C53.8657 20.185 53.8466 20.2659 53.8276 20.3515C53.7895 20.5038 53.7467 20.6513 53.6991 20.794C53.6896 21.0223 53.6611 21.2364 53.6135 21.4362C53.5945 21.5409 53.5707 21.6503 53.5421 21.7645C53.5231 21.8692 53.5041 21.9786 53.4851 22.0928C53.4375 22.3687 53.3994 22.6066 53.3709 22.8064C53.3423 23.0062 53.3328 23.1632 53.3423 23.2774C53.3614 23.5153 53.4422 23.6818 53.585 23.777C53.6516 23.8436 53.7943 23.7912 54.0131 23.62L54.2415 23.3916C54.2891 23.344 54.3319 23.3012 54.37 23.2632C54.408 23.2156 54.4461 23.168 54.4841 23.1204C54.722 22.7779 54.9266 22.4068 55.0979 22.0072C55.2691 21.598 55.4309 21.1984 55.5831 20.8083C55.9162 19.99 56.2111 19.1716 56.468 18.3533V18.3962C56.4871 18.3296 56.5061 18.2677 56.5251 18.2106C56.5537 18.144 56.5775 18.0727 56.5965 17.9965L56.725 17.6112C56.744 17.516 56.763 17.4256 56.782 17.34C56.8106 17.2448 56.8439 17.1449 56.882 17.0403C56.9866 16.6692 57.1008 16.3028 57.2245 15.9413C57.3577 15.5702 57.5337 15.2229 57.7526 14.8994C57.9619 14.6424 58.176 14.4807 58.3949 14.4141C58.6232 14.3285 58.9896 14.2856 59.4939 14.2856C59.6461 14.2856 59.8316 14.2951 60.0505 14.3142C60.2693 14.3237 60.4882 14.3522 60.707 14.3998C60.9354 14.4379 61.1447 14.4997 61.335 14.5854C61.5348 14.671 61.6823 14.7899 61.7775 14.9422C61.8726 15.0468 61.9202 15.2229 61.9202 15.4703C61.9202 15.5464 61.9155 15.6273 61.9059 15.7129C61.8964 15.7985 61.8822 15.8889 61.8631 15.9841C61.8441 16.0697 61.8155 16.1696 61.7775 16.2838C61.7489 16.398 61.7109 16.5217 61.6633 16.6549C60.7784 19.6046 60.3978 21.7169 60.5215 22.992C60.5691 23.2965 60.6166 23.5058 60.6642 23.62C60.7023 23.7437 60.7974 23.8578 60.9497 23.9625C61.0924 24.0957 61.2542 24.1623 61.4349 24.1623C62.1676 24.1623 63.1048 23.0062 64.2467 20.6941C64.3228 20.5609 64.3941 20.4324 64.4608 20.3087C64.5369 20.1755 64.613 20.0518 64.6891 19.9376C64.8223 19.7093 64.9365 19.5475 65.0317 19.4523C65.1363 19.4523 65.2315 19.4523 65.3171 19.4523C65.4027 19.4523 65.4931 19.4619 65.5883 19.4809C65.7501 19.519 65.7881 19.676 65.7025 19.9519C65.5978 20.2278 65.5407 20.5085 65.5312 20.794C65.5312 20.8511 65.4598 21.0509 65.3171 21.3934C65.241 21.5647 65.1601 21.7455 65.0745 21.9358C64.9984 22.1166 64.9222 22.3116 64.8461 22.521C64.7605 22.7208 64.6748 22.9159 64.5892 23.1062C64.5036 23.2965 64.4179 23.482 64.3323 23.6628C64.1515 24.0244 64.0326 24.248 63.9755 24.3336C63.7947 24.5525 63.6472 24.757 63.533 24.9473C63.4855 25.033 63.4379 25.1043 63.3903 25.1614C63.3522 25.2185 63.3189 25.2661 63.2904 25.3041C63.1191 25.4564 62.9288 25.6134 62.7195 25.7751C62.5102 25.9274 62.2865 26.0701 62.0487 26.2033C61.8108 26.3365 61.5729 26.4555 61.335 26.5601C61.0972 26.6648 60.864 26.7409 60.6357 26.7885C60.4929 26.8075 60.355 26.8218 60.2218 26.8313C60.0886 26.8408 59.9553 26.8456 59.8221 26.8456C59.5367 26.8266 59.2607 26.798 58.9943 26.76C58.7279 26.7124 58.4615 26.6363 58.195 26.5316C57.9857 26.4269 57.7431 26.2985 57.4671 26.1462C57.2197 25.9559 57.0152 25.7751 56.8534 25.6039C56.6917 25.4231 56.5584 25.2328 56.4538 25.033C56.3586 24.8331 56.2873 24.6191 56.2397 24.3907C56.2016 24.1528 56.1778 23.8864 56.1683 23.5914L56.097 23.463L55.94 23.7484C55.7972 24.0244 55.6497 24.2955 55.4975 24.562C55.3453 24.8189 55.1787 25.0615 54.998 25.2899C54.8267 25.5182 54.6316 25.7371 54.4128 25.9464C54.1939 26.1462 53.9465 26.327 53.6706 26.4888C53.271 26.6886 52.8761 26.7885 52.486 26.7885C52.3242 26.7885 52.1625 26.7742 52.0007 26.7457C51.9246 26.7267 51.8437 26.7076 51.7581 26.6886C51.6819 26.6696 51.5915 26.6505 51.4869 26.6315C50.6495 26.3461 50.0025 25.9274 49.5458 25.3755C49.0891 24.8141 48.7656 24.1052 48.5752 23.2489C48.4991 22.992 48.4563 22.7541 48.4468 22.5352C48.4278 22.4211 48.4182 22.2974 48.4182 22.1642C48.4182 22.0309 48.4182 21.893 48.4182 21.7502V21.1651C48.4182 21.0509 48.423 20.9367 48.4325 20.8225C48.442 20.7083 48.4563 20.5942 48.4753 20.48C48.5229 19.9471 48.6038 19.4476 48.718 18.9813C48.8417 18.5056 48.9987 18.0203 49.189 17.5255C49.2651 17.3352 49.3698 17.0974 49.503 16.8119C49.6457 16.5264 49.8027 16.2457 49.974 15.9698C50.1548 15.6939 50.3498 15.4465 50.5592 15.2276C50.7685 15.0088 50.9873 14.8708 51.2157 14.8137ZM57.8097 17.3257C57.705 17.6112 57.6527 17.811 57.6527 17.9252C57.6527 18.0108 57.667 18.0536 57.6955 18.0536C57.7811 18.0536 57.9429 17.7301 58.1808 17.0831L58.7089 15.8128C58.8992 15.3941 58.8801 15.1848 58.6518 15.1848C58.5471 15.1848 58.4567 15.2609 58.3806 15.4132C58.314 15.5654 58.2283 15.8509 58.1237 16.2695C58.0761 16.4503 58.0285 16.6311 57.981 16.8119C57.9334 16.9832 57.8763 17.1544 57.8097 17.3257ZM51.2728 15.6844C51.1491 15.6463 50.9826 15.8081 50.7732 16.1696C50.5734 16.5312 50.3784 17.0212 50.1881 17.6397C50.1405 17.849 50.0977 18.0298 50.0596 18.1821C50.0311 18.3248 50.0073 18.4342 49.9882 18.5103C49.9597 18.6816 49.9645 18.7863 50.0025 18.8243C50.0215 18.8434 50.0406 18.8529 50.0596 18.8529C50.1357 18.8529 50.1976 18.7007 50.2452 18.3962C50.3498 18.0631 50.4735 17.7396 50.6162 17.4256C50.759 17.1021 50.9255 16.7929 51.1158 16.4979C51.4108 16.0126 51.4631 15.7414 51.2728 15.6844ZM64.5114 14.5996C64.6731 13.9526 64.8444 13.3056 65.0252 12.6585C65.2155 12.002 65.4296 11.355 65.6675 10.7175C65.9053 10.0799 66.1718 9.46146 66.4667 8.86201C66.7712 8.25304 67.1233 7.67262 67.5229 7.12074C67.6561 6.9685 67.7846 6.83529 67.9083 6.72111C68.032 6.59741 68.1509 6.49274 68.2651 6.40711C68.503 6.24535 68.7742 6.16447 69.0786 6.16447C69.2214 6.16447 69.3688 6.1835 69.5211 6.22156C69.5972 6.24059 69.6781 6.26438 69.7637 6.29293C69.8494 6.31196 69.9302 6.33099 70.0064 6.35002C70.3394 6.47371 70.6534 6.61644 70.9484 6.7782C71.2528 6.93044 71.5145 7.12074 71.7334 7.34911C71.9617 7.56795 72.1425 7.82486 72.2757 8.11983C72.4089 8.40528 72.4755 8.73831 72.4755 9.11892C72.4755 9.49952 72.3899 9.99907 72.2186 10.6176C72.1425 10.922 72.0378 11.2693 71.9046 11.6595C71.7809 12.0496 71.6382 12.4873 71.4764 12.9725L70.8199 15.1277L71.0054 15.0564H70.9769C71.7381 14.809 72.5184 14.6853 73.3176 14.6853C73.9361 14.6853 74.4975 14.8232 75.0018 15.0992C75.5156 15.3656 75.9914 15.7034 76.4291 16.1125C76.8477 16.5597 77.157 17.0926 77.3568 17.7111C77.5661 18.32 77.6708 18.929 77.6708 19.538C77.6708 20.1089 77.5947 20.6655 77.4424 21.2079C77.2902 21.7407 77.0761 22.2546 76.8002 22.7493V22.7208C76.5337 23.168 76.3006 23.5105 76.1008 23.7484C75.901 23.9578 75.7059 24.1433 75.5156 24.3051C75.3253 24.4668 75.1255 24.6143 74.9162 24.7475C74.7163 24.8712 74.4975 24.9854 74.2596 25.0901C74.0313 25.1852 73.7791 25.2756 73.5032 25.3612C72.9513 25.5325 72.4422 25.6181 71.976 25.6181C71.6905 25.6181 71.4003 25.5611 71.1054 25.4469C70.8199 25.3232 70.5487 25.1662 70.2918 24.9759C70.0349 24.7856 69.8018 24.5715 69.5925 24.3336C69.3831 24.0862 69.2118 23.8388 69.0786 23.5914C69.0786 23.5819 69.0786 23.5676 69.0786 23.5486C69.0882 23.5296 69.0929 23.4963 69.0929 23.4487C69.1024 23.3916 69.1072 23.3393 69.1072 23.2917C69.1072 23.2441 69.1072 23.1965 69.1072 23.149L69.0786 23.2203L69.0215 24.2052C69.0025 24.3955 68.9882 24.5667 68.9787 24.719C68.9787 24.8712 68.974 25.0092 68.9645 25.1329C68.9645 25.3708 68.9407 25.5278 68.8931 25.6039C68.8075 25.8037 68.6838 25.9702 68.522 26.1034C68.3698 26.2366 68.1937 26.3413 67.9939 26.4174C67.7941 26.4935 67.5848 26.5506 67.3659 26.5887C67.1471 26.6172 66.9425 26.6315 66.7522 26.6315C66.2859 26.6315 65.8197 26.5506 65.3535 26.3889C64.8967 26.2176 64.5352 25.9274 64.2687 25.5182C63.9738 25.0425 63.7835 24.2765 63.6978 23.2203C63.6693 23.0205 63.655 22.8207 63.655 22.6209C63.6455 22.5162 63.636 22.4211 63.6265 22.3354C63.6265 22.2403 63.6265 22.1499 63.6265 22.0642C63.6265 21.9691 63.6265 21.8739 63.6265 21.7788C63.636 21.6741 63.6455 21.5695 63.655 21.4648C63.655 21.265 63.6693 21.0509 63.6978 20.8225C63.7454 20.4609 63.774 20.0566 63.7835 19.6093C63.8025 19.381 63.812 19.1716 63.812 18.9813C63.8215 18.791 63.8358 18.615 63.8548 18.4533C63.8739 17.8062 63.9452 17.1592 64.0689 16.5122C64.1926 15.8651 64.3401 15.2276 64.5114 14.5996ZM70.4774 17.183C70.1063 17.4114 69.9207 17.9823 69.9207 18.8957C69.9207 19.1146 69.9255 19.3286 69.935 19.538C69.9445 19.7378 69.9683 19.9471 70.0064 20.166C69.9873 20.2231 70.0111 20.3468 70.0777 20.5371L70.1348 20.7512C70.1634 20.8939 70.2062 21.0556 70.2633 21.2364C70.3204 21.4172 70.3822 21.6028 70.4488 21.7931C70.5249 21.9739 70.6058 22.1499 70.6914 22.3212C70.7866 22.4829 70.8818 22.6161 70.9769 22.7208C71.053 22.7493 71.1149 22.7636 71.1624 22.7636C71.3052 22.7636 71.4431 22.6732 71.5764 22.4924C71.7191 22.3116 71.8428 22.1023 71.9474 21.8644C72.0521 21.6266 72.1425 21.3887 72.2186 21.1508C72.2947 20.9034 72.3471 20.7179 72.3756 20.5942L72.4755 20.1945C72.5231 19.9471 72.5326 19.8139 72.5041 19.7949C72.5517 19.6617 72.5659 19.538 72.5469 19.4238C72.5374 19.3572 72.5326 19.2953 72.5326 19.2383C72.5326 19.1812 72.5326 19.1288 72.5326 19.0813V18.8957C72.5326 18.772 72.5136 18.6293 72.4755 18.4675C72.447 18.3058 72.3994 18.1488 72.3328 17.9965C72.2757 17.8348 72.1996 17.6873 72.1044 17.5541C72.0188 17.4209 71.9141 17.3257 71.7904 17.2686C71.5335 17.1354 71.2766 17.064 71.0197 17.0545C70.7628 17.026 70.582 17.0688 70.4774 17.183ZM67.1233 10.4177C67.1233 10.6746 67.1613 10.7746 67.2375 10.7175C67.3136 10.6794 67.4278 10.4796 67.58 10.118C67.7132 9.76595 67.8559 9.4234 68.0082 9.09037C68.1604 8.75734 68.3412 8.43383 68.5505 8.11983C68.7218 7.88195 68.8217 7.70117 68.8503 7.57747C68.8788 7.46329 68.8503 7.36338 68.7646 7.27774C68.7075 7.20162 68.6409 7.16356 68.5648 7.16356C68.3745 7.16356 68.1604 7.41095 67.9225 7.90574C67.8655 8.04847 67.7893 8.23401 67.6942 8.46238C67.6085 8.68122 67.5229 8.91434 67.4373 9.16174C67.3516 9.39962 67.2755 9.63274 67.2089 9.8611C67.1518 10.0895 67.1233 10.275 67.1233 10.4177ZM79.8155 14.5996C79.9772 13.9526 80.1485 13.3056 80.3293 12.6585C80.5196 12.002 80.7337 11.355 80.9716 10.7175C81.2094 10.0799 81.4759 9.46146 81.7708 8.86201C82.0753 8.25304 82.4274 7.67262 82.827 7.12074C82.9602 6.9685 83.0887 6.83529 83.2124 6.72111C83.3361 6.59741 83.455 6.49274 83.5692 6.40711C83.8071 6.24535 84.0783 6.16447 84.3827 6.16447C84.5255 6.16447 84.673 6.1835 84.8252 6.22156C84.9013 6.24059 84.9822 6.26438 85.0678 6.29293C85.1535 6.31196 85.2343 6.33099 85.3105 6.35002C85.6435 6.47371 85.9575 6.61644 86.2525 6.7782C86.5569 6.93044 86.8186 7.12074 87.0375 7.34911C87.2658 7.56795 87.4466 7.82486 87.5798 8.11983C87.713 8.40528 87.7796 8.73831 87.7796 9.11892C87.7796 9.49952 87.694 9.99907 87.5227 10.6176C87.4466 10.922 87.3419 11.2693 87.2087 11.6595C87.085 12.0496 86.9423 12.4873 86.7806 12.9725L86.124 15.1277L86.3096 15.0564H86.281C87.0422 14.809 87.8225 14.6853 88.6217 14.6853C89.2402 14.6853 89.8016 14.8232 90.3059 15.0992C90.8197 15.3656 91.2955 15.7034 91.7332 16.1125C92.1518 16.5597 92.4611 17.0926 92.6609 17.7111C92.8702 18.32 92.9749 18.929 92.9749 19.538C92.9749 20.1089 92.8988 20.6655 92.7465 21.2079C92.5943 21.7407 92.3802 22.2546 92.1043 22.7493V22.7208C91.8378 23.168 91.6047 23.5105 91.4049 23.7484C91.2051 23.9578 91.01 24.1433 90.8197 24.3051C90.6294 24.4668 90.4296 24.6143 90.2203 24.7475C90.0205 24.8712 89.8016 24.9854 89.5637 25.0901C89.3354 25.1852 89.0832 25.2756 88.8073 25.3612C88.2554 25.5325 87.7463 25.6181 87.2801 25.6181C86.9946 25.6181 86.7044 25.5611 86.4095 25.4469C86.124 25.3232 85.8528 25.1662 85.5959 24.9759C85.339 24.7856 85.1059 24.5715 84.8966 24.3336C84.6872 24.0862 84.516 23.8388 84.3827 23.5914C84.3827 23.5819 84.3827 23.5676 84.3827 23.5486C84.3923 23.5296 84.397 23.4963 84.397 23.4487C84.4065 23.3916 84.4113 23.3393 84.4113 23.2917C84.4113 23.2441 84.4113 23.1965 84.4113 23.149L84.3827 23.2203L84.3257 24.2052C84.3066 24.3955 84.2923 24.5667 84.2828 24.719C84.2828 24.8712 84.2781 25.0092 84.2686 25.1329C84.2686 25.3708 84.2448 25.5278 84.1972 25.6039C84.1116 25.8037 83.9879 25.9702 83.8261 26.1034C83.6739 26.2366 83.4978 26.3413 83.298 26.4174C83.0982 26.4935 82.8889 26.5506 82.67 26.5887C82.4512 26.6172 82.2466 26.6315 82.0563 26.6315C81.5901 26.6315 81.1238 26.5506 80.6576 26.3889C80.2008 26.2176 79.8393 25.9274 79.5728 25.5182C79.2779 25.0425 79.0876 24.2765 79.0019 23.2203C78.9734 23.0205 78.9591 22.8207 78.9591 22.6209C78.9496 22.5162 78.9401 22.4211 78.9306 22.3354C78.9306 22.2403 78.9306 22.1499 78.9306 22.0642C78.9306 21.9691 78.9306 21.8739 78.9306 21.7788C78.9401 21.6741 78.9496 21.5695 78.9591 21.4648C78.9591 21.265 78.9734 21.0509 79.0019 20.8225C79.0495 20.4609 79.0781 20.0566 79.0876 19.6093C79.1066 19.381 79.1161 19.1716 79.1161 18.9813C79.1256 18.791 79.1399 18.615 79.1589 18.4533C79.178 17.8062 79.2493 17.1592 79.373 16.5122C79.4967 15.8651 79.6442 15.2276 79.8155 14.5996ZM85.7815 17.183C85.4104 17.4114 85.2248 17.9823 85.2248 18.8957C85.2248 19.1146 85.2296 19.3286 85.2391 19.538C85.2486 19.7378 85.2724 19.9471 85.3105 20.166C85.2914 20.2231 85.3152 20.3468 85.3818 20.5371L85.4389 20.7512C85.4675 20.8939 85.5103 21.0556 85.5674 21.2364C85.6245 21.4172 85.6863 21.6028 85.7529 21.7931C85.829 21.9739 85.9099 22.1499 85.9956 22.3212C86.0907 22.4829 86.1859 22.6161 86.281 22.7208C86.3571 22.7493 86.419 22.7636 86.4666 22.7636C86.6093 22.7636 86.7473 22.6732 86.8805 22.4924C87.0232 22.3116 87.1469 22.1023 87.2516 21.8644C87.3562 21.6266 87.4466 21.3887 87.5227 21.1508C87.5989 20.9034 87.6512 20.7179 87.6797 20.5942L87.7796 20.1945C87.8272 19.9471 87.8367 19.8139 87.8082 19.7949C87.8558 19.6617 87.87 19.538 87.851 19.4238C87.8415 19.3572 87.8367 19.2953 87.8367 19.2383C87.8367 19.1812 87.8367 19.1288 87.8367 19.0813V18.8957C87.8367 18.772 87.8177 18.6293 87.7796 18.4675C87.7511 18.3058 87.7035 18.1488 87.6369 17.9965C87.5798 17.8348 87.5037 17.6873 87.4086 17.5541C87.3229 17.4209 87.2183 17.3257 87.0946 17.2686C86.8376 17.1354 86.5807 17.064 86.3238 17.0545C86.0669 17.026 85.8861 17.0688 85.7815 17.183ZM82.4274 10.4177C82.4274 10.6746 82.4654 10.7746 82.5416 10.7175C82.6177 10.6794 82.7319 10.4796 82.8841 10.118C83.0173 9.76595 83.16 9.4234 83.3123 9.09037C83.4645 8.75734 83.6453 8.43383 83.8547 8.11983C84.0259 7.88195 84.1258 7.70117 84.1544 7.57747C84.1829 7.46329 84.1544 7.36338 84.0687 7.27774C84.0117 7.20162 83.945 7.16356 83.8689 7.16356C83.6786 7.16356 83.4645 7.41095 83.2267 7.90574C83.1696 8.04847 83.0934 8.23401 82.9983 8.46238C82.9127 8.68122 82.827 8.91434 82.7414 9.16174C82.6557 9.39962 82.5796 9.63274 82.513 9.8611C82.4559 10.0895 82.4274 10.275 82.4274 10.4177ZM98.4184 6.56411H98.3898C98.7324 6.35477 99.0844 6.25011 99.446 6.25011C99.5887 6.25011 99.76 6.2739 99.9598 6.32147C100.169 6.35953 100.374 6.41662 100.574 6.49274C100.783 6.55935 100.978 6.64023 101.159 6.73538C101.349 6.82102 101.501 6.91617 101.615 7.02083C101.948 7.26823 102.205 7.5965 102.386 8.00565C102.567 8.4148 102.657 8.82871 102.657 9.24737C102.657 9.64701 102.61 10.0371 102.515 10.4177C102.429 10.7888 102.329 11.1647 102.215 11.5453C102.129 11.8212 102.044 12.0972 101.958 12.3731C101.872 12.649 101.782 12.925 101.687 13.2009C101.639 13.2865 101.558 13.5292 101.444 13.9288C101.32 14.3285 101.178 14.7566 101.016 15.2134C100.997 15.2609 100.954 15.3799 100.888 15.5702C100.83 15.7605 100.769 15.9651 100.702 16.1839C100.635 16.3932 100.574 16.5883 100.516 16.7691C100.469 16.9499 100.445 17.0545 100.445 17.0831C100.426 17.1307 100.402 17.202 100.374 17.2972C100.355 17.3828 100.331 17.4922 100.302 17.6254C100.274 17.7587 100.245 17.9014 100.217 18.0536C100.188 18.2059 100.15 18.3724 100.103 18.5532C100.055 18.7244 100.012 18.9052 99.9741 19.0955C99.9456 19.2763 99.9075 19.4666 99.8599 19.6664C99.8219 19.8663 99.7886 20.0613 99.76 20.2516C99.7315 20.4324 99.6982 20.6132 99.6601 20.794C99.603 21.2317 99.5554 21.6123 99.5174 21.9358C99.4793 22.2593 99.4508 22.5305 99.4317 22.7493C99.4032 23.1775 99.427 23.4582 99.5031 23.5914C99.5792 23.6771 99.6791 23.7199 99.8028 23.7199C99.9455 23.7199 100.084 23.6913 100.217 23.6342C100.35 23.5772 100.478 23.5058 100.602 23.4202C100.735 23.325 100.854 23.2251 100.959 23.1204C101.064 23.0062 101.159 22.9016 101.244 22.8064C101.359 22.6922 101.477 22.5638 101.601 22.4211C101.725 22.2688 101.825 22.1166 101.901 21.9643C102.101 21.6503 102.277 21.3268 102.429 20.9938C102.591 20.6608 102.748 20.323 102.9 19.9804C103.233 19.2192 103.566 18.8386 103.899 18.8386C104.042 18.8386 104.175 18.8957 104.299 19.0099C104.565 19.2192 104.698 19.5713 104.698 20.0661C104.698 20.361 104.646 20.6941 104.541 21.0652C104.437 21.4267 104.289 21.8026 104.099 22.1927C103.918 22.5828 103.704 22.9729 103.457 23.3631C103.219 23.7532 102.962 24.1195 102.686 24.4621C102.41 24.8046 102.125 25.1138 101.83 25.3898C101.535 25.6562 101.249 25.8655 100.973 26.0178C100.117 26.4745 99.2842 26.7029 98.4755 26.7029C98.0378 26.7029 97.581 26.6268 97.1053 26.4745C96.6295 26.3223 96.1823 26.1082 95.7637 25.8322C95.345 25.5563 94.9787 25.228 94.6647 24.8474C94.3507 24.4668 94.1413 24.0529 94.0367 23.6057C93.9225 23.2061 93.8511 22.7922 93.8226 22.364C93.794 21.9358 93.7797 21.5124 93.7797 21.0937C93.7797 20.8844 93.7797 20.6941 93.7797 20.5228C93.7893 20.3515 93.794 20.1993 93.794 20.0661C93.8035 19.8092 93.8321 19.5713 93.8797 19.3524C93.8987 19.2383 93.913 19.1574 93.9225 19.1098C93.932 19.0622 93.9367 18.9909 93.9367 18.8957C93.9938 18.3343 94.0795 17.7539 94.1937 17.1544C94.3078 16.555 94.4363 15.9555 94.579 15.3561C94.7217 14.7566 94.874 14.1667 95.0357 13.5863C95.207 12.9963 95.3735 12.4254 95.5353 11.8735C95.7827 11.0838 95.9968 10.4558 96.1776 9.98955C96.3488 9.61846 96.5296 9.24737 96.7199 8.87628C96.9102 8.50519 97.1243 8.14838 97.3622 7.80583C97.4098 7.72971 97.4764 7.6298 97.562 7.50611C97.6476 7.38241 97.7428 7.25871 97.8475 7.13502C97.9521 7.0018 98.052 6.88287 98.1472 6.7782C98.2519 6.66402 98.3423 6.59265 98.4184 6.56411ZM98.4469 7.7202C98.2376 8.12935 98.0378 8.54801 97.8475 8.97619C97.6572 9.40437 97.5049 9.84683 97.3907 10.3036C97.3527 10.4082 97.3479 10.5176 97.3765 10.6318C97.405 10.7175 97.4526 10.7412 97.5192 10.7032C97.5573 10.6651 97.5763 10.6223 97.5763 10.5747C97.5763 10.5367 97.6191 10.4272 97.7047 10.2465L98.0045 9.64701C98.1186 9.41865 98.2328 9.1998 98.347 8.99046C98.4707 8.77162 98.5992 8.55277 98.7324 8.33392C99.0273 7.89623 99.1939 7.60126 99.2319 7.44901C99.27 7.29677 99.1843 7.22065 98.975 7.22065C98.8894 7.22065 98.8133 7.24444 98.7466 7.29202C98.6896 7.34911 98.5896 7.49183 98.4469 7.7202ZM108.987 22.2498V22.3497C108.987 22.4068 108.996 22.4924 109.015 22.6066C109.034 22.7113 109.058 22.8207 109.087 22.9349C109.115 23.0491 109.148 23.1585 109.186 23.2632C109.225 23.3583 109.263 23.4249 109.301 23.463C109.358 23.501 109.472 23.501 109.643 23.463C110.414 23.3583 111.094 23.1252 111.684 22.7636C112.284 22.402 112.835 21.931 113.34 21.3506C113.473 21.1889 113.592 21.0414 113.697 20.9082C113.801 20.7749 113.901 20.656 113.996 20.5513C114.091 20.4467 114.177 20.342 114.253 20.2373C114.329 20.1327 114.405 20.0328 114.482 19.9376C114.548 19.833 114.61 19.733 114.667 19.6379C114.734 19.5332 114.8 19.4286 114.867 19.3239C114.934 19.2192 115 19.105 115.067 18.9813C115.143 18.8577 115.224 18.7244 115.309 18.5817C115.357 18.5056 115.414 18.42 115.481 18.3248C115.547 18.2201 115.619 18.125 115.695 18.0393C115.771 17.9442 115.857 17.8681 115.952 17.811C116.047 17.7444 116.142 17.7111 116.237 17.7111C116.427 17.7111 116.608 17.792 116.78 17.9537C116.951 18.106 117.046 18.2772 117.065 18.4675C117.074 18.6769 116.965 19.0575 116.737 19.6093C116.613 19.9424 116.47 20.2706 116.309 20.5942C116.156 20.9177 115.999 21.2364 115.838 21.5504C115.742 21.7312 115.647 21.9072 115.552 22.0785C115.466 22.2498 115.386 22.4163 115.309 22.5781C115.186 22.8064 115.067 23.011 114.953 23.1918C114.848 23.3631 114.729 23.5296 114.596 23.6913C114.472 23.8531 114.329 24.0148 114.168 24.1766C114.015 24.3288 113.839 24.4906 113.64 24.6619C113.002 25.2138 112.312 25.6134 111.57 25.8608C110.828 26.0987 110.038 26.2176 109.201 26.2176C108.801 26.2176 108.378 26.1558 107.93 26.0321C107.483 25.8988 107.079 25.7418 106.717 25.5611C106.546 25.4945 106.365 25.4041 106.175 25.2899C105.985 25.1662 105.794 25.033 105.604 24.8902C105.423 24.7475 105.247 24.6 105.076 24.4478C104.914 24.286 104.767 24.1338 104.633 23.9911C104.3 23.658 104.015 23.2917 103.777 22.8921C103.539 22.4829 103.349 22.0595 103.206 21.6218C103.149 21.4981 103.106 21.3839 103.078 21.2792C103.049 21.1746 103.025 21.0747 103.006 20.9795C102.997 20.8844 102.987 20.7702 102.978 20.637C102.978 20.5038 102.978 20.3468 102.978 20.166C102.978 19.7188 103.021 19.2763 103.106 18.8386C103.201 18.3914 103.335 17.9585 103.506 17.5398C103.677 17.1116 103.887 16.712 104.134 16.3409C104.391 15.9603 104.681 15.6177 105.005 15.3133C105.547 14.809 106.108 14.4379 106.689 14.2C107.279 13.9621 107.949 13.8432 108.701 13.8432C109.691 13.8432 110.718 14.0715 111.784 14.5283C111.946 14.6139 112.117 14.7281 112.298 14.8708C112.479 15.004 112.65 15.1515 112.812 15.3133C112.973 15.475 113.121 15.6463 113.254 15.8271C113.397 15.9984 113.511 16.1696 113.597 16.3409C113.777 16.7025 113.868 17.0974 113.868 17.5255C113.868 17.8871 113.816 18.2439 113.711 18.596C113.606 18.948 113.463 19.2858 113.283 19.6093C113.111 19.9329 112.902 20.2373 112.655 20.5228C112.407 20.7987 112.141 21.0414 111.855 21.2507C111.323 21.6123 110.904 21.8549 110.599 21.9786C110.324 22.1118 109.91 22.1927 109.358 22.2212L108.987 22.2498ZM109.272 19.6093C109.272 19.7521 109.32 19.8234 109.415 19.8234C109.481 19.8234 109.567 19.7901 109.672 19.7235V19.695C109.919 19.5618 110.152 19.3953 110.371 19.1954C110.599 18.9861 110.799 18.7577 110.971 18.5103C111.151 18.2534 111.304 17.987 111.427 17.7111C111.551 17.4256 111.632 17.1449 111.67 16.869C111.67 16.8214 111.665 16.7738 111.656 16.7263C111.656 16.6787 111.651 16.6264 111.641 16.5693C111.641 16.4646 111.618 16.3552 111.57 16.241C111.58 16.3076 111.518 16.3409 111.384 16.3409C111.299 16.3409 111.208 16.3647 111.113 16.4123C111.028 16.4789 110.871 16.6406 110.642 16.8975C110.471 17.0688 110.304 17.2591 110.143 17.4684C109.981 17.6778 109.833 17.9014 109.7 18.1393C109.577 18.3676 109.472 18.6103 109.386 18.8672C109.31 19.1146 109.272 19.362 109.272 19.6093ZM107.474 15.456C107.531 15.3989 107.55 15.3275 107.531 15.2419C107.512 15.0801 107.426 14.9993 107.274 14.9993C107.103 14.9993 106.922 15.0611 106.732 15.1848C106.541 15.299 106.356 15.4465 106.175 15.6273C106.004 15.8081 105.847 15.9984 105.704 16.1982C105.561 16.398 105.452 16.5788 105.376 16.7405C105.3 16.9023 105.238 17.0736 105.19 17.2544C105.152 17.4066 105.152 17.5255 105.19 17.6112C105.238 17.6968 105.276 17.7158 105.304 17.6683C105.333 17.6397 105.347 17.5684 105.347 17.4542C105.347 17.2924 105.414 17.1259 105.547 16.9546C105.69 16.7738 105.851 16.6073 106.032 16.4551C106.222 16.2933 106.413 16.1458 106.603 16.0126C106.803 15.8794 106.965 15.7795 107.088 15.7129C107.307 15.5797 107.436 15.4941 107.474 15.456Z" fill="black"/>
<path d="M128.187 13.2152C128.254 13.0439 128.316 12.8774 128.373 12.7156C128.43 12.5539 128.482 12.4016 128.53 12.2589C128.634 11.983 128.687 11.7832 128.687 11.6595C128.687 11.4596 128.606 11.3597 128.444 11.3597C128.311 11.3597 128.135 11.4121 127.916 11.5167C127.174 11.8593 126.503 12.3065 125.904 12.8584C125.314 13.4007 124.79 14.0049 124.334 14.671C123.877 15.3275 123.482 16.0317 123.149 16.7834C122.816 17.5255 122.545 18.2772 122.335 19.0384L122.121 19.9804C122.102 20.1041 122.088 20.2278 122.078 20.3515C122.069 20.4657 122.064 20.5894 122.064 20.7226C122.064 21.1889 122.117 21.6361 122.221 22.0642C122.335 22.4829 122.507 22.854 122.735 23.1775C122.973 23.4915 123.273 23.7437 123.634 23.934C124.005 24.1148 124.448 24.2052 124.962 24.2052C125.647 24.2052 126.265 24.1481 126.817 24.0339C127.378 23.9197 127.902 23.7532 128.387 23.5343C128.882 23.3155 129.358 23.0491 129.814 22.7351C130.281 22.4115 130.766 22.05 131.27 21.6503C131.517 21.46 131.736 21.2935 131.927 21.1508C132.117 20.9986 132.288 20.8701 132.44 20.7654C132.754 20.5371 133.007 20.3706 133.197 20.2659C133.387 20.1612 133.549 20.0899 133.682 20.0518C133.825 20.0042 134.006 19.9804 134.225 19.9804C134.596 19.9804 134.91 20.0803 135.167 20.2802C135.414 20.499 135.538 20.7702 135.538 21.0937C135.538 21.3506 135.414 21.6646 135.167 22.0357C134.929 22.3973 134.638 22.7684 134.296 23.149C133.963 23.5201 133.62 23.8721 133.268 24.2052C132.926 24.5287 132.65 24.7808 132.44 24.9616C131.508 25.7704 130.49 26.3936 129.386 26.8313C128.292 27.2595 127.141 27.5687 125.932 27.7591C125.656 27.7971 125.399 27.8257 125.161 27.8447C124.933 27.8637 124.719 27.8732 124.519 27.8732C123.844 27.8732 123.163 27.8019 122.478 27.6591C121.793 27.5164 121.132 27.3071 120.494 27.0311C119.857 26.7457 119.252 26.4031 118.682 26.0035C118.111 25.6039 117.597 25.1471 117.14 24.6333C116.645 24.0624 116.293 23.4059 116.084 22.6637C115.875 21.9215 115.77 21.1793 115.77 20.4372C115.77 19.5047 115.908 18.5151 116.184 17.4684C116.469 16.4123 116.845 15.3704 117.311 14.3427C117.787 13.3151 118.339 12.3445 118.967 11.4311C119.595 10.5081 120.252 9.71361 120.937 9.04756C121.308 8.68598 121.703 8.35295 122.121 8.04847C122.54 7.73447 122.978 7.46329 123.434 7.23492C123.901 7.00656 124.381 6.82577 124.876 6.69256C125.38 6.55935 125.894 6.49274 126.417 6.49274C126.893 6.49274 127.388 6.55935 127.902 6.69256C128.416 6.82577 128.92 7.01608 129.415 7.26347C129.909 7.50135 130.376 7.79156 130.813 8.1341C131.261 8.47665 131.651 8.85725 131.984 9.27592C132.326 9.69458 132.593 10.1466 132.783 10.6318C132.983 11.1076 133.083 11.6071 133.083 12.1305C133.083 12.4349 133.04 12.7775 132.954 13.1581C132.869 13.5292 132.754 13.905 132.612 14.2856C132.469 14.6567 132.302 15.0183 132.112 15.3704C131.931 15.7129 131.736 16.0031 131.527 16.241C131.223 16.574 130.942 16.7405 130.685 16.7405C130.637 16.7405 130.58 16.7358 130.514 16.7263C130.457 16.7072 130.38 16.6882 130.285 16.6692C130.2 16.6501 130.104 16.6311 130 16.6121C129.905 16.5835 129.805 16.555 129.7 16.5264C129.595 16.4884 129.486 16.4503 129.372 16.4123C129.267 16.3742 129.158 16.3314 129.044 16.2838C128.825 16.1982 128.644 16.0983 128.501 15.9841L128.259 15.8699L127.887 15.3989C127.754 15.2657 127.688 15.0992 127.688 14.8994C127.688 14.7947 127.74 14.5711 127.845 14.2285C127.902 14.0668 127.959 13.905 128.016 13.7433C128.073 13.572 128.13 13.396 128.187 13.2152ZM124.448 8.33392C124.686 8.18168 124.805 8.07701 124.805 8.01992C124.805 7.8772 124.728 7.80583 124.576 7.80583C124.414 7.80583 124.219 7.86292 123.991 7.9771C123.763 8.09129 123.52 8.24353 123.263 8.43383C123.016 8.61462 122.764 8.82395 122.507 9.06183C122.25 9.29019 122.002 9.52331 121.764 9.76119C121.527 9.98955 121.308 10.2132 121.108 10.432C120.918 10.6413 120.765 10.8221 120.651 10.9744C120.309 11.4121 120.137 11.6928 120.137 11.8165C120.137 11.864 120.166 11.8878 120.223 11.8878C120.347 11.8878 120.594 11.6499 120.965 11.1742C121.46 10.6128 122.002 10.0942 122.592 9.61846C123.182 9.14271 123.801 8.71453 124.448 8.33392ZM141.599 6.56411H141.57C141.913 6.35477 142.265 6.25011 142.626 6.25011C142.769 6.25011 142.94 6.2739 143.14 6.32147C143.35 6.35953 143.554 6.41662 143.754 6.49274C143.963 6.55935 144.158 6.64023 144.339 6.73538C144.529 6.82102 144.682 6.91617 144.796 7.02083C145.129 7.26823 145.386 7.5965 145.567 8.00565C145.747 8.4148 145.838 8.82871 145.838 9.24737C145.838 9.64701 145.79 10.0371 145.695 10.4177C145.609 10.7888 145.51 11.1647 145.395 11.5453C145.31 11.8212 145.224 12.0972 145.138 12.3731C145.053 12.649 144.962 12.925 144.867 13.2009C144.82 13.2865 144.739 13.5292 144.625 13.9288C144.501 14.3285 144.358 14.7566 144.196 15.2134C144.177 15.2609 144.135 15.3799 144.068 15.5702C144.011 15.7605 143.949 15.9651 143.882 16.1839C143.816 16.3932 143.754 16.5883 143.697 16.7691C143.649 16.9499 143.626 17.0545 143.626 17.0831C143.607 17.1307 143.583 17.202 143.554 17.2972C143.535 17.3828 143.511 17.4922 143.483 17.6254C143.454 17.7587 143.426 17.9014 143.397 18.0536C143.369 18.2059 143.331 18.3724 143.283 18.5532C143.235 18.7244 143.193 18.9052 143.155 19.0955C143.126 19.2763 143.088 19.4666 143.04 19.6664C143.002 19.8663 142.969 20.0613 142.94 20.2516C142.912 20.4324 142.879 20.6132 142.841 20.794C142.783 21.2317 142.736 21.6123 142.698 21.9358C142.66 22.2593 142.631 22.5305 142.612 22.7493C142.584 23.1775 142.607 23.4582 142.684 23.5914C142.76 23.6771 142.86 23.7199 142.983 23.7199C143.126 23.7199 143.264 23.6913 143.397 23.6342C143.53 23.5772 143.659 23.5058 143.783 23.4202C143.916 23.325 144.035 23.2251 144.139 23.1204C144.244 23.0062 144.339 22.9016 144.425 22.8064C144.539 22.6922 144.658 22.5638 144.782 22.4211C144.905 22.2688 145.005 22.1166 145.081 21.9643C145.281 21.6503 145.457 21.3268 145.609 20.9938C145.771 20.6608 145.928 20.323 146.08 19.9804C146.413 19.2192 146.747 18.8386 147.08 18.8386C147.222 18.8386 147.355 18.8957 147.479 19.0099C147.746 19.2192 147.879 19.5713 147.879 20.0661C147.879 20.361 147.826 20.6941 147.722 21.0652C147.617 21.4267 147.47 21.8026 147.279 22.1927C147.099 22.5828 146.884 22.9729 146.637 23.3631C146.399 23.7532 146.142 24.1195 145.866 24.4621C145.59 24.8046 145.305 25.1138 145.01 25.3898C144.715 25.6562 144.43 25.8655 144.154 26.0178C143.297 26.4745 142.465 26.7029 141.656 26.7029C141.218 26.7029 140.761 26.6268 140.286 26.4745C139.81 26.3223 139.363 26.1082 138.944 25.8322C138.525 25.5563 138.159 25.228 137.845 24.8474C137.531 24.4668 137.322 24.0529 137.217 23.6057C137.103 23.2061 137.032 22.7922 137.003 22.364C136.974 21.9358 136.96 21.5124 136.96 21.0937C136.96 20.8844 136.96 20.6941 136.96 20.5228C136.97 20.3515 136.974 20.1993 136.974 20.0661C136.984 19.8092 137.013 19.5713 137.06 19.3524C137.079 19.2383 137.093 19.1574 137.103 19.1098C137.112 19.0622 137.117 18.9909 137.117 18.8957C137.174 18.3343 137.26 17.7539 137.374 17.1544C137.488 16.555 137.617 15.9555 137.759 15.3561C137.902 14.7566 138.054 14.1667 138.216 13.5863C138.387 12.9963 138.554 12.4254 138.716 11.8735C138.963 11.0838 139.177 10.4558 139.358 9.98955C139.529 9.61846 139.71 9.24737 139.9 8.87628C140.091 8.50519 140.305 8.14838 140.543 7.80583C140.59 7.72971 140.657 7.6298 140.742 7.50611C140.828 7.38241 140.923 7.25871 141.028 7.13502C141.133 7.0018 141.232 6.88287 141.328 6.7782C141.432 6.66402 141.523 6.59265 141.599 6.56411ZM141.627 7.7202C141.418 8.12935 141.218 8.54801 141.028 8.97619C140.838 9.40437 140.685 9.84683 140.571 10.3036C140.533 10.4082 140.528 10.5176 140.557 10.6318C140.585 10.7175 140.633 10.7412 140.7 10.7032C140.738 10.6651 140.757 10.6223 140.757 10.5747C140.757 10.5367 140.8 10.4272 140.885 10.2465L141.185 9.64701C141.299 9.41865 141.413 9.1998 141.527 8.99046C141.651 8.77162 141.78 8.55277 141.913 8.33392C142.208 7.89623 142.374 7.60126 142.412 7.44901C142.45 7.29677 142.365 7.22065 142.155 7.22065C142.07 7.22065 141.994 7.24444 141.927 7.29202C141.87 7.34911 141.77 7.49183 141.627 7.7202ZM152.167 22.2498V22.3497C152.167 22.4068 152.177 22.4924 152.196 22.6066C152.215 22.7113 152.238 22.8207 152.267 22.9349C152.296 23.0491 152.329 23.1585 152.367 23.2632C152.405 23.3583 152.443 23.4249 152.481 23.463C152.538 23.501 152.652 23.501 152.824 23.463C153.594 23.3583 154.275 23.1252 154.865 22.7636C155.464 22.402 156.016 21.931 156.52 21.3506C156.653 21.1889 156.772 21.0414 156.877 20.9082C156.982 20.7749 157.082 20.656 157.177 20.5513C157.272 20.4467 157.358 20.342 157.434 20.2373C157.51 20.1327 157.586 20.0328 157.662 19.9376C157.729 19.833 157.791 19.733 157.848 19.6379C157.914 19.5332 157.981 19.4286 158.047 19.3239C158.114 19.2192 158.181 19.105 158.247 18.9813C158.323 18.8577 158.404 18.7244 158.49 18.5817C158.537 18.5056 158.595 18.42 158.661 18.3248C158.728 18.2201 158.799 18.125 158.875 18.0393C158.951 17.9442 159.037 17.8681 159.132 17.811C159.227 17.7444 159.322 17.7111 159.418 17.7111C159.608 17.7111 159.789 17.792 159.96 17.9537C160.131 18.106 160.226 18.2772 160.245 18.4675C160.255 18.6769 160.146 19.0575 159.917 19.6093C159.793 19.9424 159.651 20.2706 159.489 20.5942C159.337 20.9177 159.18 21.2364 159.018 21.5504C158.923 21.7312 158.828 21.9072 158.733 22.0785C158.647 22.2498 158.566 22.4163 158.49 22.5781C158.366 22.8064 158.247 23.011 158.133 23.1918C158.028 23.3631 157.909 23.5296 157.776 23.6913C157.653 23.8531 157.51 24.0148 157.348 24.1766C157.196 24.3288 157.02 24.4906 156.82 24.6619C156.182 25.2138 155.493 25.6134 154.75 25.8608C154.008 26.0987 153.219 26.2176 152.381 26.2176C151.982 26.2176 151.558 26.1558 151.111 26.0321C150.664 25.8988 150.259 25.7418 149.898 25.5611C149.726 25.4945 149.546 25.4041 149.355 25.2899C149.165 25.1662 148.975 25.033 148.784 24.8902C148.604 24.7475 148.428 24.6 148.256 24.4478C148.095 24.286 147.947 24.1338 147.814 23.9911C147.481 23.658 147.195 23.2917 146.958 22.8921C146.72 22.4829 146.529 22.0595 146.387 21.6218C146.33 21.4981 146.287 21.3839 146.258 21.2792C146.23 21.1746 146.206 21.0747 146.187 20.9795C146.177 20.8844 146.168 20.7702 146.158 20.637C146.158 20.5038 146.158 20.3468 146.158 20.166C146.158 19.7188 146.201 19.2763 146.287 18.8386C146.382 18.3914 146.515 17.9585 146.686 17.5398C146.858 17.1116 147.067 16.712 147.314 16.3409C147.571 15.9603 147.861 15.6177 148.185 15.3133C148.727 14.809 149.289 14.4379 149.869 14.2C150.459 13.9621 151.13 13.8432 151.882 13.8432C152.871 13.8432 153.899 14.0715 154.965 14.5283C155.126 14.6139 155.298 14.7281 155.478 14.8708C155.659 15.004 155.83 15.1515 155.992 15.3133C156.154 15.475 156.301 15.6463 156.435 15.8271C156.577 15.9984 156.692 16.1696 156.777 16.3409C156.958 16.7025 157.048 17.0974 157.048 17.5255C157.048 17.8871 156.996 18.2439 156.891 18.596C156.787 18.948 156.644 19.2858 156.463 19.6093C156.292 19.9329 156.083 20.2373 155.835 20.5228C155.588 20.7987 155.321 21.0414 155.036 21.2507C154.503 21.6123 154.084 21.8549 153.78 21.9786C153.504 22.1118 153.09 22.1927 152.538 22.2212L152.167 22.2498ZM152.453 19.6093C152.453 19.7521 152.5 19.8234 152.595 19.8234C152.662 19.8234 152.748 19.7901 152.852 19.7235V19.695C153.1 19.5618 153.333 19.3953 153.552 19.1954C153.78 18.9861 153.98 18.7577 154.151 18.5103C154.332 18.2534 154.484 17.987 154.608 17.7111C154.731 17.4256 154.812 17.1449 154.85 16.869C154.85 16.8214 154.846 16.7738 154.836 16.7263C154.836 16.6787 154.831 16.6264 154.822 16.5693C154.822 16.4646 154.798 16.3552 154.75 16.241C154.76 16.3076 154.698 16.3409 154.565 16.3409C154.479 16.3409 154.389 16.3647 154.294 16.4123C154.208 16.4789 154.051 16.6406 153.823 16.8975C153.651 17.0688 153.485 17.2591 153.323 17.4684C153.161 17.6778 153.014 17.9014 152.881 18.1393C152.757 18.3676 152.652 18.6103 152.567 18.8672C152.491 19.1146 152.453 19.362 152.453 19.6093ZM150.654 15.456C150.711 15.3989 150.73 15.3275 150.711 15.2419C150.692 15.0801 150.607 14.9993 150.454 14.9993C150.283 14.9993 150.102 15.0611 149.912 15.1848C149.722 15.299 149.536 15.4465 149.355 15.6273C149.184 15.8081 149.027 15.9984 148.884 16.1982C148.742 16.398 148.632 16.5788 148.556 16.7405C148.48 16.9023 148.418 17.0736 148.371 17.2544C148.332 17.4066 148.332 17.5255 148.371 17.6112C148.418 17.6968 148.456 17.7158 148.485 17.6683C148.513 17.6397 148.528 17.5684 148.528 17.4542C148.528 17.2924 148.594 17.1259 148.727 16.9546C148.87 16.7738 149.032 16.6073 149.213 16.4551C149.403 16.2933 149.593 16.1458 149.784 16.0126C149.983 15.8794 150.145 15.7795 150.269 15.7129C150.488 15.5797 150.616 15.4941 150.654 15.456ZM158.222 20.6227C158.232 19.9757 158.327 19.3477 158.508 18.7387C158.689 18.1202 158.941 17.5446 159.264 17.0117C159.597 16.4694 159.992 15.9793 160.449 15.5416C160.915 15.1039 161.439 14.7424 162.019 14.4569C162.733 14.0953 163.48 13.9145 164.26 13.9145C164.84 13.9145 165.406 14.024 165.958 14.2428C166.52 14.4617 167.043 14.7233 167.528 15.0278L167.657 15.0992C167.714 14.9089 167.776 14.7424 167.842 14.5996C167.918 14.4474 168.009 14.3237 168.113 14.2285C168.218 14.1334 168.342 14.062 168.485 14.0145C168.637 13.9669 168.818 13.9431 169.027 13.9431C169.17 13.9431 169.284 13.9478 169.369 13.9574C169.465 13.9669 169.55 13.9859 169.626 14.0145C169.712 14.043 169.798 14.0811 169.883 14.1286C169.969 14.1762 170.069 14.2381 170.183 14.3142H170.14C170.768 14.6377 171.196 15.004 171.425 15.4132C171.653 15.7938 171.767 16.1363 171.767 16.4408C171.767 16.5169 171.758 16.6264 171.739 16.7691C171.729 16.9118 171.705 17.0926 171.667 17.3114C171.639 17.5303 171.61 17.7634 171.582 18.0108C171.553 18.2582 171.52 18.5199 171.482 18.7958C171.453 19.0717 171.425 19.3524 171.396 19.6379C171.368 19.9233 171.334 20.2136 171.296 20.5085C171.239 21.108 171.211 21.6218 171.211 22.05C171.211 22.4591 171.22 22.8302 171.239 23.1632C171.268 23.4963 171.311 23.7912 171.368 24.0482C171.463 24.5715 171.639 24.8331 171.896 24.8331C172.048 24.8331 172.205 24.7903 172.367 24.7047C172.528 24.6095 172.685 24.5001 172.838 24.3764C172.999 24.2432 173.147 24.1052 173.28 23.9625C173.413 23.8198 173.523 23.6961 173.608 23.5914C173.913 23.2108 174.175 22.7922 174.393 22.3354C174.612 21.8692 174.765 21.3982 174.85 20.9224C174.907 20.5418 174.974 20.2802 175.05 20.1374C175.117 20.0137 175.269 19.9519 175.507 19.9519C175.688 19.9519 175.835 20.0042 175.949 20.1089C176.063 20.2136 176.149 20.342 176.206 20.4943C176.273 20.637 176.316 20.794 176.335 20.9653C176.363 21.1365 176.377 21.2935 176.377 21.4362C176.377 21.7122 176.344 21.9976 176.277 22.2926C176.211 22.5876 176.12 22.8825 176.006 23.1775C175.892 23.4725 175.759 23.7579 175.607 24.0339C175.464 24.3003 175.316 24.5477 175.164 24.7761C174.736 25.366 174.232 25.8513 173.651 26.2319C173.08 26.603 172.419 26.7885 171.667 26.7885C171.62 26.7885 171.567 26.7885 171.51 26.7885C171.453 26.7885 171.391 26.7837 171.325 26.7742L170.982 26.7314C170.535 26.6458 170.107 26.4983 169.698 26.289C169.289 26.0796 168.908 25.8275 168.556 25.5325C168.204 25.2375 167.89 24.9045 167.614 24.5334C167.338 24.1623 167.114 23.7722 166.943 23.3631L166.786 23.0633C166.615 23.3583 166.41 23.6723 166.172 24.0053C165.944 24.3288 165.682 24.6286 165.387 24.9045C165.102 25.1709 164.788 25.3945 164.445 25.5753C164.112 25.7466 163.76 25.8322 163.389 25.8322C162.866 25.8322 162.357 25.7656 161.862 25.6324C161.367 25.4992 160.906 25.2994 160.478 25.033C160.049 24.7665 159.674 24.443 159.35 24.0624C159.027 23.6723 158.774 23.2251 158.594 22.7208C158.47 22.3973 158.379 22.0642 158.322 21.7217C158.265 21.3696 158.232 21.0081 158.222 20.637V20.6227ZM168.813 14.9279C168.708 15.0801 168.656 15.2276 168.656 15.3704L168.684 15.3989C168.722 15.3989 168.77 15.3751 168.827 15.3275C168.894 15.2704 168.956 15.2086 169.013 15.142C169.079 15.0754 169.132 15.004 169.17 14.9279C169.217 14.8518 169.241 14.7947 169.241 14.7566C169.241 14.69 169.203 14.6567 169.127 14.6567C169.013 14.6567 168.908 14.7471 168.813 14.9279ZM163.703 21.2792C163.694 21.4125 163.684 21.5599 163.675 21.7217C163.665 21.8835 163.656 22.0595 163.646 22.2498C163.646 22.5067 163.646 22.716 163.646 22.8778C163.656 23.0395 163.665 23.1442 163.675 23.1918C163.684 23.2965 163.746 23.4059 163.86 23.5201C163.86 23.5201 163.879 23.4915 163.917 23.4344C163.974 23.3773 164.017 23.3298 164.046 23.2917C164.065 23.2632 164.093 23.2346 164.131 23.2061C164.169 23.1775 164.212 23.1395 164.26 23.0919C164.593 22.8159 164.888 22.4829 165.145 22.0928C165.402 21.7027 165.625 21.284 165.816 20.8368C166.006 20.3896 166.168 19.9329 166.301 19.4666C166.434 19.0004 166.543 18.5579 166.629 18.1393C166.724 17.6635 166.81 17.3114 166.886 17.0831C166.905 17.0355 166.919 16.9974 166.929 16.9689C166.938 16.9308 166.943 16.8928 166.943 16.8547V16.6834C166.943 16.5597 166.9 16.4979 166.815 16.4979C166.729 16.4979 166.629 16.5312 166.515 16.5978C166.401 16.6549 166.287 16.731 166.172 16.8262C166.058 16.9118 165.949 17.0022 165.844 17.0974C165.749 17.1925 165.673 17.2686 165.616 17.3257C165.387 17.5826 165.164 17.8538 164.945 18.1393C164.736 18.4152 164.55 18.7054 164.388 19.0099H164.417C164.293 19.2478 164.174 19.4952 164.06 19.7521C163.946 19.9995 163.865 20.2564 163.817 20.5228C163.789 20.6465 163.765 20.7702 163.746 20.8939C163.737 21.0176 163.722 21.146 163.703 21.2792ZM160.535 17.0545C160.535 17.1592 160.577 17.2115 160.663 17.2115C160.701 17.2115 160.763 17.1687 160.849 17.0831C160.887 17.0355 160.944 16.9737 161.02 16.8975C161.106 16.8214 161.21 16.7167 161.334 16.5835C161.439 16.4789 161.548 16.3837 161.662 16.2981C161.786 16.2029 161.914 16.1125 162.048 16.0269C162.266 15.8842 162.485 15.751 162.704 15.6273C162.923 15.4941 163.142 15.3656 163.361 15.2419C163.532 15.1658 163.618 15.1039 163.618 15.0564C163.618 14.9993 163.584 14.9612 163.518 14.9422C163.461 14.9136 163.318 14.8994 163.089 14.8994C162.947 14.8994 162.799 14.9327 162.647 14.9993C162.495 15.0564 162.343 15.1325 162.19 15.2276C162.038 15.3228 161.895 15.4274 161.762 15.5416C161.638 15.6463 161.529 15.7462 161.434 15.8414C161.386 15.8889 161.31 15.9651 161.205 16.0697C161.11 16.1744 161.01 16.2886 160.906 16.4123C160.811 16.536 160.725 16.6597 160.649 16.7834C160.573 16.8975 160.535 16.9879 160.535 17.0545ZM183.563 19.8377C183.621 19.5047 183.706 19.2002 183.82 18.9243V18.9528C184.001 18.2867 184.087 17.8586 184.077 17.6683C184.068 17.478 183.982 17.4066 183.82 17.4542C183.754 17.4827 183.654 17.5541 183.521 17.6683C183.444 17.7349 183.368 17.8062 183.292 17.8823C183.216 17.9585 183.135 18.0393 183.05 18.125C182.802 18.3724 182.564 18.6578 182.336 18.9813C182.108 19.3049 181.889 19.6426 181.679 19.9947C181.48 20.3373 181.289 20.6893 181.109 21.0509C180.928 21.4125 180.766 21.7598 180.623 22.0928C180.471 22.4353 180.395 22.6827 180.395 22.835C180.395 22.9016 180.385 22.9444 180.366 22.9634C180.385 22.9444 180.357 23.0586 180.281 23.306C180.205 23.5724 180.128 23.8103 180.052 24.0196C180.052 24.0386 180.043 24.0957 180.024 24.1909C179.995 24.2575 179.981 24.3146 179.981 24.3622C179.933 24.5525 179.886 24.7475 179.838 24.9473C179.8 25.1471 179.753 25.3422 179.696 25.5325C179.676 25.5801 179.662 25.6229 179.653 25.661C179.643 25.6895 179.629 25.7133 179.61 25.7323C179.6 25.7514 179.591 25.7751 179.581 25.8037C179.572 25.8227 179.562 25.8418 179.553 25.8608C179.42 26.013 179.244 26.1082 179.025 26.1462C178.825 26.1748 178.62 26.1938 178.411 26.2033C178.211 26.2033 178.011 26.2033 177.812 26.2033C177.517 26.2033 177.269 26.1986 177.069 26.1891C176.879 26.1795 176.732 26.1653 176.627 26.1462C176.341 26.0701 176.094 25.9607 175.885 25.818C175.675 25.6657 175.495 25.4897 175.342 25.2899C175.2 25.0901 175.081 24.8712 174.986 24.6333C174.89 24.3859 174.814 24.129 174.757 23.8626C174.719 23.7484 174.691 23.6247 174.672 23.4915C174.653 23.4249 174.638 23.3583 174.629 23.2917C174.629 23.2156 174.624 23.1395 174.614 23.0633C174.614 22.9777 174.61 22.8873 174.6 22.7922C174.6 22.6875 174.6 22.5781 174.6 22.4639V21.5647C174.6 20.9938 174.619 20.4609 174.657 19.9662C174.695 19.4714 174.762 18.9909 174.857 18.5246C174.962 18.0584 175.1 17.5969 175.271 17.1402C175.442 16.6739 175.656 16.1934 175.913 15.6986C176.008 15.5083 176.132 15.3038 176.284 15.0849C176.446 14.8661 176.617 14.6995 176.798 14.5854C176.903 14.5092 177.031 14.4617 177.184 14.4426C177.336 14.4141 177.478 14.3998 177.612 14.3998C177.859 14.3998 178.149 14.4331 178.482 14.4997C178.825 14.5663 179.153 14.671 179.467 14.8137C179.781 14.9564 180.062 15.1372 180.309 15.3561C180.557 15.5654 180.714 15.8128 180.78 16.0983C180.856 16.4027 180.842 16.7929 180.737 17.2686C180.699 17.3733 180.661 17.4827 180.623 17.5969C180.595 17.7016 180.557 17.8157 180.509 17.9394C180.471 18.0631 180.433 18.1773 180.395 18.282C180.357 18.3771 180.314 18.4675 180.266 18.5532C180.352 18.439 180.423 18.3391 180.481 18.2534C180.519 18.2059 180.557 18.1583 180.595 18.1107C180.633 18.0536 180.68 18.0013 180.737 17.9537C180.909 17.7254 181.109 17.478 181.337 17.2115C181.565 16.9451 181.813 16.693 182.079 16.4551C182.355 16.2077 182.636 15.9888 182.921 15.7985C183.207 15.5987 183.492 15.456 183.778 15.3704H183.749C183.977 15.2847 184.139 15.2419 184.234 15.2419C184.339 15.2419 184.467 15.2847 184.62 15.3704C184.829 15.437 185.034 15.5369 185.233 15.6701C185.433 15.8033 185.619 15.9603 185.79 16.1411C185.961 16.3219 186.113 16.5169 186.247 16.7263C186.38 16.9356 186.475 17.1449 186.532 17.3543C186.551 17.4018 186.565 17.4494 186.575 17.497C186.584 17.5446 186.599 17.5921 186.618 17.6397C186.637 17.8015 186.651 17.9537 186.661 18.0964C186.67 18.2392 186.675 18.3914 186.675 18.5532V19.1241C186.675 19.3049 186.665 19.4809 186.646 19.6522C186.627 19.8139 186.608 19.9852 186.589 20.166C186.485 20.6322 186.389 21.1223 186.304 21.6361C186.218 22.1404 186.156 22.6352 186.118 23.1204C186.071 23.5962 186.099 23.8769 186.204 23.9625C186.299 24.0862 186.418 24.1481 186.561 24.1481C186.675 24.1481 186.803 24.1052 186.946 24.0196C187.089 23.9245 187.227 23.8198 187.36 23.7056C187.493 23.5819 187.617 23.4582 187.731 23.3345C187.845 23.2013 187.931 23.0919 187.988 23.0062C188.292 22.5781 188.54 22.1213 188.73 21.6361C188.93 21.1508 189.068 20.6513 189.144 20.1374C189.239 19.6141 189.258 19.086 189.201 18.5532C189.287 17.9632 189.415 17.6683 189.586 17.6683C189.758 17.6683 189.991 17.7729 190.286 17.9823C190.381 18.0774 190.471 18.1963 190.557 18.3391C190.643 18.4723 190.719 18.6198 190.785 18.7815C190.862 18.9338 190.923 19.086 190.971 19.2383C191.019 19.3905 191.052 19.5332 191.071 19.6664C191.09 19.8567 191.09 20.0803 191.071 20.3373C191.023 20.7179 190.961 21.0985 190.885 21.4791C190.819 21.8597 190.724 22.2308 190.6 22.5923C190.467 22.8968 190.329 23.1918 190.186 23.4772C190.053 23.7627 189.92 24.0434 189.786 24.3193C189.52 24.8617 189.182 25.2375 188.773 25.4469C188.364 25.6562 187.864 25.7609 187.274 25.7609C186.532 25.7609 185.814 25.6086 185.119 25.3041C184.634 25.0092 184.258 24.6714 183.992 24.2908C183.735 23.9007 183.54 23.4392 183.406 22.9063C183.321 22.5448 183.278 22.2546 183.278 22.0357V21.5362C183.297 21.4505 183.307 21.3696 183.307 21.2935C183.316 21.2079 183.326 21.1222 183.335 21.0366C183.335 20.8844 183.359 20.7512 183.406 20.637C183.425 20.5418 183.449 20.4276 183.478 20.2944C183.506 20.1612 183.535 20.009 183.563 19.8377ZM177.697 15.8271C177.754 15.6844 177.769 15.594 177.74 15.5559C177.683 15.4608 177.602 15.4132 177.498 15.4132C177.393 15.4322 177.298 15.4893 177.212 15.5844C177.136 15.6891 177.055 15.8509 176.969 16.0697C176.893 16.2791 176.817 16.5074 176.741 16.7548C176.665 16.9927 176.598 17.2306 176.541 17.4684C176.484 17.6968 176.446 17.8871 176.427 18.0393C176.37 18.3058 176.365 18.477 176.413 18.5532C176.451 18.5817 176.484 18.5484 176.513 18.4533C176.532 18.4057 176.56 18.3248 176.598 18.2106C176.636 18.0964 176.689 17.949 176.755 17.7682C176.812 17.5398 176.893 17.3162 176.998 17.0974C177.112 16.869 177.236 16.6549 177.369 16.4551C177.455 16.3124 177.521 16.1887 177.569 16.084C177.626 15.9793 177.669 15.8937 177.697 15.8271Z" fill="#25D7FF"/>
<path d="M61.8036 38.1192C61.2677 38.1192 60.8001 38.008 60.4007 37.7855C60.0064 37.5631 59.7006 37.2471 59.4832 36.8377C59.2658 36.4231 59.1572 35.9303 59.1572 35.359C59.1572 34.7878 59.2658 34.2974 59.4832 33.8879C59.7006 33.4784 60.0064 33.165 60.4007 32.9476C60.7951 32.7252 61.2627 32.614 61.8036 32.614C62.1726 32.614 62.5138 32.6646 62.8273 32.7657C63.1407 32.8668 63.4036 33.0209 63.6159 33.2282L63.2747 34.0244C63.0472 33.8424 62.8172 33.7135 62.5846 33.6377C62.3571 33.5568 62.1069 33.5164 61.8339 33.5164C61.3334 33.5164 60.9391 33.6731 60.651 33.9865C60.3628 34.2949 60.2188 34.7498 60.2188 35.3514C60.2188 35.9581 60.3628 36.4206 60.651 36.7391C60.9391 37.0525 61.3334 37.2092 61.8339 37.2092C62.1069 37.2092 62.3571 37.1713 62.5846 37.0955C62.8172 37.0146 63.0472 36.8832 63.2747 36.7012L63.6159 37.4974C63.4036 37.6996 63.1407 37.8538 62.8273 37.9599C62.5138 38.0661 62.1726 38.1192 61.8036 38.1192ZM67.8537 38.1116C67.424 38.1116 67.098 37.9979 66.8755 37.7704C66.6531 37.5378 66.5419 37.2067 66.5419 36.777V32.6898H67.5656V36.7012C67.5656 36.8326 67.5833 36.9438 67.6187 37.0348C67.6591 37.1258 67.7172 37.1941 67.7931 37.2396C67.8689 37.2851 67.9599 37.3078 68.066 37.3078C68.1419 37.3078 68.2101 37.3053 68.2708 37.3002C68.3365 37.2901 68.4073 37.2775 68.4831 37.2623L68.5362 38.0054C68.425 38.0459 68.3163 38.0737 68.2101 38.0888C68.109 38.104 67.9902 38.1116 67.8537 38.1116ZM73.0609 38.1116C72.5908 38.1116 72.1889 38.0332 71.8552 37.8765C71.5266 37.7148 71.2764 37.4873 71.1045 37.1941C70.9377 36.8958 70.8543 36.5445 70.8543 36.14C70.8543 35.766 70.9327 35.4323 71.0894 35.1391C71.2511 34.8408 71.4812 34.6058 71.7794 34.4339C72.0777 34.262 72.429 34.1761 72.8334 34.1761C73.2075 34.1761 73.5311 34.2544 73.804 34.4111C74.0821 34.5679 74.2944 34.7928 74.441 35.086C74.5927 35.3742 74.6685 35.723 74.6685 36.1325V36.4434H71.6581V35.814H73.933L73.8116 35.9505C73.8116 35.5966 73.7282 35.3337 73.5614 35.1619C73.3946 34.99 73.157 34.904 72.8486 34.904C72.6464 34.904 72.4669 34.947 72.3102 35.0329C72.1586 35.1189 72.0372 35.2453 71.9462 35.4121C71.8603 35.5739 71.8173 35.7761 71.8173 36.0187V36.1249C71.8173 36.4029 71.8654 36.6304 71.9614 36.8073C72.0575 36.9792 72.2015 37.1081 72.3936 37.1941C72.5857 37.2749 72.8208 37.3154 73.0988 37.3154C73.296 37.3154 73.4982 37.2901 73.7055 37.2396C73.9178 37.189 74.1099 37.1005 74.2818 36.9742L74.5699 37.6794C74.3677 37.831 74.1301 37.9422 73.8571 38.013C73.5841 38.0787 73.3187 38.1116 73.0609 38.1116ZM78.873 38.1116C78.5949 38.1116 78.3447 38.0585 78.1223 37.9524C77.8998 37.8462 77.7254 37.7046 77.599 37.5277C77.4727 37.3457 77.4095 37.141 77.4095 36.9135C77.4095 36.6355 77.4904 36.4105 77.6521 36.2386C77.8189 36.0617 78.0717 35.9328 78.4104 35.8519C78.7491 35.771 79.1839 35.7306 79.7147 35.7306H80.2455V36.3524H79.7678C79.5302 36.3524 79.3279 36.3599 79.1611 36.3751C78.9943 36.3903 78.8553 36.4181 78.7441 36.4585C78.6328 36.4939 78.5494 36.5445 78.4938 36.6102C78.4433 36.6759 78.418 36.7593 78.418 36.8604C78.418 37.0323 78.4812 37.1612 78.6076 37.2471C78.739 37.328 78.9109 37.3685 79.1232 37.3685C79.3001 37.3685 79.4619 37.328 79.6085 37.2471C79.7602 37.1612 79.8815 37.05 79.9725 36.9135C80.0635 36.772 80.109 36.6178 80.109 36.4509V35.6244C80.109 35.3716 80.0332 35.1972 79.8815 35.1012C79.7298 35.0051 79.5023 34.9571 79.199 34.9571C78.9918 34.9571 78.7769 34.9849 78.5545 35.0405C78.3321 35.0961 78.097 35.1922 77.8493 35.3287L77.5687 34.6159C77.7406 34.5198 77.9226 34.4389 78.1147 34.3732C78.3068 34.3075 78.509 34.2595 78.7213 34.2292C78.9336 34.1938 79.1434 34.1761 79.3507 34.1761C79.7147 34.1761 80.0256 34.2317 80.2834 34.3429C80.5463 34.4491 80.7485 34.6184 80.89 34.851C81.0316 35.0784 81.1023 35.3792 81.1023 35.7533V38.0358H80.2379V37.2547H80.2151C80.1444 37.4216 80.0458 37.5707 79.9194 37.7021C79.7981 37.8285 79.6515 37.9296 79.4796 38.0054C79.3077 38.0762 79.1055 38.1116 78.873 38.1116ZM84.181 38.0358V34.2519H85.1213V35.0178H85.1364C85.2628 34.7498 85.4448 34.5426 85.6824 34.396C85.9251 34.2494 86.1955 34.1761 86.4938 34.1761C86.8021 34.1761 87.0625 34.2342 87.2748 34.3505C87.4871 34.4668 87.6464 34.6462 87.7525 34.8889C87.8587 35.1265 87.9118 35.4298 87.9118 35.7988V38.0358H86.8881V35.8367C86.8881 35.6598 86.8628 35.5107 86.8123 35.3893C86.7668 35.268 86.6909 35.177 86.5848 35.1164C86.4786 35.0506 86.3421 35.0178 86.1753 35.0178C85.9883 35.0178 85.8214 35.0607 85.6748 35.1467C85.5282 35.2276 85.412 35.3413 85.326 35.4879C85.2451 35.6345 85.2047 35.7988 85.2047 35.9808V38.0358H84.181ZM90.9103 33.4936V32.4699H92.0857V33.4936H90.9103ZM90.9937 38.0358V34.2519H92.0174V38.0358H90.9937ZM95.111 38.0358V34.2519H96.0513V35.0178H96.0665C96.1928 34.7498 96.3748 34.5426 96.6124 34.396C96.8551 34.2494 97.1255 34.1761 97.4238 34.1761C97.7322 34.1761 97.9925 34.2342 98.2048 34.3505C98.4172 34.4668 98.5764 34.6462 98.6826 34.8889C98.7887 35.1265 98.8418 35.4298 98.8418 35.7988V38.0358H97.8181V35.8367C97.8181 35.6598 97.7928 35.5107 97.7423 35.3893C97.6968 35.268 97.621 35.177 97.5148 35.1164C97.4086 35.0506 97.2721 35.0178 97.1053 35.0178C96.9183 35.0178 96.7515 35.0607 96.6049 35.1467C96.4583 35.2276 96.342 35.3413 96.256 35.4879C96.1752 35.6345 96.1347 35.7988 96.1347 35.9808V38.0358H95.111ZM103.638 39.4765C103.334 39.4765 103.031 39.4361 102.728 39.3552C102.429 39.2794 102.171 39.1681 101.954 39.0215L102.235 38.2405C102.366 38.3214 102.508 38.3922 102.659 38.4528C102.816 38.5185 102.975 38.5666 103.137 38.5969C103.299 38.6272 103.453 38.6424 103.6 38.6424C103.989 38.6424 104.285 38.559 104.487 38.3922C104.689 38.2253 104.79 37.9751 104.79 37.6415V37.1031H104.76C104.664 37.3356 104.502 37.5252 104.274 37.6718C104.047 37.8184 103.784 37.8917 103.486 37.8917C103.132 37.8917 102.821 37.8159 102.553 37.6642C102.29 37.5075 102.086 37.2901 101.939 37.0121C101.792 36.734 101.719 36.408 101.719 36.0339C101.719 35.6598 101.792 35.3337 101.939 35.0557C102.086 34.7777 102.29 34.5628 102.553 34.4111C102.821 34.2544 103.132 34.1761 103.486 34.1761C103.789 34.1761 104.055 34.2494 104.282 34.396C104.51 34.5426 104.671 34.7397 104.767 34.9874H104.79V34.2519H105.738V37.5656C105.738 37.9599 105.655 38.2986 105.488 38.5817C105.321 38.8699 105.081 39.0898 104.767 39.2414C104.454 39.3982 104.077 39.4765 103.638 39.4765ZM103.736 37.1031C104.044 37.1031 104.287 37.007 104.464 36.8149C104.646 36.6178 104.737 36.3549 104.737 36.0263C104.737 35.7028 104.646 35.4449 104.464 35.2528C104.287 35.0607 104.044 34.9647 103.736 34.9647C103.428 34.9647 103.183 35.0607 103.001 35.2528C102.819 35.4449 102.728 35.7028 102.728 36.0263C102.728 36.3549 102.819 36.6178 103.001 36.8149C103.183 37.007 103.428 37.1031 103.736 37.1031ZM115.019 38.1116C114.726 38.1116 114.443 38.0914 114.17 38.0509C113.897 38.0105 113.647 37.9498 113.42 37.8689C113.192 37.7881 112.995 37.687 112.828 37.5656L113.162 36.7315C113.329 36.8478 113.51 36.9438 113.708 37.0197C113.91 37.0904 114.12 37.141 114.337 37.1713C114.559 37.2016 114.787 37.2168 115.019 37.2168C115.389 37.2168 115.667 37.1562 115.854 37.0348C116.046 36.9135 116.142 36.7391 116.142 36.5116C116.142 36.3852 116.111 36.2841 116.051 36.2083C115.995 36.1325 115.902 36.0718 115.77 36.0263C115.639 35.9757 115.469 35.9328 115.262 35.8974L114.383 35.7306C113.877 35.6345 113.508 35.4576 113.275 35.1998C113.048 34.9419 112.934 34.6159 112.934 34.2216C112.934 33.898 113.028 33.6175 113.215 33.3799C113.407 33.1372 113.667 32.9502 113.996 32.8187C114.329 32.6822 114.711 32.614 115.141 32.614C115.394 32.614 115.636 32.6367 115.869 32.6822C116.101 32.7277 116.314 32.7935 116.506 32.8794C116.703 32.9603 116.875 33.0614 117.021 33.1827L116.688 34.0093C116.475 33.8273 116.238 33.6984 115.975 33.6225C115.717 33.5467 115.437 33.5088 115.133 33.5088C114.901 33.5088 114.696 33.5366 114.519 33.5922C114.347 33.6427 114.211 33.7211 114.11 33.8273C114.013 33.9284 113.965 34.0598 113.965 34.2216C113.965 34.3935 114.024 34.5274 114.14 34.6235C114.261 34.7195 114.474 34.7953 114.777 34.851L115.649 35.0102C116.165 35.1012 116.546 35.268 116.794 35.5107C117.047 35.7533 117.173 36.0667 117.173 36.4509C117.173 36.7795 117.085 37.0702 116.908 37.323C116.731 37.5707 116.48 37.7653 116.157 37.9069C115.833 38.0433 115.454 38.1116 115.019 38.1116ZM120.037 39.4007V34.2443H120.954V35.0102H120.977C121.093 34.7423 121.268 34.5375 121.5 34.396C121.738 34.2494 122.013 34.1761 122.327 34.1761C122.681 34.1761 122.987 34.2595 123.244 34.4263C123.502 34.5881 123.699 34.8156 123.836 35.1088C123.977 35.402 124.048 35.7457 124.048 36.14C124.048 36.5192 123.98 36.8579 123.843 37.1562C123.707 37.4544 123.51 37.6895 123.252 37.8614C122.999 38.0282 122.693 38.1116 122.334 38.1116C122.031 38.1116 121.771 38.0433 121.553 37.9069C121.341 37.7653 121.182 37.5808 121.076 37.3533H121.061V39.4007H120.037ZM122.046 37.3154C122.355 37.3154 122.595 37.2118 122.767 37.0045C122.944 36.7922 123.032 36.5015 123.032 36.1325C123.032 35.7634 122.946 35.4778 122.774 35.2756C122.602 35.0683 122.36 34.9647 122.046 34.9647C121.733 34.9647 121.488 35.0683 121.311 35.2756C121.134 35.4778 121.045 35.7634 121.045 36.1325C121.045 36.5015 121.134 36.7922 121.311 37.0045C121.493 37.2118 121.738 37.3154 122.046 37.3154ZM128.94 38.1116C128.47 38.1116 128.068 38.0332 127.735 37.8765C127.406 37.7148 127.156 37.4873 126.984 37.1941C126.817 36.8958 126.734 36.5445 126.734 36.14C126.734 35.766 126.812 35.4323 126.969 35.1391C127.131 34.8408 127.361 34.6058 127.659 34.4339C127.957 34.262 128.308 34.1761 128.713 34.1761C129.087 34.1761 129.41 34.2544 129.683 34.4111C129.961 34.5679 130.174 34.7928 130.32 35.086C130.472 35.3742 130.548 35.723 130.548 36.1325V36.4434H127.537V35.814H129.812L129.691 35.9505C129.691 35.5966 129.608 35.3337 129.441 35.1619C129.274 34.99 129.036 34.904 128.728 34.904C128.526 34.904 128.346 34.947 128.19 35.0329C128.038 35.1189 127.917 35.2453 127.826 35.4121C127.74 35.5739 127.697 35.7761 127.697 36.0187V36.1249C127.697 36.4029 127.745 36.6304 127.841 36.8073C127.937 36.9792 128.081 37.1081 128.273 37.1941C128.465 37.2749 128.7 37.3154 128.978 37.3154C129.175 37.3154 129.378 37.2901 129.585 37.2396C129.797 37.189 129.989 37.1005 130.161 36.9742L130.449 37.6794C130.247 37.831 130.01 37.9422 129.737 38.013C129.464 38.0787 129.198 38.1116 128.94 38.1116ZM135.223 38.1116C134.818 38.1116 134.467 38.0307 134.168 37.8689C133.87 37.7072 133.638 37.4797 133.471 37.1865C133.304 36.8882 133.221 36.5394 133.221 36.14C133.221 35.7407 133.304 35.3944 133.471 35.1012C133.638 34.8029 133.87 34.5754 134.168 34.4187C134.472 34.257 134.826 34.1761 135.23 34.1761C135.508 34.1761 135.771 34.2165 136.019 34.2974C136.266 34.3783 136.466 34.4844 136.618 34.6159L136.314 35.3742C136.173 35.263 136.016 35.177 135.844 35.1164C135.677 35.0557 135.511 35.0254 135.344 35.0254C135 35.0254 134.732 35.1214 134.54 35.3135C134.348 35.5006 134.252 35.7761 134.252 36.14C134.252 36.504 134.348 36.7821 134.54 36.9742C134.732 37.1663 134.998 37.2623 135.336 37.2623C135.508 37.2623 135.677 37.232 135.844 37.1713C136.016 37.1107 136.168 37.0272 136.299 36.9211L136.61 37.6718C136.453 37.8032 136.254 37.9094 136.011 37.9903C135.768 38.0712 135.506 38.1116 135.223 38.1116ZM139.192 33.4936V32.4699H140.367V33.4936H139.192ZM139.275 38.0358V34.2519H140.299V38.0358H139.275ZM144.72 38.1116C144.442 38.1116 144.191 38.0585 143.969 37.9524C143.747 37.8462 143.572 37.7046 143.446 37.5277C143.319 37.3457 143.256 37.141 143.256 36.9135C143.256 36.6355 143.337 36.4105 143.499 36.2386C143.666 36.0617 143.918 35.9328 144.257 35.8519C144.596 35.771 145.031 35.7306 145.561 35.7306H146.092V36.3524H145.615C145.377 36.3524 145.175 36.3599 145.008 36.3751C144.841 36.3903 144.702 36.4181 144.591 36.4585C144.48 36.4939 144.396 36.5445 144.341 36.6102C144.29 36.6759 144.265 36.7593 144.265 36.8604C144.265 37.0323 144.328 37.1612 144.454 37.2471C144.586 37.328 144.758 37.3685 144.97 37.3685C145.147 37.3685 145.309 37.328 145.455 37.2471C145.607 37.1612 145.728 37.05 145.819 36.9135C145.91 36.772 145.956 36.6178 145.956 36.4509V35.6244C145.956 35.3716 145.88 35.1972 145.728 35.1012C145.577 35.0051 145.349 34.9571 145.046 34.9571C144.839 34.9571 144.624 34.9849 144.401 35.0405C144.179 35.0961 143.944 35.1922 143.696 35.3287L143.415 34.6159C143.587 34.5198 143.769 34.4389 143.961 34.3732C144.154 34.3075 144.356 34.2595 144.568 34.2292C144.78 34.1938 144.99 34.1761 145.197 34.1761C145.561 34.1761 145.872 34.2317 146.13 34.3429C146.393 34.4491 146.595 34.6184 146.737 34.851C146.878 35.0784 146.949 35.3792 146.949 35.7533V38.0358H146.085V37.2547H146.062C145.991 37.4216 145.893 37.5707 145.766 37.7021C145.645 37.8285 145.498 37.9296 145.326 38.0054C145.154 38.0762 144.952 38.1116 144.72 38.1116ZM151.34 38.1116C150.91 38.1116 150.584 37.9979 150.361 37.7704C150.139 37.5378 150.028 37.2067 150.028 36.777V32.6898H151.051V36.7012C151.051 36.8326 151.069 36.9438 151.105 37.0348C151.145 37.1258 151.203 37.1941 151.279 37.2396C151.355 37.2851 151.446 37.3078 151.552 37.3078C151.628 37.3078 151.696 37.3053 151.757 37.3002C151.822 37.2901 151.893 37.2775 151.969 37.2623L152.022 38.0054C151.911 38.0459 151.802 38.0737 151.696 38.0888C151.595 38.104 151.476 38.1116 151.34 38.1116ZM154.499 33.4936V32.4699H155.674V33.4936H154.499ZM154.582 38.0358V34.2519H155.606V38.0358H154.582ZM160.193 38.1116C159.971 38.1116 159.751 38.0939 159.533 38.0585C159.321 38.0282 159.126 37.9827 158.949 37.922C158.773 37.8563 158.621 37.7754 158.494 37.6794L158.76 36.9742C158.891 37.0601 159.035 37.1309 159.192 37.1865C159.354 37.2421 159.518 37.2825 159.685 37.3078C159.852 37.3331 160.011 37.3457 160.163 37.3457C160.446 37.3457 160.658 37.3154 160.8 37.2547C160.941 37.189 161.012 37.0879 161.012 36.9514C161.012 36.8351 160.972 36.7517 160.891 36.7012C160.81 36.6456 160.678 36.6026 160.496 36.5723L159.655 36.4509C159.291 36.4004 159.018 36.2765 158.836 36.0794C158.659 35.8822 158.57 35.6472 158.57 35.3742C158.57 35.1366 158.636 34.9293 158.767 34.7524C158.899 34.5754 159.094 34.4364 159.351 34.3353C159.609 34.2292 159.925 34.1761 160.299 34.1761C160.491 34.1761 160.681 34.1912 160.868 34.2216C161.06 34.2519 161.237 34.2999 161.399 34.3656C161.566 34.4263 161.705 34.5021 161.816 34.5931L161.528 35.2908C161.421 35.2099 161.3 35.1442 161.164 35.0936C161.027 35.0431 160.883 35.0051 160.731 34.9799C160.585 34.9546 160.441 34.9419 160.299 34.9419C160.026 34.9419 159.821 34.9773 159.685 35.0481C159.548 35.1138 159.48 35.2124 159.48 35.3438C159.48 35.4551 159.518 35.5385 159.594 35.5941C159.67 35.6446 159.791 35.6825 159.958 35.7078L160.769 35.8443C161.164 35.905 161.454 36.0263 161.641 36.2083C161.828 36.3852 161.922 36.6253 161.922 36.9287C161.922 37.1713 161.851 37.3811 161.71 37.558C161.568 37.735 161.368 37.8715 161.111 37.9675C160.853 38.0636 160.547 38.1116 160.193 38.1116ZM166.525 38.1116C165.994 38.1116 165.599 37.9802 165.342 37.7173C165.084 37.4544 164.955 37.0753 164.955 36.5799V35.0709H164.219V34.2519H165.016V33.1827H165.979V34.2519H167.298V35.0709H165.986V36.5344C165.986 36.772 166.044 36.9514 166.161 37.0727C166.277 37.1941 166.456 37.2547 166.699 37.2547C166.795 37.2547 166.891 37.2446 166.987 37.2244C167.083 37.2042 167.177 37.1789 167.268 37.1486L167.412 37.9296C167.285 37.9903 167.146 38.0358 166.995 38.0661C166.843 38.0964 166.686 38.1116 166.525 38.1116Z" fill="black"/>
</svg>
