<svg width="62" height="59" viewBox="0 0 62 59" fill="none" xmlns="http://www.w3.org/2000/svg">
<path d="M47.3718 48.9941C47.4695 50.9467 47.5573 52.8512 47.6662 54.7544C47.7008 55.367 47.7837 55.9772 47.8592 56.5861C47.9557 57.358 47.4893 57.789 46.6159 57.7866C44.4348 57.7804 42.2451 57.668 40.0751 57.8323C33.3599 58.3411 26.6398 58.5795 19.9097 58.4115C16.682 58.3312 13.4581 58.0854 10.2304 57.9706C7.31565 57.8668 4.39721 57.8298 1.48003 57.7853C0.648674 57.773 0.235484 57.4197 0.289918 56.6034C0.534872 52.9142 0.705584 49.2176 1.08044 45.542C1.26477 43.7413 1.70396 41.9368 2.26191 40.2102C3.63761 35.9492 6.54616 33.3296 11.0395 32.6577C13.6597 32.2662 16.2973 31.9908 18.9274 31.6635C19.1266 31.6388 19.3258 31.6178 19.5411 31.5931C19.5411 30.8076 19.5633 30.0702 19.525 29.3366C19.5151 29.1612 19.3382 28.9327 19.1737 28.8376C16.7971 27.4593 15.2506 25.4498 14.4972 22.8154C14.4527 22.661 14.2696 22.4572 14.1249 22.4338C12.9323 22.2324 12.1281 21.5741 11.7929 20.4243C11.4601 19.2855 11.8374 18.3259 12.6959 17.5367C12.7244 17.5107 12.7405 17.4688 12.6254 17.465C12.3038 16.141 11.8572 14.8331 11.6815 13.4893C10.9974 8.2415 14.2733 3.3012 19.3246 1.33743C21.3535 0.549453 23.4492 0.308614 25.6241 0.560569C28.2183 0.860692 30.8213 1.07807 33.4205 1.33249C33.6865 1.35843 33.9872 1.33002 34.2074 1.44859C34.5068 1.60915 34.8903 1.84505 34.967 2.12294C35.0449 2.40577 34.8853 2.86522 34.6676 3.09247C34.2779 3.49881 33.767 3.78782 33.2672 4.15464C34.3521 5.35019 35.228 6.62849 35.7934 8.1007C36.9588 11.1378 36.8474 14.1279 35.4408 17.0587C35.2812 17.3897 35.2379 17.5848 35.5261 17.8986C37.0058 19.5066 36.2227 22.0002 34.0923 22.4782C33.7088 22.5647 33.5665 22.7178 33.4577 23.0711C32.6968 25.5536 31.1813 27.4506 28.9619 28.8043C28.7652 28.9241 28.5821 29.2217 28.5648 29.4502C28.5128 30.1431 28.5462 30.8409 28.5462 31.5498C31.4955 31.9179 34.461 32.2884 37.471 32.6651C37.3027 32.0266 37.1221 31.3633 36.9526 30.6976C36.7584 29.9331 37.0664 29.4329 37.8359 29.3304C41.6958 28.8179 45.213 27.3988 48.4802 25.3275C49.0605 24.9595 49.5257 25.0373 50.0688 25.3745C52.9389 27.153 55.9996 28.4708 59.3275 29.1229C59.7704 29.2094 60.222 29.2551 60.6673 29.3341C61.3775 29.4601 61.7152 29.927 61.5346 30.6248C59.5848 38.1427 56.0256 44.7034 50.0341 49.8067C49.4131 50.3353 49.0345 50.323 48.4097 49.7907C48.1128 49.5375 47.8134 49.2868 47.514 49.036C47.5004 49.0249 47.4782 49.0237 47.3718 48.9916V48.9941ZM15.3076 33.9471C13.2737 34.1645 11.3549 34.4597 9.4769 35.0241C7.58407 35.5935 6.20714 36.7792 5.18526 38.4267C4.27596 39.894 3.74154 41.5033 3.38525 43.1793C2.70235 46.388 2.58108 49.6536 2.40417 52.9129C2.35221 53.8689 2.30521 54.8248 2.25448 55.8203H8.07279C8.08887 55.6647 8.10865 55.5251 8.11731 55.3856C8.31154 52.2077 8.50453 49.0311 8.69752 45.8533C8.73959 45.1579 9.1157 44.7343 9.68107 44.7466C10.2737 44.759 10.6411 45.2357 10.599 45.9558C10.4308 48.8051 10.2551 51.6544 10.093 54.505C10.0645 55.0076 10.0893 55.5128 10.0893 56.1093C14.1743 56.2798 18.2272 56.449 22.4162 56.6243C22.2207 56.3168 22.1328 56.1612 22.0289 56.0155C21.0182 54.5914 20.0433 53.139 18.9769 51.7594C18.3992 51.0122 18.3324 50.3835 18.7555 49.5239C20.1386 46.7067 21.4401 43.8487 22.7589 40.9994C22.848 40.8055 22.916 40.4671 22.8133 40.3423C22.1651 39.5531 21.466 38.8047 20.7633 38.0204C19.6784 39.0282 18.6392 39.9904 17.6025 40.9574C17.2734 41.2649 16.8589 41.4527 16.4902 41.197C16.2094 41.0019 15.9794 40.6202 15.8977 40.2806C15.769 39.7483 15.7864 39.1801 15.7356 38.6281C15.5971 37.0978 15.456 35.5688 15.3063 33.9471H15.3076ZM40.2966 55.7882H45.8328C45.6447 52.8401 45.4653 49.95 45.2637 47.0624C45.2488 46.8413 45.1153 46.5943 44.9656 46.4214C42.4826 43.5548 40.4005 40.4103 39.0916 36.8619C38.4755 35.1908 37.5229 34.5153 35.8849 34.3881C34.79 34.3028 33.7039 34.1015 32.5632 33.9447C32.3777 36.0517 32.1995 38.0538 32.0263 40.0558C31.9842 40.5424 31.9087 41.0167 31.3842 41.223C30.8634 41.4292 30.4898 41.16 30.1248 40.8141C29.192 39.9298 28.2419 39.0653 27.2794 38.176C26.7363 38.801 26.2674 39.4037 25.7317 39.9397C25.3395 40.3325 25.3 40.6524 25.54 41.1612C26.9045 44.0575 28.2159 46.9784 29.5693 49.8796C29.8353 50.4514 29.792 50.9097 29.4147 51.4148C28.2951 52.9129 27.2088 54.4358 26.1115 55.95C25.9865 56.1217 25.8728 56.302 25.6538 56.6281C29.9912 56.444 34.1529 56.2686 38.3728 56.0896C38.3345 55.6807 38.3135 55.3979 38.28 55.1163C37.9176 52.057 37.5501 48.999 37.1926 45.9397C37.1147 45.2703 37.4759 44.7911 38.0512 44.7466C38.5881 44.7046 39.0075 45.1036 39.0842 45.7421C39.2549 47.1488 39.417 48.5556 39.5877 49.9624C39.8215 51.8977 40.0578 53.8331 40.2966 55.787V55.7882ZM16.7983 12.2283C16.609 13.7746 16.4395 15.1999 16.2602 16.624C16.0338 18.4247 15.936 20.2366 16.301 22.0188C17.021 25.5338 20.2079 28.1176 23.8042 28.1966C28.3309 28.2954 32.0127 24.7409 31.9595 20.1328C31.9298 17.554 31.6044 14.9776 31.3991 12.4C31.3855 12.2345 31.2976 12.0245 31.1727 11.9257C30.3264 11.2501 29.4617 10.598 28.5945 9.93109C25.1082 13.0015 21.2607 14.0525 16.7995 12.2271L16.7983 12.2283ZM59.419 31.1447C59.2743 31.0929 59.2013 31.0571 59.1246 31.0422C55.7175 30.3864 52.5678 29.0723 49.5726 27.3469C49.397 27.2456 49.0679 27.2703 48.8724 27.3642C47.5054 28.0249 46.1977 28.8277 44.7898 29.3786C42.9453 30.0999 41.0277 30.6297 39.0768 31.2633C40.904 37.6919 44.0971 43.4016 49.2399 47.9924C54.3789 43.3782 57.5621 37.6783 59.419 31.1435V31.1447ZM14.3884 16.0114C14.4131 15.8916 14.4465 15.7742 14.4613 15.6532C14.6444 14.0624 14.835 12.4741 15.002 10.8821C15.0935 10.0089 15.7195 9.62232 16.52 9.98049C16.7068 10.0645 16.8874 10.1645 17.073 10.251C18.8693 11.0921 20.7386 11.4774 22.7057 11.0439C24.6072 10.624 26.1672 9.57415 27.575 8.27238C28.368 7.53998 28.6142 7.53504 29.4852 8.19951C30.58 9.03442 31.6885 9.85328 32.7562 10.7203C32.9999 10.9179 33.1879 11.2711 33.251 11.5836C33.3648 12.1431 33.3562 12.7261 33.4144 13.2979C33.5047 14.1921 33.6086 15.0851 33.7199 16.1065C33.8411 15.9249 33.8808 15.8792 33.9043 15.8261C35.5002 12.1888 34.5402 7.91421 31.4523 5.09206C30.5789 4.2942 30.5157 3.94962 31.3718 3.04184C28.9124 2.81335 26.5161 2.48111 24.1098 2.39095C19.697 2.22792 15.5438 5.03031 14.0778 9.02578C13.2131 11.3835 13.3244 13.7203 14.3884 16.0114ZM24.0442 55.5387C25.2418 53.8887 26.3948 52.3164 27.5181 50.7244C27.6233 50.5762 27.6072 50.2588 27.5244 50.076C26.4827 47.7565 25.4187 45.4482 24.3573 43.1373C24.2954 43.0039 24.2026 42.8854 24.0888 42.7013C22.8937 45.2518 21.7333 47.7182 20.5877 50.1921C20.5246 50.3292 20.5208 50.5712 20.6013 50.6861C21.7172 52.2831 22.8516 53.8652 24.0442 55.5387ZM21.4995 29.7973C21.2755 30.9941 21.4994 32.0044 22.5312 32.5836C23.6075 33.1876 24.7519 33.1382 25.7911 32.4095C26.7177 31.7598 26.6992 30.8088 26.5643 29.7923C24.8657 30.2011 23.1968 30.195 21.4995 29.7973ZM17.6321 38.3106C19.0895 36.9582 20.438 35.7071 21.8051 34.4375C21.4908 34.2164 21.2112 34.0114 20.9229 33.8187C20.7262 33.6865 20.5097 33.458 20.3143 33.4692C19.2961 33.5297 18.2817 33.6519 17.2202 33.7582C17.3563 35.26 17.4861 36.7013 17.6321 38.3106ZM30.2498 38.3106C30.3933 36.6927 30.5219 35.2538 30.6568 33.7483C29.6374 33.6421 28.6637 33.5358 27.6876 33.4469C27.585 33.4383 27.4612 33.5247 27.366 33.5939C26.9713 33.8792 26.5841 34.1744 26.1511 34.498C27.4749 35.7293 28.806 36.9681 30.251 38.3106H30.2498ZM25.8777 36.8681C25.2369 36.2703 24.6084 35.6849 23.9428 35.0636C23.3416 35.6244 22.7651 36.1616 22.1712 36.7149C22.848 37.4683 23.4616 38.1526 24.1234 38.8911C24.7197 38.2044 25.2802 37.5573 25.8777 36.8681ZM14.115 18.9941C14.0519 18.9718 13.99 18.9496 13.9269 18.9274C13.8218 19.1991 13.63 19.472 13.6362 19.7413C13.6411 19.9784 13.8663 20.2119 13.9949 20.4465C14.0345 20.4206 14.0754 20.3946 14.115 20.3687V18.9941ZM33.9537 19.12V20.4935C34.5327 19.913 34.5216 19.5585 33.9537 19.12Z" fill="url(#paint0_radial_104_156)"/>
<path d="M48.6226 37.9958C50.0181 36.6594 51.473 35.2675 52.9279 33.8756C53.0763 33.7335 53.2124 33.573 53.3782 33.4569C53.8112 33.1555 54.2454 33.2012 54.6066 33.5705C54.9481 33.9188 54.9803 34.335 54.7118 34.7525C54.6462 34.855 54.5584 34.9452 54.4718 35.0328C52.8004 36.7335 51.1315 38.4367 49.4515 40.13C48.8886 40.6969 48.4173 40.6907 47.8581 40.1226C47.0638 39.3173 46.2794 38.5034 45.5013 37.6833C45.02 37.1757 44.9978 36.6174 45.4159 36.2173C45.8316 35.8208 46.3784 35.8826 46.8844 36.3655C47.4919 36.946 48.1104 37.5166 48.6214 37.9946L48.6226 37.9958Z" fill="url(#paint1_radial_104_156)"/>
<defs>
<radialGradient id="paint0_radial_104_156" cx="0" cy="0" r="1" gradientUnits="userSpaceOnUse" gradientTransform="translate(76.1533 -13.5188) rotate(136.438) scale(103.081 107.638)">
<stop stop-color="#132341"/>
<stop offset="0.716111" stop-color="#25D7FF"/>
<stop offset="1" stop-color="#AAFFBE"/>
</radialGradient>
<radialGradient id="paint1_radial_104_156" cx="0" cy="0" r="1" gradientUnits="userSpaceOnUse" gradientTransform="translate(57.2134 31.5003) rotate(143.121) scale(14.8847 14.9412)">
<stop stop-color="#132341"/>
<stop offset="0.716111" stop-color="#25D7FF"/>
<stop offset="1" stop-color="#AAFFBE"/>
</radialGradient>
</defs>
</svg>
