<svg width="59" height="58" viewBox="0 0 59 58" fill="none" xmlns="http://www.w3.org/2000/svg">
<path d="M0 54.8278C0 37.6097 0 20.3904 0 3.17235C0.280816 2.35061 0.575251 1.5107 1.31083 0.994268C1.88383 0.592475 2.55121 0.326883 3.17651 0C16.3385 0 29.5016 0 42.6636 0C42.6909 0.0249702 42.7136 0.0624255 42.7455 0.0726406C44.9317 0.769536 45.8401 2.00443 45.8413 4.28693C45.8413 9.49663 45.8413 14.7063 45.8413 19.916V20.5017C45.9004 20.5312 45.9595 20.5596 46.0186 20.5891C46.1403 20.4222 46.2426 20.2372 46.3869 20.0919C47.9752 18.5018 49.5351 16.8799 51.1722 15.3408C53.3005 13.3386 56.7965 14.1615 57.8095 16.8844C58.4541 18.6187 58.0243 20.1464 56.726 21.4426C53.3312 24.834 49.9455 28.2345 46.5268 31.6009C46.0118 32.1083 45.8242 32.61 45.8265 33.3216C45.8515 40.1362 45.8424 46.9497 45.8413 53.7643C45.8413 56.4157 44.2621 57.999 41.6188 57.999C33.4319 57.999 25.245 57.999 17.0582 57.999C12.7288 57.999 8.39834 58.0013 4.069 57.999C2.05894 57.9979 0.659424 56.9389 0.103476 55.0185C0.0841489 54.9504 0.0352441 54.8913 0 54.8278ZM39.013 36.6767C37.9102 37.1636 36.871 37.6074 35.8467 38.0818C35.2987 38.3349 34.7825 38.3962 34.3335 37.9366C33.8821 37.4757 33.9776 36.957 34.2209 36.4179C35.1521 34.3556 36.0911 32.2967 36.9768 30.2151C37.369 29.2935 37.8499 28.4615 38.6355 27.8338C38.9641 27.5705 39.0425 27.255 39.0414 26.8475C39.03 20.3723 39.0335 13.8959 39.0335 7.42069C39.0335 7.22207 39.0335 7.02344 39.0335 6.82935H32.5974C32.5837 6.98825 32.5747 7.11765 32.5622 7.2459C32.3882 8.97679 30.9375 10.3933 29.1924 10.4069C25.0131 10.4387 20.8338 10.4341 16.6545 10.4092C15.1197 10.4001 13.7782 9.28665 13.3894 7.80546C13.3052 7.48539 13.2677 7.1517 13.2097 6.82935H6.84643V51.2026C7.09086 51.2026 7.29665 51.2026 7.50243 51.2026C10.9257 51.2026 14.3478 51.2026 17.771 51.2026C17.9222 51.2026 18.0734 51.2003 18.2246 51.2026C19 51.2173 19.5105 51.6656 19.5105 52.333C19.5105 53.0015 19.0011 53.4635 18.2258 53.4646C14.1409 53.4692 10.056 53.468 5.97104 53.4658C4.9285 53.4658 4.53742 53.0719 4.53742 52.0254C4.53742 36.6767 4.53742 21.328 4.53742 5.9781C4.53742 4.90778 4.92505 4.53096 6.01989 4.52982C8.21413 4.52869 10.4072 4.52982 12.6015 4.52982C12.8038 4.52982 13.0062 4.52982 13.2222 4.52982V2.26434C12.9948 2.26434 12.8072 2.26434 12.6208 2.26434C9.82172 2.26434 7.0227 2.26434 4.22477 2.26434C2.84229 2.26434 2.2681 2.83979 2.2681 4.22678C2.2681 20.7468 2.2681 37.2658 2.2681 53.7858C2.2681 55.1603 2.84793 55.7324 4.24064 55.7324C16.6841 55.7324 29.1276 55.7324 41.571 55.7324C43.0013 55.7324 43.5697 55.1694 43.5697 53.7552C43.5697 47.5819 43.5697 41.4086 43.5697 35.2341V34.6394C42.9285 34.9277 42.3771 35.2159 41.7961 35.4236C41.3789 35.5723 41.2902 35.8073 41.2913 36.2204C41.305 41.4687 41.3016 46.717 41.3005 51.9664C41.3005 53.0935 40.9298 53.4669 39.8111 53.4669C35.8024 53.4669 31.7925 53.4669 27.7837 53.4669C27.6325 53.4669 27.4791 53.4737 27.3301 53.4544C26.7503 53.3772 26.3274 52.9005 26.3262 52.3353C26.3251 51.7712 26.748 51.2888 27.3267 51.215C27.5132 51.1912 27.7042 51.2026 27.8929 51.2014C31.3911 51.2014 34.8894 51.2014 38.3888 51.2014C38.5901 51.2014 38.7901 51.2014 39.0107 51.2014V36.6756L39.013 36.6767ZM30.3009 2.30293H15.5336C15.5336 3.77164 15.5301 5.20288 15.5336 6.63413C15.537 7.68742 16.0008 8.15391 17.0513 8.15618C19.0546 8.15958 21.0578 8.15618 23.0622 8.15618C25.0086 8.15618 26.9561 8.16072 28.9024 8.15391C29.7176 8.1505 30.277 7.70104 30.2906 6.97123C30.3202 5.42762 30.2997 3.88287 30.2997 2.30293H30.3009ZM41.3027 25.1847C42.0349 24.4458 42.6636 23.8477 43.2423 23.2053C43.4208 23.0078 43.5572 22.69 43.5583 22.4255C43.5754 16.3305 43.5731 10.2355 43.5708 4.14051C43.5708 2.87157 42.966 2.26661 41.6995 2.26548C38.8458 2.26321 35.9911 2.26548 33.1374 2.26548H32.6133V4.53096C32.8532 4.53096 33.0578 4.53096 33.2625 4.53096C35.4363 4.53096 37.61 4.53096 39.7838 4.53096C40.948 4.53096 41.3027 4.88735 41.3027 6.05528C41.3027 12.1696 41.3027 18.2827 41.3027 24.397C41.3027 24.6013 41.3027 24.8045 41.3027 25.1836V25.1847ZM42.7955 32.0379C46.1766 28.6624 49.5567 25.288 52.873 21.9761C52.042 21.1396 51.1847 20.2758 50.3684 19.4541C47.0168 22.8001 43.6288 26.1824 40.2829 29.5227C41.0992 30.3399 41.9508 31.1912 42.7944 32.0368L42.7955 32.0379ZM54.6534 20.2792C55.3992 19.6277 56.0643 18.9592 55.746 17.8605C55.5334 17.125 55.0366 16.671 54.2828 16.5394C53.238 16.3566 52.6047 16.9797 52.0658 17.6687C52.9367 18.5472 53.7814 19.4007 54.6523 20.2792H54.6534ZM38.8607 31.593C38.39 32.6497 37.9159 33.7155 37.3827 34.914C38.598 34.3749 39.6712 33.8993 40.7183 33.4351C40.0987 32.8211 39.503 32.2297 38.8618 31.593H38.8607Z" fill="url(#paint0_radial_104_168)"/>
<path d="M14.7287 23.1086C13.577 23.1086 12.4254 23.1154 11.2725 23.1063C10.421 23.0995 9.98896 22.6648 9.98669 21.8068C9.981 19.5072 9.981 17.2066 9.98669 14.907C9.98896 14.0206 10.4187 13.5972 11.3169 13.595C13.6021 13.5904 15.8873 13.5904 18.1713 13.595C19.0979 13.5972 19.5128 14.0172 19.5151 14.9513C19.5197 17.2134 19.5185 19.4754 19.5151 21.7387C19.514 22.6989 19.099 23.1052 18.127 23.1086C16.9935 23.112 15.8611 23.1086 14.7276 23.1086H14.7287ZM12.2866 15.8854V20.8068H17.206V15.8854H12.2866Z" fill="url(#paint1_radial_104_168)"/>
<path d="M19.5164 30.8408C19.5164 31.9531 19.5187 33.0654 19.5164 34.1777C19.513 35.1549 19.1117 35.5669 18.1498 35.5692C15.884 35.5726 13.6181 35.5726 11.3511 35.5692C10.4143 35.5681 9.98908 35.1527 9.98681 34.2333C9.98226 31.9519 9.98226 29.6706 9.98681 27.3903C9.98908 26.471 10.4132 26.0578 11.3523 26.0567C13.6181 26.0533 15.884 26.0533 18.151 26.0567C19.1128 26.0578 19.513 26.4698 19.5164 27.4482C19.5198 28.5798 19.5164 29.7103 19.5164 30.8419V30.8408ZM12.2754 33.2583H17.2164V28.3551H12.2754V33.2583Z" fill="url(#paint2_radial_104_168)"/>
<path d="M14.7529 48.0301C13.6194 48.0301 12.487 48.0336 11.3535 48.0301C10.4144 48.0267 9.98811 47.6147 9.98583 46.6976C9.98128 44.4163 9.98128 42.1349 9.98583 39.8547C9.98811 38.933 10.411 38.5199 11.3478 38.5176C13.6137 38.5142 15.8795 38.5142 18.1465 38.5176C19.1084 38.5188 19.5131 38.9308 19.5154 39.9057C19.5188 42.1497 19.5188 44.3924 19.5154 46.6364C19.5142 47.634 19.1095 48.029 18.0954 48.0313C16.9812 48.0336 15.867 48.0313 14.7529 48.0313V48.0301ZM17.2075 45.7397V40.8251H12.2858V45.7397H17.2075Z" fill="url(#paint3_radial_104_168)"/>
<path d="M28.5834 44.7941C28.0241 45.3911 27.5454 45.9223 27.0441 46.4308C26.4244 47.0596 25.7559 47.1254 25.2534 46.6339C24.7577 46.1493 24.8191 45.4501 25.4273 44.8474C25.9355 44.3435 26.4585 43.8543 27.0508 43.2845C26.4221 42.6693 25.8401 42.1143 25.275 41.5423C24.8885 41.1518 24.8066 40.6865 25.0533 40.1928C25.2693 39.7614 25.6593 39.5276 26.1209 39.6128C26.4313 39.6695 26.7564 39.8568 26.9906 40.0747C27.5261 40.5741 28.0115 41.128 28.6414 41.7908C29.2712 41.1076 29.809 40.4788 30.3968 39.9033C30.8458 39.4641 31.5087 39.4913 31.9373 39.8908C32.3864 40.3097 32.4182 40.9646 31.9998 41.4708C31.8316 41.6739 31.6383 41.8567 31.4473 42.0394C31.0403 42.4276 30.6264 42.8089 30.1057 43.2959C30.7788 43.9224 31.3882 44.4536 31.9544 45.0279C32.3818 45.4603 32.4057 46.0222 32.0908 46.4762C31.8077 46.8859 31.254 47.0777 30.7856 46.8802C30.5673 46.7883 30.3672 46.6249 30.1967 46.4557C29.6874 45.9518 29.1962 45.4286 28.5834 44.7941Z" fill="url(#paint4_radial_104_168)"/>
<path d="M27.298 19.3303C28.7384 17.8877 30.1153 16.5178 31.4796 15.1364C31.857 14.7551 32.2754 14.5621 32.804 14.7347C33.6135 14.9991 33.8068 15.9991 33.1565 16.6653C32.1015 17.7447 31.0236 18.8014 29.9561 19.8683C29.3819 20.4415 28.8135 21.0203 28.2325 21.5867C27.6175 22.186 27.0046 22.1928 26.4009 21.6015C25.6188 20.8365 24.8434 20.0635 24.0771 19.2826C23.5337 18.7299 23.5121 18.0443 23.9964 17.579C24.4739 17.1204 25.1197 17.1443 25.662 17.6698C26.2031 18.1942 26.7204 18.7424 27.298 19.3303Z" fill="url(#paint5_radial_104_168)"/>
<path d="M27.2925 31.8017C28.6556 30.4352 29.946 29.1401 31.2364 27.8451C31.3694 27.7112 31.4979 27.5716 31.64 27.449C32.1368 27.02 32.7939 27.0256 33.2248 27.4569C33.6637 27.8973 33.6819 28.5352 33.2396 29.0357C32.9406 29.374 32.6064 29.6815 32.2858 30.0016C30.9647 31.3216 29.6436 32.6428 28.3202 33.9594C27.5915 34.6847 27.023 34.679 26.2863 33.9469C25.5632 33.2296 24.8378 32.5134 24.1227 31.7881C23.5418 31.1979 23.4974 30.5237 23.992 30.0436C24.4922 29.5567 25.1414 29.6078 25.7394 30.2014C26.2476 30.7065 26.7376 31.2274 27.2936 31.8006L27.2925 31.8017Z" fill="url(#paint6_radial_104_168)"/>
<path d="M24.0505 52.333C24.0516 52.9402 23.5445 53.4544 22.9363 53.4635C22.3064 53.4737 21.7756 52.938 21.7903 52.308C21.8051 51.7008 22.3247 51.1991 22.9329 51.2059C23.5423 51.2128 24.0494 51.7246 24.0505 52.3319V52.333Z" fill="url(#paint7_radial_104_168)"/>
<defs>
<radialGradient id="paint0_radial_104_168" cx="0" cy="0" r="1" gradientUnits="userSpaceOnUse" gradientTransform="translate(71.9173 -13.9837) rotate(134.907) scale(100.298 104.864)">
<stop stop-color="#132341"/>
<stop offset="0.716111" stop-color="#25D7FF"/>
<stop offset="1" stop-color="#AAFFBE"/>
</radialGradient>
<radialGradient id="paint1_radial_104_168" cx="0" cy="0" r="1" gradientUnits="userSpaceOnUse" gradientTransform="translate(21.7848 11.2964) rotate(134.903) scale(16.461 17.2103)">
<stop stop-color="#132341"/>
<stop offset="0.716111" stop-color="#25D7FF"/>
<stop offset="1" stop-color="#AAFFBE"/>
</radialGradient>
<radialGradient id="paint2_radial_104_168" cx="0" cy="0" r="1" gradientUnits="userSpaceOnUse" gradientTransform="translate(21.7843 23.7595) rotate(134.905) scale(16.4583 17.2075)">
<stop stop-color="#132341"/>
<stop offset="0.716111" stop-color="#25D7FF"/>
<stop offset="1" stop-color="#AAFFBE"/>
</radialGradient>
<radialGradient id="paint3_radial_104_168" cx="0" cy="0" r="1" gradientUnits="userSpaceOnUse" gradientTransform="translate(21.7846 36.2205) rotate(134.91) scale(16.4588 17.2081)">
<stop stop-color="#132341"/>
<stop offset="0.716111" stop-color="#25D7FF"/>
<stop offset="1" stop-color="#AAFFBE"/>
</radialGradient>
<radialGradient id="paint4_radial_104_168" cx="0" cy="0" r="1" gradientUnits="userSpaceOnUse" gradientTransform="translate(34.0611 37.8042) rotate(134.913) scale(12.7566 13.3374)">
<stop stop-color="#132341"/>
<stop offset="0.716111" stop-color="#25D7FF"/>
<stop offset="1" stop-color="#AAFFBE"/>
</radialGradient>
<radialGradient id="paint5_radial_104_168" cx="0" cy="0" r="1" gradientUnits="userSpaceOnUse" gradientTransform="translate(35.899 12.8942) rotate(143.186) scale(15.0632 15.1103)">
<stop stop-color="#132341"/>
<stop offset="0.716111" stop-color="#25D7FF"/>
<stop offset="1" stop-color="#AAFFBE"/>
</radialGradient>
<radialGradient id="paint6_radial_104_168" cx="0" cy="0" r="1" gradientUnits="userSpaceOnUse" gradientTransform="translate(35.9187 25.3536) rotate(143.229) scale(15.0778 15.1183)">
<stop stop-color="#132341"/>
<stop offset="0.716111" stop-color="#25D7FF"/>
<stop offset="1" stop-color="#AAFFBE"/>
</radialGradient>
<radialGradient id="paint7_radial_104_168" cx="0" cy="0" r="1" gradientUnits="userSpaceOnUse" gradientTransform="translate(24.5878 50.6615) rotate(134.889) scale(3.90309 4.08076)">
<stop stop-color="#132341"/>
<stop offset="0.716111" stop-color="#25D7FF"/>
<stop offset="1" stop-color="#AAFFBE"/>
</radialGradient>
</defs>
</svg>
