<svg width="59" height="59" viewBox="0 0 59 59" fill="none" xmlns="http://www.w3.org/2000/svg">
<path d="M54.7332 42.2699H52.8499V25.89H47.9883C47.9883 26.1894 48.0018 26.4852 47.986 26.7798C47.9532 27.3883 47.5998 27.7725 46.9939 27.7749C43.7824 27.7871 40.5721 27.7871 37.3606 27.7749C36.7511 27.7725 36.3953 27.3931 36.3625 26.787C36.3467 26.5058 36.3601 26.2234 36.3601 25.8949H31.5507V52.926H44.0654V54.8824H43.4315C39.2717 54.8824 35.1107 54.8824 30.9509 54.8824C29.8496 54.8824 29.5704 54.5976 29.5704 53.4776C29.5704 44.0821 29.5704 34.6867 29.5704 25.2912C29.5704 24.1882 29.8521 23.913 30.9764 23.913C32.7491 23.913 34.5206 23.913 36.3249 23.913V22.0123C36.1622 22.0014 35.9885 21.9796 35.8161 21.9784C33.514 21.976 31.212 21.9748 28.9087 21.9784C27.9543 21.9784 27.6325 22.296 27.6325 23.2427C27.6313 34.0091 27.6313 44.7755 27.6325 55.5431C27.6325 56.5128 27.9531 56.8195 28.9584 56.8195C36.9757 56.8195 44.9942 56.8195 53.0114 56.8195H53.7679V58.7553C53.536 58.7553 53.3199 58.7553 53.1037 58.7553C45.0658 58.7553 37.0279 58.7577 28.99 58.748C28.5323 58.748 28.0745 58.6401 27.6168 58.5807C27.5196 58.5674 27.4213 58.5201 27.3265 58.5286C26.5337 58.5989 25.7421 58.7432 24.9504 58.7456C17.2962 58.7626 9.64193 58.7553 1.98771 58.7553C0.737095 58.7553 0.48699 58.5104 0.48699 57.2886C0.48699 49.869 0.495505 42.4493 0.47365 35.0297C0.471222 34.2903 0.72496 33.8406 1.35755 33.4721C2.85586 32.5993 4.31165 31.6526 5.80267 30.7678C6.17907 30.5447 6.31505 30.3035 6.31384 29.8635C6.29805 23.8354 6.31387 17.8061 6.28959 11.7781C6.28595 10.9999 6.55669 10.572 7.27671 10.2617C14.4222 7.18278 21.558 4.08329 28.6889 0.969257C29.2875 0.707431 29.7986 0.674702 30.4118 0.943802C37.5221 4.05299 44.6372 7.14884 51.7657 10.2156C52.5489 10.5526 52.8682 10.9914 52.8536 11.8532C52.8075 14.5527 52.8366 17.2534 52.8366 20.0426C53.6805 20.0426 54.5 20.0426 55.3184 20.0426C57.51 20.0426 58.6525 21.1735 58.6525 23.3445C58.6525 33.3048 58.6525 43.2651 58.6525 53.2254C58.6525 53.4254 58.6525 53.6254 58.6525 53.8715H56.7135C56.7135 53.6412 56.7135 53.4072 56.7135 53.1733C56.7135 43.253 56.7135 33.3339 56.7135 23.4136C56.7135 22.2511 56.4464 21.9784 55.3026 21.9784C53.0807 21.9784 50.8599 21.9784 48.6379 21.9784H48.0187V23.9142C48.3696 23.9142 48.7242 23.9142 49.0787 23.9142C50.594 23.9142 52.1081 23.9094 53.6222 23.9166C54.3896 23.9203 54.7684 24.2694 54.7696 25.0039C54.7757 30.689 54.772 36.3752 54.7696 42.0602C54.7696 42.1172 54.7489 42.1742 54.7295 42.2724L54.7332 42.2699ZM50.8417 20.0353C50.8684 19.9274 50.8939 19.8717 50.8939 19.8159C50.8963 17.3164 50.8878 14.817 50.9085 12.3163C50.9121 11.9235 50.6693 11.8605 50.4143 11.7502C43.6307 8.80465 36.8482 5.85304 30.056 2.92568C29.7853 2.80931 29.3761 2.80931 29.1066 2.92568C22.3144 5.85304 15.5344 8.80707 8.74345 11.7393C8.34399 11.9126 8.23226 12.1248 8.23347 12.5405C8.24683 17.9031 8.24198 23.2645 8.24319 28.6271C8.24319 28.798 8.25901 28.9701 8.26993 29.2065C8.50184 29.0756 8.67547 28.9847 8.84181 28.8828C10.2685 28.0077 11.7121 27.1579 13.1121 26.2428C13.7763 25.8076 14.3153 25.8064 14.9928 26.2306C18.3258 28.3168 21.6855 30.3605 25.0366 32.4187C25.2309 32.5375 25.43 32.6478 25.6497 32.7739V23.9106C23.1655 23.9106 20.725 23.9106 18.2833 23.9106C17.284 23.9106 16.9695 23.6027 16.9683 22.6233C16.9659 18.9747 16.9671 15.3261 16.9683 11.6775C16.9683 10.6593 17.2731 10.3635 18.3161 10.3623C20.5174 10.3611 22.7175 10.3623 24.9188 10.3623C30.209 10.3623 35.4992 10.3623 40.7907 10.3623C41.8956 10.3623 42.1724 10.6447 42.1736 11.7635C42.1736 13.0533 42.1736 14.3442 42.1748 15.634C42.1748 15.8073 42.1955 15.9794 42.2052 16.1418C44.0811 16.36 45.3718 17.2449 45.8065 18.7928C46.0493 19.6571 46.7183 19.9201 47.3497 19.9953C48.4983 20.1335 49.6761 20.0341 50.8417 20.0341V20.0353ZM2.42601 56.7746H8.24319C8.24319 56.5116 8.24319 56.2922 8.24319 56.0728C8.24319 51.6181 8.24319 47.1634 8.24319 42.7087C8.24319 41.6263 8.52972 41.3329 9.58971 41.3329C12.5778 41.3329 15.5659 41.3317 18.5541 41.3329C19.5752 41.3329 19.8751 41.6372 19.8751 42.6748C19.8751 47.1501 19.8751 51.6242 19.8751 56.0994C19.8751 56.331 19.8751 56.5625 19.8751 56.7855H25.6716C25.6789 56.6389 25.6911 56.5213 25.6911 56.4049C25.6911 49.4508 25.6887 42.4966 25.7008 35.5424C25.7008 35.1849 25.5636 35.0079 25.2807 34.8345C21.6855 32.6369 18.0914 30.4344 14.5096 28.215C14.1599 27.998 13.9232 28.0271 13.588 28.2343C10.039 30.4308 6.48382 32.6175 2.91655 34.7861C2.54015 35.0152 2.41146 35.2527 2.41267 35.6903C2.42846 42.5039 2.42364 49.3162 2.42364 56.1298V56.7758L2.42601 56.7746ZM10.1932 56.7807H17.896V43.316H10.1932V56.7807ZM24.6821 21.9481V12.3454H18.9378V21.9481H24.6821ZM46.0517 25.8185C46.0517 24.7409 45.9752 23.7251 46.0748 22.7275C46.1634 21.8317 45.8502 21.3481 45.0221 21.0826C44.4369 20.8947 44.1297 20.4983 44.086 19.8292C44.0204 18.8304 43.1414 18.0971 42.1579 18.1055C41.1695 18.1128 40.3293 18.8474 40.2564 19.8595C40.2127 20.4656 39.9468 20.8281 39.4101 21.0523C39.1321 21.1687 38.8614 21.3081 38.604 21.4656C38.4825 21.5396 38.315 21.679 38.3137 21.7905C38.2931 23.1324 38.3004 24.473 38.3004 25.8185H46.0529H46.0517ZM26.6891 20.7638C27.5706 20.0074 28.5371 20.0195 29.5121 20.0365C30.4919 20.0535 31.4718 20.0402 32.4322 20.0402V12.3308H26.6903V20.765L26.6891 20.7638ZM34.4454 20.0389C35.3014 20.0389 36.0882 20.0547 36.8737 20.0341C37.5622 20.0159 38.2105 19.4038 38.5335 18.8074C38.8978 18.1346 39.4223 17.5467 39.88 16.9237C39.9917 16.7722 40.2139 16.6316 40.2175 16.4825C40.2443 15.1006 40.2334 13.7187 40.2334 12.3393H34.4454V20.0377V20.0389Z" fill="url(#paint0_radial_104_159)"/>
<path d="M52.2941 51.0862C54.312 53.0984 56.3081 55.0887 58.3237 57.0973C57.8744 57.5349 57.4361 57.964 56.8582 58.5276C56.7404 58.3446 56.6469 58.1288 56.4939 57.9737C54.703 56.1724 52.8975 54.3857 51.1102 52.582C50.8601 52.3287 50.6719 52.2947 50.3355 52.439C48.0346 53.4269 45.531 52.9311 43.8166 51.1795C42.1689 49.4983 41.7112 46.96 42.6655 44.7987C43.6369 42.5974 45.8237 41.2132 48.2775 41.3465C50.4606 41.4653 52.1228 42.5223 53.1318 44.4557C54.1651 46.4351 54.0291 48.4134 52.8513 50.3116C52.7044 50.5492 52.5248 50.7674 52.2941 51.0862ZM51.8667 47.1358C51.8703 45.0036 50.1182 43.2629 47.9727 43.2678C45.8588 43.2726 44.125 44.9975 44.1128 47.1091C44.1007 49.251 45.8406 51.0074 47.974 51.0098C50.117 51.0122 51.8618 49.2752 51.8654 47.1358H51.8667Z" fill="url(#paint1_radial_104_159)"/>
<path d="M33.7512 33.4032C34.2624 32.8601 34.6715 32.4237 35.1839 31.8795C35.5627 32.3365 35.9185 32.7656 36.3119 33.2407C37.7641 31.7862 39.124 30.4249 40.5118 29.0358C40.9538 29.5255 41.3544 29.9703 41.7903 30.4528C41.7964 30.4419 41.7709 30.5194 41.7199 30.5704C40.1973 32.094 38.6783 33.6214 37.146 35.1354C36.6009 35.6748 36.1225 35.6614 35.5664 35.1354C34.9545 34.5559 34.3462 33.9717 33.75 33.4032H33.7512Z" fill="url(#paint2_radial_104_159)"/>
<path d="M33.7773 40.1472C34.2606 39.6344 34.6709 39.1981 35.1833 38.6538C35.5609 39.1108 35.9167 39.5411 36.3089 40.0163C37.7623 38.5605 39.121 37.198 40.5039 35.8125C40.9592 36.2925 41.372 36.7265 41.8055 37.1822C41.8067 37.1738 41.8164 37.2259 41.7946 37.2465C40.2198 38.8308 38.6498 40.4199 37.0593 41.9897C36.6319 42.4115 36.1304 42.4212 35.7042 42.0285C35.0401 41.4163 34.4111 40.7678 33.7773 40.146V40.1472Z" fill="url(#paint3_radial_104_159)"/>
<path d="M33.7171 46.8798C34.221 46.4107 34.6605 46.001 35.2008 45.4967C35.5128 45.9052 35.8528 46.3489 36.1964 46.7998C37.6911 45.3016 39.0485 43.9403 40.44 42.5451C40.9305 43.093 41.3397 43.55 41.8655 44.1379C41.568 44.39 41.1649 44.6918 40.8079 45.0422C39.601 46.2264 38.4135 47.4313 37.2127 48.6217C36.5873 49.2411 36.1296 49.2362 35.5019 48.6253C34.913 48.0519 34.3253 47.4774 33.7158 46.881L33.7171 46.8798Z" fill="url(#paint4_radial_104_159)"/>
<path d="M43.1914 30.7083H50.8614V32.592H43.1914V30.7083Z" fill="url(#paint5_radial_104_159)"/>
<path d="M43.1719 38.3862V36.5243H50.8504V38.3862H43.1719Z" fill="url(#paint6_radial_104_159)"/>
<path d="M14.0635 39.3958C12.53 39.3958 10.9953 39.3995 9.46177 39.3946C8.58755 39.3922 8.24882 39.0576 8.24397 38.1934C8.2379 37.0649 8.2561 35.9363 8.23667 34.8078C8.22696 34.2684 8.42119 33.8926 8.89108 33.6163C10.4027 32.7278 11.9072 31.8259 13.4043 30.9144C13.8523 30.6416 14.2566 30.6368 14.7046 30.9083C16.2212 31.8283 17.745 32.7374 19.27 33.6429C19.6937 33.8938 19.8856 34.2454 19.8807 34.7387C19.8686 35.9072 19.8832 37.0758 19.8747 38.2455C19.8686 39.0358 19.5164 39.391 18.7272 39.3946C17.1731 39.4019 15.6189 39.3971 14.0648 39.3971L14.0635 39.3958ZM17.9368 37.4406C17.9368 36.717 17.955 36.0551 17.9234 35.3957C17.9161 35.2357 17.7826 35.0224 17.6429 34.9351C16.566 34.2672 15.4805 33.6126 14.378 32.9884C14.2129 32.895 13.9033 32.8987 13.7369 32.9932C12.6356 33.6187 11.5514 34.2769 10.4695 34.9375C10.3493 35.0115 10.2 35.1606 10.1951 35.2806C10.1696 35.9957 10.183 36.7121 10.183 37.4418H17.9356L17.9368 37.4406Z" fill="url(#paint7_radial_104_159)"/>
<defs>
<radialGradient id="paint0_radial_104_159" cx="0" cy="0" r="1" gradientUnits="userSpaceOnUse" gradientTransform="translate(72.482 -13.2269) rotate(134.943) scale(100.362 104.931)">
<stop stop-color="#132341"/>
<stop offset="0.716111" stop-color="#25D7FF"/>
<stop offset="1" stop-color="#AAFFBE"/>
</radialGradient>
<radialGradient id="paint1_radial_104_159" cx="0" cy="0" r="1" gradientUnits="userSpaceOnUse" gradientTransform="translate(62.1628 37.1932) rotate(133.07) scale(28.8203 30.0641)">
<stop stop-color="#132341"/>
<stop offset="0.716111" stop-color="#25D7FF"/>
<stop offset="1" stop-color="#AAFFBE"/>
</radialGradient>
<radialGradient id="paint2_radial_104_159" cx="0" cy="0" r="1" gradientUnits="userSpaceOnUse" gradientTransform="translate(43.7026 27.4688) rotate(140.911) scale(12.6245 12.9193)">
<stop stop-color="#132341"/>
<stop offset="0.716111" stop-color="#25D7FF"/>
<stop offset="1" stop-color="#AAFFBE"/>
</radialGradient>
<radialGradient id="paint3_radial_104_159" cx="0" cy="0" r="1" gradientUnits="userSpaceOnUse" gradientTransform="translate(43.7178 34.2448) rotate(140.864) scale(12.6177 12.9167)">
<stop stop-color="#132341"/>
<stop offset="0.716111" stop-color="#25D7FF"/>
<stop offset="1" stop-color="#AAFFBE"/>
</radialGradient>
<radialGradient id="paint4_radial_104_159" cx="0" cy="0" r="1" gradientUnits="userSpaceOnUse" gradientTransform="translate(43.8027 40.9684) rotate(141.112) scale(12.7585 13.0369)">
<stop stop-color="#132341"/>
<stop offset="0.716111" stop-color="#25D7FF"/>
<stop offset="1" stop-color="#AAFFBE"/>
</radialGradient>
<radialGradient id="paint5_radial_104_159" cx="0" cy="0" r="1" gradientUnits="userSpaceOnUse" gradientTransform="translate(52.6846 30.2542) rotate(166.134) scale(9.62704 4.6837)">
<stop stop-color="#132341"/>
<stop offset="0.716111" stop-color="#25D7FF"/>
<stop offset="1" stop-color="#AAFFBE"/>
</radialGradient>
<radialGradient id="paint6_radial_104_159" cx="0" cy="0" r="1" gradientUnits="userSpaceOnUse" gradientTransform="translate(52.6756 36.0754) rotate(166.303) scale(9.63078 4.63281)">
<stop stop-color="#132341"/>
<stop offset="0.716111" stop-color="#25D7FF"/>
<stop offset="1" stop-color="#AAFFBE"/>
</radialGradient>
<radialGradient id="paint7_radial_104_159" cx="0" cy="0" r="1" gradientUnits="userSpaceOnUse" gradientTransform="translate(22.6487 28.6117) rotate(143.123) scale(17.7388 17.8058)">
<stop stop-color="#132341"/>
<stop offset="0.716111" stop-color="#25D7FF"/>
<stop offset="1" stop-color="#AAFFBE"/>
</radialGradient>
</defs>
</svg>
