<svg width="59" height="59" viewBox="0 0 59 59" fill="none" xmlns="http://www.w3.org/2000/svg">
<path d="M14.7824 4.45632C14.7834 4.45684 14.7847 4.45607 14.7847 4.45491C14.7846 3.70363 14.773 3.05707 14.7873 2.41051C14.8146 1.20413 15.7228 0.302596 16.8818 0.315568C18.0096 0.32854 18.8997 1.22229 18.9296 2.39624C18.958 3.51496 19.8394 4.42243 20.9585 4.42243H37.8485C38.8615 4.42243 39.6785 3.60122 39.6827 2.58822C39.6905 1.25732 40.5299 0.32854 41.7318 0.315568C42.9571 0.302596 43.8225 1.24564 43.8302 2.60638C43.8328 2.98104 43.832 3.35516 43.8312 3.75706C43.8304 4.14313 44.1432 4.45616 44.5293 4.45616C46.9929 4.45616 49.4564 4.45097 51.9213 4.45745C55.653 4.46783 58.3504 7.13742 58.3517 10.859C58.3595 24.539 58.3582 38.2178 58.3517 51.8978C58.3504 55.6207 55.6582 58.3097 51.9343 58.311C36.8489 58.3175 21.7635 58.3162 6.67675 58.311C2.95542 58.3097 0.260581 55.6155 0.259282 51.8952C0.254084 38.2152 0.252785 24.5364 0.259282 10.8564C0.260581 7.1452 2.96192 4.46913 6.69234 4.45745C9.13511 4.44967 11.5766 4.45616 14.0194 4.45616C14.2518 4.45616 14.483 4.45616 14.7817 4.45616C14.7819 4.45616 14.7822 4.45621 14.7824 4.45632ZM5.12024 21.0522C4.72765 21.0522 4.40939 21.3705 4.40939 21.7631C4.40939 31.7526 4.40939 41.7409 4.40939 51.7305C4.40939 53.396 5.1942 54.1717 6.87815 54.1717C21.8323 54.1717 36.7878 54.1717 51.742 54.1717C53.4272 54.1717 54.2055 53.3986 54.2055 51.7253C54.2055 41.7357 54.2055 31.7475 54.2055 21.7579C54.2055 21.3682 53.8896 21.0522 53.4999 21.0522H5.12024ZM54.2075 16.8617C54.2072 16.8619 54.2068 16.8618 54.2068 16.8614C54.2068 14.7902 54.2146 12.7876 54.2042 10.7838C54.1964 9.46455 53.3272 8.60323 51.9992 8.60193C36.8723 8.59804 21.7453 8.59804 6.61828 8.60193C5.25527 8.60193 4.41719 9.46326 4.41199 10.8448C4.40549 12.679 4.40939 14.5119 4.41199 16.3461C4.41199 16.6376 4.67469 16.8611 4.96621 16.8611H54.2072C54.2075 16.8611 54.2077 16.8615 54.2075 16.8617Z" fill="url(#paint0_radial_104_153)"/>
<path d="M25.247 38.9406C25.2468 38.9405 25.2468 38.9402 25.247 38.94C26.8814 37.5431 28.469 36.1863 30.0567 34.8283C32.7775 32.4999 35.4971 30.1689 38.2205 27.8443C39.234 26.9791 40.493 27.0051 41.2831 27.8936C42.0873 28.799 41.9561 30.0923 40.9283 30.9744C36.1623 35.0618 31.3924 39.144 26.6147 43.2172C25.5934 44.0876 24.5176 44.0279 23.5574 43.0745C21.5668 41.0989 19.5814 39.1168 17.6025 37.1295C16.6669 36.1904 16.6371 34.9334 17.5076 34.0824C18.3535 33.2548 19.6048 33.2886 20.5182 34.1953C22.0925 35.7579 23.6512 37.336 25.2475 38.94C25.2478 38.9403 25.2474 38.9408 25.247 38.9406Z" fill="url(#paint1_radial_104_153)"/>
<defs>
<radialGradient id="paint0_radial_104_153" cx="0" cy="0" r="1" gradientUnits="userSpaceOnUse" gradientTransform="translate(72.1683 -13.6683) rotate(134.905) scale(100.296 104.861)">
<stop stop-color="#132341"/>
<stop offset="0.716111" stop-color="#25D7FF"/>
<stop offset="1" stop-color="#AAFFBE"/>
</radialGradient>
<radialGradient id="paint1_radial_104_153" cx="0" cy="0" r="1" gradientUnits="userSpaceOnUse" gradientTransform="translate(47.7303 23.2037) rotate(146.172) scale(36.5669 35.3612)">
<stop stop-color="#132341"/>
<stop offset="0.716111" stop-color="#25D7FF"/>
<stop offset="1" stop-color="#AAFFBE"/>
</radialGradient>
</defs>
</svg>
