<svg width="512" height="446" viewBox="0 0 512 446" fill="none" xmlns="http://www.w3.org/2000/svg">
<path fill-rule="evenodd" clip-rule="evenodd" d="M34.67 0H477.33C496.42 0 512 15.58 512 34.67V411.24C512 430.28 496.42 445.91 477.33 445.91H34.67C15.59 445.91 0 430.32 0 411.24V34.67C0 15.58 15.59 0 34.67 0ZM69.64 115.76H442.36C451.79 115.76 459.49 123.5 459.49 132.89V314.91C459.49 324.3 451.74 332.04 442.36 332.04H69.64C60.25 332.04 52.5 324.32 52.5 314.91V132.89C52.5 123.48 60.21 115.76 69.64 115.76ZM255.99 143.22C300.55 143.22 336.67 179.34 336.67 223.9C336.67 268.46 300.55 304.58 255.99 304.58C211.44 304.58 175.32 268.46 175.32 223.9C175.32 179.34 211.44 143.22 255.99 143.22ZM251.46 179.56V158.71C244.3 165.08 237.47 172.01 231.55 179.56H251.46ZM318.29 259.13C323.64 249.53 326.78 239.43 327.38 228.4H307.64C307.09 239.29 303.75 249.58 298.54 259.12L318.29 259.13ZM312.29 268.24H292.91C286.18 277.92 277.76 286.54 268.89 294.27C286.1 291.12 301.39 281.93 312.29 268.24ZM243.14 294.25C234.26 286.56 225.86 277.89 219.13 268.24H199.8C210.83 282.1 225.98 291.08 243.14 294.25ZM193.7 259.17H213.45C208.27 249.67 204.89 239.3 204.35 228.44H184.62C185.3 239.63 188.29 249.42 193.7 259.17ZM184.6 219.37H204.54C205.5 208.46 209.24 198.15 214.57 188.64H193.7C188.33 198.28 185.2 208.41 184.6 219.37ZM199.71 179.56H220.32C227.06 169.96 235.21 161.27 243.85 153.37C226.26 156.43 210.85 165.62 199.71 179.56ZM268.21 153.43C276.86 161.31 284.98 169.96 291.67 179.56H312.24C301.19 165.72 285.69 156.43 268.21 153.43ZM318.28 188.64H297.42C302.74 198.12 306.49 208.49 307.45 219.37H327.37C326.63 208.2 323.77 198.36 318.28 188.64ZM260.53 158.71V179.56H280.44C274.52 172.01 267.7 165.08 260.53 158.71ZM260.53 188.64V219.37H298.36C297.21 208.31 292.79 197.96 286.87 188.64H260.53ZM260.53 228.44V259.17H288.06C293.93 249.79 297.89 239.56 298.56 228.44H260.53ZM260.53 268.24V289.48C268.16 283.05 275.39 276.05 281.61 268.24H260.53ZM251.46 289.48V268.24H230.37C236.55 276.05 243.83 283.09 251.46 289.48ZM251.46 259.17V228.44H213.43C214.11 239.56 218.08 249.77 223.93 259.17H251.46ZM251.46 219.37V188.64H225.11C219.19 197.96 214.78 208.31 213.63 219.37H251.46ZM491.54 83.75H22.04V414.62C22.0334 415.88 22.2766 417.129 22.7557 418.294C23.2348 419.459 23.9402 420.518 24.8311 421.409C25.722 422.3 26.7808 423.005 27.9461 423.484C29.1114 423.963 30.3601 424.207 31.62 424.2H481.79C487.12 424.2 491.38 419.91 491.38 414.61V83.75H491.54ZM444.33 30.08C453.79 30.08 461.46 37.75 461.46 47.21C461.46 56.67 453.79 64.33 444.33 64.33C434.88 64.33 427.21 56.67 427.21 47.21C427.21 37.75 434.92 30.08 444.33 30.08ZM328.33 30.08C337.79 30.08 345.46 37.75 345.46 47.21C345.46 56.67 337.79 64.33 328.33 64.33C318.87 64.33 311.21 56.67 311.21 47.21C311.21 37.75 318.87 30.08 328.33 30.08ZM386.33 30.08C395.79 30.08 403.46 37.75 403.46 47.21C403.46 56.67 395.79 64.33 386.33 64.33C376.88 64.33 369.21 56.67 369.21 47.21C369.21 37.75 376.88 30.08 386.33 30.08ZM278.63 390.94C271.21 390.94 265.21 384.4 265.21 376.36C265.21 368.28 271.21 361.78 278.63 361.78H443.83C451.25 361.78 457.25 368.32 457.25 376.36C457.25 384.4 451.25 390.94 443.83 390.94H278.63ZM62.33 390.94C55 390.94 49.04 384.4 49.04 376.36C49.04 368.28 55 361.78 62.33 361.78H215.5C222.83 361.78 228.79 368.32 228.79 376.36C228.79 384.4 222.83 390.94 215.5 390.94H62.33Z" fill="#BEBEBE"/>
</svg>
