<svg width="1034" height="50" viewBox="0 0 1034 50" fill="none" xmlns="http://www.w3.org/2000/svg">
<path d="M0.666667 44C0.666667 46.9455 3.05448 49.3333 6 49.3333C8.94552 49.3333 11.3333 46.9455 11.3333 44C11.3333 41.0545 8.94552 38.6667 6 38.6667C3.05448 38.6667 0.666667 41.0545 0.666667 44ZM1034 4L1023.08 0.242475L1025.29 11.577L1034 4ZM1030.98 4.58698L1030.79 3.60538L1030.98 4.58698ZM9.01704 43.413L8.82607 42.4314L9.01704 43.413ZM6.19097 44.9816L6.94523 44.8349L6.56329 42.8717L5.80903 43.0184L6.19097 44.9816ZM8.45375 44.5414L9.20801 44.3946L8.82607 42.4314L8.07181 42.5782L8.45375 44.5414ZM9.20801 44.3946C10.3425 44.1739 11.4772 43.9544 12.6121 43.736L12.2343 41.772C11.098 41.9906 9.96195 42.2104 8.82607 42.4314L9.20801 44.3946ZM19.4236 42.4403C21.6949 42.0131 23.967 41.5907 26.2397 41.173L25.8783 39.206C23.6028 39.6241 21.328 40.047 19.0539 40.4747L19.4236 42.4403ZM33.0621 39.934C35.3369 39.5258 37.6123 39.1223 39.8885 38.7237L39.5434 36.7537C37.2645 37.1528 34.9863 37.5568 32.7088 37.9655L33.0621 39.934ZM46.7209 37.5416C48.9991 37.1523 51.278 36.7678 53.5575 36.3881L53.2288 34.4152C50.9466 34.7954 48.665 35.1804 46.384 35.5701L46.7209 37.5416ZM60.3991 35.263C62.6805 34.8927 64.9626 34.5272 67.2453 34.1665L66.9332 32.191C64.6477 32.5522 62.3629 32.9181 60.0787 33.2888L60.3991 35.263ZM74.0957 33.0985C76.3803 32.7473 78.6654 32.4008 80.9511 32.0591L80.6554 30.0811C78.367 30.4232 76.0791 30.7701 73.7918 31.1218L74.0957 33.0985ZM87.81 31.0483C90.0974 30.7161 92.3854 30.3886 94.6739 30.066L94.3947 28.0856C92.1034 28.4086 89.8127 28.7364 87.5226 29.0691L87.81 31.0483ZM101.541 29.1123C103.831 28.7992 106.122 28.4909 108.413 28.1873L108.15 26.2046C105.856 26.5086 103.563 26.8173 101.27 27.1308L101.541 29.1123ZM115.288 27.2909C117.58 26.9969 119.873 26.7077 122.167 26.4232L121.921 24.4384C119.624 24.7232 117.329 25.0128 115.034 25.3072L115.288 27.2909ZM129.05 25.5841C131.344 25.3092 133.639 25.0391 135.935 24.7738L135.705 22.787C133.407 23.0527 131.109 23.3231 128.812 23.5983L129.05 25.5841ZM142.825 23.9921C145.122 23.7363 147.419 23.4854 149.717 23.2392L149.504 21.2506C147.203 21.497 144.903 21.7483 142.603 22.0044L142.825 23.9921ZM156.612 22.5149C158.912 22.2783 161.211 22.0465 163.511 21.8195L163.314 19.8291C161.012 20.0564 158.71 20.2885 156.408 20.5255L156.612 22.5149ZM170.412 21.1527C172.713 20.9353 175.014 20.7226 177.316 20.5148L177.136 18.5229C174.832 18.731 172.528 18.9439 170.224 19.1616L170.412 21.1527ZM184.223 19.9056C186.525 19.7073 188.828 19.5138 191.132 19.3252L190.969 17.3318C188.662 17.5207 186.357 17.7144 184.051 17.913L184.223 19.9056ZM198.043 18.7736C200.347 18.5945 202.652 18.4202 204.957 18.2507L204.81 16.2561C202.503 16.4258 200.195 16.6003 197.888 16.7796L198.043 18.7736ZM211.873 17.7567C214.178 17.5969 216.484 17.4418 218.791 17.2916L218.66 15.2958C216.352 15.4462 214.043 15.6015 211.734 15.7615L211.873 17.7567ZM225.71 16.8552C228.017 16.7146 230.324 16.5787 232.632 16.4477L232.518 14.4509C230.208 14.5821 227.898 14.7181 225.589 14.8589L225.71 16.8552ZM239.555 16.0691C241.863 15.9476 244.171 15.831 246.479 15.7192L246.383 13.7216C244.071 13.8335 241.76 13.9503 239.45 14.0718L239.555 16.0691ZM253.405 15.3983C255.714 15.2961 258.023 15.1988 260.333 15.1062L260.252 13.1078C257.94 13.2005 255.629 13.2979 253.317 13.4002L253.405 15.3983ZM267.261 14.843C269.571 14.76 271.88 14.6819 274.19 14.6086L274.127 12.6096C271.814 12.683 269.502 12.7612 267.189 12.8443L267.261 14.843ZM281.121 14.4032C283.431 14.3395 285.741 14.2806 288.052 14.2266L288.005 12.2271C285.692 12.2812 283.379 12.3402 281.066 12.4039L281.121 14.4032ZM294.984 14.0789C297.295 14.0344 299.605 13.9948 301.916 13.96L301.886 11.9603C299.572 11.9951 297.259 12.0347 294.945 12.0792L294.984 14.0789ZM308.849 13.8701C311.16 13.8449 313.471 13.8246 315.782 13.8091L315.769 11.8091C313.455 11.8246 311.141 11.845 308.827 11.8702L308.849 13.8701ZM322.716 13.7769C325.027 13.771 327.338 13.7699 329.649 13.7736L329.652 11.7736C327.338 11.7699 325.024 11.771 322.711 11.7769L322.716 13.7769ZM336.582 13.7993C338.894 13.8126 341.205 13.8308 343.516 13.8538L343.536 11.8539C341.222 11.8309 338.908 11.8127 336.594 11.7993L336.582 13.7993ZM350.449 13.9372C352.759 13.9698 355.07 14.0072 357.381 14.0495L357.418 12.0498C355.104 12.0075 352.79 11.97 350.477 11.9374L350.449 13.9372ZM364.313 14.1907C366.624 14.2426 368.934 14.2992 371.244 14.3607L371.298 12.3615C368.984 12.2999 366.671 12.2431 364.358 12.1912L364.313 14.1907ZM378.175 14.5597C380.485 14.6308 382.795 14.7068 385.105 14.7875L385.175 12.7887C382.862 12.7079 380.549 12.6319 378.237 12.5606L378.175 14.5597ZM392.034 15.0442C394.343 15.1346 396.652 15.2298 398.961 15.3298L399.047 13.3317C396.736 13.2316 394.424 13.1362 392.112 13.0458L392.034 15.0442ZM405.887 15.6442C408.196 15.7539 410.504 15.8683 412.812 15.9875L412.915 13.9902C410.604 13.8708 408.293 13.7562 405.982 13.6465L405.887 15.6442ZM419.736 16.3597C422.043 16.4885 424.35 16.6222 426.658 16.7607L426.777 14.7643C424.467 14.6256 422.157 14.4918 419.847 14.3628L419.736 16.3597ZM433.577 17.1905C435.884 17.3386 438.19 17.4915 440.496 17.6492L440.633 15.6539C438.324 15.496 436.015 15.3429 433.706 15.1946L433.577 17.1905ZM447.412 18.1367C449.717 18.304 452.022 18.4761 454.326 18.653L454.48 16.6589C452.172 16.4817 449.865 16.3094 447.557 16.1419L447.412 18.1367ZM461.238 19.1981C463.542 19.3846 465.845 19.5759 468.148 19.772L468.318 17.7792C466.012 17.5829 463.706 17.3913 461.399 17.2046L461.238 19.1981ZM475.055 20.3747C477.357 20.5804 479.658 20.7909 481.959 21.0062L482.146 19.0149C479.842 18.7993 477.538 18.5886 475.233 18.3827L475.055 20.3747ZM488.862 21.6665C491.162 21.8913 493.461 22.121 495.76 22.3554L495.963 20.3658C493.661 20.131 491.359 19.9011 489.056 19.676L488.862 21.6665ZM502.657 23.0732C504.955 23.3172 507.253 23.566 509.55 23.8197L509.769 21.8317C507.469 21.5778 505.169 21.3287 502.868 21.0844L502.657 23.0732ZM516.44 24.5949C517.588 24.7265 518.736 24.8593 519.884 24.9933L520.116 23.0067C518.967 22.8726 517.817 22.7396 516.668 22.6079L516.44 24.5949ZM519.884 24.9933C521.033 25.1274 522.183 25.2604 523.332 25.3922L523.56 23.4052C522.412 23.2736 521.264 23.1408 520.116 23.0067L519.884 24.9933ZM530.231 26.1683C532.531 26.4222 534.831 26.6713 537.132 26.9156L537.343 24.9268C535.045 24.6828 532.748 24.434 530.45 24.1804L530.231 26.1683ZM544.037 27.6343C546.339 27.869 548.641 28.0989 550.944 28.324L551.138 26.3335C548.838 26.1087 546.539 25.879 544.24 25.6446L544.037 27.6343ZM557.854 28.9851C560.158 29.2007 562.463 29.4114 564.767 29.6173L564.945 27.6253C562.643 27.4196 560.342 27.2091 558.041 26.9938L557.854 28.9851ZM571.683 30.2208C573.988 30.4171 576.294 30.6087 578.601 30.7954L578.762 28.8019C576.458 28.6154 574.155 28.4241 571.852 28.228L571.683 30.2208ZM585.521 31.3411C587.828 31.5183 590.136 31.6906 592.443 31.8581L592.588 29.8633C590.283 29.696 587.978 29.5239 585.674 29.347L585.521 31.3411ZM599.368 32.3461C601.676 32.504 603.985 32.6571 606.294 32.8054L606.423 30.8095C604.116 30.6614 601.81 30.5085 599.504 30.3508L599.368 32.3461ZM613.223 33.2357C615.533 33.3744 617.843 33.5082 620.153 33.6372L620.264 31.6403C617.957 31.5115 615.65 31.3778 613.343 31.2393L613.223 33.2357ZM627.085 34.0098C629.396 34.1292 631.707 34.2438 634.018 34.3535L634.113 32.3558C631.804 32.2461 629.496 32.1317 627.188 32.0125L627.085 34.0098ZM640.953 34.6683C643.264 34.7685 645.576 34.8638 647.888 34.9542L647.966 32.9558C645.657 32.8654 643.348 32.7702 641.039 32.6702L640.953 34.6683ZM654.826 35.2113C657.138 35.2921 659.451 35.3681 661.763 35.4394L661.825 33.4403C659.515 33.3692 657.205 33.2932 654.895 33.2125L654.826 35.2113ZM668.702 35.6385C671.016 35.7001 673.329 35.7569 675.642 35.8088L675.687 33.8093C673.376 33.7575 671.066 33.7008 668.756 33.6393L668.702 35.6385ZM682.582 35.9502C684.896 35.9925 687.21 36.03 689.523 36.0626L689.551 34.0628C687.241 34.0302 684.93 33.9928 682.619 33.9505L682.582 35.9502ZM696.464 36.1461C698.778 36.1691 701.092 36.1873 703.406 36.2007L703.418 34.2007C701.106 34.1874 698.795 34.1692 696.484 34.1462L696.464 36.1461ZM710.348 36.2264C712.662 36.2301 714.976 36.229 717.289 36.2231L717.284 34.2231C714.973 34.229 712.662 34.2301 710.351 34.2264L710.348 36.2264ZM724.231 36.1909C726.545 36.1754 728.859 36.155 731.172 36.1298L731.151 34.1299C728.84 34.1551 726.529 34.1754 724.218 34.1909L724.231 36.1909ZM738.114 36.0397C740.427 36.0049 742.741 35.9653 745.054 35.9208L745.016 33.9212C742.705 33.9656 740.394 34.0052 738.084 34.04L738.114 36.0397ZM751.995 35.7729C754.308 35.7188 756.621 35.6598 758.934 35.5961L758.879 33.5968C756.569 33.6605 754.258 33.7194 751.948 33.7734L751.995 35.7729ZM765.873 35.3904C768.186 35.317 770.498 35.2388 772.811 35.1557L772.739 33.157C770.429 33.24 768.119 33.3181 765.809 33.3914L765.873 35.3904ZM779.747 34.8922C782.059 34.7995 784.371 34.7021 786.683 34.5998L786.595 32.6017C784.286 32.7039 781.977 32.8013 779.667 32.8938L779.747 34.8922ZM793.617 34.2784C795.928 34.1665 798.239 34.0498 800.55 33.9282L800.445 31.931C798.137 32.0524 795.829 32.169 793.521 32.2808L793.617 34.2784ZM807.482 33.5491C809.792 33.4179 812.102 33.2819 814.411 33.1411L814.29 31.1448C811.983 31.2854 809.676 31.4213 807.368 31.5523L807.482 33.5491ZM821.339 32.7042C823.648 32.5538 825.957 32.3985 828.266 32.2385L828.127 30.2433C825.821 30.4031 823.516 30.5582 821.209 30.7084L821.339 32.7042ZM835.19 31.7439C837.497 31.5742 839.805 31.3997 842.112 31.2204L841.957 29.2265C839.652 29.4055 837.348 29.5798 835.043 29.7493L835.19 31.7439ZM849.031 30.6682C851.338 30.4793 853.643 30.2856 855.949 30.0871L855.777 28.0944C853.475 28.2927 851.172 28.4862 848.868 28.6749L849.031 30.6682ZM862.864 29.4771C865.168 29.269 867.472 29.0561 869.776 28.8384L869.588 26.8473C867.287 27.0647 864.986 27.2774 862.684 27.4852L862.864 29.4771ZM876.686 28.1709C878.988 27.9436 881.29 27.7115 883.592 27.4745L883.388 25.4851C881.089 25.7217 878.789 25.9535 876.489 26.1805L876.686 28.1709ZM890.496 26.7494C892.797 26.503 895.097 26.2517 897.397 25.9956L897.175 24.0079C894.878 24.2637 892.581 24.5146 890.283 24.7608L890.496 26.7494ZM904.295 25.213C906.593 24.9473 908.891 24.6769 911.188 24.4017L910.951 22.4159C908.656 22.6908 906.361 22.9609 904.065 23.2262L904.295 25.213ZM918.079 23.5616C920.376 23.2768 922.671 22.9872 924.966 22.6928L924.712 20.7091C922.42 21.0031 920.127 21.2923 917.833 21.5768L918.079 23.5616ZM931.85 21.7954C934.144 21.4914 936.437 21.1827 938.73 20.8692L938.459 18.8876C936.169 19.2008 933.878 19.5091 931.587 19.8127L931.85 21.7954ZM945.605 19.9144C947.897 19.5914 950.187 19.2636 952.478 18.9309L952.19 16.9517C949.903 17.2839 947.615 17.6114 945.326 17.934L945.605 19.9144ZM959.345 17.9189C961.633 17.5768 963.921 17.2299 966.208 16.8782L965.904 14.9014C963.62 15.2527 961.335 15.5992 959.049 15.9409L959.345 17.9189ZM973.067 15.809C975.352 15.4478 977.637 15.0819 979.921 14.7111L979.601 12.737C977.32 13.1073 975.037 13.4728 972.755 13.8335L973.067 15.809ZM986.771 13.5847C989.054 13.2046 991.335 12.8196 993.616 12.4298L993.279 10.4584C991.001 10.8477 988.722 11.2322 986.443 11.6119L986.771 13.5847ZM1000.46 11.2463C1002.74 10.8472 1005.01 10.4432 1007.29 10.0345L1006.94 8.06594C1004.66 8.47417 1002.39 8.87763 1000.11 9.27632L1000.46 11.2463ZM1014.12 8.794C1016.4 8.37585 1018.67 7.95293 1020.95 7.52524L1020.58 5.5597C1018.31 5.98688 1016.03 6.40929 1013.76 6.82694L1014.12 8.794ZM1027.77 6.22792C1028.9 6.00933 1030.04 5.78955 1031.17 5.56857L1030.79 3.60538C1029.66 3.82609 1028.52 4.04561 1027.39 4.26394L1027.77 6.22792ZM1031.17 5.56857L1031.93 5.42183L1031.55 3.45864L1030.79 3.60538L1031.17 5.56857Z" fill="#202125"/>
</svg>
